<?xml version="1.0" encoding="UTF-8"?>
<svg id="Layer_1" data-name="Layer 1" xmlns="http://www.w3.org/2000/svg" xmlns:xlink="http://www.w3.org/1999/xlink" viewBox="0 0 173.7045 237.4209">
  <defs>
    <style>
      .cls-1 {
        fill: none;
      }

      .cls-2 {
        fill: blue;
      }

      .cls-3 {
        fill: #3fa9f5;
      }

      .cls-4 {
        fill: #fff;
      }

      .cls-5 {
        fill: url(#New_Pattern);
      }
    </style>
    <pattern id="New_Pattern" data-name="New Pattern" x="0" y="0" width="10" height="10" patternTransform="translate(-873.7067 -842.2743)" patternUnits="userSpaceOnUse" viewBox="0 0 10 10">
      <g>
        <rect class="cls-1" width="10" height="10"/>
        <rect class="cls-4" width="10" height="10"/>
        <circle class="cls-2" cx="5.0001" cy="4.9999" r="2.053"/>
      </g>
    </pattern>
  </defs>
  <path class="cls-5" d="M32.165,10.4774C22.6272,53.2152,15.2152,96.4399,9.9665,139.9326c15.6812.6083,31.3623,1.2167,47.0435,1.825,3.218-34.2854,11.4407-68.0844,24.3179-99.9578,12.668,26.524,25.336,53.0479,38.004,79.5719,1.2359,2.5876,2.5915,5.3133,5.0069,6.8215,2.7159,1.6959,6.1458,1.4744,9.3243,1.1964,11.4519-1.0014,22.9038-2.0027,34.3556-3.0041-15.3858-39.9855-30.7716-79.971-46.1574-119.9565-.566-1.471-1.2147-3.0451-2.5455-3.8664-1.2954-.7995-2.9245-.6914-4.4354-.5572-27.8243,2.4705-55.6487,4.941-83.473,7.4115"/>
  <path class="cls-3" d="M30.0229,9.8869c-3.7341,16.7469-7.1476,33.5647-10.2293,50.4439-3.0822,16.882-5.8355,33.8241-8.2579,50.8134-1.3663,9.5823-2.6292,19.1793-3.7907,28.7885-.1481,1.2254,1.1391,2.1795,2.2214,2.2214,15.6812.6083,31.3623,1.2167,47.0435,1.825,1.2811.0497,2.112-1.0634,2.2214-2.2214,2.5139-26.5939,8.0659-52.8915,16.4781-78.2446,2.3628-7.1211,4.9545-14.1643,7.7604-21.1226l-4.0603.5307c8.2306,17.2331,16.4612,34.4662,24.6919,51.6992,4.1153,8.6165,8.2306,17.2331,12.3459,25.8496,1.7132,3.587,3.3549,7.6341,6.9492,9.7467,3.7108,2.1811,8.1789,1.577,12.258,1.2203,10.788-.9433,21.576-1.8866,32.364-2.8299,1.2936-.1131,2.7047-1.3498,2.1421-2.812-10.615-27.5869-21.23-55.1738-31.845-82.7607-2.6239-6.8192-5.2479-13.6385-7.8718-20.4577-1.312-3.4096-2.6239-6.8192-3.9359-10.2288-.656-1.7048-1.312-3.4096-1.968-5.1144-.5683-1.4771-1.0588-3.0821-1.9398-4.4083-2.091-3.1477-5.278-3.2579-8.7136-2.9529-3.6437.3235-7.2873.647-10.931.9706-7.2873.647-14.5747,1.2941-21.862,1.9411-16.5621,1.4705-33.1242,2.9411-49.6863,4.4116-1.1951.1061-2.2214.945-2.2214,2.2214,0,1.1194,1.0195,2.3282,2.2214,2.2214,14.409-1.2794,28.8181-2.5587,43.2271-3.8381,7.2045-.6397,14.409-1.2794,21.6136-1.9191,3.5609-.3162,7.1217-.6323,10.6826-.9485,1.8218-.1618,3.6437-.3235,5.4655-.4853,1.5363-.1364,3.26-.4976,4.8054-.2972,1.1934.1547,1.7098,1.0168,2.1783,2.0379.7097,1.5467,1.2492,3.1958,1.8602,4.7836,1.2821,3.3321,2.5643,6.6642,3.8464,9.9964,2.6239,6.8192,5.2479,13.6385,7.8718,20.4577,5.1286,13.3285,10.2572,26.657,15.3858,39.9855,5.8442,15.1883,11.6884,30.3766,17.5326,45.5649l2.1421-2.812c-9.2943.8127-18.5886,1.6254-27.8828,2.4381-2.2962.2008-4.5917.411-6.8887.6018-1.8602.1545-3.8298.3387-5.6669-.0848-3.7797-.8712-5.245-4.5966-6.7596-7.7678-8.0159-16.7835-16.0318-33.567-24.0477-50.3506-4.509-9.4407-9.0179-18.8815-13.5269-28.3222-.9173-1.9207-3.4227-1.0503-4.0603.5307-10.0615,24.9519-17.2921,51.027-21.5005,77.6008-1.2061,7.6162-2.1711,15.2707-2.8967,22.9475l2.2214-2.2214c-15.6812-.6083-31.3623-1.2167-47.0435-1.825l2.2214,2.2214c2.0356-16.8417,4.3967-33.6429,7.0837-50.393,2.6921-16.7818,5.7082-33.5116,9.0456-50.1771,1.8931-9.4531,3.8916-18.8848,5.9897-28.2945.6211-2.7855-3.6612-3.975-4.2842-1.1811h0Z"/>
</svg>