<?xml version="1.0" encoding="UTF-8"?>
<svg id="Layer_1" data-name="Layer 1" xmlns="http://www.w3.org/2000/svg" xmlns:xlink="http://www.w3.org/1999/xlink" viewBox="0 0 173.7045 237.4209">
  <defs>
    <style>
      .cls-1 {
        fill: none;
      }

      .cls-2 {
        fill: blue;
      }

      .cls-3 {
        fill: #3fa9f5;
      }

      .cls-4 {
        fill: #fff;
      }

      .cls-5 {
        fill: url(#New_Pattern);
      }
    </style>
    <pattern id="New_Pattern" data-name="New Pattern" x="0" y="0" width="10" height="10" patternTransform="translate(-316.1168 -842.2743)" patternUnits="userSpaceOnUse" viewBox="0 0 10 10">
      <g>
        <rect class="cls-1" width="10" height="10"/>
        <rect class="cls-4" width="10" height="10"/>
        <circle class="cls-2" cx="5.0001" cy="4.9999" r="2.053"/>
      </g>
    </pattern>
  </defs>
  <path class="cls-5" d="M59.8084,7.3468c15.6913-.262,31.3825-.524,47.0738-.786,2.0331-.0339,4.1542-.0491,5.9857.855,2.2175,1.0947,3.6221,3.3353,4.9102,5.4658,15.5299,25.6864,31.0598,51.3729,46.5897,77.0593-17.2963-1.406-35.5871-2.6308-51.0739,5.1906-10.202,5.1524-21.1366,14.2604-31.5234,9.3868-4.2755-2.0061-7.2658-6.0816-11.3192-8.5174-9.7432-5.8548-22.0322-.8335-32.1834,4.1482-10.1512,4.9817-22.5941,9.8025-32.1612,3.6557-.5096-.3274-1.0247-.7096-1.2722-1.2665-.4905-1.1036.2453-2.3337.9448-3.3084C26.4094,70.4834,44.0181,39.5098,58.2154,6.9947"/>
  <path class="cls-3" d="M59.8084,9.5683c9.8277-.1641,19.6554-.3282,29.483-.4923l14.6176-.2441c2.1833-.0365,4.5903-.3417,6.7362.1552,1.8888.4374,3.118,1.7723,4.1607,3.3338,2.6631,3.9878,5.008,8.2221,7.4888,12.3255,2.5311,4.1865,5.0622,8.3729,7.5934,12.5594,5.1051,8.4439,10.2103,16.8878,15.3154,25.3317,5.7486,9.5082,11.4973,19.0165,17.2459,28.5247l1.9182-3.3427c-18.069-1.4663-37.0991-2.5846-53.6233,6.2367-3.9285,2.0972-7.6933,4.492-11.6748,6.4913-3.4267,1.7207-7.1895,3.2611-11.0853,3.2391-4.1645-.0235-7.3659-2.1826-10.386-4.8367-3.2282-2.8369-6.4119-5.516-10.6038-6.7865-8.6183-2.612-17.8149.6525-25.6586,4.1869-7.7066,3.4726-15.4316,7.9714-24.1138,8.2143-2.0016.056-3.9696-.1346-5.8956-.6961-.877-.2557-1.7222-.5746-2.5369-.9879-.4751-.2411-.9397-.5023-1.3904-.7866-.157-.0991-.331-.1945-.4757-.3114-.1912-.1544-.1021.181.0148-.0667.9347-1.9793,2.5478-3.7654,3.8045-5.556,1.3584-1.9354,2.7031-3.8804,4.0339-5.8348,5.4547-8.0105,10.6774-16.179,15.6607-24.491,9.8991-16.5115,18.8534-33.5895,26.8048-51.1222.979-2.1586,1.9418-4.3244,2.8912-6.4962.4802-1.0984.3229-2.3844-.7969-3.0394-.9415-.5507-2.5563-.3081-3.0394.7969-7.8971,18.0637-16.8347,35.6681-26.7797,52.6909-5.0049,8.5669-10.2625,16.986-15.7641,25.2427-2.7069,4.0625-5.4732,8.0854-8.2978,12.0669-1.3555,1.9107-3.3718,4.0482-2.9228,6.5876.4136,2.3392,2.7349,3.5961,4.723,4.4953,8.2923,3.7505,17.5705,1.4312,25.5881-1.9112,8.1917-3.4149,16.0831-8.478,25.1141-9.3382,4.2505-.4049,8.4281.2538,12.0381,2.6321,3.519,2.3183,6.2015,5.7372,9.952,7.744,8.2811,4.431,17.179.6089,24.6811-3.5665,3.8902-2.1651,7.6697-4.5674,11.736-6.3987,4.1756-1.8805,8.662-3.0909,13.1657-3.8719,9.1789-1.5917,18.6214-1.2502,27.8742-.6159,2.3222.1592,4.6426.3434,6.9625.5317,1.7016.1381,2.7402-1.9829,1.9182-3.3427-10.4677-17.3135-20.9354-34.627-31.403-51.9405-5.1976-8.5969-10.3113-17.2515-15.5982-25.7938-1.1333-1.8311-2.3973-3.5876-4.15-4.8721-1.8285-1.34-4.0496-1.7886-6.2774-1.8698-4.9323-.1797-9.9237.1285-14.8584.2109-11.3968.1903-22.7936.3806-34.1904.5709-2.8559.0477-2.8648,4.4907,0,4.4429h0Z"/>
</svg>