<?xml version="1.0" encoding="UTF-8"?>
<svg id="Layer_1" data-name="Layer 1" xmlns="http://www.w3.org/2000/svg" xmlns:xlink="http://www.w3.org/1999/xlink" viewBox="0 0 173.7045 237.4209">
  <defs>
    <style>
      .cls-1 {
        fill: none;
      }

      .cls-2 {
        fill: blue;
      }

      .cls-3 {
        fill: #3fa9f5;
      }

      .cls-4 {
        fill: #fff;
      }

      .cls-5 {
        fill: url(#New_Pattern);
      }
    </style>
    <pattern id="New_Pattern" data-name="New Pattern" x="0" y="0" width="10" height="10" patternTransform="translate(-499.0764 -842.2743)" patternUnits="userSpaceOnUse" viewBox="0 0 10 10">
      <g>
        <rect class="cls-1" width="10" height="10"/>
        <rect class="cls-4" width="10" height="10"/>
        <circle class="cls-2" cx="5.0001" cy="4.9999" r="2.053"/>
      </g>
    </pattern>
  </defs>
  <g>
    <path class="cls-5" d="M40.5382,82.4266c.211,31.7482-8.1594,63.5122-23.9615,90.929,9.6106,6.2158,20.3242,10.6753,31.4721,13.1001.7067.1537,1.464.2956,2.1346.0225,1.3996-.57,1.5834-2.4638,1.5787-3.9921-.0987-31.9333,15.3023-62.3464,15.2706-94.2799"/>
    <path class="cls-3" d="M38.3168,82.4266c.1311,24.3952-4.7505,48.8486-14.3836,71.2755-2.7285,6.3523-5.8301,12.5384-9.2746,18.5323-.6169,1.0735-.2198,2.3852.7969,3.0394,7.7715,5.0004,16.2564,8.9142,25.1156,11.5514,2.2006.6551,4.4257,1.2393,6.67,1.7249,2.2526.4873,4.6443.3321,5.8927-1.8994.9757-1.7439.8331-3.8128.8574-5.7375.0292-2.3154.1372-4.6297.3138-6.9385,1.4201-18.5595,7.202-36.4073,11.0935-54.5193,2.2069-10.2715,3.8421-20.7207,3.8555-31.2492.0036-2.8589-4.4393-2.8634-4.4429,0-.0225,17.7397-4.7781,34.9281-8.9244,52.0383-2.072,8.5502-4.0016,17.1448-5.1776,25.8704-.5915,4.3886-1.0059,8.7997-1.1292,13.2277-.0292,1.0479-.0299,2.0954-.0394,3.1435-.0033.3646.1173,1.6597-.243,1.9222-.1449.1055-1.188-.2108-1.526-.2877-1.0837-.2467-2.1629-.5124-3.2372-.7971-9.5224-2.5231-18.5551-6.5576-26.8364-11.886l.7969,3.0394c12.5243-21.7941,20.3766-46.1077,23.1633-71.0784.777-6.9627,1.1391-13.9663,1.1015-20.9719-.0154-2.858-4.4583-2.8641-4.4429,0h0Z"/>
  </g>
  <g>
    <path class="cls-5" d="M123.6741,82.4268c-.0116,22.0101-.0232,44.0201-.0348,66.0302-.0055,10.4246.0441,21.1511,3.8985,30.8166,6.7681-.0101,13.5351-.7237,20.1602-2.1261,1.0881-.2303,2.2726-.5441,2.914-1.4639.5735-.8224.5562-1.911.515-2.917-1.2212-29.8014-3.5327-59.557-6.9282-89.185"/>
    <path class="cls-3" d="M121.4527,82.4268c-.0069,13.0737-.0138,26.1473-.0206,39.221-.0035,6.6196-.007,13.2391-.0105,19.8587-.0032,6.1086-.1174,12.2325.1904,18.3357.3432,6.8042,1.2823,13.6484,3.7838,20.022.3618.9219,1.0911,1.6351,2.1421,1.6309,3.869-.0154,7.7334-.2411,11.5751-.7037,1.9574-.2357,3.9101-.5166,5.8519-.858,1.7619-.3097,3.6629-.5333,5.3061-1.2701,3.823-1.7142,3.0804-5.9408,2.93-9.3732-.1741-3.973-.3676-7.9452-.5805-11.9163-.8426-15.7184-1.9886-31.4205-3.4372-47.0947-.8233-8.909-1.7462-17.8085-2.7631-26.6975-.1363-1.1918-.9234-2.2214-2.2214-2.2214-1.095,0-2.3587,1.0216-2.2214,2.2214,1.7137,14.9799,3.1562,29.9903,4.3179,45.0231.5745,7.4342,1.081,14.8736,1.5194,22.317.2241,3.8045.4304,7.61.619,11.4165.1836,3.7073.5626,7.4816.4895,11.1931-.012.6067.0105.8886-.5532,1.1474-.6641.3048-1.498.3791-2.2098.5225-2.017.4062-4.0479.7551-6.0876,1.027-4.1536.5538-8.3456.8075-12.5347.8241l2.1421,1.6309c-4.4135-11.2448-3.8227-23.58-3.8164-35.4389.0068-12.9909.0137-25.9818.0205-38.9727.0038-7.2815.0077-14.5631.0115-21.8446.0015-2.8589-4.4414-2.8635-4.4429,0h0Z"/>
  </g>
  <g>
    <path class="cls-5" d="M46.5115,19.5783c-10.9996,20.7121-20.6261,42.1725-28.7933,64.1887,18.6083,5.5138,37.7134,9.3052,56.9998,11.3115,1.7227.1792,3.5997.3086,5.0475-.654,1.1538-.7671,1.8084-2.0857,2.4114-3.3434,2.7685-5.7739,5.537-11.5479,8.3055-17.3218-.2553,6.2829,4.6935,11.814,10.4371,14.1974,5.7435,2.3834,12.1514,2.3003,18.3569,2.1808,13.5126-.26,27.0253-.5201,40.5379-.7801-4.7086-25.4707-11.1483-50.6128-19.2582-75.1892-.7167-2.172-1.5383-4.4723-3.3433-5.851-1.9295-1.4738-4.5308-1.5558-6.9471-1.5773-16.4069-.146-32.8138-.2919-49.2207-.4379-12.264-.1091-26.5356.7657-33.6081,10.9173"/>
    <path class="cls-3" d="M44.5933,18.4571c-8.6354,16.2781-16.4188,32.9988-23.3374,50.0774-1.9657,4.8523-3.8568,9.7344-5.6799,14.642-.4237,1.1406.4797,2.4159,1.5515,2.7326,11.3801,3.3626,22.9412,6.099,34.6261,8.1693,5.7981,1.0273,11.6253,1.8891,17.4704,2.6012,2.6892.3276,5.6062.96,8.3197.7039,2.7522-.2597,4.7363-1.7441,6.0371-4.1509,1.5826-2.928,2.9083-6.0238,4.3473-9.0249,1.4907-3.109,2.9815-6.2181,4.4722-9.3271l-4.1396-1.1212c-.1125,4.5269,1.9911,8.7656,5.1947,11.8846,3.4908,3.3987,8.043,5.3156,12.8061,6.1061,5.3668.8906,10.8135.6513,16.228.5471,5.85-.1126,11.7-.2252,17.55-.3377,6.5915-.1268,13.1831-.2537,19.7746-.3805,1.5374-.0296,2.4057-1.3893,2.1421-2.812-4.7027-25.3783-11.0914-50.4494-19.1827-74.9602-.8275-2.5069-1.7601-5.1855-3.8441-6.9412-2.2723-1.9142-5.1831-2.2876-8.0562-2.3392-6.6642-.1197-13.3327-.121-19.9977-.1803-6.6291-.059-13.2581-.1179-19.8872-.1769-5.6738-.0505-11.3668-.2389-17.0381.0106-10.5736.4651-21.9331,2.7584-28.4318,11.9185-.6946.9791-.1741,2.4714.7969,3.0394,1.1135.6513,2.3432.1844,3.0394-.7969,5.106-7.1971,14.5326-9.0911,22.7984-9.6213,5.1101-.3277,10.2388-.1838,15.3549-.1383,6.3805.0568,12.7609.1135,19.1414.1703,6.3805.0568,12.7609.1135,19.1414.1703,2.6887.0239,5.6976-.3054,8.3257.3714,2.3606.608,3.3114,2.5919,4.0533,4.7384,4.0176,11.6239,7.3785,23.5218,10.4842,35.4176,3.4946,13.3854,6.4974,26.8967,9.018,40.499l2.1421-2.812c-10.876.2093-21.7521.4186-32.6281.6279-5.224.1005-10.4878.3864-15.7094.1063-4.4645-.2395-9.0226-1.0913-12.7815-3.6415-3.4779-2.3595-6.0986-6.1611-5.9915-10.4694.0526-2.1168-3.1707-3.142-4.1396-1.1212-2.4845,5.1817-4.9691,10.3635-7.4536,15.5452-.8277,1.7262-1.5462,4.5104-3.7663,4.7723-1.1764.1388-2.4142-.0746-3.5824-.1996-1.4341-.1535-2.8671-.3172-4.299-.4904-11.0203-1.3334-21.9692-3.2863-32.7823-5.7938-6.1711-1.431-12.2966-3.0519-18.3717-4.8469l1.5515,2.7326c6.3125-16.9931,13.4918-33.6549,21.5226-49.907,2.2818-4.6178,4.6329-9.2009,7.0467-13.751,1.3392-2.5245-2.4944-4.7719-3.8363-2.2424h0Z"/>
  </g>
</svg>