<?xml version="1.0" encoding="UTF-8"?>
<svg id="Layer_1" data-name="Layer 1" xmlns="http://www.w3.org/2000/svg" xmlns:xlink="http://www.w3.org/1999/xlink" viewBox="0 0 173.7045 237.4209">
  <defs>
    <style>
      .cls-1 {
        fill: none;
      }

      .cls-2 {
        fill: blue;
      }

      .cls-3 {
        fill: #3fa9f5;
      }

      .cls-4 {
        fill: #fff;
      }

      .cls-5 {
        fill: url(#New_Pattern);
      }
    </style>
    <pattern id="New_Pattern" data-name="New Pattern" x="0" y="0" width="10" height="10" patternTransform="translate(-682.036 -649.0679)" patternUnits="userSpaceOnUse" viewBox="0 0 10 10">
      <g>
        <rect class="cls-1" width="10" height="10"/>
        <rect class="cls-4" width="10" height="10"/>
        <circle class="cls-2" cx="5.0001" cy="4.9999" r="2.053"/>
      </g>
    </pattern>
  </defs>
  <rect class="cls-1" y="-2" width="173.7045" height="237.4209"/>
  <g>
    <path class="cls-5" d="M53.1694,26.7426c21.6146-.1158,43.2293-.2316,64.8439-.3473,1.3579-.0073,2.8056.0107,3.9393.7583,1.1383.7506,1.7249,2.0816,2.2492,3.3403,13.1261,31.5123,24.3488,63.8173,33.5863,96.6804-40.6617,11.4049-78.6692,32.1643-110.2406,60.2124.9518-15.6098.8042-31.2865-.4414-46.8755-.4276-5.3514-1.0707-10.9408-4.0806-15.3862-7.4842-11.0536-24.6784-9.3607-35.3039-17.4413,16.6591-25.3823,30.8999-52.3511,42.4668-80.4223"/>
    <path class="cls-3" d="M53.1694,28.9641c11.6387-.0623,23.2773-.1247,34.916-.187,5.8193-.0312,11.6387-.0623,17.458-.0935,2.9928-.016,5.9856-.0321,8.9784-.0481,1.2999-.007,2.6014-.0324,3.9013-.0194.9889.0099,2.1113-.0185,2.7769.8388.6068.7816.9461,1.8357,1.3211,2.7396.5834,1.4063,1.1631,2.8142,1.739,4.2236,1.0305,2.5221,2.0489,5.0492,3.055,7.5812,2.0713,5.2129,4.0913,10.4462,6.0589,15.6991,3.9352,10.5058,7.6628,21.0894,11.1786,31.7429,3.9679,12.0235,7.6638,24.1358,11.0935,36.3237l1.5515-2.7326c-15.9945,4.4996-31.5816,10.4255-46.5426,17.6524-14.9155,7.205-29.196,15.7252-42.6147,25.4375-7.6401,5.5298-15.0079,11.4354-22.0634,17.6938l3.7923,1.5708c.9942-16.5059,1.0567-33.312-.7049-49.7721-.7072-6.608-2.462-13.2117-7.7275-17.6765-4.334-3.675-9.7877-5.4973-15.1574-7.0764-6.0015-1.7649-12.2432-3.2797-17.3363-7.0961l.7969,3.0394c13.0383-19.8866,24.6091-40.7275,34.5678-62.3222,2.8375-6.1529,5.5386-12.3675,8.123-18.6308.4578-1.1095-.4955-2.4425-1.5515-2.7326-1.276-.3506-2.2731.4378-2.7326,1.5515-8.966,21.7292-19.5638,42.79-31.6304,62.962-3.4194,5.7164-6.9603,11.3592-10.6125,16.9297-.7114,1.0851-.1226,2.3503.7969,3.0394,4.5046,3.3754,9.9881,5.0953,15.3276,6.6518,4.9906,1.4548,10.201,2.7374,14.6071,5.6077,5.0896,3.3155,7.1725,8.6733,7.9418,14.5097,1.016,7.7084,1.2157,15.6071,1.3865,23.3729.2027,9.2173.0169,18.4401-.5374,27.6427-.1234,2.048,2.4501,2.7613,3.7923,1.5708,12.2026-10.824,25.3499-20.5447,39.2632-29.0584,13.9017-8.5066,28.5449-15.8268,43.7211-21.7721,8.6061-3.3714,17.3788-6.3076,26.2761-8.8106,1.1503-.3236,1.8789-1.5692,1.5515-2.7326-6.2516-22.2161-13.3967-44.179-21.432-65.8142-2.0087-5.4086-4.0724-10.7968-6.1909-16.1634-2.0998-5.3192-4.1264-10.7113-6.4826-15.9232-1.1262-2.4913-3.0041-4.0873-5.7578-4.413-2.7965-.3308-5.7256-.0764-8.5381-.0614l-17.9568.0962c-13.4676.0721-26.9352.1443-40.4028.2164-2.8581.0153-2.8641,4.4582,0,4.4429h0Z"/>
  </g>
</svg>