<?xml version="1.0" encoding="UTF-8"?>
<svg id="Layer_1" data-name="Layer 1" xmlns="http://www.w3.org/2000/svg" xmlns:xlink="http://www.w3.org/1999/xlink" viewBox="0 0 173.7045 237.4209">
  <defs>
    <style>
      .cls-1 {
        fill: none;
      }

      .cls-2 {
        fill: blue;
      }

      .cls-3 {
        fill: #3fa9f5;
      }

      .cls-4 {
        fill: #fff;
      }

      .cls-5 {
        fill: url(#New_Pattern);
      }
    </style>
    <pattern id="New_Pattern" data-name="New Pattern" x="0" y="0" width="10" height="10" patternTransform="translate(-873.7067 -649.0679)" patternUnits="userSpaceOnUse" viewBox="0 0 10 10">
      <g>
        <rect class="cls-1" width="10" height="10"/>
        <rect class="cls-4" width="10" height="10"/>
        <circle class="cls-2" cx="5.0001" cy="4.9999" r="2.053"/>
      </g>
    </pattern>
  </defs>
  <rect class="cls-1" y="-2" width="173.7045" height="237.4209"/>
  <g>
    <path class="cls-5" d="M8.5449,76.961c1.334-4.0349,4.2918-7.2918,7.1719-10.4167,10.9105-11.8379,21.9734-23.7781,35.3623-32.7173,13.389-8.9392,29.5303-14.7263,45.517-12.8291,17.9973,2.1359,33.4054,13.4834,47.5224,24.849,7.3009,5.8779,14.5113,11.8682,21.6277,17.9681-8.1912,6.964-16.3823,13.928-24.5735,20.8921-1.169.9939-2.4379,2.0322-3.9639,2.1926-1.7996.1891-3.4628-.8838-4.9535-1.9097-6.5954-4.5391-13.1907-9.0782-19.7861-13.6173,3.041,22.6349,6.082,45.2698,9.1229,67.9047.3847,2.8633.6441,6.1508-1.3256,8.2642-1.5028,1.6125-3.8603,2.0232-6.041,2.3446-23.7655,3.5027-47.531,7.0054-71.2964,10.5082,1.4379-20.7038,3.9088-41.3359,7.4005-61.7938-4.935-3.3341-10.7256,2.9419-16.5523,4.1748-4.1219.8722-8.4397-1.0031-11.5274-3.8696-3.0877-2.8666-5.1729-6.6245-7.206-10.3147-2.362-4.287-4.7239-8.5741-7.0859-12.8611"/>
    <path class="cls-3" d="M10.687,77.5516c.908-2.6272,2.5809-4.8968,4.3846-6.9797,1.9906-2.2987,4.0969-4.5031,6.1664-6.7306,4.2689-4.5948,8.5929-9.1433,13.1242-13.4816,8.8239-8.4483,18.5027-16.095,29.6368-21.2679,10.7951-5.0154,23.0916-7.6029,34.9364-5.5203,11.5738,2.035,21.9748,7.8538,31.465,14.564,11.79,8.3363,22.8186,17.8638,33.7752,27.2502v-3.1416c-6.5529,5.5712-13.1059,11.1424-19.6588,16.7136-1.6382,1.3928-3.271,2.7922-4.9147,4.1784-1.1353.9574-2.2781,1.9214-3.8165,1.3539-1.8089-.6673-3.461-2.1424-5.0336-3.2247-1.7498-1.2042-3.4996-2.4085-5.2494-3.6127-3.9707-2.7327-7.9414-5.4654-11.912-8.1982-1.2839-.8836-3.5643.2683-3.3427,1.9182,2.7435,20.4206,5.487,40.8412,8.2305,61.2618.3312,2.4649.6993,4.9282.9886,7.3984.2005,1.7122.465,3.7552-.3694,5.3454-.8208,1.5643-2.7767,1.9163-4.3621,2.1925-2.4041.4187-4.8324.7234-7.2465,1.0792-10.2437,1.5098-20.4875,3.0196-30.7312,4.5294-11.473,1.691-22.946,3.3819-34.419,5.0729l2.812,2.1421c1.4325-20.5087,3.8702-40.9361,7.3211-61.2032.1735-1.0189-.1252-1.9387-1.0209-2.5087-6.483-4.1259-12.2971,2.9323-18.4575,3.9877-3.3375.5718-6.7775-1.1154-9.1725-3.3352-2.8161-2.6102-4.7145-5.9847-6.5531-9.3112-2.4697-4.4685-4.9277-8.9433-7.3914-13.4151-1.3801-2.5049-5.2183-.266-3.8363,2.2424,2.2439,4.0727,4.4877,8.1454,6.7316,12.2181,1.9678,3.5716,3.9423,7.1955,6.7238,10.2154,2.5736,2.7942,6.0182,5.0594,9.8133,5.6992,3.9165.6602,7.328-.5883,10.7689-2.3491,2.5921-1.3265,6.2343-3.9594,9.1309-2.1159l-1.0209-2.5087c-3.5171,20.6561-6.0198,41.4817-7.4798,62.3843-.1112,1.5916,1.5013,2.3353,2.812,2.1421,21.0611-3.1041,42.1223-6.2083,63.1834-9.3124,2.6224-.3865,5.2451-.7711,7.8672-1.1595,2.0095-.2976,4.1217-.6482,5.85-1.7945,4.0377-2.6781,3.8682-7.4581,3.2942-11.7307-1.4103-10.4973-2.8206-20.9947-4.2309-31.492-1.5976-11.8915-3.1952-23.783-4.7928-35.6746l-3.3427,1.9182c3.7688,2.5938,7.5376,5.1875,11.3063,7.7813,1.8844,1.2969,3.7688,2.5938,5.6532,3.8906,1.7356,1.1945,3.4449,2.5791,5.379,3.4391,2.0088.8932,4.0894.9572,6.0896-.0029,1.818-.8727,3.3372-2.4355,4.8577-3.7282,3.5285-2.9999,7.057-5.9998,10.5855-8.9997,4.0326-3.4284,8.0652-6.8569,12.0977-10.2853.8665-.7367.8586-2.406,0-3.1416-10.2813-8.8078-20.6557-17.6158-31.5406-25.6753-9.809-7.2629-20.571-13.8192-32.5715-16.6456-12.3455-2.9076-25.1962-1.2927-36.9,3.3745-11.9933,4.7827-22.5019,12.3457-31.9849,21.0178-5.3439,4.8869-10.3712,10.1061-15.3079,15.3999-4.6684,5.0061-10.3184,10.0256-12.6094,16.6549-.9359,2.7081,3.3544,3.8715,4.2842,1.1811h0Z"/>
  </g>
</svg>