<?xml version="1.0" encoding="UTF-8"?>
<svg id="Layer_1" data-name="Layer 1" xmlns="http://www.w3.org/2000/svg" xmlns:xlink="http://www.w3.org/1999/xlink" viewBox="0 0 173.7045 237.4209">
  <defs>
    <style>
      .cls-1 {
        fill: none;
      }

      .cls-2 {
        fill: blue;
      }

      .cls-3 {
        fill: #3fa9f5;
      }

      .cls-4 {
        fill: #fff;
      }

      .cls-5 {
        fill: url(#New_Pattern);
      }
    </style>
    <pattern id="New_Pattern" data-name="New Pattern" x="0" y="0" width="10" height="10" patternTransform="translate(-316.1168 -649.0679)" patternUnits="userSpaceOnUse" viewBox="0 0 10 10">
      <g>
        <rect class="cls-1" width="10" height="10"/>
        <rect class="cls-4" width="10" height="10"/>
        <circle class="cls-2" cx="5.0001" cy="4.9999" r="2.053"/>
      </g>
    </pattern>
  </defs>
  <rect class="cls-1" y="-2" width="173.7045" height="237.4209"/>
  <g>
    <path class="cls-5" d="M78.7973,161.9208c-16.9731-7.6133-33.9461-15.2266-50.9192-22.8398-1.1982-.5375-2.4508-1.1178-3.2287-2.1758-.9655-1.3134-.9955-3.0738-.9263-4.7024.6629-15.5992,6.7637-30.3857,12.7772-44.7945,6.7957-16.2831,13.6315-32.6451,22.9106-47.6524,7.224-11.6836,16.9111-23.1486,30.265-26.3684,16.8696-4.0675,34.6862,7.0386,42.9548,22.295,8.2686,15.2564,8.7446,33.5488,6.7519,50.7871-3.5446,30.6639-14.1597,60.0042-24.6959,89.0185-13.2105-3.3319-25.9656-8.4646-37.8018-15.2117"/>
    <path class="cls-3" d="M79.9185,160.0026c-13.336-5.9819-26.6719-11.9637-40.0079-17.9456-3.334-1.4955-6.668-2.9909-10.002-4.4864-1.1008-.4938-2.6697-.935-3.4413-1.9328-.7528-.9735-.563-2.5329-.5121-3.6667.2992-6.6548,1.6669-13.2058,3.5458-19.5828,1.9301-6.551,4.4115-12.9241,7.0035-19.2371s5.2241-12.6111,7.9378-18.8721c5.3137-12.26,11.0411-24.4644,18.3365-35.6902,5.883-9.0524,13.5668-18.214,24.0169-22.012,10.155-3.6908,20.9875-1.2498,29.7801,4.6513,9.4406,6.336,15.6033,16.0741,18.7071,26.89,3.4843,12.1416,3.3536,25.0388,1.9751,37.4956-3.0358,27.4317-11.9395,53.8307-21.235,79.6733-1.1531,3.2057-2.3155,6.4081-3.4783,9.6103l2.7326-1.5515c-13.0442-3.3109-25.5692-8.3406-37.2711-14.9877-2.4898-1.4143-4.7311,2.4227-2.2424,3.8363,12.0165,6.8257,24.9372,12.0356,38.3324,15.4356,1.233.313,2.3154-.4024,2.7326-1.5515,9.8143-27.027,19.7192-54.3252,23.8948-82.903,3.5705-24.4367,3.5039-53.7353-16.4534-71.5513-8.3528-7.4566-19.6372-12.408-30.9946-11.0987-12.0013,1.3835-21.7254,9.1419-28.9952,18.3676-8.2789,10.5064-14.4104,22.6789-19.9595,34.791-2.9769,6.4976-5.76,13.0816-8.5181,19.6744-2.6984,6.4502-5.4374,12.8913-7.8172,19.4679-2.4134,6.6693-4.4532,13.5042-5.5635,20.5205-.5184,3.276-.9914,6.6725-.9424,9.9972.0222,1.5055.272,3.0562,1.0448,4.3714.8741,1.4876,2.3493,2.4123,3.8716,3.1206,13.6681,6.3594,27.5228,12.3466,41.2778,18.5164l10.002,4.4864c1.0939.4907,2.3884.316,3.0394-.7969.5553-.9494.3032-2.5459-.7969-3.0394h0Z"/>
  </g>
</svg>