<?xml version="1.0" encoding="UTF-8"?>
<svg id="Layer_1" data-name="Layer 1" xmlns="http://www.w3.org/2000/svg" xmlns:xlink="http://www.w3.org/1999/xlink" viewBox="0 0 173.7045 237.4209">
  <defs>
    <style>
      .cls-1 {
        fill: none;
      }

      .cls-2 {
        fill: blue;
      }

      .cls-3 {
        fill: #3fa9f5;
      }

      .cls-4 {
        fill: #fff;
      }

      .cls-5 {
        fill: url(#New_Pattern);
      }
    </style>
    <pattern id="New_Pattern" data-name="New Pattern" x="0" y="0" width="10" height="10" patternTransform="translate(-1422.5855 -649.0679)" patternUnits="userSpaceOnUse" viewBox="0 0 10 10">
      <g>
        <rect class="cls-1" width="10" height="10"/>
        <rect class="cls-4" width="10" height="10"/>
        <circle class="cls-2" cx="5.0001" cy="4.9999" r="2.053"/>
      </g>
    </pattern>
  </defs>
  <rect class="cls-1" y="-2" width="173.7045" height="237.4209"/>
  <g>
    <path class="cls-5" d="M37.1302,39.2667c20.5249-6.2039,41.0497-12.4078,61.5746-18.6117,1.2895-.3898,2.6714-.7808,3.9604-.3894,1.2942.393,2.2274,1.4935,3.0809,2.5428,21.3684,26.2704,41.1499,53.8314,59.2007,82.4829-35.4576,22.3108-65.7536,52.7703-87.8732,88.3475-3.4956-15.1146-8.0557-29.983-13.6354-44.4585-1.9154-4.9691-4.1029-10.1039-8.2188-13.4832-10.2345-8.4029-26.1105-1.9453-38.4944-6.635,8.6883-28.8376,14.6293-58.5022,17.7165-88.4616"/>
    <path class="cls-3" d="M37.7208,41.4088c11.1375-3.3665,22.275-6.7329,33.4126-10.0994,5.5688-1.6832,11.1375-3.3665,16.7063-5.0497l8.5918-2.597c1.2415-.3753,2.4791-.7938,3.7352-1.1171,1.0745-.2765,1.9202-.3402,2.769.4422,1.9238,1.7734,3.4654,4.133,5.0984,6.1708,1.6744,2.0895,3.3388,4.1869,4.9931,6.2923,3.3863,4.3096,6.7283,8.6538,10.0268,13.0309,6.6353,8.8051,13.0984,17.7402,19.3829,26.799,7.0927,10.2238,13.956,20.6056,20.5918,31.1317l.7969-3.0394c-13.9465,8.7904-27.1211,18.8162-39.3147,29.9111-12.2008,11.1014-23.385,23.2836-33.4591,36.3433-5.6773,7.3599-10.9826,15.0001-15.8964,22.8901l4.0603.5307c-3.5066-15.1122-8.0477-29.9848-13.6354-44.4585-2.3796-6.1639-5.1932-12.4179-10.9961-16.0782-5.055-3.1885-11.2238-3.6875-17.052-3.7414-6.7623-.0625-13.7487.5394-20.2167-1.8503l1.5515,2.7326c6.7827-22.5541,11.907-45.5998,15.2906-68.9081.9722-6.6968,1.8082-13.413,2.5052-20.1441.1238-1.1951-1.1096-2.2214-2.2214-2.2214-1.3041,0-2.0973,1.0229-2.2214,2.2214-2.4055,23.2288-6.5421,46.271-12.3458,68.8914-1.6324,6.3624-3.3996,12.6895-5.2913,18.9796-.3671,1.2208.4463,2.3243,1.5515,2.7326,5.611,2.0731,11.7087,2.0512,17.6092,2.0146,5.4384-.0337,11.3399-.2913,16.4294,1.9627,5.6653,2.509,8.5158,7.9708,10.6867,13.4694,2.7304,6.9155,5.1696,13.9545,7.3957,21.0474,2.5385,8.0883,4.7599,16.2733,6.676,24.5311.4473,1.9276,3.0904,2.0879,4.0603.5307,8.5569-13.7395,18.3081-26.706,29.1459-38.7287,10.8665-12.0544,22.783-23.1628,35.5757-33.1498,7.1756-5.6018,14.6542-10.8185,22.3546-15.672.9891-.6234,1.4555-1.9946.7969-3.0394-12.0956-19.1869-24.9552-37.8902-38.5554-56.0419-6.8168-9.0981-13.7829-18.0997-20.9926-26.8906-1.6474-2.0088-3.662-3.5739-6.4092-3.3205-2.8799.2657-5.7666,1.4944-8.5214,2.3271-5.7279,1.7313-11.4557,3.4626-17.1836,5.194-12.8877,3.8955-25.7754,7.791-38.6631,11.6864-2.7297.8251-1.5664,5.1147,1.1811,4.2842h0Z"/>
  </g>
</svg>