<?xml version="1.0" encoding="UTF-8"?>
<svg id="Layer_1" data-name="Layer 1" xmlns="http://www.w3.org/2000/svg" xmlns:xlink="http://www.w3.org/1999/xlink" viewBox="0 0 173.7045 237.4209">
  <defs>
    <style>
      .cls-1 {
        fill: none;
      }

      .cls-2 {
        fill: blue;
      }

      .cls-3 {
        fill: #3fa9f5;
      }

      .cls-4 {
        fill: #fff;
      }

      .cls-5 {
        fill: url(#New_Pattern);
      }
    </style>
    <pattern id="New_Pattern" data-name="New Pattern" x="0" y="0" width="10" height="10" patternTransform="translate(-533.6166 -1043.6974)" patternUnits="userSpaceOnUse" viewBox="0 0 10 10">
      <g>
        <rect class="cls-1" width="10" height="10"/>
        <rect class="cls-4" width="10" height="10"/>
        <circle class="cls-2" cx="5.0001" cy="4.9999" r="2.053"/>
      </g>
    </pattern>
  </defs>
  <path class="cls-5" d="M44.4377,11.6936c-9.859,33.8616-19.7181,67.7231-29.5771,101.5847-5.233,17.9732-10.4577,37.3509-4.4938,55.0889.8834,2.6276,2.0795,5.2764,4.2127,7.0184,6.3124,5.1546,15.5084-.496,21.1123-6.4319,5.604-5.9359,12.8604-13.0193,20.5234-10.337,6.3607,2.2265,10.101,10.717,16.8269,10.4905,4.9311-.1661,8.1999-4.9985,11.1714-8.9889s7.9546-7.9406,12.3733-5.7168c4.0943,2.0605,4.8105,8.2363,8.9111,10.2838,6.2935,3.1424,11.7255-5.7892,18.2953-8.2846,6.647-2.5247,13.6551,1.9428,19.8027,5.5388,6.1477,3.596,14.7623,6.1609,19.6727.9671,4.4285-4.6842,2.6037-12.302.4986-18.4277-15.7995-45.9753-31.5989-91.9506-47.3984-137.9259-25.0278,2.2272-50.0557,4.4544-75.0835,6.6816"/>
  <path class="cls-3" d="M42.7502,11.2284c-5.5108,18.9273-11.0217,37.8547-16.5325,56.782-2.7438,9.4237-5.4876,18.8475-8.2314,28.2712-2.6648,9.1524-5.4798,18.277-7.8743,27.5049-2.2994,8.8615-4.127,17.9769-4.1499,27.1664-.0111,4.4503.4252,8.9238,1.4193,13.265.9007,3.9332,2.1222,8.2228,4.8393,11.3173,5.4402,6.1958,14.0968,3.2399,19.7377-.9537,6.0663-4.5099,10.5102-12.1991,18.1082-14.3892,7.1015-2.047,11.1991,4.7085,16.1954,8.331,2.5935,1.8804,5.7649,2.8564,8.9381,2.0229,3.4681-.911,6.0461-3.689,8.1728-6.4174,2.304-2.956,4.381-6.2586,7.8716-7.9529,1.4977-.727,3.2257-.9582,4.7271-.12,1.259.703,2.0911,1.9505,2.8286,3.1492,1.6102,2.617,3.0418,5.6538,5.9551,7.0576,2.9163,1.4053,5.9698.7889,8.6803-.781,2.8461-1.6485,5.2179-3.9901,7.9485-5.8092,3.26-2.1718,6.6255-2.7498,10.4197-1.6478,4.1012,1.1912,7.6853,3.6079,11.3673,5.6889,3.1104,1.758,6.533,3.1645,10.086,3.6705,3.4305.4886,7.045.0997,9.8828-2.0429,2.958-2.2334,4.3834-5.6524,4.5787-9.2883.1998-3.7184-.7636-7.4798-1.9102-10.9854-1.4863-4.544-3.1015-9.0496-4.6553-13.571-6.4118-18.6578-12.8235-37.3156-19.2353-55.9733-6.3847-18.5791-12.7694-37.1581-19.1541-55.7372-1.5691-4.566-3.1382-9.1321-4.7074-13.6981-.2331-.6784-.8998-1.3549-1.6875-1.2848-19.4753,1.7331-38.9506,3.4662-58.4259,5.1992-5.5525.4941-11.1051.9882-16.6576,1.4823-2.2258.1981-2.2467,3.6999,0,3.5,19.4753-1.7331,38.9506-3.4662,58.4259-5.1992,5.5525-.4941,11.1051-.9882,16.6576-1.4823l-1.6875-1.2848c6.2494,18.1854,12.4989,36.3709,18.7483,54.5563s12.4989,36.3709,18.7483,54.5563c3.1382,9.1321,6.2765,18.2642,9.4147,27.3962,1.9203,5.5878,5.505,15.327-1.0348,19.3602-2.694,1.6614-6.0659,1.3737-8.9967.5848-3.6014-.9694-6.7014-2.8478-9.9026-4.694-3.5968-2.0743-7.4217-4.112-11.586-4.6927-3.7945-.5292-7.2959.4605-10.455,2.5651-2.6467,1.7632-4.9565,4.0066-7.6832,5.6519-2.2508,1.3581-4.8161,1.9395-6.8924-.0785-2.1573-2.0968-3.1047-5.1538-5.1124-7.3954-2.3963-2.6754-6.0256-3.4698-9.3534-2.1573-3.6385,1.435-6.2435,4.3627-8.5155,7.43-1.8772,2.5342-3.9912,5.6409-7.0489,6.836-2.7856,1.0888-5.4388-.1538-7.6079-1.9214-2.4523-1.9985-4.5511-4.3897-7.1446-6.2223-2.8751-2.0315-6.2362-2.8754-9.7204-2.2959-3.6371.6049-6.8628,2.7554-9.6622,5.0452-5.761,4.7123-10.1267,11.5772-17.6659,13.685-3.2481.9081-6.6106.3035-8.7666-2.4654-2.4448-3.1398-3.3886-7.6495-4.103-11.4716-1.6101-8.6141-.8646-17.5424.7585-26.0947,1.7028-8.9722,4.3635-17.7259,6.9134-26.4837,2.674-9.1842,5.3481-18.3683,8.0221-27.5525,5.3946-18.528,10.7891-37.0561,16.1837-55.5841,1.3021-4.4723,2.6043-8.9446,3.9064-13.4169.6309-2.1668-2.7456-3.0922-3.375-.9304h0Z"/>
</svg>