<?xml version="1.0" encoding="UTF-8"?>
<svg id="Layer_1" data-name="Layer 1" xmlns="http://www.w3.org/2000/svg" xmlns:xlink="http://www.w3.org/1999/xlink" viewBox="0 0 173.7045 237.4209">
  <defs>
    <style>
      .cls-1 {
        fill: none;
      }

      .cls-2 {
        fill: blue;
      }

      .cls-3 {
        fill: #3fa9f5;
      }

      .cls-4 {
        fill: #fff;
      }

      .cls-5 {
        fill: url(#New_Pattern);
      }
    </style>
    <pattern id="New_Pattern" data-name="New Pattern" x="0" y="0" width="10" height="10" patternTransform="translate(260.6596 -1043.6974)" patternUnits="userSpaceOnUse" viewBox="0 0 10 10">
      <g>
        <rect class="cls-1" width="10" height="10"/>
        <rect class="cls-4" width="10" height="10"/>
        <circle class="cls-2" cx="5.0001" cy="4.9999" r="2.053"/>
      </g>
    </pattern>
  </defs>
  <path class="cls-5" d="M22.4666,14.5498c-.2015,40.3827.2029,46.6728.8368,87.0509.1758,11.1991.4444,22.5794,3.7919,33.2541,2.8953,9.2326,8.0859,17.7163,14.9596,24.4503,3.3554,3.2872,8.5817,6.2496,12.388,3.5128,1.6529-1.1885,2.5251-3.1733,3.3222-5.0613,8.0169-18.9876,16.0337-37.9751,24.0506-56.9627,1.7606-4.17,4.6241-9.0688,9.0897-8.7509,3.5044.2494,5.8216,3.6781,7.598,6.7488,9.6634,16.7046,19.3268,33.4092,28.9902,50.1139,2.8749,4.9696,6.9522,10.6183,12.6207,10.173,6.7499-.5303,9.4942-8.9659,10.2868-15.7779,5.4251-46.6262-3.945-59.6867-16.141-104.9806-2.5839-9.5962-5.8048-19.8698-13.7563-25.7041-6.5439-4.8014-15.0525-5.6394-23.116-6.1566-18.5513-1.1899-37.1549-1.5414-55.7371-1.0532-8.3784.2201-19.4729,3.359-19.1984,11.8458"/>
  <path class="cls-3" d="M20.7166,14.5498c-.0842,17.0351-.0606,34.0677.2186,51.101.1408,8.5904.3063,17.1803.4519,25.7706.1942,11.4581-.0575,23.0558,1.8033,34.4001,1.7274,10.5309,5.8348,20.441,12.4141,28.8708,2.9145,3.7342,6.3306,7.7705,10.727,9.7807,2.0858.9537,4.4059,1.5089,6.6804.9236,2.3503-.6048,4.0866-2.3845,5.2073-4.4685,1.3347-2.482,2.2894-5.207,3.3845-7.8008,1.1637-2.7563,2.3275-5.5125,3.4912-8.2688,2.3921-5.6656,4.7843-11.3313,7.1764-16.9969s4.7843-11.3313,7.1764-16.9969c1.1961-2.8328,2.3921-5.6656,3.5882-8.4985.8687-2.0574,1.7881-4.1703,3.1717-5.9443,1.0623-1.3621,2.5351-2.6824,4.366-2.6431,2.1257.0457,3.7346,1.8122,4.8701,3.4304,1.5094,2.1511,2.7336,4.5141,4.0479,6.786,1.5411,2.6641,3.0823,5.3282,4.6234,7.9923,6.1229,10.5844,12.2459,21.1688,18.3688,31.7532,3.9092,6.7576,9.7759,19.8788,19.8642,16.684,8.5562-2.7097,9.5451-14.1919,10.289-21.6002.9619-9.5787,1.4221-19.2345.8171-28.8521-.4983-7.9203-1.7558-15.7683-3.5911-23.4856-1.9301-8.1161-4.4009-16.0933-6.8143-24.0751-1.4236-4.7081-2.8375-9.4192-4.1982-14.1459-1.4593-5.0692-2.7477-10.1905-4.2668-15.2417-2.7074-9.0024-6.7742-18.3218-15.2514-23.2648-4.4287-2.5823-9.4724-3.7333-14.5084-4.3835-5.5884-.7215-11.2576-.9253-16.8815-1.1996-12.1843-.5941-24.3861-.8271-36.5842-.6986-8.4674.0892-18.7142-.6225-25.9317,4.7582-2.9373,2.1898-4.786,5.2871-4.7242,9.0162.0373,2.2499,3.5374,2.2568,3.5,0-.123-7.4163,9.7255-9.5376,15.461-9.9908,5.4385-.4298,10.9723-.2997,16.4248-.3154,5.9748-.0172,11.9499.0526,17.9227.2086,5.89.1539,11.7778.3924,17.6609.715,5.1838.2842,10.4384.4613,15.5575,1.3848,4.7279.853,9.4906,2.3951,13.2237,5.5311,3.4185,2.8717,5.8306,6.647,7.6725,10.6764,1.895,4.1458,3.158,8.5647,4.3476,12.9541,1.4023,5.1744,2.8553,10.3337,4.371,15.476,2.4433,8.2897,5.0587,16.5304,7.3851,24.8543,2.0423,7.307,3.8088,14.7031,4.8394,22.2268,1.1237,8.2031,1.3508,16.511,1.0146,24.7772-.2126,5.226-.6451,10.4417-1.2158,15.6401-.4336,3.9492-1.0584,8.0373-3.0396,11.5483-1.6959,3.0054-4.626,5.2217-8.2129,4.1231-3.9147-1.199-6.4857-5.4181-8.4325-8.7343-5.9549-10.1436-11.7817-20.3647-17.6716-30.5462-2.999-5.1842-5.998-10.3684-8.997-15.5526-2.2089-3.8184-4.399-9.072-8.6086-11.1208-4.1722-2.0306-8.1663.1097-10.7197,3.5476-1.2996,1.7497-2.2294,3.7157-3.0747,5.7146-1.1653,2.7556-2.3275,5.5125-3.4912,8.2688-4.5903,10.8719-9.1806,21.7438-13.7709,32.6157-2.2978,5.4422-4.5301,10.9177-6.8983,16.3296-.8359,1.9102-1.9105,4.144-4.2,4.5121-2.0047.3223-4.0456-.7073-5.671-1.7661-3.8918-2.535-7.0692-6.6433-9.6808-10.4241-2.8148-4.075-5.1373-8.5001-6.821-13.1596-3.7415-10.3543-4.2702-21.4406-4.4764-32.3428-.1851-9.7861-.3276-19.5732-.5028-29.3595-.2684-14.9875-.4483-29.973-.4321-44.9632.0056-5.1771.0249-10.3542.0505-15.5312.0111-2.2525-3.4888-2.2553-3.5,0h0Z"/>
</svg>