<?xml version="1.0" encoding="UTF-8"?>
<svg id="Layer_1" data-name="Layer 1" xmlns="http://www.w3.org/2000/svg" xmlns:xlink="http://www.w3.org/1999/xlink" viewBox="0 0 173.7045 237.4209">
  <defs>
    <style>
      .cls-1 {
        fill: none;
      }

      .cls-2 {
        fill: blue;
      }

      .cls-3 {
        fill: #3fa9f5;
      }

      .cls-4 {
        fill: #fff;
      }

      .cls-5 {
        fill: url(#New_Pattern);
      }
    </style>
    <pattern id="New_Pattern" data-name="New Pattern" x="0" y="0" width="10" height="10" patternTransform="translate(-119.2345 -1043.6974)" patternUnits="userSpaceOnUse" viewBox="0 0 10 10">
      <g>
        <rect class="cls-1" width="10" height="10"/>
        <rect class="cls-4" width="10" height="10"/>
        <circle class="cls-2" cx="5.0001" cy="4.9999" r="2.053"/>
      </g>
    </pattern>
  </defs>
  <path class="cls-5" d="M46.3756,5.4517C29.2138,45.7377,14.0536,86.8895.9718,128.699c15.3081,3.4541,30.6163,6.9081,45.9244,10.3622,9.4083-33.126,23.649-64.8622,42.1157-93.8573,7.6255,28.3875,15.2511,56.775,22.8766,85.1625.7439,2.7694,1.5805,5.6964,3.6808,7.6193,2.3617,2.1622,5.7745,2.569,8.9505,2.8746,11.4427,1.101,22.8854,2.2021,34.3282,3.3031-7.8462-42.1189-15.6925-84.2377-23.5387-126.3566-.2887-1.5495-.6398-3.2154-1.7988-4.2654-1.1281-1.022-2.7496-1.2124-4.2598-1.3557-27.8089-2.6382-55.6179-5.2765-83.4268-7.9147"/>
  <path class="cls-3" d="M44.8646,4.5684c-6.7137,15.7679-13.1349,31.6594-19.2381,47.6736-6.1076,16.0258-11.9033,32.1706-17.3825,48.422-3.0873,9.1569-6.0724,18.3479-8.9597,27.5698-.2729.8718.3225,1.9497,1.2223,2.1527,15.3081,3.4541,30.6163,6.9081,45.9244,10.3622.9283.2095,1.8836-.2772,2.1527-1.2223,7.3196-25.709,17.5168-50.5628,30.4063-73.9823,3.6361-6.6067,7.4861-13.0937,11.533-19.4569l-3.1986-.418c4.9975,18.6042,9.9951,37.2085,14.9926,55.8127,2.5203,9.3823,5.0406,18.7646,7.5609,28.1469,1.001,3.7264,1.9834,7.7634,5.2174,10.2173,3.1705,2.4057,7.3599,2.5656,11.1658,2.9318,10.8623,1.0452,21.7246,2.0904,32.5869,3.1356,1.2237.1177,1.8754-1.2066,1.6875-2.2152-5.4133-29.0588-10.8266-58.1175-16.2399-87.1763-1.3685-7.3463-2.7371-14.6926-4.1056-22.0389-.6691-3.5915-1.3381-7.1831-2.0072-10.7746-.3193-1.7141-.6386-3.4283-.958-5.1424-.2823-1.5155-.5042-3.0624-1.1821-4.4646-1.414-2.9249-4.3537-3.4327-7.2886-3.7128-3.7242-.3554-7.4488-.7067-11.1732-1.06-7.3661-.6988-14.7321-1.3976-22.0982-2.0965-16.5529-1.5704-33.1059-3.1408-49.6588-4.7111-2.2411-.2126-2.2265,3.2888,0,3.5,14.4011,1.3662,28.8021,2.7325,43.2032,4.0987,7.2833.691,14.5666,1.3819,21.8499,2.0729,3.5589.3376,7.1178.6753,10.6766,1.0129,1.7381.1649,3.4761.3298,5.2142.4947,1.5204.1442,3.2017.1088,4.6541.6276,1.3069.4669,1.6896,1.6115,1.9809,2.8619.3842,1.6491.6388,3.3358.9489,5.0004.6691,3.5915,1.3381,7.1831,2.0072,10.7746,1.3077,7.0198,2.6154,14.0396,3.9231,21.0594,2.6458,14.2029,5.2916,28.4057,7.9375,42.6086,2.9804,15.9986,5.9607,31.9973,8.9411,47.9959l1.6875-2.2152c-9.2868-.8936-18.5737-1.7872-27.8605-2.6808-2.2832-.2197-4.5674-.431-6.8498-.6596-1.7526-.1755-3.5527-.3957-5.2039-1.045-3.7118-1.4595-4.6173-5.3705-5.5516-8.8486-4.8252-17.9627-9.6504-35.9254-14.4756-53.8881-2.7357-10.1842-5.4714-20.3684-8.2071-30.5526-.4023-1.4978-2.4063-1.6637-3.1986-.418-14.498,22.7959-26.3888,47.2323-35.4117,72.6966-2.5221,7.1179-4.8127,14.3159-6.8805,21.5786l2.1527-1.2223c-15.3081-3.4541-30.6163-6.9081-45.9244-10.3622l1.2223,2.1527c5.0767-16.2147,10.4603-32.3328,16.1557-48.3407,5.7214-16.081,11.7543-32.0512,18.0945-47.8984,3.562-8.9031,7.2208-17.7674,10.9774-26.5902.3729-.8759.2548-1.8656-.6278-2.3943-.7314-.4382-2.0246-.2405-2.3943.6278h0Z"/>
</svg>