<?xml version="1.0" encoding="UTF-8"?>
<svg id="Layer_1" data-name="Layer 1" xmlns="http://www.w3.org/2000/svg" xmlns:xlink="http://www.w3.org/1999/xlink" viewBox="0 0 173.7045 237.4209">
  <defs>
    <style>
      .cls-1 {
        fill: none;
      }

      .cls-2 {
        fill: blue;
      }

      .cls-3 {
        fill: #3fa9f5;
      }

      .cls-4 {
        fill: #fff;
      }

      .cls-5 {
        fill: url(#New_Pattern);
      }
    </style>
    <pattern id="New_Pattern" data-name="New Pattern" x="0" y="0" width="10" height="10" patternTransform="translate(71.4605 -1043.6974)" patternUnits="userSpaceOnUse" viewBox="0 0 10 10">
      <g>
        <rect class="cls-1" width="10" height="10"/>
        <rect class="cls-4" width="10" height="10"/>
        <circle class="cls-2" cx="5.0001" cy="4.9999" r="2.053"/>
      </g>
    </pattern>
  </defs>
  <g>
    <path class="cls-5" d="M39.195,79.1324c.211,31.7482-8.1594,63.5122-23.9615,90.929,9.6106,6.2158,20.3242,10.6753,31.4721,13.1001.7067.1537,1.464.2956,2.1346.0225,1.3996-.57,1.5834-2.4638,1.5787-3.9921-.0987-31.9333,15.3023-62.3464,15.2706-94.2799"/>
    <path class="cls-3" d="M37.445,79.1324c.1316,24.4836-4.7809,49.0076-14.448,71.5135-2.7285,6.3523-5.8301,12.5384-9.2746,18.5323-.486.8456-.1731,1.879.6278,2.3943,7.739,4.9795,16.1807,8.8777,25.003,11.5039,2.2006.6551,4.4257,1.2393,6.67,1.7249,2.0486.4432,4.2172.3536,5.3603-1.6827.9319-1.6601.7699-3.6689.793-5.4996.0292-2.3154.1372-4.6297.3138-6.9385,1.4235-18.6037,7.2096-36.4898,11.1103-54.6446,2.1984-10.2319,3.8254-20.6359,3.8387-31.1239.0029-2.2522-3.4971-2.2557-3.5,0-.0225,17.7814-4.7852,35.0132-8.9413,52.1636-2.0669,8.5293-3.9954,17.1035-5.1692,25.8077-.589,4.3674-.9981,8.7585-1.1208,13.165-.0292,1.0479-.0299,2.0954-.0394,3.1435-.0052.5742.1016,1.6795-.3074,2.1601-.4381.5148-1.485.0595-2.0585-.0711-1.0837-.2467-2.1629-.5124-3.2372-.7971-9.5586-2.5327-18.6361-6.5848-26.949-11.9336l.6278,2.3943c12.4804-21.7177,20.3218-45.9555,23.0989-70.8404.777-6.9627,1.1391-13.9663,1.1015-20.9719-.0121-2.2515-3.5121-2.2563-3.5,0h0Z"/>
  </g>
  <g>
    <path class="cls-5" d="M122.3309,79.1326c-.0116,22.0101-.0232,44.0201-.0348,66.0302-.0055,10.4246.0441,21.1511,3.8985,30.8166,6.7681-.0101,13.5351-.7237,20.1602-2.1261,1.0881-.2303,2.2726-.5441,2.914-1.4639.5735-.8224.5562-1.911.515-2.917-1.2212-29.8014-3.5327-59.557-6.9282-89.185"/>
    <path class="cls-3" d="M120.5809,79.1326c-.0069,13.0737-.0138,26.1473-.0206,39.221-.0035,6.6196-.007,13.2391-.0105,19.8587-.0032,6.1086-.1174,12.2325.1904,18.3357.3412,6.7649,1.2799,13.56,3.767,19.8966.285.7262.8596,1.2881,1.6875,1.2848,3.869-.0154,7.7334-.2411,11.5751-.7037,1.9156-.2307,3.8263-.5071,5.7266-.8412,1.7171-.3019,3.5887-.5132,5.1935-1.2226,3.6375-1.6079,2.8384-5.7276,2.6965-8.9662-.1741-3.973-.3676-7.9452-.5805-11.9163-.8426-15.7184-1.9886-31.4205-3.4372-47.0947-.8233-8.909-1.7462-17.8085-2.7631-26.6975-.1083-.9465-.727-1.7393-1.75-1.75-.8633-.009-1.8574.8116-1.75,1.75,1.7137,14.9799,3.1562,29.9903,4.3179,45.0231.5745,7.4342,1.081,14.8736,1.5194,22.317.2241,3.8045.4304,7.61.619,11.4165.1836,3.706.5689,7.483.4895,11.1931-.0152.7121-.0875,1.2178-.7867,1.5545-.6968.3355-1.5709.4187-2.3224.57-2.0585.4145-4.1311.7681-6.2129,1.0439-4.1546.5504-8.3448.8074-12.5347.8241l1.6875,1.2848c-4.4278-11.2813-3.8395-23.6667-3.8333-35.5643.0068-12.9909.0137-25.9818.0205-38.9727.0038-7.2815.0077-14.5631.0115-21.8446.0012-2.2521-3.4988-2.2558-3.5,0h0Z"/>
  </g>
  <g>
    <path class="cls-5" d="M45.1683,16.2841c-10.9996,20.7121-20.6261,42.1725-28.7933,64.1887,18.6083,5.5138,37.7134,9.3052,56.9998,11.3115,1.7227.1792,3.5997.3086,5.0475-.654,1.1538-.7671,1.8084-2.0857,2.4114-3.3434,2.7685-5.7739,5.537-11.5479,8.3055-17.3218-.2553,6.2829,4.6935,11.814,10.4371,14.1974,5.7435,2.3834,12.1514,2.3003,18.3569,2.1808,13.5126-.26,27.0253-.5201,40.5379-.7801-4.7086-25.4707-11.1483-50.6128-19.2582-75.1892-.7167-2.172-1.5383-4.4723-3.3433-5.851-1.9295-1.4738-4.5308-1.5558-6.9471-1.5773-16.4069-.146-32.8138-.2919-49.2207-.4379-12.264-.1091-26.5356.7657-33.6081,10.9173"/>
    <path class="cls-3" d="M43.6572,15.4008c-8.6162,16.2419-16.3866,32.9241-23.2898,49.9647-1.9657,4.8523-3.8568,9.7344-5.6799,14.642-.3338.8985.3779,1.9032,1.2223,2.1527,11.3801,3.3626,22.9412,6.099,34.6261,8.1693,5.7566,1.0199,11.5418,1.8773,17.3451,2.5843,2.6875.3274,5.608.9634,8.3197.7039,2.5856-.2474,4.4123-1.6645,5.6301-3.9174,1.5826-2.928,2.9083-6.0238,4.3473-9.0249,1.4907-3.109,2.9815-6.2181,4.4722-9.3271l-3.2611-.8833c-.1095,4.4069,1.9385,8.5154,5.0566,11.5513,3.4352,3.3445,7.9132,5.2074,12.5981,5.9848,5.3219.8831,10.7336.6336,16.1026.5303,5.85-.1126,11.7-.2252,17.55-.3377,6.5915-.1268,13.1831-.2537,19.7746-.3805,1.2111-.0233,1.8952-1.0945,1.6875-2.2152-4.7027-25.3783-11.0914-50.4494-19.1827-74.9602-.8022-2.43-1.6977-5.0348-3.7229-6.7331-2.1734-1.8226-4.9842-2.1519-7.7228-2.2011-6.6642-.1197-13.3327-.121-19.9977-.1803-6.6291-.059-13.2581-.1179-19.8872-.1769-5.6738-.0505-11.3668-.2389-17.0381.0106-10.3859.4569-21.6339,2.677-28.0247,11.685-1.3058,1.8405,1.728,3.5907,3.0221,1.7665,5.2147-7.3503,14.7519-9.3126,23.2054-9.8548,5.1101-.3277,10.2388-.1838,15.3549-.1383,6.3805.0568,12.7609.1135,19.1414.1703s12.7609.1135,19.1414.1703c2.7332.0243,5.7794-.2998,8.451.3883,2.533.6524,3.5863,2.7638,4.3826,5.0677,4.0176,11.6239,7.3785,23.5218,10.4842,35.4176,3.4946,13.3854,6.4974,26.8967,9.018,40.499l1.6875-2.2152c-10.876.2093-21.7521.4186-32.6281.6279-5.224.1005-10.4878.3864-15.7094.1063-4.5435-.2437-9.1933-1.1101-13.0194-3.7059-3.613-2.4513-6.3364-6.3974-6.225-10.8765.0414-1.6676-2.4978-2.4752-3.2611-.8833-2.4845,5.1817-4.9691,10.3635-7.4536,15.5452-.9272,1.9338-1.6935,4.7439-4.1734,5.0058-2.5442.2687-5.3584-.3848-7.8814-.6901-11.0624-1.3385-22.0531-3.2936-32.9077-5.8107-6.1711-1.431-12.2966-3.0519-18.3717-4.8469l1.2223,2.1527c6.3266-17.031,13.5215-33.7313,21.5702-50.0197,2.2818-4.6178,4.6329-9.2009,7.0467-13.751,1.055-1.9887-1.965-3.7592-3.0221-1.7665h0Z"/>
  </g>
</svg>