<?xml version="1.0" encoding="UTF-8"?>
<svg id="Layer_1" data-name="Layer 1" xmlns="http://www.w3.org/2000/svg" xmlns:xlink="http://www.w3.org/1999/xlink" viewBox="0 0 173.7045 237.4209">
  <defs>
    <style>
      .cls-1 {
        fill: none;
      }

      .cls-2 {
        fill: blue;
      }

      .cls-3 {
        fill: #3fa9f5;
      }

      .cls-4 {
        fill: #fff;
      }

      .cls-5 {
        fill: url(#New_Pattern);
      }
    </style>
    <pattern id="New_Pattern" data-name="New Pattern" x="0" y="0" width="10" height="10" patternTransform="translate(-333.7945 -1043.6974)" patternUnits="userSpaceOnUse" viewBox="0 0 10 10">
      <g>
        <rect class="cls-1" width="10" height="10"/>
        <rect class="cls-4" width="10" height="10"/>
        <circle class="cls-2" cx="5.0001" cy="4.9999" r="2.053"/>
      </g>
    </pattern>
  </defs>
  <path class="cls-5" d="M81.3193,199.1578c-17.7984-2.373-35.5968-4.746-53.3951-7.119-1.2565-.1675-2.5743-.3655-3.5545-1.354-1.2167-1.2269-1.6534-3.3981-1.9658-5.4472-2.9925-19.6259-.6599-40.509,1.6778-60.8873,2.6418-23.029,5.3032-46.1726,10.5866-68.6537,4.1133-17.5021,10.6039-35.7591,22.4708-45.3161,14.991-12.0731,34.3964-5.7188,45.7458,9.7611,11.3494,15.48,16.0424,37.9721,18.159,60.1851,3.7651,39.5131.5446,80.3297-2.6771,120.7091-13.2512,1.3704-26.49.3172-39.2353-3.1213"/>
  <path class="cls-3" d="M81.3193,197.4078c-17.1392-2.2851-34.2784-4.5702-51.4175-6.8554-1.5321-.2043-3.7407-.1207-4.6626-1.5918-.873-1.3929-1.0194-3.2948-1.2513-4.8842-.5906-4.0483-.927-8.1354-1.104-12.2216-.3611-8.337-.0135-16.6903.6434-25.004,1.3271-16.7981,3.431-33.5953,5.6712-50.2939,2.1633-16.125,4.7472-32.3332,9.1064-48.0293,3.5224-12.6831,8.4687-26.4645,18.4748-35.5426,4.4143-4.0049,9.9744-6.7218,15.9715-7.1069,5.8555-.3761,11.617,1.2846,16.6499,4.2312,11.6208,6.8038,18.281,19.4868,22.442,31.855,4.8352,14.3721,6.8329,29.5748,7.9903,44.6374,1.2984,16.8976,1.3889,33.8688.8436,50.8008-.549,17.046-1.7438,34.0632-3.0661,51.0642-.3259,4.1902-.6598,8.3797-.994,12.5692l1.75-1.75c-13.0156,1.3173-26.1285.3216-38.77-3.0588-2.1783-.5825-3.1077,2.7928-.9304,3.375,12.9222,3.4555,26.3937,4.5307,39.7005,3.1839,1.0015-.1014,1.6681-.7233,1.75-1.75,1.4094-17.6659,2.8137-35.3368,3.64-53.0416.8149-17.4608,1.0713-34.9659.1544-52.4282-.844-16.0743-2.4332-32.3419-6.6849-47.9135-3.6323-13.3032-9.47-27.3549-20.273-36.4467C87.2304,3.023,73.8663-.4866,62.0202,5.2075c-12.387,5.9541-19.3003,19.5994-23.7671,31.9101-5.5532,15.3049-8.4271,31.6202-10.8778,47.6653-2.6178,17.139-4.5927,34.4037-6.3829,51.6471-.9008,8.6768-1.6206,17.3842-1.7367,26.111-.056,4.2117.0286,8.4265.3107,12.6296.2759,4.1105.5901,8.3504,1.4836,12.3799.3763,1.6971,1.0287,3.4835,2.3861,4.6453,1.4807,1.2673,3.3775,1.4449,5.2297,1.6918l13.1016,1.7468c8.8992,1.1865,17.7984,2.373,26.6976,3.5595,4.2848.5713,8.5696,1.1426,12.8544,1.7138.9448.126,1.7411-.8947,1.75-1.75.0109-1.0487-.8169-1.6256-1.75-1.75h0Z"/>
</svg>