<?xml version="1.0" encoding="UTF-8"?>
<svg id="Layer_1" data-name="Layer 1" xmlns="http://www.w3.org/2000/svg" viewBox="0 0 130.9075 86.5489">
  <defs>
    <style>
      .cls-1 {
        fill: #fff;
      }

      .cls-2 {
        fill: #29abe2;
      }

      .cls-3 {
        fill: #fbb03b;
      }
    </style>
  </defs>
  <g>
    <path class="cls-2" d="M74.8759,1.9496c4.9284,2.3824,6.4754,7.1561,8.06,12.0836,3.6479-2.0116,5.3108-1.2342,8.3362,1.0706,2.2138-3.1354,6.8158-5.8161,10.7288-5.3563,1.4574.1712,2.2616,1.6681,3.2937,1.6527,2.2861-.034,8.1402-3.5084,10.6379-2.0644,1.8256,1.1425,1.2694,2.5815.7841,4.2801,2.2302-.2426,6.1996-.2601,6.4213,2.7337.1244,1.6798-1.8733,2.8971-1.9625,3.4384-.147.8917.8044,1.969.4757,3.5347-.2912,1.3868-6.8488,8.8848-8.1086,9.4367-1.3942.6108-3.3103-.0538-4.0297.3004-.8172.4023-2.1405,4.3832-6.0433,3.3364,1.9892,5.5966-6.1508,2.4397-7.9015,3.6325-.9979.6799-1.1917,3.4205-2.8659,4.2351-2.2275,1.0838-5.6978-1.218-7.0858-.7533-.6129,6.6092-5.3869,4.425-10.0369,4.4341-2.0355.9175-.9845,4.0589-3.1618,5.2063-3.2104,1.6918-7.6224-1.5724-8.5478-1.0439-2.6342,8.1053-7.0335,7.4669-13.7969,4.2427-1.92,5.1304-5.0089,10.348-10.2989,5.0834l-4.9409,4.5504c-1.7526.6124-3.3787-2.0968-4.1137-1.902-.3829.1015-1.7087,2.3174-2.6299,2.8367-3.0329,1.7095-3.9309-1.555-5.2463-1.4045-1.0351.1184-2.0112,2.5109-3.0505,2.8794-1.3789.4889-3.151-1.3527-4.4587-.9082-1.6365.5562-4.7734,4.9273-7.6322,4.8175l-.5996-5.6245c-.1861-.5613-4.7988.3331-6.0631-3.3498-1.5012-4.373,5.2608-3.9727,5.8232-5.9447-1.4351-2.4971-3.533-4.2371-1.1218-7.0754l9.4143-1.4739c-1.0404-2.2984-.6292-6.8296,1.7436-8.1218,2.2597-1.2305,7.8424,2.5415,10.7969.5582,1.543-6.9334-2.736-13.7191-.5324-20.6368,2.5154-7.8966,16.4607-15.1234,24.2491-10.5119C55.472.2626,65.5638-2.5518,74.8759,1.9496ZM73.0871,4.6718c-9.4608-4.4628-16.0178.264-20.5452,8.5316-5.7921-1.1137-7.8019-2.5213-13.8018.1542-11.243,5.0135-9.9806,13.394-7.7591,23.7672,2.5709.8589,5.2844,1.715,8.0346,1.0463-.8669-1.4659-.7138-6.1782.6898-7.1121l11.1723.8128c.4014-1.0989.3565-2.0669.953-3.2022,3.6406-6.9293,6.6123.2388,10.4933-1.6511,2.933-1.4283,6.4996-13.7548,13.2639-6.4844l5.2151-4.8136c-1.7951-4.313-3.2716-8.9522-7.716-11.0487ZM101.7593,12.9754c-3.4419-.8584-7.7117,4.2793-10.5592,5.7192-2.319.6113-2.5995-3.2582-5.6141-2.2041-5.064,1.7709-7.3665,11.7482-13.7069,5.2905l-.8492.1088c-5.6174,4.9107-6.6038,11.7854-15.641,6.9484l-2.6431,6.3618-10.8342-1.4309c-1.4551.6832,1.3354,6.1647-1.4666,7.3103-1.9629.8025-7.1538-.1263-9.308-.7483-.7698,6.2039-8.3079,4.2436-12.6125,3.1804-2.19,2.4726.5769,6.1188-2.3291,8.1408-1.7524,1.2193-6.3314,1.1301-8.5424,1.2822-.0622,2.4088,5.6773,2.5717,3.9174,5.1558l-8.1215,4.3169c1.7882,2.0252,3.4873,1.2411,5.8638,1.0623l.3479,4.6586c4.1242-1.8387,5.0634-7.1785,9.7148-2.8134,1.6493-3.8698,4.9669-5.9731,6.8878-1.0853l4.5182-3.7416c1.5428-.4058,2.6405,1.1096,3.2775,2.3137.9867-1.3521,2.8859-3.3025,4.5313-3.7103,1.6397-.4064,3.7653,1.8431,5.4766,1.3898,1.9777-.5239,1.5739-7.211,7.2738-6.8451,2.3692.1521,4.4537,2.858,7.3935,1.7245,1.2677-.4888.9351-5.3622,4.5426-6.6063,2.6386-.91,5.0869,2.4006,6.8499,1.7657l4.2282-5.6976,8.0911.5401c-.5448-7.6824,7.7173-2.966,9.1969-4.0436,1.2727-2.3316-.0605-5.3575,3.4211-6.0825,2.4667-.5136,1.4641,1.9131,2.5115,2.2409.503.1574,3.2834.0396,3.4308-.1848l.1332-2.8598c1.5028-1.0024,4.0571-.4944,4.9601-1.0024.5352-.3011.0866-1.4669.4284-1.923,1.6973-2.2646,5.4405-1.0233,5.7641-1.3524.3912-.3978.5876-1.7252,1.2509-2.5031,1.4776-1.7329,3.2014-3.2804,4.8049-4.8957l-1.2234-3.0504,2.3605-2.2405c-3.0577-1.5757-9.391.8887-7.3252-4.9604-2.6761.8608-5.8952,2.683-8.7488,1.776-.6776-.2154-1.1552-1.1811-1.6518-1.305Z"/>
    <path class="cls-1" d="M101.7593,12.9754c.4966.1239.9742,1.0896,1.6518,1.305,2.8537.907,6.0727-.9152,8.7488-1.776-2.0657,5.849,4.2675,3.3847,7.3252,4.9604l-2.3605,2.2405,1.2234,3.0504c-1.6035,1.6153-3.3273,3.1628-4.8049,4.8957-.6633.7779-.8597,2.1053-1.2509,2.5031-.3237.3291-4.0668-.9122-5.7641,1.3524-.3419.4561.1068,1.6219-.4284,1.923-.903.5081-3.4573,0-4.9601,1.0024l-.1332,2.8598c-.1474.2243-2.9279.3422-3.4308.1848-1.0475-.3278-.0449-2.7545-2.5115-2.2409-3.4816.725-2.1484,3.7509-3.4211,6.0825-1.4796,1.0776-9.7417-3.6388-9.1969,4.0436l-8.0911-.5401-4.2282,5.6976c-1.7631.6349-4.2113-2.6757-6.8499-1.7657-3.6075,1.2441-3.2749,6.1175-4.5426,6.6063-2.9398,1.1335-5.0243-1.5724-7.3935-1.7245-5.6999-.3659-5.2961,6.3212-7.2738,6.8451-1.7112.4533-3.8369-1.7962-5.4766-1.3898-1.6454.4078-3.5447,2.3582-4.5313,3.7103-.637-1.204-1.7347-2.7194-3.2775-2.3137l-4.5182,3.7416c-1.9209-4.8878-5.2385-2.7844-6.8878,1.0853-4.6514-4.3651-5.5906.9747-9.7148,2.8134l-.3479-4.6586c-2.3765.1789-4.0756.9629-5.8638-1.0623l8.1215-4.3169c1.7598-2.5842-3.9797-2.7471-3.9174-5.1558,2.211-.1521,6.79-.0629,8.5424-1.2822,2.906-2.0219.1391-5.6681,2.3291-8.1408,4.3046,1.0631,11.8426,3.0234,12.6125-3.1804,2.1542.622,7.3452,1.5508,9.308.7483,2.802-1.1456.0116-6.6271,1.4666-7.3103l10.8342,1.4309,2.6431-6.3618c9.0372,4.837,10.0237-2.0377,15.641-6.9484l.8492-.1088c6.3404,6.4577,8.6429-3.5196,13.7069-5.2905,3.0145-1.0542,3.2951,2.8153,5.6141,2.2041,2.8476-1.4399,7.1173-6.5776,10.5592-5.7192ZM88.7928,30.7897c-1.1804-.5947-11.4102.5884-12.9823,1.0988-1.1975.3887-2.1264,1.4661-3.3839,1.8866-9.9074,3.3127-20.6183,4.4491-29.8007,9.3948-2.9849,1.6077-5.255,2.7425-3.6816,6.4342,1.4991,3.5173,4.7313,3.0755,7.9214,2.7245,12.0128-1.3217,28.0271-8.5178,39.0234-13.7558,2.8862-1.3748,7.41-5.5128,2.9038-7.783Z"/>
    <path class="cls-1" d="M73.0871,4.6718c4.4444,2.0965,5.9209,6.7357,7.716,11.0487l-5.2151,4.8136c-6.7644-7.2704-10.3309,5.0561-13.2639,6.4844-3.8811,1.89-6.8527-5.2782-10.4933,1.6511-.5965,1.1354-.5517,2.1033-.953,3.2022l-11.1723-.8128c-1.4035.9339-1.5566,5.6462-.6898,7.1121-2.7502.6688-5.4637-.1874-8.0346-1.0463-2.2215-10.3732-3.4839-18.7537,7.7591-23.7672,5.9999-2.6755,8.0097-1.2679,13.8018-.1542C57.0693,4.9359,63.6263.209,73.0871,4.6718Z"/>
    <path class="cls-2" d="M88.7928,30.7897c4.5063,2.2703-.0176,6.4083-2.9038,7.783-10.9963,5.2379-27.0106,12.4341-39.0234,13.7558-3.1901.351-6.4223.7928-7.9214-2.7245-1.5734-3.6917.6967-4.8264,3.6816-6.4342,9.1824-4.9458,19.8933-6.0822,29.8007-9.3948,1.2574-.4204,2.1864-1.4979,3.3839-1.8866,1.5721-.5103,11.8019-1.6934,12.9823-1.0988ZM87.1145,33.3021c-8.1071.3448-14.9076,3.7738-22.4122,5.9847-7.9127,2.3311-13.1499,2.9705-21.1029,6.8867-1.7891.881-2.7878,2.7203-.3832,3.1043,5.2629.8406,21.3969-4.7735,26.7385-6.9998,2.8303-1.1796,5.9142-3.2401,8.723-4.5509,2.6533-1.2383,7.5091-1.5389,8.4369-4.4249Z"/>
    <path class="cls-1" d="M87.1145,33.3021c-.9278,2.8861-5.7836,3.1867-8.4369,4.4249-2.8088,1.3108-5.8927,3.3712-8.723,4.5509-5.3416,2.2263-21.4756,7.8404-26.7385,6.9998-2.4046-.3841-1.4059-2.2233.3832-3.1043,7.953-3.9162,13.1902-4.5556,21.1029-6.8867,7.5047-2.2108,14.3051-5.6399,22.4122-5.9847Z"/>
  </g>
  <path class="cls-3" d="M40.5887,55.8928c1.5335,8.1037,3.9414,16.1159,10.0369,22.034,6.2596,6.0774,15.3206,7.8637,23.7116,6.3561,16.5546-2.9743,24.8126-22.7199,20.2981-37.8694-1.2067-4.0493-3.3299-8.0822-7.1004-10.2887-4.2208-2.47-9.1319-1.6507-13.6533-.6967-3.4162.7208-6.7078,1.9309-10.1069,2.719-3.2885.7624-6.7252.8525-9.9275,1.958-9.6767,3.3405-14.9665,14.4175-7.2323,22.7199,5.7444,6.1665,16.0949,7.3998,24.0217,7.7503,14.1067.6237,14.0763-21.3022,0-21.9246-1.8489-.0818-3.5528-.2232-5.3508-.6493-1.0848-.2498-2.1578-.5431-3.2188-.8799-.7458.1948-.3389.6624,1.2209,1.4029l1.4967,5.5329-.0412-1.1559c-1.0703,2.5838-2.1405,5.1677-3.2108,7.7515-.2379-.0257-.4471.0369-.6275.1879.8661-.2251,1.7425-.3978,2.6292-.5182,2.0338-.3385,4.054-.5669,6.0688-1.034,2.2686-.5259,4.4828-1.2573,6.7297-1.8635,1.1178-.3164,2.2436-.6015,3.3773-.8554,2.4781-.3551,2.2707-.4912-.6222-.4084l-4.8373-2.8192c-1.1553-1.0176-.3225.0083-.3456,1.8094-.0206,1.6038-.3336,3.4032-1.0088,4.8757-.7762,1.6927-1.2169,2.3828-2.9405,2.8568-6.6608,1.8315-7.4581-8.7652-8.2253-12.8195-1.1014-5.8206-8.1116-9.1332-13.4849-7.6565-6.0993,1.6762-8.7611,7.6476-7.6565,13.4849h0Z"/>
</svg>