<?xml version="1.0" encoding="UTF-8"?>
<svg id="Layer_1" data-name="Layer 1" xmlns="http://www.w3.org/2000/svg" viewBox="0 0 102.9995 89.9084">
  <defs>
    <style>
      .cls-1 {
        fill: #fff;
      }

      .cls-2 {
        fill: #29abe2;
      }

      .cls-3 {
        fill: #fbb03b;
      }
    </style>
  </defs>
  <g>
    <path class="cls-1" d="M36.128,68.0518c-3.8355.9251-7.9368-.3473-11.2163-2.5396s-5.883-5.2334-8.4421-8.2344c-1.9493-2.2859-3.912-4.591-5.3737-7.2151-3.6662-6.5816-3.8464-14.5785-2.6505-22.0156.3992-2.4829.9693-5.0122,2.3809-7.094,1.2149-1.7918,2.9768-3.1365,4.7768-4.3403,11.3804-7.6111,25.3681-10.7266,39.0608-10.5352,10.2431.1431,20.8475,2.2275,29.0251,8.393s13.2972,17.1037,10.4068,26.9246c-1.2475,4.2387-3.8198,7.9441-6.3566,11.5627-1.8501,2.6391-3.7678,5.3402-6.4612,7.1118-2.2016,1.4481-4.7842,2.182-7.3213,2.8956-11.8558,3.3345-23.9901,6.7007-36.2818,5.9201-1.1876-.0754-2.4108-.2007-3.4559-.7695"/>
    <path class="cls-2" d="M35.889,67.1848c-1.7798.4199-3.6545.3315-5.4412-.1267-1.8551-.4757-3.524-1.2751-5.1278-2.3529-3.27-2.1974-5.8803-5.3236-8.4368-8.3238-1.334-1.5656-2.6588-3.1336-3.8129-4.8361-1.0964-1.6175-2.0151-3.3568-2.6659-5.1379-1.3399-3.6668-1.7819-7.4309-1.7132-11.3113.0175-.9859.0692-1.9711.1504-2.9538.0774-.9355.1906-1.9529.3108-2.8004.2741-1.9332.6062-3.8877,1.3007-5.7205.6598-1.741,1.7765-3.2126,3.2181-4.4582,1.4199-1.227,3.0921-2.2784,4.7384-3.2625,3.3414-1.9973,6.8273-3.6123,10.4624-4.8995,3.6908-1.307,7.4988-2.2751,11.3567-2.9384,3.7936-.6522,7.6788-1.0006,11.5896-1.0781,1.9233-.0381,3.8484-.0123,5.7696.0869.9602.0496,1.9196.1177,2.877.2061.4879.0451.9754.0954,1.4622.1512.4393.0504.9211.1106,1.2712.1593,3.7689.5243,7.5009,1.3963,11.0623,2.7474,1.6925.642,3.35,1.4061,4.9826,2.3165.8277.4616,1.6375.9556,2.4255,1.4823.4027.2692.7997.5469,1.1905.833.1764.1291.3515.2599.5252.3926.114.087.0022,0,.1145.0892.0979.0779.1963.1553.2936.234,1.3457,1.087,2.5918,2.2968,3.7236,3.6049.5847.6758,1.0082,1.2113,1.5021,1.8974.5063.7033.9816,1.4289,1.4235,2.1744.4402.7425.8473,1.5048,1.2179,2.2844.0873.1837.1726.3683.2559.5538.0384.0855.0763.1713.1138.2572.025.0572.0497.1146.0744.172.0615.1433-.0412-.0998.0186.044.1615.3883.3141.7803.4572,1.1757.5784,1.5987.9959,3.2507,1.2402,4.9332.0237.1635-.0031-.038.0167.1259.0129.1065.026.213.0378.3197.0237.2131.0444.4266.0621.6403.0352.427.0582.855.0684,1.2833.0197.8261-.008,1.6534-.0855,2.4761-.0201.2138-.0443.4271-.0705.6403-.0131.1066-.0006.009.002-.0106-.0062.0457-.0128.0913-.0194.1369-.0176.1218-.0363.2434-.0562.3648-.0672.4112-.1473.8203-.24,1.2265-.2096.9175-.4872,1.8185-.8189,2.6991-1.4019,3.7219-3.8211,7.0805-6.1164,10.3383-1.0978,1.5582-2.1607,3.0194-3.5088,4.3806-1.3533,1.3664-2.8943,2.4171-4.6736,3.1682-1.826.7708-3.8201,1.2819-5.7466,1.8227-2.1391.6005-4.2796,1.1959-6.4276,1.764-4.2724,1.1299-8.5779,2.1541-12.9386,2.8827-4.2858.7161-8.6318,1.1258-12.9811,1.0528-1.0276-.0173-2.0569-.0555-3.0817-.1359-.8672-.0681-1.7978-.2085-2.569-.6164-.4291-.2269-.9778-.1089-1.2301.3225-.2376.4063-.1082,1.0023.3225,1.2301.9853.5211,2.051.7277,3.1511.8338,1.0908.1052,2.1916.1412,3.2869.162,2.2417.0424,4.4851-.0447,6.7188-.2353,4.5476-.3882,9.0525-1.1896,13.4998-2.2017,4.4139-1.0045,8.7773-2.2146,13.1342-3.4388,2.0359-.5721,4.0768-1.133,6.013-1.9966,1.8664-.8325,3.5187-2.0259,4.9398-3.4919,1.3989-1.4432,2.5809-3.0839,3.7346-4.7243,1.1944-1.6985,2.3906-3.3991,3.4753-5.1707,1.1135-1.8187,2.0992-3.7206,2.8276-5.7279.6333-1.7452,1.0221-3.5633,1.1835-5.4123.3035-3.4777-.2729-7.0289-1.4805-10.2945-1.2556-3.3954-3.1483-6.52-5.5237-9.2485-2.4404-2.8031-5.4192-5.0977-8.665-6.8958-3.4367-1.9039-7.1678-3.2647-10.9831-4.1813-3.8482-.9245-7.8008-1.4176-11.7511-1.6077-3.9826-.1916-7.9842-.0873-11.9517.308-4.0551.4041-8.0843,1.1051-12.0216,2.1608-3.896,1.0447-7.702,2.4384-11.3363,4.1903-1.7968.8661-3.5499,1.8234-5.246,2.8733-1.722,1.066-3.4501,2.1995-4.9232,3.5984-1.5303,1.4532-2.6093,3.2155-3.2923,5.207-.667,1.9449-.9737,4.0034-1.2414,6.035-.531,4.0296-.6086,8.1235.042,12.1441.6529,4.0353,2.1565,7.8489,4.5185,11.1903,1.2516,1.7706,2.6603,3.4225,4.0662,5.0707,1.3298,1.5591,2.6657,3.1167,4.1139,4.5682,2.8852,2.8916,6.3251,5.3957,10.3778,6.2959,1.9571.4347,3.9786.4777,5.9349.0161.4727-.1115.7532-.6503.6279-1.106-.1329-.4836-.6318-.7398-1.106-.6279h0Z"/>
  </g>
  <path class="cls-3" d="M36.0593,67.851c.7899,6.3882,4.8891,10.7539,11.6181,10.8099,5.1541.0429,11.9036-1.193,16.755-2.9309,13.2267-4.7383,13.6844-18.8016,11.7387-30.5793-.905-5.478-2.2914-11.0709-7.3445-14.2072-5.2788-3.2764-13.514-3.0462-19.5354-2.3831-12.125,1.3353-21.4232,8.6007-23.2541,21-1.816,12.2989,2.4259,24.7035,12.6823,32.0829,9.196,6.6164,22.052,6.975,31.327.3061,18.461-13.274,11.1281-49.6244-13.8964-48.5367-13.0355.5666-23.1798,15.2129-17.2257,27.4605,2.7676,5.693,8.8302,9.0458,15.1581,7.5834,6.2608-1.4469,11.5383-7.6901,10.8055-14.2715-.5376-4.8285-3.7501-8.9966-8.9966-8.9966-4.4464,0-9.5378,4.1364-8.9966,8.9966l1.3851-2.3431,6.6187.9645c.3088,1.4712.4376,1.6953.3867.6723-.1242-.5633-.1108-.7463.0401-.549.2646-.2011.2613-1.0585.6989-1.3548,1.7814-1.2062,4.1381.8567,5.0145,2.2684,3.1784,5.1198,1.8006,13.8921-4.9262,14.9895-7.7259,1.2604-12.5034-6.891-12.5835-13.5218-.0392-3.247.2353-6.5382,3.4942-7.9806,3.1237-1.3826,11.2071-1.9893,13.2654-.4417l-3.2276-3.2276c1.9881,2.7008,3.3787,11.1878,1.9241,14.4153-.5305,1.177-2.2516,1.1506-4.2824,1.5004-1.6744.2884-3.3558.56-5.0362.8089-.8086.1198-2.2469-.1205-1.5385.1429l3.9699,2.3137-.5818-.5568,2.6351,6.3616-.0985-.7963c-.5961-4.8213-3.7082-8.9966-8.9966-8.9966-4.399,0-9.597,4.1414-8.9966,8.9966h0Z"/>
  <g>
    <path class="cls-2" d="M88.9954,32.9597c.7748.595,1.9309.3378,2.8137,1.588,1.4815,2.0979.974,6.4857-.7775,8.3523-3.2167,3.428-1.518,1.9164-3.2844,5.5298-1.5754,3.2226-6.9638,5.9917-10.2368,7.1852-7.4383,2.7122-21.682,2.8045-23.0782-7.2349l-3.8926.4767c-1.2291,8.1722-6.0775,9.7418-13.4809,10.8008-6.6854.9563-18.0157,1.4277-19.5166-7.1315-5.8994,3.2207-9.4765-6.3488-6.2476-10.1146.5719-.667,1.4051-.659,1.7046-.9735.3982-.4181.1149-1.2677.7447-1.8855.9686-.9502,3.2206-1.6763,4.6116-3.0279,4.7971-4.6612,5.102-11.8225,12.4016-14.9319,7.5477-3.215,28.7478-6.4473,36.3867-3.9388,9.9083,3.2537,14.3143,9.5176,21.8517,15.3059ZM77.1435,26.8338c-12.1682-10.3313-22.5298-8.8405-37.6441-5.4283-7.3025,1.6486-12.3535,3.6835-15.3819,10.9679,2.7971-1.2514,4.9365-3.4,7.8533-4.5911,3.7181-1.5183,6.8191-1.6828,10.7744-2.0187,9.743-.8273,17.9679-1.6068,27.7435.4767,2.8564.6088,5.7024,2.6721,8.424,2.3945-.781-.4091-1.1776-1.2987-1.7691-1.8009ZM84.5809,33.0753c-4.7211-1.2527-10.0244-3.4746-14.7278-4.4774-10.0715-2.1473-22.3907-1.7055-32.5693-.1109-5.6744.8889-14.0134,6.6869-16.6613,11.8405,5.3401-2.424,14.2494-4.6134,19.8708-2.8485,2.352.7384,6.1476,3.8644,7.3445,4.1866,1.4008.3771,7.3072-1.8398,9.4134-.7154,1.9051-4.926,15.5928-8.9094,20.2637-8.5015,1.7511.1529,5.7779,2.5974,6.9145,1.5855l.1515-.9589ZM34.2477,39.599c-6.2721.7873-15.1082,1.6872-14.6335,10.0995.3934,6.9723,6.1441,8.0652,12.0583,8.0327,2.7548-.0152,10.7927-1.2323,12.9259-2.7101,2.9578-2.0491,4.3417-8.703,2.2361-11.5534-.8528-1.1545-8.7952-4.1817-10.4373-4.1889-.8621-.0038-1.4307.2299-2.1495.3201ZM59.0921,44.6188c3.1502-4.0405,12.4047-7.5211,17.5759-7.4439,6.3193.0944,9.7363,6.4873,4.6346,11.1625-5.6356,5.1645-23.295,7.7555-22.2105-3.7187-.606.7772-.3984,1.2157-.7492,1.7665-.3395.533-1.3243.6692-1.3753,1.1436-.0522.4856,1.2473,4.241,1.5806,4.6152,1.2596,1.4143,10.7159,2.8338,12.7734,2.6281,3.4631-.3463,12.7395-4.4675,14.117-7.8434.081-.1985.6116-4.0334.5943-4.2471-.3221-3.9767-5.366-7.3531-9.0686-7.4462-2.7946-.0703-14.8975,3.5577-16.5607,5.4814-.9631,1.1139-1.1801,2.5139-1.3113,3.9019ZM88.3444,42.2061c3.6684-3.4556,3.2247-8.7985-3.0546-6.8294,1.2286,2.2055,2.9171,4.1355,3.0546,6.8294ZM18.9254,42.407c-4.1842.7257-7.4043.8291-6.0317,6.0339.6092,2.3102,2.021,2.3182,4.0378,2.7184-.3497-3.1066.5775-6.0672,1.9939-8.7523ZM61.5836,44.9247c-1.8413,8.028,12.6864,5.1043,16.4898,2.928,5.8278-3.3345,3.7151-8.6552-3.0461-8.1633-5.6575.4117-8.4897,3.6892-13.4437,5.2352ZM55.1366,43.11l-5.1818.5061.2796,2.8309,4.2368-.6409.6655-2.6961Z"/>
    <path class="cls-1" d="M77.1435,26.8338c.5915.5022.9881,1.3918,1.7691,1.8009-2.7216.2776-5.5676-1.7857-8.424-2.3945-9.7756-2.0834-18.0005-1.304-27.7435-.4767-3.9553.3359-7.0563.5004-10.7744,2.0187-2.9168,1.1911-5.0562,3.3397-7.8533,4.5911,3.0284-7.2844,8.0794-9.3193,15.3819-10.9679,15.1143-3.4122,25.4759-4.903,37.6441,5.4283Z"/>
    <path class="cls-1" d="M59.0921,44.6188c.1312-1.388.3482-2.788,1.3113-3.9019,1.6632-1.9237,13.7661-5.5517,16.5607-5.4814,3.7027.0931,8.7465,3.4695,9.0686,7.4462.0173.2137-.5132,4.0486-.5943,4.2471-1.3775,3.3759-10.6539,7.4971-14.117,7.8434-2.0575.2057-11.5138-1.2138-12.7734-2.6281-.3332-.3742-1.6328-4.1296-1.5806-4.6152.051-.4744,1.0358-.6106,1.3753-1.1436.3508-.5508.1433-.9893.7492-1.7665-1.0844,11.4742,16.5749,8.8832,22.2105,3.7187,5.1017-4.6752,1.6847-11.0682-4.6346-11.1625-5.1712-.0772-14.4258,3.4033-17.5759,7.4439Z"/>
    <path class="cls-1" d="M34.2477,39.599c.7188-.0902,1.2874-.3239,2.1495-.3201,1.642.0072,9.5844,3.0344,10.4373,4.1889,2.1056,2.8504.7218,9.5043-2.2361,11.5534-2.1332,1.4778-10.1711,2.695-12.9259,2.7101-5.9142.0325-11.6649-1.0603-12.0583-8.0327-.4747-8.4123,8.3614-9.3123,14.6335-10.0995ZM29.128,41.0323c-5.4746,1.4956-10.6435,9.2561-4.2789,12.8804,3.895,2.218,14.3901,1.8713,18.3741-.0196,3.4099-1.6183,4.7242-3.9535,3.547-7.7126-1.7669-5.6423-12.8868-6.4474-17.6422-5.1483Z"/>
    <path class="cls-1" d="M18.9254,42.407c-1.4164,2.6851-2.3435,5.6457-1.9939,8.7523-2.0168-.4002-3.4286-.4082-4.0378-2.7184-1.3726-5.2048,1.8476-5.3081,6.0317-6.0339Z"/>
    <path class="cls-1" d="M88.3444,42.2061c-.1375-2.6939-1.826-4.6239-3.0546-6.8294,6.2792-1.9691,6.7229,3.3737,3.0546,6.8294Z"/>
    <polygon class="cls-1" points="55.1366 43.11 54.4712 45.8061 50.2343 46.447 49.9548 43.6161 55.1366 43.11"/>
    <path class="cls-2" d="M29.128,41.0323c4.7554-1.2992,15.8753-.4941,17.6422,5.1483,1.1771,3.7591-.1371,6.0942-3.547,7.7126-3.9841,1.8909-14.4792,2.2375-18.3741.0196-6.3646-3.6243-1.1957-11.3848,4.2789-12.8804ZM44.2881,50.227c1.3614-2.0295-.4057-5.0816-2.2096-6.2377-2.7158-1.7405-9.5959-1.4515-12.6125-.5152-3.423,1.0624-7.7307,6.0275-3.3974,8.4238,3.1092,1.7193,16.2886,1.2077,18.2195-1.6708Z"/>
  </g>
</svg>