<?xml version="1.0" encoding="UTF-8"?>
<svg id="Layer_1" data-name="Layer 1" xmlns="http://www.w3.org/2000/svg" xmlns:xlink="http://www.w3.org/1999/xlink" viewBox="0 0 144.4857 98.5222">
  <defs>
    <style>
      .cls-1 {
        fill: none;
      }

      .cls-2 {
        fill: url(#New_Pattern);
        stroke: #3fa9f5;
        stroke-miterlimit: 10;
        stroke-width: .5652px;
      }

      .cls-3 {
        fill: blue;
      }

      .cls-4 {
        fill: #fff;
      }
    </style>
    <pattern id="New_Pattern" data-name="New Pattern" x="0" y="0" width="10" height="10" patternTransform="translate(-920.3381 -484.8185)" patternUnits="userSpaceOnUse" viewBox="0 0 10 10">
      <g>
        <rect class="cls-1" width="10" height="10"/>
        <rect class="cls-4" width="10" height="10"/>
        <circle class="cls-3" cx="5.0001" cy="4.9999" r="2.053"/>
      </g>
    </pattern>
  </defs>
  <path class="cls-2" d="M122.9467,84.5502c-7.7125-1.0314-15.5455-1.158-23.2872-.376,3-6.8781,3.7341-14.7225,2.0626-22.0378-1.6714-7.3152-5.7399-14.0623-11.4296-18.9547-.9994-.8594-2.0743-1.6779-3.3271-2.0877-1.129-.3693-2.3387-.3864-3.5266-.393-9.6103-.0539-19.223.3452-28.7957,1.1959-.4501.0399-.9311.0935-1.276.3853-.3351.2836-.4705.7326-.5829,1.1569-1.4729,5.5625-1.7814,11.3573-2.0827,17.1037-.4354,8.3076-.871,16.6154-1.3064,24.9231-9.7905.7467-19.6302.8509-29.4343.3115l-.5251.3765c-1.3882-11.3191.3735-23.0081,5.0362-33.4154,2.4905-5.5588,5.7722-10.724,9.1584-15.7872,3.6263-5.4222,7.4311-10.8042,12.2725-15.1758,2.3897-2.1577,5.0589-4.0749,8.0869-5.1697,2.8011-1.0128,5.8128-1.2889,8.7901-1.3746,7.9517-.2288,15.9396.8508,23.5452,3.1823,7.6132,2.3339,14.8958,5.9584,20.9396,11.1428,6.0438,5.1844,10.8084,11.9808,13.0103,19.6332,1.5386,5.3472,1.8111,10.9646,2.0741,16.5225.3076,6.4996.6152,12.999.9227,19.4986"/>
  <path class="cls-2" d="M122.9467,83.2726c-7.7376-1.0006-15.5214-1.1263-23.2872-.376l1.1032,1.9224c6.2468-14.7753,2.5838-32.6855-10.0732-42.9652-3.2575-2.6456-6.7286-2.4529-10.7452-2.43-4.805.0274-9.6095.1694-14.408.4236-2.3265.1232-4.6516.273-6.9747.4494-1.6713.1269-4.3911-.1592-5.8391.8821-1.2706.9138-1.4441,2.9182-1.7334,4.3177-.4664,2.2549-.7763,4.5437-1.0047,6.8342-1.0957,10.9856-1.2889,22.1114-1.8668,33.1347l1.2776-1.2776c-5.617.4175-11.2452.6447-16.8781.6501-2.7435.0027-5.4872-.0446-8.229-.1425-1.7273-.0616-4.0186-.7057-5.4974.3547l1.9224,1.1032c-1.4607-12.5831.8201-25.2598,6.6743-36.503,2.8924-5.5548,6.3975-10.8223,9.9995-15.9383,3.5296-5.0131,7.5283-10.1311,12.6558-13.6106,5.553-3.7684,12.2168-3.8646,18.701-3.5203,6.614.3513,13.1764,1.6287,19.4418,3.7779,11.2645,3.8644,21.7016,10.9562,27.6291,21.5028,3.5703,6.3524,4.6731,13.323,5.0877,20.5105.439,7.6076.7315,15.2261,1.0917,22.8379.0775,1.6371,2.633,1.6466,2.5551,0-.3536-7.473-.6567-14.9503-1.0688-22.4202-.3529-6.3975-1.1138-12.7371-3.6936-18.6614-4.9877-11.4529-15.1286-19.7335-26.4447-24.5174-6.0914-2.5752-12.5276-4.2397-19.0827-5.0816-6.5617-.8427-14.2601-1.4437-20.6096.8438-5.8087,2.0927-10.4399,6.7867-14.2649,11.4701-4.1158,5.0392-7.7517,10.5486-11.1302,16.1027-7.9649,13.0946-11.8766,27.8739-10.0965,43.2076.0992.8549,1.0463,1.7314,1.9224,1.1032.5681-.4073,1.3281-.1264,2.0435-.094,1.2982.0589,2.597.1071,3.8961.1432,2.5981.0723,5.1975.1003,7.7967.0827,5.1993-.0349,10.3937-.2601,15.5785-.6456.717-.0534,1.2391-.5434,1.2776-1.2776.4354-8.3076.8687-16.6154,1.3064-24.9231.2173-4.1256.4197-8.2697,1.1-12.3503.1574-.944.3362-1.8845.5468-2.8181.2915-1.2919.4291-1.8909,1.8875-2.2757,1.9801-.5226,4.4912-.3593,6.534-.4911,4.0687-.2621,8.1426-.4429,12.2186-.5423,2.0379-.0498,4.0764-.079,6.115-.0879,1.9008-.0084,4.0508-.2589,5.9016.258,3.2743.9143,6.2054,4.619,8.1678,7.242,2.0352,2.7206,3.7018,5.7541,4.8516,8.9527,2.9223,8.1297,2.6149,17.1504-.7458,25.0998-.3323.7859.0227,2.0268,1.1032,1.9224,7.7659-.7503,15.5497-.6246,23.2872.376,1.6261.2104,1.6108-2.3469,0-2.5551h0v-.0003Z"/>
</svg>