<?xml version="1.0" encoding="UTF-8"?>
<svg id="Layer_1" data-name="Layer 1" xmlns="http://www.w3.org/2000/svg" viewBox="0 0 129.6519 93.5413">
  <defs>
    <style>
      .cls-1 {
        fill: #fff;
      }

      .cls-2 {
        fill: #29abe2;
      }

      .cls-3 {
        fill: #fbb03b;
      }
    </style>
  </defs>
  <g>
    <path class="cls-1" d="M25.8361,72.2746c.921-6.9652.0388-14.0241-.1645-21.047-.2033-7.0229.3573-14.3494,3.8435-20.4494,1.6704-2.9227,3.9563-5.4541,6.4431-7.723,2.6655-2.432,5.6224-4.6124,8.9775-5.9401,5.3345-2.1112,11.2645-1.9315,16.9938-1.6326,4.8357.2524,9.7171.5759,14.3588,1.9553,6.465,1.9213,12.1858,5.8167,17.2297,10.294,9.143,8.116,16.4027,18.3406,21.051,29.648.3663.891.7175,1.902.3449,2.7903-.4554,1.0855-1.7587,1.486-2.9039,1.7583-4.4577,1.0601-8.9154,2.1202-13.373,3.1804-6.2707,1.4913-12.5438,2.9831-18.8734,4.2004-13.0924,2.5179-26.4116,3.8549-39.7432,3.9895-3.5796.0361-7.1595-.0142-10.739-.0645-1.2341-.0173-2.502-.0413-3.6444-.5083"/>
    <path class="cls-2" d="M27.3244,72.2746c.5541-4.2396.4524-8.5235.2379-12.7832-.2061-4.0913-.516-8.1844-.4208-12.2837.0219-.9443.0646-1.8882.1335-2.8303.0344-.4702.0752-.9399.1233-1.4089.024-.2341.0498-.468.0775-.7017.0128-.1077.0259-.2154.0395-.3231.0068-.0538.0138-.1076.0206-.1614.025-.1955.0115-.0186-.01.0733.1055-.4516.1367-.9317.2166-1.3896.0803-.4604.1692-.9193.2674-1.3762.1955-.9098.4279-1.8119.7027-2.7011.137-.4433.2844-.8834.4429-1.3195.0792-.218.1613-.4349.2461-.6508.0392-.0996.0789-.1991.1193-.2982.0202-.0496.0406-.0991.061-.1486.0743-.1812.0286-.0081-.0252.0594.1308-.1641.1947-.4445.2834-.6365.0975-.2112.1979-.421.3013-.6294.2076-.4182.4272-.8305.6589-1.2359.4664-.816.982-1.6035,1.5362-2.3624.0639-.0876.1284-.1747.1934-.2615.0433-.0579.0872-.1153.1306-.1731.0208-.0277.1348-.175.0157-.0214-.1228.1585.0843-.1066.1175-.1485.0787-.0992.1579-.1979.2378-.2961.297-.3651.6023-.7233.9149-1.0751,1.2502-1.4074,2.6121-2.7174,4.0367-3.9472.3559-.3073.7168-.6089,1.0831-.9038.0986-.0794.1977-.1583.2971-.2367.0419-.0331.3071-.2402.1489-.1171s.1085-.0819.1511-.1141c.101-.0762.2024-.1519.3042-.2269.755-.5565,1.5338-1.0813,2.3385-1.5634.8027-.4809,1.6312-.9193,2.4848-1.3029.115-.0517.2308-.1014.3463-.152.1552-.068-.1015.0454-.1064.045.0358.0025.1162-.0476.1502-.0614.2248-.091.4512-.1781.679-.2614.4583-.1674.9223-.3192,1.3905-.4563.9341-.2734,1.8851-.4877,2.8441-.6529.2402-.0414.4809-.0796.722-.115.0554-.0081.4034-.0569.1925-.028-.2034.0278-.0112.0018.0256-.0027.0746-.0091.1492-.0186.2238-.0276.4861-.0583.9734-.1055,1.4615-.1435,3.9698-.3094,7.9818-.0526,11.9477.2046,1.0319.0669,2.0631.1456,3.0923.2454.514.0499,1.0275.1051,1.5402.1668.1379.0166.2758.0337.4136.0513.0558.0071.4106.0528.2152.0277s.159.0227.2147.0307c.1374.0196.2747.0398.4119.0605,2.0131.3045,4.0098.7331,5.9508,1.3517.8814.2809,1.7509.5989,2.6067.95.064.0262.1346.0505.1971.0815-.0036-.0018-.2646-.1131-.1099-.0465.0979.0422.196.084.2937.1266.2118.0924.4227.1867.6327.283.4202.1926.8368.393,1.2498.6005,1.6729.8405,3.2856,1.7984,4.8398,2.8417.7725.5186,1.5308,1.0584,2.2756,1.616.172.1288.3433.2586.5139.3892.0408.0313.0831.073.1278.0982-.0054-.003-.2197-.1711-.0888-.0683.1127.0885.2259.1763.3384.265.3655.2882.7278.5806,1.087.8767,1.4191,1.1697,2.7916,2.3962,4.1217,3.6661,2.6348,2.5157,5.0973,5.2115,7.3681,8.06.131.1643.2614.3292.3911.4946.0649.0827.1296.1655.1941.2484.0321.0412.0625.0851.0967.1245-.2353-.2712-.0587-.0759-.008-.01.2774.3612.5517.7247.8229,1.0904.5425.7316,1.0727,1.4722,1.5904,2.2216,1.0353,1.4987,2.0202,3.0322,2.9524,4.5971,1.8655,3.1318,3.5066,6.3878,4.9405,9.7387.0661.1545-.0468-.1109-.0478-.1135.0185.049.0407.097.0609.1454.0405.097.0809.194.121.2911.0992.2399.1975.4801.2836.7251.0753.214.1422.431.192.6524.0123.0547.0225.1096.034.1644.0483.2296-.0511-.0342-.0088-.0671-.0188.0146.0027.3393.0052.3801.0098.165.0016-.1154.0221-.1279-.0146.0089-.0306.1382-.0359.1583-.0051.0192-.0556.143-.0475.1565-.0065-.0108.1312-.2561.0565-.1364-.0304.0486-.1461.2025-.1489.2515.0007-.0116.2105-.2305.1062-.1387-.0401.0353-.0738.0826-.1117.1208-.0441.0444-.264.2205-.0663.0755.2021-.1482-.0388.0231-.088.0547-.084.0538-.1703.1038-.2585.1504-.0577.0305-.366.1663-.1373.0739.2305-.0931-.055.0195-.1095.0395-.0836.0306-.1679.0594-.2527.0868-.1973.0638-.3971.1195-.5979.171-.4817.1235-.9673.2326-1.4511.3476-1.0536.2506-2.1073.5011-3.1609.7517-4.1974.9982-8.3937,2.0011-12.5926,2.9928-4.1552.9814-8.3164,1.9406-12.4993,2.7974-4.1705.8543-8.3635,1.5957-12.5757,2.213-.526.0771-1.0523.1523-1.5789.2256-.243.0338-.4861.0673-.7293.1003-.0489.0066-.3099.0393-.1061.0145.1904-.0232-.0153.002-.0454.006-.1419.0189-.2838.0377-.4257.0563-1.0542.1385-2.1095.2695-3.1656.3929-2.1123.2468-4.228.4633-6.3465.6494-4.2369.3723-8.4845.6232-12.7358.7519-4.3013.1303-8.6037.1132-12.9061.0575-1.0138-.0131-2.0286-.0157-3.042-.046-.2444-.0073-.4887-.0179-.7325-.0358-.1122-.0082-.2243-.0178-.3363-.0294-.0558-.0058-.1115-.0131-.1673-.0188-.1758-.0179.1156.0111.1181.0156-.0339-.061-.5668-.1082-.6564-.1308-.2532-.0637-.4998-.1455-.7424-.2416-.3365-.1332-.8478-.0249-1.1468.15-.3087.1807-.6031.5346-.684.8894-.1953.8576.2624,1.5231,1.0395,1.8308,1.008.3991,2.1194.506,3.1952.5435,1.0715.0373,2.1453.0367,3.2173.0505,2.206.0284,4.4121.0496,6.6183.0432,4.3454-.0125,8.6899-.1473,13.0273-.4119,4.3066-.2627,8.6055-.6506,12.8896-1.163,4.3958-.5258,8.7774-1.1732,13.1354-1.9527,4.2804-.7656,8.5344-1.6681,12.774-2.6326,4.262-.9696,8.5115-1.9934,12.7637-3.0047,2.1478-.5108,4.2956-1.0216,6.4434-1.5324,1.0614-.2524,2.124-.4999,3.1842-.7574.818-.1987,1.6888-.4569,2.3844-.9446,1.0218-.7163,1.6661-1.7477,1.6864-3.0223.0173-1.0868-.4265-2.0921-.8391-3.0714-.7573-1.7977-1.5656-3.5719-2.445-5.3134-1.6737-3.3144-3.5769-6.5127-5.6892-9.5663-2.1635-3.1277-4.5381-6.1166-7.1058-8.9223-2.5185-2.7519-5.2255-5.3413-8.1142-7.7028-2.9869-2.4418-6.1716-4.6639-9.6318-6.385-3.6581-1.8195-7.5257-3.0052-11.5651-3.6017-4.198-.6199-8.4682-.8473-12.7073-.9673-4.0704-.1152-8.2404.0447-12.1655,1.2245-3.8821,1.1669-7.2831,3.375-10.3369,5.9977-2.963,2.5448-5.7137,5.4671-7.6763,8.8645-1.9507,3.3768-3.0726,7.1779-3.6135,11.0241-.5598,3.9809-.5951,7.9858-.4251,11.9961.1838,4.3346.5487,8.6648.5115,13.0063-.0181,2.111-.1355,4.2211-.4092,6.3151-.0457.3495.1993.8158.4359,1.0524.2581.2581.6816.4525,1.0524.4359.3849-.0172.7841-.1437,1.0524-.4359.2858-.3113.3816-.6372.4359-1.0524h0Z"/>
  </g>
  <path class="cls-3" d="M37.9156,38.7488c-4.1703,8.3468-4.0107,17.9838,1.4497,25.765,6.1407,8.7506,15.4713,10.5448,25.6401,10.3247,5.1878-.1123,10.3502.0041,14.869-2.9458,4.1084-2.6819,6.2553-6.9227,7.6758-11.5007,2.9315-9.4477,3.7765-19.9388,3.3972-29.7804l-23.1612,3.1346c1.6679,8.441,2.1259,17.5651-.0963,25.9412-.8363,3.1521-2.295,5.946-4.6973,7.8964.984-.7989-3.1775,2.3538-2.1156,1.274-1.5014.3924-1.8423.4886-1.0228.2886.8814.0427,1.6581.3093,2.3301.8-.7486.6529-3.0866-7.3494-3.1598-7.949-.2819-2.3088-.0571-6.7574.2862-8.9076.2107-1.3195.7008-3.3458.996-4.2584,1.155-3.571.7772.1851-.2866-.3246-.5624.2662-1.1497.3411-1.7619.2246-3.2009-1.1155-4.5542-3.6335-4.0598-7.5542.0541-.2389.1145-.4761.1813-.7117-1.0572,1.0501-1.3609,1.3121-.9112.786-5.2047,3.6546-7.6349,10.3115-4.2301,16.1326,3.0119,5.1494,10.8947,7.908,16.1326,4.2301,8.6256-6.0566,15.9181-16.1267,10.1522-26.8847-4.3329-8.0843-14.3553-11.1498-22.8777-8.6643-17.7208,5.1681-20.1359,31.7773-15.3152,46.5786,2.7808,8.538,8.6953,17.4413,18.004,19.5583,9.1713,2.0857,19.0189-2.4332,25.368-8.9435,14.0577-14.4146,13.4507-37.4263,9.8239-55.7815-2.5778-13.046-23.6706-10.0826-23.1612,3.1346.1863,4.8354.1597,9.7499-.5686,14.5431-.3245,2.1355-.7981,4.2644-1.3102,6.3619-.2028.8305-.9735,2.3918-.8634,3.218-.6195,1.6121.1928,1.1163,2.4367-1.4875,3.2752-1.7502,3.6301-2.4379,1.0647-2.0632-3.2747-.4632-7.1328.8893-9.9441-.3214.4281.1844.5562.4034.8298.7508-1.5474-1.9643-.2277.1191-.5366-1.1281-.4532-1.8298-.0389,1.3517-.009-.5184.0223-1.3945.0027.3066-.186.6844,2.845-5.6941,1.5172-12.771-4.2301-16.1326-5.2255-3.0564-13.2752-1.4889-16.1326,4.2301h0Z"/>
  <path class="cls-2" d="M38.466,21.4271l1.0221-2.7993-1.0489-.5097c1.6282-4.3235,5.7784-8.1923,9.7012-10.5885,15.2054-9.2878,35.028,1.1234,42.8649,15.3381,7.4988,1.2461,27.0807.9667,31.0281,8.5041,4.3487,8.3037-6.0031,12.9654-12.1155,15.6352-8.208,3.5851-11.0357,3.3526-19.4905,4.33-6.7053.7751-10.3322,1.4355-17.2158,1.4882-17.1851.1316-46.9641.6059-61.5716-8.8763-5.9456-3.8595-10.4525-11.3164-4.0351-17.1503,4.3419-3.9471,22.078-6.1449,28.0748-5.8776.9446.0421,1.8231.5813,2.7863.506ZM41.0093,18.8916c-.1947,5.1977-5.3528,7.9317.8165,11.0897,8.5996,4.4021,25.7956,3.9087,35.0738,1.746,1.5452-.3602,11.6858-3.1642,12.0185-3.7004.9175-1.211-.4905-2.1271-.6419-2.9502-.9339-5.0758-2.452-6.8072-6.4879-10.2238-7.7509-6.5615-16.6318-9.4233-26.806-7.5769-4.198.7618-8.1403,3.2011-10.4276,6.8043l3.5429.7597c-.5364-7.2366,9.4863-7.5087,8.6154.0014,2.358-.3967,6.595.2407,6.6303,3.2769.034,2.9222-2.5763,2.7561-4.0438,4.573,3.8775,3.5261-.4176,8.2048-4.6368,7.6362-1.8507-.2494-3.3416-2.2461-4.2584-2.2918-1.7993-.0897-5.8335,2.7624-7.8022-.3604-.8837-2.6025,2.3499-5.6648,1.9453-6.2364-2.0585.0309-1.9167-2.7221-3.5381-2.5473ZM54.6917,17.3699c-.7449-.833,2.4507-5.882-1.7792-6.1286-3.1498-.1836-4.0362,3.2401-2.4784,5.5898l-.5719,1.0497c-1.9127-1.0898-3.4862-2.1818-5.8442-1.2956-2.6013,3.6,3.8426,4.0996,4.0801,5.1013.3124,1.3174-4.8071,2.4858-4.0547,5.3076,2.6874,1.0736,5.4168.0054,6.8438-2.5169.8547-.024,1.1518,4.9165,5.4646,3.9435,1.0058-.2269,3.1302-1.6278,2.7063-2.9504l-3.3457-3.2838c.001-.9187,6.37-2.0737,6.0502-4.0013-1.7555-2.3006-4.701-1.6539-7.0708-.8154ZM37.4576,22.9494c-2.0814.0552-4.188-.1264-6.2707.063-4.4322.4031-19.0135,2.9613-21.9367,5.686-5.4817,5.1096-.3459,10.681,4.5413,13.6059,12.2401,7.3254,46.7891,8.5128,61.4441,8.0318,8.9487-.2937,21.6862-.8952,29.9712-3.9857,2.2347-.8336,13.998-6.5837,14.8033-8.0021,3.6151-6.3681-7.3687-10.3234-11.983-11.216-2.0119-.3892-15.6383-1.767-16.3382-1.1418,1.5205,3.2474,1.0127,7.5901-2.5327,9.3774-12.1241,6.1117-33.7828,5.7233-46.5099,1.3953-8.7164-2.9641-6.6705-6.0825-5.1885-13.8139ZM89.1472,30.0427c-3.9359.7328-7.6892,2.4691-11.5473,3.3986-10.5372,2.5387-25.1395,2.7992-35.3422-1.3578-1.2174-.496-2.097-1.5683-3.2854-1.7827.116.8947,1.1232,1.7144,1.7679,2.2866,7.2743,6.4561,32.1429,6.0527,41.1557,3.1226,2.6375-.8574,6.9402-2.5539,7.2513-5.6674Z"/>
  <path class="cls-1" d="M37.4576,22.9494c-1.4819,7.7314-3.5279,10.8498,5.1885,13.8139,12.7272,4.328,34.3858,4.7163,46.5099-1.3953,3.5455-1.7872,4.0533-6.1299,2.5327-9.3774.6999-.6252,14.3263.7526,16.3382,1.1418,4.6143.8926,15.5981,4.8479,11.983,11.216-.8052,1.4184-12.5686,7.1685-14.8033,8.0021-8.285,3.0905-21.0225,3.692-29.9712,3.9857-14.6549.481-49.2039-.7064-61.4441-8.0318-4.8872-2.9249-10.023-8.4963-4.5413-13.6059,2.9232-2.7248,17.5045-5.2829,21.9367-5.686,2.0827-.1894,4.1893-.0078,6.2707-.063Z"/>
  <path class="cls-1" d="M41.0093,18.8916c1.6214-.1748,1.4795,2.5782,3.5381,2.5473.4047.5716-2.8289,3.634-1.9453,6.2364,1.9687,3.1227,6.0029.2707,7.8022.3604.9168.0457,2.4077,2.0424,4.2584,2.2918,4.2192.5686,8.5143-4.1101,4.6368-7.6362,1.4675-1.8168,4.0778-1.6508,4.0438-4.573-.0353-3.0362-4.2723-3.6736-6.6303-3.2769.8709-7.5101-9.1519-7.238-8.6154-.0014l-3.5429-.7597c2.2873-3.6031,6.2296-6.0424,10.4276-6.8043,10.1742-1.8464,19.055,1.0154,26.806,7.5769,4.0359,3.4166,5.5539,5.148,6.4879,10.2238.1514.8231,1.5594,1.7392.6419,2.9502-.3328.5362-10.4733,3.3402-12.0185,3.7004-9.2782,2.1627-26.4742,2.6561-35.0738-1.746-6.1692-3.158-1.0111-5.8921-.8165-11.0897Z"/>
  <path class="cls-1" d="M54.6917,17.3699c2.3698-.8385,5.3153-1.4851,7.0708.8154.3199,1.9277-6.0491,3.0826-6.0502,4.0013l3.3457,3.2838c.4239,1.3226-1.7005,2.7235-2.7063,2.9504-4.3128.973-4.6099-3.9674-5.4646-3.9435-1.4271,2.5223-4.1565,3.5905-6.8438,2.5169-.7524-2.8217,4.3672-3.9901,4.0547-5.3076-.2376-1.0017-6.6815-1.5013-4.0801-5.1013,2.358-.8861,3.9315.2058,5.8442,1.2956l.5719-1.0497c-1.5578-2.3497-.6714-5.7734,2.4784-5.5898,4.23.2466,1.0344,5.2955,1.7792,6.1286ZM51.5206,17.9773c-5.3944,1.0559-2.591,6.6857,1.7948,5.3814,1.9916-.5923,1.9665-4.8257-.0035-5.3964-.6073-.2104-1.1835-.104-1.7913.015Z"/>
  <path class="cls-1" d="M89.1472,30.0427c-.3111,3.1134-4.6138,4.8099-7.2513,5.6674-9.0128,2.93-33.8814,3.3335-41.1557-3.1226-.6447-.5722-1.6519-1.3919-1.7679-2.2866,1.1884.2144,2.068,1.2867,3.2854,1.7827,10.2028,4.157,24.805,3.8965,35.3422,1.3578,3.8582-.9295,7.6114-2.6658,11.5473-3.3986Z"/>
  <path class="cls-2" d="M51.5206,17.9773c.6078-.119,1.184-.2254,1.7913-.015,1.97.5707,1.9951,4.8041.0035,5.3964-4.3859,1.3043-7.1892-4.3255-1.7948-5.3814Z"/>
</svg>