<?xml version="1.0" encoding="UTF-8"?>
<svg id="Layer_1" data-name="Layer 1" xmlns="http://www.w3.org/2000/svg" viewBox="0 0 116.6373 97.1427">
  <defs>
    <style>
      .cls-1 {
        fill: #fff;
      }

      .cls-2 {
        fill: #29abe2;
      }

      .cls-3 {
        fill: #fbb03b;
      }
    </style>
  </defs>
  <path class="cls-3" d="M42.0595,23.8116c-4.7895,4.4838-5.8094,10.4301-6.6641,16.5949-1.0411,7.5093-1.5896,14.7225-.3405,22.2511,2.3453,14.1357,12.5189,23.7747,25.3585,28.9924,13.0025,5.2839,28.983,4.0263,37.0506-8.8249,6.5354-10.4104,6.5952-26.6456,3.2681-38.1579-1.8033-6.2397-5.1817-11.9946-10.2424-16.1141-6.0144-4.8959-13.169-6.2835-20.7706-6.3776-13.8481-.1714-27.7275,4.0084-33.8463,17.5408-5.4282,12.0052-7.2078,30.2517,4.8893,38.7827,5.4999,3.8785,12.8172,5.7988,19.2517,7.5206,8.2418,2.2055,17.1828,2.6809,22.4063-5.4686,8.373-13.0632,8.2301-34.7515-6.3528-43.4064-8.8369-5.2447-19.9523-2.8971-24.7722,6.3795-4.1472,7.9818-2.8565,17.5606,1.2157,25.2464,7.108,13.4156,27.4709,1.5134,20.3627-11.9025-.1832-.3458-.3989-2.825-.5091-2.9908,1.9588,2.948-8.4112,4.5651-8.3942,3.5637.0039-.2306.2375-.9709.1588.3703-.0522.8901.4366,2.5911.1167,4.395-.208,1.1727-.6011,2.3491-.9594,3.4828-.2753.8617-.5732,1.7153-.8938,2.561-.5758,1.5125-.3953,1.1373.5415-1.1258l5.2031-3.0324c2.4683.2706,2.4664.1603-.0059-.3309-1.2347-.3117-2.4644-.6417-3.6892-.9901-1.837-.5226-3.6625-1.0864-5.4742-1.6907-1.2058-.4022-2.4841-.8988-3.6942-1.2763-3.7086-1.1571.1533-.4737.0848.2851.385-4.2659.0942-10.6048,3.7966-13.0067,2.8909-1.8755,10.4895-1.9012,14.1699-1.2083,4.726.8897,5.3904,6.6493,5.5983,11.7114.0966,2.3523.1275,6.7184-.0342,7.9445-.3603,2.7303-.7391,4.7776-2.0602,5.5317-2.3394,1.3353-8.5063-1.3112-11.6186-3.1179-4.6915-2.7234-6.8231-6.3316-7.3172-11.5435-.3497-3.6887.005-7.5884.4619-11.2513.1341-1.0754.2949-2.1628.48-3.23.1227-.8361.2849-1.6645.4866-2.4852-.23.3319-.4255.683-.5867,1.0534,11.1028-10.3942-5.5989-27.0448-16.6753-16.6753h0Z"/>
  <path class="cls-2" d="M45.2724,16.0027c5.2213-3.8227,12.0774-6.4214,18.5335-6.9306,1.9732-.1556,4.5135.4468,6.0115.2501,1.1115-.146,2.3732-1.593,3.8578-1.5582,2.8508.0668,5.1122,3.3832,7.2524,4.766,5.8559,3.7835,9.9359,4.891,14.914,10.4807,4.9514,5.5596,13.0156,22.7399,3.7728,27.5048-7.4189,3.8247-23.9484,4.186-32.0231,2.3196-11.4235-2.6405-18.2766-7.8832-28.369-11.9522-5.2318-2.1094-11.7508-3.7262-17.1315-5.5196-7.7414-2.5802-21.2073-14.2819-10.5103-21.5492,5.6416-3.8328,8.8184-2.1144,14.4755-1.2874,3.1176.4557,6.5712-.9253,10.1544.0851,2.9481.8313,5.7844,3.1261,9.0619,3.3909ZM77.4152,16.4146c.6342-.2631,1.3983-1.5437,1.1924-2.2592l-4.8077-4.2016c-8.5194,2.126.044,7.9424,3.6153,6.4608ZM67.9203,11.7962c-5.1586-.7662-11.997.9414-16.4793,3.5348-1.2822.7419-6.3419,3.6441-7.0925,4.2314-2.0635,1.6146-4.1443,5.0161-4.2852,7.6808,1.0832.5778.8236.1952,1.3317-.2809.8786-.8235,1.5457-2.0819,2.642-3.0576,5.8638-5.2187,14.8474-9.4538,22.4845-11.1815.768-.1738,1.2418.5086,1.3989-.9269ZM89.9815,50.1615c.2474.562,8.8563-1.9116,9.6266-2.9564,4.4415-6.0247-1.6655-17.9099-5.9332-22.6711-3.5892-4.0042-8.171-6.7093-13.1564-8.6393-1.4083,2.4629.6433,2.8044,1.6244,4.4227,1.1327,1.8685,2.282,4.3298,3.2439,6.3344,3.4231,7.1342,6.2237,15.5457,4.5949,23.5096ZM71.0896,17.3255c-1.4293-.1512-2.1556-2.1584-2.8464-2.5342-.998-.543-9.8377,2.9463-11.4154,3.6908-6.2192,2.9349-11.6835,7.0616-15.6262,12.7501-.128,10.5239,9.3538,11.9225,16.7598,16.3119l13.1282-30.2186ZM60.4798,48.368c8.7583,2.6421,18.0903,3.6699,27.0469,2.3092,1.528-2.0449-.0857-11.87-.8739-14.5827-.8136-2.8003-4.7988-12.2079-6.3283-14.4314-1.9032-2.7667-3.4634-2.8878-6.6096-3.4492-5.4051,9.525-10.1164,19.5844-13.2351,30.1541ZM42.0002,17.847c-2.7509-.5588-4.8485-2.446-7.6129-2.9882-2.3616-.4632-4.8965.4733-6.972.3381-5.3992-.3517-7.16-2.6414-12.9903.0767-6.2092,2.8948-4.986,7.1786-.8337,11.3611,6.8842,6.9343,17.7819,8.5152,26.5559,12.3253-.9419-6.1471-4.2022-11.0982-1.0269-17.2846.7534-1.4678,2.5162-2.0935,2.8799-3.8285Z"/>
  <path class="cls-1" d="M60.4798,48.368c3.1187-10.5697,7.8301-20.6291,13.2351-30.1541,3.1462.5613,4.7064.6824,6.6096,3.4492,1.5296,2.2235,5.5147,11.6312,6.3283,14.4314.7882,2.7127,2.4018,12.5378.8739,14.5827-8.9566,1.3608-18.2886.3329-27.0469-2.3092Z"/>
  <path class="cls-1" d="M71.0896,17.3255l-13.1282,30.2186c-7.406-4.3893-16.8878-5.788-16.7598-16.3119,3.9428-5.6885,9.4071-9.8152,15.6262-12.7501,1.5777-.7445,10.4174-4.2338,11.4154-3.6908.6908.3759,1.417,2.383,2.8464,2.5342Z"/>
  <path class="cls-1" d="M42.0002,17.847c-.3637,1.735-2.1265,2.3607-2.8799,3.8285-3.1753,6.1864.085,11.1375,1.0269,17.2846-8.7739-3.8102-19.6717-5.3911-26.5559-12.3253-4.1523-4.1825-5.3755-8.4663.8337-11.3611,5.8303-2.7181,7.5911-.4285,12.9903-.0767,2.0755.1352,4.6104-.8013,6.972-.3381,2.7643.5422,4.862,2.4294,7.6129,2.9882Z"/>
  <path class="cls-1" d="M89.9815,50.1615c1.6288-7.964-1.1718-16.3754-4.5949-23.5096-.9618-2.0046-2.1112-4.4659-3.2439-6.3344-.981-1.6183-3.0326-1.9599-1.6244-4.4227,4.9855,1.93,9.5672,4.6351,13.1564,8.6393,4.2677,4.7612,10.3747,16.6463,5.9332,22.6711-.7702,1.0448-9.3792,3.5184-9.6266,2.9564Z"/>
  <path class="cls-1" d="M67.9203,11.7962c-.157,1.4355-.6308.7532-1.3989.9269-7.6371,1.7277-16.6206,5.9629-22.4845,11.1815-1.0963.9757-1.7633,2.2341-2.642,3.0576-.5081.4762-.2485.8587-1.3317.2809.1408-2.6646,2.2217-6.0662,4.2852-7.6808.7506-.5874,5.8103-3.4896,7.0925-4.2314,4.4823-2.5934,11.3207-4.301,16.4793-3.5348Z"/>
  <path class="cls-1" d="M77.4152,16.4146c-3.5713,1.4816-12.1347-4.3347-3.6153-6.4608l4.8077,4.2016c.2059.7155-.5582,1.9961-1.1924,2.2592Z"/>
</svg>