<?xml version="1.0" encoding="UTF-8"?>
<svg id="Layer_1" data-name="Layer 1" xmlns="http://www.w3.org/2000/svg" viewBox="0 0 130.6101 103.5414">
  <defs>
    <style>
      .cls-1 {
        fill: #fff;
      }

      .cls-2 {
        fill: #29abe2;
      }

      .cls-3 {
        fill: #fbb03b;
      }
    </style>
  </defs>
  <path class="cls-3" d="M73.5088,35.8012c-10.6003-3.8509-23.1192.8424-28.8029,10.521-2.9928,5.0964-3.9342,10.9768-4.6108,16.7472-.7134,6.084-1.2465,12.7353.0333,18.7785,4.935,23.303,39.3207,25.7687,55.4755,13.771,8.5942-6.3826,13.6385-16.7301,12.5818-27.5153-1.184-12.0843-9.1932-20.5732-20.5543-24.2341-4.5903-1.4791-10.084-2.5905-14.8742-2.1792-7.1894.6173-12.7356,5.4879-16.8658,11.0686-6.7586,9.1322-9.7102,23.1204-1.1332,32.1643,8.2706,8.7208,23.3117,9.1302,32.5777,1.8934,5.0792-3.9669,8.1242-9.9794,7.8515-16.4764-.3502-8.3421-7.586-15.1215-15.9386-14.7497-6.0353.2686-11.1829,4.9474-11.1829,11.1829,0,5.8491,5.1202,11.4527,11.1829,11.1829l-.4283-.0231-4.9346-2.8759c-1.3127-1.9571-1.5214-3.7363-.6262-5.3378l.2837-.3822c.7329-.4846.5114-.3781-.6643.3193l.3758-.2544c-2.1089.2866.0084.3149-2.0022.1227,1.4192.1357-.8954-.8739-.4276-.1798,1.6745,2.4844.3955,1.3158,1.2522-.243.1987-.3616,4.3541-6.3393,4.4789-6.0013.8822,2.3895-5.5165-.307-.8754.9293,1.4891.3967,3.0359.5679,4.5289.9752,2.0275.5531,3.9692,1.157,5.3111,2.876.8464,1.0843.7292,4.8582-.7454,7.2878-1.7204,2.8345-5.8401,4.6909-9.5092,5.1548-3.9821.5034-11.0381.0674-13.7199-3.5646.8488,1.1495.3988.5413.2808-1.2811-.1128-1.7421.0191-3.543.088-5.2824.1127-2.8436.2653-5.6829.8493-8.4727.3498-1.6712.9404-3.967,1.5122-4.4488,1.1778-.9924,1.8158-.4406,3.2866.0937,5.6771,2.0624,12.2471-2.3181,13.7563-7.8106,1.7095-6.2215-2.1128-11.6864-7.8106-13.7563h0Z"/>
  <path class="cls-3" d="M75.0115,83.0249c14.3913,0,14.4151-22.3658,0-22.3658-14.3913,0-14.4151,22.3658,0,22.3658h0Z"/>
  <g>
    <path class="cls-2" d="M58.4943,44.8672l-1.5271-.0152M49.9628,48.6078c16.5745.0148,26.1822,3.3033,29.7847,3.5372s17.4315,2.6102,17.4315,2.6102l13.5878,3.2544c1.1678,1.4038,3.2958,1.8651,4.5474,3.2342,1.2057,1.3189,2.3449,5.3533,1.9259,7.0736-.9634,3.9556-5.3669,12.3309-8.6697,14.7623-5.4322,3.9989-16.3999,2.5812-22.5203.837-9.8114-2.796-10.5217-11.6348-9.3264-20.3986l-7.058-.8958c-1.1118,8.5874-4.009,17.3201-14.1267,17.4216-6.3421.0636-14.6494-.933-19.8681-4.793-2.7765-2.0536-4.7723-7.111-5.4607-10.4761-.9508-4.6479-2.1352-11.7562,2.937-14.1451,9.2598-4.3611,16.8154-2.0218,16.8154-2.0218ZM43.6241,49.0123c9.6205,1.4215,21.7864-.4688,27.8531,8.832l4.3095.6207c1.2388-.0837,1.9232-1.5958,3.3504-2.3448,7.948-4.1718,17.9137-.054,26.2027.7242M40.0415,49.0055l1.8741-.3977M107.1017,56.8745l1.7088.8583M62.3988,76.3297c2.7263-2.2027,3.9261-6.1246,4.8705-9.3626.5291-1.8142.2084-5.8941,2.8519-6.0667,1.3135-.0858,7.311.649,7.8222,1.8708.3032.7246-.0203,6.9644.1508,8.6278.5385,5.2339,2.2254,9.172,7.7276,10.7072,5.6695,1.5818,15.3974,3.0564,20.7398.1765,4.0369-2.1761,9.7206-12.603,9.1365-16.9672-.6639-4.9608-8.8472-6.6033-12.9306-7.4679-6.4828-1.3728-17.2685-3.5261-23.2245-.1772-.9697.5453-1.4268,1.5244-2.1375,1.8584-1.2281.5771-5.5753.01-6.8473-.5754-1.2838-.5909-1.3202-1.8676-2.1593-2.6994-4.7512-4.71-16.4548-5.3986-22.956-5.6583-4.353-.1739-12.7805-.5499-14.2396,4.7163-1.1453,4.1338,1.611,14.9975,4.8833,18.027,4.5348,4.1985,14.8834,5.2528,20.8657,4.9377,1.535-.0808,4.2523-.9821,5.4465-1.9469Z"/>
    <path class="cls-1" d="M62.3988,76.3297c-1.1942.9648-3.9115,1.8661-5.4465,1.9469-5.9822.315-16.3308-.7392-20.8657-4.9377-3.2722-3.0295-6.0286-13.8932-4.8833-18.027,1.4591-5.2662,9.8866-4.8902,14.2396-4.7163,6.5013.2597,18.2048.9483,22.956,5.6583.8391.8318.8755,2.1085,2.1593,2.6994,1.272.5854,5.6192,1.1525,6.8473.5754.7107-.334,1.1678-1.3131,2.1375-1.8584,5.956-3.349,16.7418-1.1956,23.2245.1772,4.0833.8647,12.2666,2.5072,12.9306,7.4679.5841,4.3642-5.0996,14.7911-9.1365,16.9672-5.3425,2.8799-15.0704,1.4053-20.7398-.1765-5.5023-1.5352-7.1892-5.4733-7.7276-10.7072-.1711-1.6634.1524-7.9032-.1508-8.6278-.5113-1.2218-6.5087-1.9566-7.8222-1.8708-2.6435.1726-2.3228,4.2525-2.8519,6.0667-.9444,3.2381-2.1442,7.1599-4.8705,9.3626ZM34.6378,53.8301c-3.1766,3.085-.565,12.1196,1.4901,15.5021,2.3906,3.9347,4.5727,5.847,9.1908,6.7915,2.7781.5682,7.7285.8568,10.606.8265,3.0796-.0324,5.2877-.4452,7.1248-3.1168,1.2806-1.8624,3.4659-6.9118,3.7006-9.1125.1607-1.5073-.6613-7.3459-1.6942-8.2616-.8391-.7438-10.0712-2.7723-11.9103-3.0942-4.1012-.7178-15.3799-2.5726-18.5077.4651ZM112.4516,63.2649c-4.2916-5.1078-22.57-4.438-29.1467-4.8435-3.9618,2.9792-4.6736,8.5853-4.009,13.2391.6572,4.6014,1.8105,7.8383,6.7075,9.1126,2.8656.7457,8.0175,1.7516,10.9234,1.9,7.2852.3721,13.2201-5.3263,15.406-11.924.6962-2.1013,1.7286-5.5682.1188-7.4842Z"/>
    <line class="cls-1" x1="41.9156" y1="48.6078" x2="40.0415" y2="49.0055"/>
    <line class="cls-1" x1="108.8105" y1="57.7327" x2="107.1017" y2="56.8745"/>
    <path class="cls-2" d="M34.6378,53.8301c3.1278-3.0376,14.4066-1.1829,18.5077-.4651,1.8391.3219,11.0712,2.3504,11.9103,3.0942,1.0329.9157,1.8549,6.7543,1.6942,8.2616-.2346,2.2007-2.4199,7.2502-3.7006,9.1125-1.8371,2.6717-4.0452,3.0844-7.1248,3.1168-2.8775.0303-7.8279-.2583-10.606-.8265-4.6181-.9445-6.8002-2.8568-9.1908-6.7915-2.0551-3.3825-4.6666-12.4171-1.4901-15.5021ZM36.2397,56.426c-.6359.6658-1.2461-.0042-1.4423,1.9727-.5685,5.7281,3.8859,14.5441,9.8611,15.8514,2.9912.6544,10.1916,1.3191,13.2127,1.1082,4.2068-.2938,7.0329-8.1638,7.2121-11.7686.0647-1.3016-.4412-5.4229-1.3294-6.1215-1.5035-1.1827-5.3455-1.0318-7.3514-1.4591-4.5227-.9635-13.7715-3.8056-18.0422-1.8598-.43.1959-1.613,1.7453-2.1206,2.2768Z"/>
    <path class="cls-2" d="M112.4516,63.2649c1.6098,1.916.5774,5.3829-.1188,7.4842-2.186,6.5977-8.1208,12.2961-15.406,11.924-2.9059-.1484-8.0577-1.1543-10.9234-1.9-4.897-1.2744-6.0503-4.5112-6.7075-9.1126-.6646-4.6538.0472-10.2599,4.009-13.2391,6.5767.4056,24.8551-.2643,29.1467,4.8435ZM97.6192,60.4799c-2.0425-.1502-4.3765.0396-6.4003-.0524-1.9779-.0899-6.7015-1.4856-8.0244-.0964-3.6868,3.8716-3.7076,17.0873,2.5234,18.6758,3.3958.8657,10.1898,2.1792,13.5317,2.0466,5.8057-.2303,12.349-8.8904,12.2381-14.4601-1.3015-.7307-1.5597-2.3861-2.4622-3.2596-2.2164-2.1449-8.3622-2.63-11.4063-2.8538Z"/>
    <path class="cls-1" d="M36.2397,56.426c.5077-.5315,1.6906-2.0809,2.1206-2.2768,4.2707-1.9459,13.5195.8963,18.0422,1.8598,2.0059.4273,5.8479.2763,7.3514,1.4591.8881.6987,1.3941,4.8199,1.3294,6.1215-.1793,3.6048-3.0053,11.4749-7.2121,11.7686-3.0211.211-10.2214-.4537-13.2127-1.1082-5.9752-1.3073-10.4296-10.1233-9.8611-15.8514.1962-1.9769.8064-1.3068,1.4423-1.9727Z"/>
    <path class="cls-1" d="M97.6192,60.4799c3.0441.2238,9.1899.7089,11.4063,2.8538.9025.8734,1.1607,2.5289,2.4622,3.2596.1109,5.5697-6.4324,14.2299-12.2381,14.4601-3.3419.1326-10.1359-1.1809-13.5317-2.0466-6.231-1.5885-6.2102-14.8042-2.5234-18.6758,1.3229-1.3892,6.0465.0065,8.0244.0964,2.0238.092,4.3578-.0977,6.4003.0524Z"/>
  </g>
  <g>
    <path class="cls-1" d="M73.2181,40.868c.834-8.7359,1.5291-18.1429-2.9292-25.7016-.9504-1.6112-2.111-3.0866-3.2679-4.5565,10.1471,5.5122,18.4294,14.3888,23.2266,24.8928.3995-8.3522,5.0473-16.391,12.0863-20.9044-3.1198,7.3815-4.8401,15.3518-5.0423,23.363,7.1634-5.6964,14.579-11.5252,23.3835-14.0242-5.8947,4.6774-11.7896,9.3547-17.6843,14.0322-2.6297,2.0866-5.3162,4.2368-7.0503,7.1111-.6989,1.1585-1.3707,2.5377-2.669,2.9183-.8459.2479-1.7481-.0073-2.5922-.2614-4.2435-1.2781-8.4869-2.5562-12.7305-3.8342-1.9332-.5822-3.616-1.3519-4.7307-3.0352"/>
    <path class="cls-2" d="M74.2385,40.868c.5205-5.4884.9795-11.0435.1833-16.5292-.8133-5.6045-3.2192-10.0488-6.6794-14.4503l-1.2365,1.6026c10.0409,5.5247,18.0448,14.13,22.8606,24.5268.4577.9882,1.8472.4045,1.9014-.515.4756-8.0734,4.8223-15.5837,11.581-20.0234l-1.4989-1.1523c-3.13,7.5123-4.8318,15.5014-5.0787,23.6343-.0295.9687,1.0981,1.2333,1.7419.7215,6.999-5.5634,14.2217-11.2077,22.9332-13.7618l-.9928-1.7054c-3.8685,3.0695-7.737,6.1391-11.6053,9.2086-3.5455,2.8132-7.3955,5.4681-10.5732,8.7063-1.2995,1.3242-2.2449,2.7818-3.2451,4.3262-.3808.5878-.81,1.3282-1.5298,1.5581-.6788.2169-1.734-.1699-2.3847-.3623-1.1183-.3307-2.2334-.6727-3.3502-1.0091-2.3451-.7063-4.6901-1.4126-7.0352-2.1189-2.2362-.6735-4.6758-1.1712-6.1309-3.1716-.7651-1.0517-2.5364-.0345-1.7622,1.0299,2.7222,3.7421,8.2244,4.3726,12.3757,5.6229,1.4517.4372,2.9035.8745,4.3551,1.3118,1.1377.3427,2.348.8395,3.5602.801,1.9545-.0621,3.0086-1.568,3.9311-3.0808,2.6633-4.3672,7.0819-7.2907,11.0213-10.4165,4.6053-3.6541,9.2106-7.3084,13.8159-10.9626.823-.6532-.0725-1.9752-.9928-1.7054-9.0647,2.6577-16.5509,8.4975-23.8337,14.2867l1.7419.7215c.2416-7.9589,1.9442-15.7433,5.0058-23.0918.3453-.8289-.8006-1.611-1.4989-1.1523-7.3875,4.8528-12.072,12.9628-12.5916,21.7855l1.9014-.515c-4.95-10.6865-13.2764-19.5828-23.5927-25.2589-1.0768-.5924-1.9249.7268-1.2365,1.6026,3.4345,4.3689,5.6555,8.8787,6.2656,14.458.5483,5.0141.1071,10.0778-.3673,15.0786-.124,1.3067,1.9176,1.2982,2.0407,0h.0004Z"/>
  </g>
</svg>