<?xml version="1.0" encoding="UTF-8"?>
<svg id="Layer_1" data-name="Layer 1" xmlns="http://www.w3.org/2000/svg" xmlns:xlink="http://www.w3.org/1999/xlink" viewBox="0 0 144.4857 98.5222">
  <defs>
    <style>
      .cls-1 {
        fill: none;
      }

      .cls-2 {
        fill: url(#New_Pattern);
        stroke: #3fa9f5;
        stroke-miterlimit: 10;
        stroke-width: .7723px;
      }

      .cls-3 {
        fill: blue;
      }

      .cls-4 {
        fill: #fff;
      }
    </style>
    <pattern id="New_Pattern" data-name="New Pattern" x="0" y="0" width="10" height="10" patternTransform="translate(-420 -476.6865)" patternUnits="userSpaceOnUse" viewBox="0 0 10 10">
      <g>
        <rect class="cls-1" width="10" height="10"/>
        <rect class="cls-4" width="10" height="10"/>
        <circle class="cls-3" cx="5.0001" cy="4.9999" r="2.053"/>
      </g>
    </pattern>
  </defs>
  <g>
    <path class="cls-2" d="M107.329,60.8911c-2.1959,1.1833-3.9915,2.5425-6.3251,3.423-21.6689,8.1753-47.1338,6.7772-67.2989-4.6134-1.4365-6.2402-1.6467,2.2428,2.0797-2.9648,5.5849-7.8047,12.8758-14.578,21.6637-18.4347,8.7879-3.8567,19.1547-4.5752,27.9857-.8181,8.109,3.4501,14.5372,10.6366,17.0655,19.0786,1.848,6.1708,5.0212-2.1095,4.8297,4.3291l-.0003.0002Z"/>
    <path class="cls-2" d="M106.4479,59.3837c-3.195,1.7932-6.1996,3.4479-9.7131,4.5723-3.364,1.0764-6.7992,1.9268-10.2746,2.555-6.9732,1.2606-14.121,1.5605-21.1808.9759-6.8699-.5688-13.6809-2.065-20.1563-4.4314-1.7477-.6385-3.4707-1.3418-5.1621-2.1173-1.2247-.5617-3.7738-1.2963-4.6237-2.3454-.844-1.0419-.5416-2.4278-2.0625-2.9829-.5793-.2116-1.2765.0416-1.6985.4489-1.2,1.1586-.3863,3.2769.9426,3.9357,3.056,1.515,5.5036-3.4509,6.9081-5.19,6.9397-8.5929,16.2802-15.5659,27.3455-17.522,11.2656-1.9916,22.9275,1.8446,29.7804,11.2311,1.517,2.078,2.7879,4.3714,3.6852,6.7843.5636,1.516.856,3.4734,2.1381,4.6063.8257.7295,1.8345.9658,2.9034.7427.2806-.0585,1.1376-.2796,1.2804-.5135.6828-.2534.3454-.4751-1.0121-.6652.0457.4734.0572.9475.035,1.4228-.0161,2.2473,3.4753,2.2495,3.4915,0,.0159-2.1873-.5147-4.9542-3.343-4.1926-1.2971.3493-1.0414,1.0825-1.5491-.6006-.6551-2.1726-1.5537-4.2932-2.6573-6.276-4.4025-7.9111-12.1341-13.7734-20.9866-15.7241-9.6818-2.1335-19.8862.0034-28.3827,4.9415-4.1229,2.3962-7.8923,5.4332-11.2287,8.8339-1.7325,1.766-3.3447,3.6422-4.8627,5.5949-.3706.4768-2.4366,2.578-2.3994,3.1003-.5345.3643-.2762.581.7757.6505.1874.4269.0553.8633-.3963,1.3093l-1.6985.4489c-1.2286-.4484-.7427-.7386-.5052.4553.0937.4707.2031.9375.4927,1.3264.821,1.1031,2.8393,1.7328,4.0485,2.3299,3.1382,1.55,6.3936,2.8845,9.7114,3.9984,6.6774,2.2419,13.6714,3.5465,20.6967,4.002,7.051.457,14.1504-.0049,21.0947-1.301,7.3629-1.3741,13.8306-3.7444,20.3248-7.3893,1.9596-1.0999.2013-4.117-1.7621-3.0149l.0005-.0003Z"/>
  </g>
  <g>
    <path class="cls-2" d="M71.411,22.1188c7.5787-4.6232,17.0215-4.5914,25.8872-4.1329,1.6741.0866,3.7129.4418,4.2692,2.0229.3591,1.0201-.1182,2.1861-.8993,2.934-.7811.7479-1.8152,1.1628-2.8278,1.5424-2.5102.9411-5.0811,1.7783-7.7416,2.1093-5.1063.6351-10.2528-.6229-15.1593-2.1729-4.9065-1.55-9.7645-3.4132-14.8713-4.0429-5.1068-.6297-10.6317.126-14.6534,3.3359-1.0637.8491-2.0339,2.4503-1.1067,3.4467.2092.2246.4871.3719.7662.4993,3.8797,1.7722,8.4244.4061,12.3555-1.2491,3.9311-1.6552,8.0383-3.6336,12.2576-3.0086"/>
    <path class="cls-2" d="M72.2921,23.6263c7.368-4.2976,16.233-4.4507,24.5299-3.9184,1.1987.0768,2.1411-.1497,2.4156,1.1483.3026,1.4309-1.1226,1.6601-2.3336,2.1193-2.0244.7674-4.1354,1.4385-6.276,1.7886-4.6286.7569-9.3163-.2576-13.745-1.5728-7.7132-2.2908-15.4391-5.7006-23.6663-4.4945-3.2679.479-6.8675,1.6782-9.2946,4.0241-1.6709,1.6151-2.5151,4.2579-.4956,5.9481,3.1818,2.6626,8.6304,1.5412,12.1385.3249,4.6802-1.6227,8.9848-4.3705,14.122-3.845,2.2331.2285,2.2172-3.2647,0-3.4915-4.0155-.4107-7.6677.9397-11.3121,2.4706-2.1553.9054-4.3247,1.8705-6.6319,2.3233-1.5552.3053-8.0731.5098-4.3455-2.0161,7.6819-5.2054,17.7331-1.3612,25.6071,1.1965,4.0686,1.3215,8.2074,2.5127,12.4954,2.8077,4.4307.3048,8.6874-.6884,12.8044-2.2705,2.5653-.9859,5.3872-2.6661,5.0672-5.8403-.3114-3.0866-3.4633-3.891-6.0734-4.0884-9.0335-.6828-18.765-.2967-26.7681,4.3712-1.94,1.1315-.1845,4.1503,1.7621,3.0149h0v-.0002Z"/>
  </g>
  <path class="cls-2" d="M68.158,24.4091c-.2449,3.4404.0044,6.8937.6754,10.2758.1781.8973,1.2956,1.495,2.1474,1.2193.9538-.3087,1.4101-1.186,1.2193-2.1474-.08-.4032-.1551-.8071-.2224-1.2124-.0362-.2182-.0685-.4372-.1027-.6556-.0538-.3442.0066.089-.0401-.2874-.0971-.7843-.1715-1.5711-.2187-2.36-.0964-1.61-.0815-3.2236.033-4.8321.0651-.913-.8494-1.7859-1.7457-1.7457-1.0013.0448-1.676.7679-1.7457,1.7457h.0002Z"/>
</svg>