<?xml version="1.0" encoding="UTF-8"?>
<svg id="Layer_1" data-name="Layer 1" xmlns="http://www.w3.org/2000/svg" xmlns:xlink="http://www.w3.org/1999/xlink" viewBox="0 0 173.7045 237.4209">
  <defs>
    <style>
      .cls-1 {
        fill: none;
      }

      .cls-2 {
        fill: blue;
      }

      .cls-3 {
        fill: #3fa9f5;
      }

      .cls-4 {
        fill: #fff;
      }

      .cls-5 {
        fill: url(#New_Pattern);
      }
    </style>
    <pattern id="New_Pattern" data-name="New Pattern" x="0" y="0" width="10" height="10" patternTransform="translate(-1056.6663 -649.0679)" patternUnits="userSpaceOnUse" viewBox="0 0 10 10">
      <g>
        <rect class="cls-1" width="10" height="10"/>
        <rect class="cls-4" width="10" height="10"/>
        <circle class="cls-2" cx="5.0001" cy="4.9999" r="2.053"/>
      </g>
    </pattern>
  </defs>
  <rect class="cls-1" y="-2" width="173.7045" height="237.4209"/>
  <g>
    <path class="cls-5" d="M114.9435,195.23c-24.147.0376-48.2941.0752-72.4411.1129-1.7047.0027-3.4966-.0164-4.9812-.854-1.8429-1.0397-2.8169-3.1073-3.6032-5.0718-7.5314-18.8158-8.1934-39.5687-8.7575-59.828-.6375-22.8946-1.2695-45.9039,1.7124-68.6125,2.3214-17.6792,7.6747-36.4128,21.7632-47.3425C66.4336-.173,93.441,3.4737,111.3605,17.1224c17.9194,13.6487,28.2345,35.0449,35.0657,56.5095,12.1517,38.1818,15.2295,78.5663,18.2268,118.5229-17.4115,3.0991-35.2439,3.824-52.8495,2.1483"/>
    <path class="cls-3" d="M114.9435,193.0086c-19.0678.0297-38.1357.0594-57.2035.0891l-14.4882.0226c-1.7044.0027-3.8111.2385-5.1916-.9673-1.2979-1.1337-1.9031-3.042-2.4993-4.6026-3.0706-8.0378-4.9596-16.4948-6.1024-25.0106-1.17-8.7186-1.5919-17.5247-1.8797-26.31-.303-9.2491-.5596-18.5034-.6781-27.7568-.2297-17.9421-.0006-36.1909,3.1977-53.899,2.5141-13.9201,7.3568-28.3895,18.357-37.9319,10.5892-9.1859,25.4724-11.1858,38.8292-8.2227,6.9764,1.5476,13.6322,4.3402,19.6101,8.2577,6.2036,4.0654,11.6014,9.3586,16.2393,15.1223,9.6301,11.9676,15.9246,26.3856,20.6563,40.8901,5.564,17.0558,9.2746,34.674,11.9418,52.3988,2.6863,17.8523,4.2886,35.8487,5.6934,53.8405.3442,4.408.6755,8.817,1.0062,13.2261l1.6309-2.1421c-17.2307,3.0447-34.8409,3.7048-52.259,2.069-1.1962-.1123-2.2214,1.1014-2.2214,2.2214,0,1.2949,1.0219,2.1088,2.2214,2.2214,17.8285,1.6744,35.8091.8877,53.4401-2.2277.8914-.1575,1.6983-1.2436,1.6309-2.1421-1.3949-18.5932-2.7996-37.1967-5.1312-55.7009-2.3377-18.5527-5.5707-37.0253-10.6608-55.0357-4.4359-15.6956-10.1661-31.3483-19.1772-45.0439-8.5572-13.0057-20.1243-24.0018-34.812-29.6386-13.658-5.2415-29.6154-5.7961-42.9155.8058-13.8111,6.8556-21.7999,20.7956-25.9038,35.1419-2.2079,7.7185-3.4069,15.6815-4.2603,23.6512-1.027,9.5907-1.462,19.2363-1.5757,28.8784-.114,9.6604.0937,19.321.3526,28.9775.2451,9.14.434,18.2915,1.1157,27.412.6718,8.9873,1.825,17.9873,4.0754,26.7266,1.106,4.2952,2.4584,8.5542,4.1925,12.6395.7413,1.7465,1.6657,3.4642,3.1606,4.6831,1.8092,1.4751,4.0318,1.8633,6.3097,1.9083,9.7688.193,19.5637-.025,29.3346-.0402,9.8253-.0153,19.6507-.0306,29.476-.0459,4.8294-.0075,9.6588-.015,14.4882-.0226,2.8586-.0045,2.8637-4.4474,0-4.4429h0Z"/>
  </g>
</svg>