<?xml version="1.0" encoding="UTF-8"?>
<svg id="Layer_1" data-name="Layer 1" xmlns="http://www.w3.org/2000/svg" xmlns:xlink="http://www.w3.org/1999/xlink" viewBox="0 0 173.7045 237.4209">
  <defs>
    <style>
      .cls-1 {
        fill: none;
      }

      .cls-2 {
        fill: blue;
      }

      .cls-3 {
        fill: #3fa9f5;
      }

      .cls-4 {
        fill: #fff;
      }

      .cls-5 {
        fill: url(#New_Pattern);
      }
    </style>
    <pattern id="New_Pattern" data-name="New Pattern" x="0" y="0" width="10" height="10" patternTransform="translate(-499.0764 -649.0679)" patternUnits="userSpaceOnUse" viewBox="0 0 10 10">
      <g>
        <rect class="cls-1" width="10" height="10"/>
        <rect class="cls-4" width="10" height="10"/>
        <circle class="cls-2" cx="5.0001" cy="4.9999" r="2.053"/>
      </g>
    </pattern>
  </defs>
  <rect class="cls-1" y="-2" width="173.7045" height="237.4209"/>
  <g>
    <path class="cls-5" d="M77.4455,20.2928c-14.2227,45.7735-37.0653,88.8527-66.9747,126.3084,22.4601,9.8016,44.9203,19.6031,67.3804,29.4047,10.4036,4.5401,20.9363,9.1195,32.1284,11.0128,14.6228,2.4736,30.0201.1293,43.2441-6.5843,1.4004-.7109,2.8915-1.6005,3.3913-3.0894.379-1.129.0982-2.3608-.1847-3.5176-11.1728-45.682-22.3455-91.364-33.5183-137.046-.7512-3.0714-1.575-6.2828-3.7093-8.6158-2.0935-2.2883-5.1511-3.4012-8.1166-4.3094-11.1746-3.4222-22.8823-5.0976-34.5682-4.9467"/>
    <path class="cls-3" d="M75.3034,19.7022c-5.5093,17.695-12.2823,34.9837-20.2937,51.6961-8.0294,16.7499-17.2616,32.9241-27.6085,48.3506-5.8188,8.6754-11.9876,17.1148-18.5012,25.2815-.7841.9831-.9968,2.8577.4496,3.489,22.6027,9.8638,45.204,19.7308,67.8081,29.5913,10.5375,4.5967,21.242,9.2661,32.666,11.1222,10.8372,1.7608,22.0306,1.0643,32.5542-2.0897,2.7171-.8143,5.3732-1.8043,7.9781-2.9253,2.2441-.9658,4.767-1.929,6.6107-3.5821,2.4072-2.1582,2.1896-5.0022,1.4873-7.8831-.7282-2.9868-1.4608-5.9726-2.1911-8.9588-2.9412-12.0258-5.8825-24.0517-8.8237-36.0775-5.843-23.8902-11.686-47.7805-17.529-71.6707-1.4608-5.9726-2.9215-11.9451-4.3823-17.9177-1.2656-5.1747-2.4744-10.4154-7.187-13.5595-2.1434-1.43-4.6697-2.2534-7.1176-2.992-2.7971-.844-5.6274-1.578-8.4816-2.202-5.8213-1.2727-11.7533-2.0997-17.7004-2.4733-2.8378-.1783-5.6804-.2436-8.5234-.2129-2.8571.0309-2.8645,4.4738,0,4.4429,11.3516-.1226,22.6532,1.4482,33.5243,4.7295,2.2126.6679,4.5058,1.3744,6.3855,2.7713,1.811,1.3459,2.7976,3.3665,3.4611,5.4696,1.6824,5.3326,2.7509,10.9153,4.079,16.3456,5.6456,23.0831,11.2912,46.1663,16.9368,69.2494,2.8425,11.6223,5.6851,23.2446,8.5276,34.8668,1.4015,5.7304,2.8031,11.4609,4.2046,17.1913.3057,1.25.7644,2.5621.9126,3.8421.1344,1.1606-.3683,1.7132-1.3181,2.297-2.0583,1.2651-4.3795,2.2202-6.6242,3.0992-9.8225,3.8466-20.4367,5.4012-30.9489,4.521-10.841-.9078-21.1841-4.775-31.1125-9.0123-21.6576-9.2432-43.1769-18.824-64.7589-28.2423-2.7316-1.1921-5.4633-2.3842-8.1949-3.5762l.4496,3.489c11.7486-14.7301,22.4532-30.277,31.9564-46.548,9.5035-16.2715,17.8019-33.2329,24.8661-50.7013,3.9875-9.8602,7.5618-19.8844,10.7235-30.0394.8519-2.7362-3.4356-3.9066-4.2842-1.1811h0Z"/>
  </g>
</svg>