<?xml version="1.0" encoding="UTF-8"?>
<svg id="Layer_1" data-name="Layer 1" xmlns="http://www.w3.org/2000/svg" xmlns:xlink="http://www.w3.org/1999/xlink" viewBox="0 0 173.7045 237.4209">
  <defs>
    <style>
      .cls-1 {
        fill: none;
      }

      .cls-2 {
        fill: blue;
      }

      .cls-3 {
        fill: #3fa9f5;
      }

      .cls-4 {
        fill: #fff;
      }

      .cls-5 {
        fill: url(#New_Pattern);
      }
    </style>
    <pattern id="New_Pattern" data-name="New Pattern" x="0" y="0" width="10" height="10" patternTransform="translate(-1239.6259 -649.0679)" patternUnits="userSpaceOnUse" viewBox="0 0 10 10">
      <g>
        <rect class="cls-1" width="10" height="10"/>
        <rect class="cls-4" width="10" height="10"/>
        <circle class="cls-2" cx="5.0001" cy="4.9999" r="2.053"/>
      </g>
    </pattern>
  </defs>
  <rect class="cls-1" y="-2" width="173.7045" height="237.4209"/>
  <g>
    <path class="cls-5" d="M85.9122,21.5837c-21.5125-2.295-42.9961,9.2827-56.2565,26.377-13.2604,17.0943-19.143,38.9563-20.6042,60.5414-.8332,12.3092-.3005,24.8746,3.4411,36.6308,4.0058,12.5862,11.704,23.9727,21.8914,32.3797,5.4881,4.529,11.9929,8.3037,19.0977,8.694,14.6799.8066,26.8107-12.6341,41.4807-13.6047,9.6963-.6415,18.7601,4.2425,27.8334,7.7216s20.1138,5.3721,27.8864-.4604c5.0874-3.8175,7.5885-10.1401,9.234-16.284,3.7293-13.9239,4.2927-28.4804,4.5002-42.8935.2484-17.2543-.1325-35.1837-7.7064-50.6888-12.8828-26.3732-42.7416-39.0492-70.2227-49.3594"/>
    <path class="cls-3" d="M85.9122,19.997c-17.1303-1.7606-34.0701,5.0272-47.0084,16.011-13.6786,11.6123-22.3498,28.0414-27.0022,45.1757-2.3839,8.7798-3.7709,17.8282-4.4078,26.8979-.7084,10.087-.5008,20.3129,1.575,30.2394,3.6296,17.3565,13.898,33.7655,28.7271,43.7168,3.7305,2.5034,7.927,4.543,12.3735,5.3537,4.0469.7378,8.1421.4498,12.1035-.6199,7.737-2.0894,14.4926-6.6164,21.8206-9.7094,3.6561-1.5432,7.5409-2.7449,11.529-2.9078,4.7776-.1951,9.437.9975,13.9062,2.5852,8.6115,3.0592,16.6916,7.4709,25.9406,8.3191,4.0509.3715,8.2436.0011,12.0205-1.5782,3.9774-1.6631,7.1434-4.5914,9.4149-8.2306,2.2317-3.5754,3.5991-7.6537,4.6635-11.708,1.3013-4.9572,2.1968-10.0065,2.8469-15.0878,1.2994-10.1558,1.5293-20.423,1.6225-30.6498.087-9.5462-.1363-19.137-1.7267-28.5708-1.5107-8.9612-4.4125-17.6898-9.217-25.4395-4.0963-6.6075-9.3982-12.4125-15.3627-17.3769-12.3519-10.2808-27.1052-17.1656-41.9222-23.102-3.6154-1.4485-7.2536-2.8388-10.8998-4.2076-1.9143-.7186-2.7412,2.3478-.8436,3.0601,14.487,5.4384,29.0193,11.2451,42.0692,19.6745,12.9775,8.3826,24.1409,19.7278,29.5419,34.4472,3.1772,8.659,4.4724,17.8581,4.9486,27.0318.4927,9.4912.3048,19.0538-.0759,28.5461-.3969,9.8972-1.3044,19.8143-3.6894,29.4505-1.9019,7.6845-4.9723,16.445-13.084,19.449-7.7509,2.8704-16.4347.4572-23.7954-2.4557-8.5103-3.3679-17.1672-7.783-26.5777-7.3212-7.8609.3858-14.9311,4.1531-21.8103,7.6262-6.718,3.3917-14.0138,6.9162-21.7609,5.8506-8.5661-1.1783-15.9771-7.133-21.8206-13.1439-5.8655-6.0336-10.6196-13.1757-13.8963-20.9297-3.6863-8.7234-5.3455-18.1531-5.7245-27.5809-.372-9.2541.2825-18.6142,1.7687-27.7529,2.8006-17.2208,8.9263-34.4362,20.2238-47.9704,10.3926-12.4502,25.3675-21.8659,41.6545-23.8214,3.9441-.4736,7.9238-.503,11.8749-.0969,2.0296.2086,2.015-2.9664,0-3.1735h0Z"/>
  </g>
</svg>