<?xml version="1.0" encoding="UTF-8"?>
<svg id="Layer_1" data-name="Layer 1" xmlns="http://www.w3.org/2000/svg" viewBox="0 0 269.5578 291.4695">
  <defs>
    <style>
      .cls-1 {
        fill: #fff;
      }

      .cls-2 {
        fill: #29abe2;
      }
    </style>
  </defs>
  <path class="cls-2" d="M224.8116,202.7595c.1784-6.927-2.779-14.5161-5.1052-21.1283-1.8827-5.3517-4.687-10.7965-6.5177-16.2911-6.0854-18.2644-9.972-37.175-16.1291-55.3463-1.472.0334.3457,19.0281.4115,20.8844.5123,14.4625.7557,28.9489,1.4578,43.3996.5848,12.0368,3.5035,28.7364,2.3504,40.3025-.4432,4.4453-1.8869,6.7744-5.61,8.8274-10.5645,5.8255-34.846,11.3678-47.3252,14.2668-16.6427,3.8661-53.4055,5.6421-69.158.0843-7.4365-2.6237-12.9195-5.211-12.5488-14.1149.5469-13.1342,4.8382-28.9711,6.1062-42.5626.9034-9.6839,1.7184-21.4091,2.2815-31.1715.7615-13.2025-.1374-26.7164,1.5237-39.9045-2.2672-.3947-1.2005.6014-1.5977,1.78-9.1376,27.116-16.4267,54.8398-24.0472,82.4298-.6284,2.275-2.612,6.0459-2.8957,7.7714-.5229,3.1805,2.1585,5.3879-2.8465,7.7744-10.4174,4.9673-30.705-.1188-35.6461-11.0536-5.0932-11.2713,5.5524-31.4774,9.0408-42.9221,6.4444-21.1427,9.8935-41.6666,17.6876-62.9037,6.8983-18.7962,25.5718-66.4913,43.9373-74.6688,16.574-7.3798,22.0396.9252,36.2981,2.0602,4.6347.3689,8.5235-.8223,12.9365-.7866,8.1852.0663,17.466,2.6484,25.7962,3.1126,16.4553.9169,27.7356-4.5922,42.7364,4.402,24.523,14.7035,27.1338,34.6454,36.3853,58.6516,8.7067,22.5925,18.3035,44.871,25.237,68.2793,2.0972,7.0802,3.077,15.3274,5.3075,22.0631,2.1952,6.6291,6.7202,6.4605,3.6375,14.5868-4.7689,12.5714-18.9809,15.6963-31.1514,14.4478-4.7767-.49-7.7035-3.5987-12.5525-2.27ZM87.9568,21.0542c-11.7671,1.6044-20.3943,15.8554-25.713,25.5993-22.2483,40.76-31.5212,86.9907-45.5348,130.8537-.9685,3.0316-1.7369,6.1942-2.5006,9.2794,11.6632.1228,21.09,4.0561,30.4037,10.648,5.5633-19.9722,10.6237-40.1301,16.3571-60.06,2.7179-9.4476,6.4182-18.6581,9.1313-28.1231,1.3871-4.8391,4.6301-23.7325,7.1642-26.2871,1.0118-1.02,3.4064-1.6883,4.5138-.9932,2.1588,1.3549.1238,12.7979.0649,15.454-.7104,31.9952-1.0096,63.9399-4.5422,95.8168-.6212,5.6051-5.8258,31.5919-4.1629,34.6008,1.6966,3.0699,16.0559,6.5162,19.773,6.8348,29.4848,2.527,58.1797-2.5918,86.1168-11.1765,1.9161-.5888,14.6164-5.1426,15.191-5.7156.84-.8377.8696-2.7943.9709-3.9713,1.4502-16.8362-2.3484-38.3988-3.0646-55.5418-.6652-15.9209-.0626-32.0182-.7367-47.9222-.3872-9.1339-2.3718-18.6501-1.9302-27.7131,3.3449-6.8567,8.2868,9.0815,9.1081,11.4117,7.875,22.3439,12.4173,45.8143,19.9422,68.2521,3.4436,10.2682,8.6688,19.8956,10.8696,30.5733,4.9433-2.0881,8.6366-6.5356,13.515-8.908,5.5486-2.6983,12.3168-3.9247,18.4104-4.7822-4.4265-19.0406-11.2637-37.1868-17.8318-55.5317-4.5485-12.7039-9.0726-23.202-13.9242-35.495-8.5656-21.7034-11.289-42.0421-33.3725-55.5821-3.1948-1.9588-12.1501-6.4034-15.6898-5.4764-.8635.2262-.7859,1.9847-1.7533,2.256-.9586.2688-2.4159-.7117-3.665-.6609-5.6371.2292-20.72,13.4179-26.6465,16.7024-7.2744,4.0316-22.9699,8.6564-31.1261,7.5174-9.527-1.3304-13.4949-8.8693-19.0627-15.1513-3.9595-4.4674-12.5486-10.074-10.2752-16.7084ZM161.7058,28.6572c-6.6719-.8681-13.4355-.958-20.1391-1.5367-9.7566-.8422-20.5394-.5363-29.5782-1.5939-3.6378-.4257-15.7904-5.657-17.8673-4.4018-1.336,2.3062.7528,4.4887,2.2175,6.3665,2.6439,3.3898,10.6441,12.7058,13.6592,15.2318,6.5124,5.4558,11.8344,4.5829,19.6432,2.901,12.7666-2.7497,22.0403-9.0026,32.0647-16.9669ZM234.695,198.1875c7.8651,1.3524,18.9056,1.6861,24.7375-4.5248,1.5196-1.6184,6.2383-7.9998,2.2683-8.412-1.1585-.1203-9.8041,1.7624-11.458,2.2635-5.624,1.7043-11.9427,6.0102-15.5479,10.6733ZM41.58,205.0308c2.2733-2.6853-11.1395-9.2727-13.1731-10.0092-5.0699-1.8362-9.0138-1.1214-14.194-2.1445,1.5445,11.3271,17.8453,14.3651,27.3671,12.1537Z"/>
  <path class="cls-1" d="M87.9568,21.0542c-2.2734,6.6343,6.3157,12.241,10.2752,16.7084,5.5678,6.282,9.5357,13.8209,19.0627,15.1513,8.1562,1.139,23.8516-3.4858,31.1261-7.5174,5.9265-3.2846,21.0094-16.4732,26.6465-16.7024,1.2491-.0508,2.7064.9297,3.665.6609.9674-.2713.8898-2.0298,1.7533-2.256,3.5397-.927,12.495,3.5176,15.6898,5.4764,22.0835,13.5399,24.8069,33.8787,33.3725,55.5821,4.8516,12.293,9.3757,22.7911,13.9242,35.495,6.5681,18.3449,13.4053,36.4911,17.8318,55.5317-6.0936.8575-12.8619,2.0839-18.4104,4.7822-4.8784,2.3724-8.5717,6.8199-13.515,8.908-2.2007-10.6777-7.426-20.3051-10.8696-30.5733-7.5249-22.4377-12.0672-45.9082-19.9422-68.2521-.8213-2.3302-5.7632-18.2683-9.1081-11.4117-.4416,9.063,1.543,18.5792,1.9302,27.7131.6741,15.904.0716,32.0013.7367,47.9222.7162,17.143,4.5148,38.7056,3.0646,55.5418-.1014,1.177-.131,3.1336-.9709,3.9713-.5746.5731-13.2748,5.1268-15.191,5.7156-27.9371,8.5847-56.6319,13.7035-86.1168,11.1765-3.7171-.3186-18.0764-3.7649-19.773-6.8348-1.6629-3.0089,3.5417-28.9957,4.1629-34.6008,3.5326-31.8769,3.8319-63.8216,4.5422-95.8168.059-2.6562,2.094-14.0991-.0649-15.454-1.1075-.6951-3.5021-.0267-4.5138.9932-2.534,2.5546-5.7771,21.448-7.1642,26.2871-2.7131,9.465-6.4135,18.6755-9.1313,28.1231-5.7334,19.9298-10.7937,40.0878-16.3571,60.06-9.3137-6.5919-18.7405-10.5251-30.4037-10.648.7637-3.0852,1.5321-6.2478,2.5006-9.2794,14.0136-43.8631,23.2865-90.0938,45.5348-130.8537,5.3186-9.744,13.9459-23.9949,25.713-25.5993Z"/>
  <path class="cls-1" d="M161.7058,28.6572c-10.0244,7.9642-19.2981,14.2172-32.0647,16.9669-7.8088,1.6819-13.1307,2.5549-19.6432-2.901-3.0152-2.526-11.0153-11.842-13.6592-15.2318-1.4647-1.8778-3.5535-4.0604-2.2175-6.3665,2.0769-1.2551,14.2295,3.9762,17.8673,4.4018,9.0388,1.0576,19.8216.7517,29.5782,1.5939,6.7036.5787,13.4672.6685,20.1391,1.5367Z"/>
  <path class="cls-1" d="M234.695,198.1875c3.6052-4.6631,9.9239-8.969,15.5479-10.6733,1.6539-.5012,10.2995-2.3838,11.458-2.2635,3.97.4122-.7487,6.7936-2.2683,8.412-5.832,6.211-16.8724,5.8772-24.7375,4.5248Z"/>
  <path class="cls-1" d="M41.58,205.0308c-9.5219,2.2114-25.8226-.8266-27.3671-12.1537,5.1802,1.0231,9.1241.3083,14.194,2.1445,2.0336.7365,15.4464,7.3238,13.1731,10.0092Z"/>
</svg>