<?xml version="1.0" encoding="UTF-8"?>
<svg id="Layer_1" data-name="Layer 1" xmlns="http://www.w3.org/2000/svg" viewBox="0 0 241.9822 261.6338">
  <defs>
    <style>
      .cls-1 {
        fill: #fff;
      }

      .cls-2 {
        fill: #29abe2;
      }
    </style>
  </defs>
  <path class="cls-2" d="M64.4765,189.8037l-7.6671-3.8568c-1.2678,6.8879-4.5022,26.773-12.2347,28.1664-8.1925,1.4763-30.878-7.718-31.1595-17.2319-.1164-3.9336,5.6332-22.0885,7.1908-27.2784,4.5935-15.3054,11.6189-30.107,16.0638-45.398,3.7208-12.7997,5.4219-26.128,9.5454-39.1119,5.4107-17.0372,13.3984-33.4558,18.475-50.6695,2.4286-3.7135,11.7301-10.5597,16.3201-8.6417C86.8553-.0113,112.5405,12.5371,131.6975,7.9421c8.8947,1.8,19.0259,6.568,24.9694,13.4712,1.3021,1.5124,1.557,4.0512,3.1172,5.846,3.8701,4.4522,11.4455,8.3309,15.3719,14.0785,6.0874,8.911,4.987,20.4635,8.0212,30.3923,7.3882,24.1762,20.3321,48.0766,19.8961,74.8574l16.0211,51.748c.5762,8.0568-23.196,15.1775-28.1844,14.2937-6.3249-1.1206-10.543-17.0338-12.6139-22.6924l-6.278.5092M116.9775,55.3275c-9.9881-12.5623-21.2405-23.8011-22.4013-40.9554-6.0115,5.489-10.0902,10.3775-7.3082,18.8373,3.238,9.8461,10.9585,2.7294,14.4719,7.2777l3.6402,14.2867,11.5973.5537ZM101.6124,19.4876h24.9688c.2448,0,4.3756-1.5865,4.506-1.9163l-.7749-3.2214c-9.7915.0968-18.8774,2.9009-28.693.022l-.007,5.1157ZM149.8199,22.4943c-2.9133-2.891-8.7654-4.6433-12.3422-6.848l-5.7777,23.041-9.6057,13.4633c10.2686-.7937,12.7728-6.2328,14.0068-15.4605,8.1827-.4563,12.4147-1.7745,16.5686-9.066.192-1.1335-1.9293-4.2164-2.8497-5.1298ZM129.7772,24.6175c-9.3071,2.1981-17.6006.788-26.8842.005,3.3369,8.5399,8.6861,14.9904,14.7254,21.7325,6.6611-5.4572,10.1827-13.5287,12.1588-21.7375ZM97.7785,45.0877c-11.9844,2.359-13.9791-6.8874-18.566-15.3272l-7.6931,5.09c-14.3728,27.0097-19.8455,57.7577-28.4449,86.7961-2.7839,9.4005-23.2341,63.4068-20.5952,67.8936,7.5384,4.884,16.4053,8.1916,25.4066,7.3822,1.419-8.3531,8.0717-18.8281,9.6251-26.2671,4.9323-23.6206,3.4014-57.089,7.1414-82.4904,1.5054-10.2245,6.5245-33.2377,9.8662-42.6323,2.4807-6.974,5.6181-4.8218,5.3938,1.444-.4295,11.9968-8.2535,31.3066-10.1462,45.0217-1.408,10.2032-2.7863,22.9114-3.8524,33.2807-1.958,19.0444-2.3581,38.1912-4.0502,57.2554,1.6308,6.7417,50.7276-2.5968,58.3243.8891l3.056-2.1611c-.3876-10.2057-2.9877-20.396-3.6929-30.5406-.9811-14.1124.2748-28.3254.0486-42.1816-.2555-15.6526-1.2298-31.175-1.3348-46.8039l-17.6439-2.8461-2.8424-13.8024ZM209.1023,188.4378c-2.0619-10.4358-5.2387-20.6651-7.958-30.9579-3.4811-13.1762-4.2018-22.5918-6.8943-35.3606-3.7033-17.5625-11.6632-33.6421-16.7327-49.8509-2.3492-7.5113-2.2364-18.2645-5.3991-25.3318-1.2132-2.711-12.7258-14.887-14.6297-14.5513-3.0919,1.9177-4.8042,5.702-8.1462,7.2986-2.8161,1.3454-8.8836,1.3439-9.226,1.664-.3614.3379-.3155,6.54-2.6205,9.5423-3.1447,4.0961-13.1439,5.3339-13.993,7.841,3.137,27.8908-.3103,56.358,1.1051,84.3728.6562,12.9886,3.8672,25.947,3.8878,39.0076l46.1092,2.5609c-.0926-16.8247-2.2167-33.6614-3.9971-50.4354-2.302-21.6893-5.0775-43.496-6.3066-65.3989-.2624-4.6754.2996-9.4437.0458-14.1301,7.4456-2.9377,4.7066,7.8623,5.1397,12.7861,2.452,27.8765,4.003,55.5608,7.6864,83.2257,2.0524,15.415,2.7625,31.0766,8.9635,45.4753l22.9656-7.7576ZM172.0182,190.4459c-12.5423.0451-29.1916.5582-41.9072.5493-11.43-.0081-22.8984-1.6586-34.2082-1.1547-8.6852.3869-17.4921-.5227-26.1663.0876M21.337,199.6564c2.8248,3.4657,15.5761,8.4774,20.0663,8.8375,5.0286.4033,5.2727-4.3864,1.6763-5.6293-7.6085-2.6295-16.2455-2.751-22.7842-9.2271-1.6293,1.2364.0541,4.8074,1.0416,6.0188ZM211.7131,193.6245c-.8621-.6359-18.0198,6.2862-20.1084,7.3961-1.7044.9057-2.7827.755-1.6298,3.4807,2.2026,5.2076,17.5266-3.2529,21.7691-3.8271l1.2414-2.4822-1.2723-4.5676Z"/>
  <path class="cls-1" d="M97.7785,45.0877l2.8424,13.8024,17.6439,2.8461c.105,15.6289,1.0792,31.1513,1.3348,46.8039.2262,13.8563-1.0297,28.0692-.0486,42.1816.7052,10.1445,3.3054,20.3349,3.6929,30.5406l-3.056,2.1611c-7.5968-3.4859-56.6935,5.8526-58.3243-.8891,1.6921-19.0642,2.0922-38.211,4.0502-57.2554,1.0661-10.3693,2.4444-23.0775,3.8524-33.2807,1.8927-13.7151,9.7167-33.025,10.1462-45.0217.2243-6.2658-2.9132-8.418-5.3938-1.444-3.3417,9.3946-8.3608,32.4078-9.8662,42.6323-3.74,25.4014-2.209,58.8698-7.1414,82.4904-1.5534,7.439-8.2061,17.914-9.6251,26.2671-9.0013.8094-17.8681-2.4982-25.4066-7.3822-2.6389-4.4868,17.8114-58.4931,20.5952-67.8936,8.5994-29.0384,14.0721-59.7863,28.4449-86.7961l7.6931-5.09c4.5869,8.4397,6.5816,17.6862,18.566,15.3272Z"/>
  <path class="cls-1" d="M209.1023,188.4378l-22.9656,7.7576c-6.201-14.3987-6.9111-30.0603-8.9635-45.4753-3.6834-27.665-5.2345-55.3493-7.6864-83.2257-.4331-4.9238,2.3059-15.7238-5.1397-12.7861.2538,4.6864-.3081,9.4547-.0458,14.1301,1.2291,21.9029,4.0046,43.7096,6.3066,65.3989,1.7803,16.774,3.9044,33.6107,3.9971,50.4354l-46.1092-2.5609c-.0207-13.0606-3.2316-26.0191-3.8878-39.0076-1.4154-28.0149,2.0319-56.482-1.1051-84.3728.8491-2.5071,10.8483-3.745,13.993-7.841,2.305-3.0023,2.259-9.2044,2.6205-9.5423.3424-.3201,6.41-.3186,9.226-1.664,3.342-1.5966,5.0543-5.3809,8.1462-7.2986,1.9039-.3357,13.4165,11.8403,14.6297,14.5513,3.1627,7.0673,3.0499,17.8205,5.3991,25.3318,5.0694,16.2088,13.0293,32.2884,16.7327,49.8509,2.6925,12.7688,3.4132,22.1844,6.8943,35.3606,2.7193,10.2928,5.8961,20.5222,7.958,30.9579Z"/>
  <path class="cls-1" d="M116.9775,55.3275l-11.5973-.5537-3.6402-14.2867c-3.5134-4.5483-11.234,2.5684-14.4719-7.2777-2.7821-8.4598,1.2966-13.3483,7.3082-18.8373,1.1608,17.1543,12.4132,28.393,22.4013,40.9554Z"/>
  <path class="cls-1" d="M149.8199,22.4943c.9205.9134,3.0417,3.9963,2.8497,5.1298-4.1539,7.2915-8.3858,8.6097-16.5686,9.066-1.234,9.2277-3.7382,14.6668-14.0068,15.4605l9.6057-13.4633,5.7777-23.041c3.5768,2.2047,9.4289,3.957,12.3422,6.848Z"/>
  <path class="cls-1" d="M129.7772,24.6175c-1.9761,8.2088-5.4976,16.2803-12.1588,21.7375-6.0393-6.7421-11.3885-13.1926-14.7254-21.7325,9.2836.783,17.5771,2.1932,26.8842-.005Z"/>
  <path class="cls-1" d="M211.7131,193.6245l1.2723,4.5676-1.2414,2.4822c-4.2425.5742-19.5665,9.0346-21.7691,3.8271-1.1529-2.7257-.0746-2.575,1.6298-3.4807,2.0887-1.1099,19.2463-8.032,20.1084-7.3961Z"/>
  <path class="cls-1" d="M21.337,199.6564c-.9874-1.2114-2.6709-4.7824-1.0416-6.0188,6.5386,6.4761,15.1756,6.5976,22.7842,9.2271,3.5964,1.2429,3.3522,6.0326-1.6763,5.6293-4.4902-.3601-17.2415-5.3719-20.0663-8.8375Z"/>
</svg>