<?xml version="1.0" encoding="UTF-8"?>
<svg id="Layer_1" data-name="Layer 1" xmlns="http://www.w3.org/2000/svg" viewBox="0 0 293.5849 225.0955">
  <defs>
    <style>
      .cls-1 {
        fill: #fff;
      }

      .cls-2 {
        fill: #29abe2;
      }
    </style>
  </defs>
  <path class="cls-2" d="M204.7328,86.8596c1.9954,10.8089,1.7228,21.9773,2.0518,32.9674.3671,12.2589,2.6246,37.9405-5.5367,47.8127-2.5169,3.0445-12.9271,8.6163-16.8427,10.2073-3.785,1.538-9.5337,2.2192-12.9185,3.7277-1.5979.7121-3.0433,2.664-5.427,3.5897-15.2501,5.9229-57.2766,9.1193-72.9902,5.375-8.2058-1.9553-19.5488-5.9376-19.4476-15.9182.0847-8.3488,3.0782-20.5133,4.0991-29.2441,1.3151-11.2469,2.2061-22.5765,3.6502-33.8037.9165-7.1255,3.4599-13.9633,2.6693-21.2525-.1674-.2255-2.3684,1.3423-2.77,1.7313-13.1379,12.7226-26.9432,33.8764-35.0379,50.2738-2.8152,5.7027-5.3144,11.5891-7.342,17.6273-10.8147,10.1237-33.0743,5.0321-37.5877-9.4297-5.2003-16.6627,6.2723-44.3656,14.919-59.0161,10.9782-18.601,45.4118-62.0761,65.8957-67.9675,2.7677-.796,6.2199-.7841,8.6743-1.7296,10.0065-3.8547,20.2378-14.2842,31.9512-17.9874,13.6569-4.3177,39.3482-3.1033,51.4241,5.048,1.8023,1.2166,4.7891,4.6213,6.4632,5.3278,2.0324.8577,4.0711.2635,6.1144.8215,8.1503,2.2258,15.4879,5.9477,21.821,11.4714,7.7611,6.7694,14.9422,15.4993,22.2778,22.7982,2.1123.3982,11.1867-10.0802,13.4155-12.0371,1.3112-1.1513,10.4713-8.7416,11.1269-9.0307,1.6927-.7466,2.6875.3869,3.7171.2127.9996-.1691,2.2636-2.6828,4.3839-3.1645,8.6077-1.9555,20.2467,7.1761,23.9105,14.6374,2.5778,5.2497,3.4539,12.9171.7034,18.2984-1.0705,2.0944-8.5284,7.9648-10.9021,9.9056-13.1641,10.7632-40.6937,32.5699-58.2896,27.1061-2.2893-.7109-13.5401-8.8801-14.1764-8.3583ZM97.2284,24.4193c1.0544.1339,2.0346.7499,3.1277.7347,3.0267-.0423,12.8445-6.1712,16.5115-7.7859,11.5988-5.1075,24.8004-6.5078,37.5497-6.1262,7.2453.2168,13.3462,5.196,19.7677,8.0358l2.0979-1.4372c-8.734-9.9018-26.5729-12.2516-39.169-11.4376-13.6838.8843-26.1575,7.8559-37.309,15.4202-1.1217.7609-2.9761.8973-2.5765,2.5963ZM172.1378,23.0463c-4.884.1248-9.7014-5.4869-14.2652-6.2038-10.9973-1.7273-28.1857.2572-38.4416,4.476-5.1992,2.1387-10.2615,5.021-15.2503,7.6132l36.0585,55.8377c1.6155.3492,1.108-.2123,1.5434-.8902,2.7496-4.2811,6.0535-10.4591,8.5179-15.045,6.4284-11.9626,15.3014-28.388,20.3443-40.6919.6752-1.6473,1.5748-3.2308,1.4931-5.0961ZM254.6641,36.2207c-.3541-.4315-8.2207,5.88-9.0196,6.5791-5.2396,4.5846-11.6557,15.78-19.0808,9.3907-12.3321-10.6118-20.1986-25.5519-37.9345-30.0383-12.6359-3.1963-10.4909,1.8687-14.9928,11.0627-9.3832,19.1627-19.0214,38.2496-29.8136,56.6379,4.0692,7.0862,7.4339,14.459,10.6064,21.9871,4.1571,9.8644,8.8016,21.1644,12.4767,31.2196,3.7746,10.3276,8.5676,22.2958,6.6189,33.2634,7.7815-2.9158,21.8488-7.0335,25.572-14.996,4.4233-9.4599,3.3087-37.0662,2.8543-48.4573-.4153-10.4124-1.4769-22.9367-2.7733-33.2935-.8896-7.1063-4.4581-17.6947-4.6687-23.7687-.0539-1.5538.8784-6.181,2.9303-5.7127,2.7506.6277,6.2437,25.6911,7.2531,29.5155,1.1213,1.9991,12.2807,9.0396,14.8237,10.1456,12.4328,5.4073,31.0361-8.4123,40.9236-15.5145,5.3548-3.8464,10.3494-8.1959,15.7296-12.0141-11.9108-2.4874-20.8091-13.9686-21.5052-26.0063ZM139.9715,94.0366c-11.5707-21.0622-26.2226-41.5443-39.9405-61.6618-3.6889-3.1971-7.4949-5.6858-12.5495-4.8666-1.8743.3038-3.7647,1.6128-5.2342,1.7717-1.2955.14-2.4171-.6469-3.7673-.3818-3.5927.7053-19.8386,16.4742-23.2809,20.0732-8.739,9.1367-18.15,20.7049-25.5375,31.0067-12.0691,16.83-20.5143,34.2627-24.6832,54.7259,9.735-2.6325,18.6151,1.5908,25.9905,7.6551,2.2029,1.8113,4.8761,3.7896,5.8554,6.4832l1.4352.4311c1.2767-4.1107,3.205-8.0054,5.198-11.8031,10.4009-19.8187,22.8872-38.3322,39.5781-53.361,2.4437-2.2004,2.1247-4.387,7.1743-3.4274,2.1387,3.0274-1.8127,4.538-2.0069,6.5279-.1547,1.5858.8083,4.9763.687,7.6135-.5169,11.2438-3.4605,26.9782-4.8462,38.8434-1.3368,11.4466-5.8038,31.0247-4.8814,41.6553.4943,5.6973,8.0921,8.3893,13.0588,9.8234,15.6673,4.5237,55.8199,1.1045,71.2656-4.6331,3.6032-1.3385,4.5491-1.7975,5.1943-5.9023,2.1886-13.9222-10.2311-37.2252-15.6112-50.3133-4.5-10.9469-7.2548-19.6227-13.0985-30.26ZM282.9319,56.843c2.8162-2.6465,1.5797-10.6185.0877-13.9445-2.0222-4.5077-12.8701-14.8831-17.9279-12.5668-.6537.2994-4.2223,4.5539-4.4945,5.2212-2.4038,5.893,5.1128,15.9517,10.0872,18.9871,2.6446,1.6137,9.6954,4.7012,12.2474,2.303ZM5.0939,141.0621c-.2901,15.077,10.6519,20.4602,24.4436,18.5547,11.3765-1.5717-.3698-12.8382-4.9029-15.7787-5.7439-3.7259-13.2152-6.9077-19.5407-2.776Z"/>
  <path class="cls-1" d="M139.9715,94.0366c5.8437,10.6373,8.5985,19.3131,13.0985,30.26,5.3802,13.0881,17.7998,36.3911,15.6112,50.3133-.6453,4.1049-1.5911,4.5639-5.1943,5.9023-15.4457,5.7376-55.5983,9.1568-71.2656,4.6331-4.9668-1.4341-12.5645-4.1261-13.0588-9.8234-.9224-10.6306,3.5446-30.2087,4.8814-41.6553,1.3857-11.8653,4.3293-27.5997,4.8462-38.8434.1212-2.6372-.8417-6.0277-.687-7.6135.1941-1.9898,4.1456-3.5005,2.0069-6.5279-5.0496-.9597-4.7306,1.227-7.1743,3.4274-16.6909,15.0288-29.1772,33.5423-39.5781,53.361-1.993,3.7977-3.9213,7.6924-5.198,11.8031l-1.4352-.4311c-.9793-2.6936-3.6524-4.6719-5.8554-6.4832-7.3754-6.0643-16.2555-10.2876-25.9905-7.6551,4.1689-20.4632,12.6142-37.8958,24.6832-54.7259,7.3875-10.3017,16.7985-21.87,25.5375-31.0067,3.4423-3.599,19.6882-19.3679,23.2809-20.0732,1.3502-.2651,2.4718.5219,3.7673.3818,1.4695-.1588,3.3599-1.4679,5.2342-1.7717,5.0546-.8192,8.8606,1.6695,12.5495,4.8666,13.7179,20.1174,28.3698,40.5995,39.9405,61.6618ZM133.5091,101.8882c-.4845-.5125-.1194-2.0246-1.335-2.4638-4.6703-1.6874-11.0007,3.711-11.8985,8.0464-3.8649,18.6621,27.359,18.6231,18.6838-.2751-1.6983-3.6995-3.6164-3.3678-5.4503-5.3075ZM144.1619,134.1692c-6.9114,2.1681-13.3734,13.5823-4.6314,17.5378,13.0515,5.9054,19.1697-13.8842,4.6314-17.5378Z"/>
  <path class="cls-1" d="M254.6641,36.2207c.6961,12.0378,9.5944,23.519,21.5052,26.0063-5.3801,3.8182-10.3748,8.1677-15.7296,12.0141-9.8875,7.1023-28.4909,20.9218-40.9236,15.5145-2.543-1.106-13.7024-8.1465-14.8237-10.1456-1.0094-3.8244-4.5025-28.8878-7.2531-29.5155-2.0519-.4683-2.9841,4.159-2.9303,5.7127.2106,6.0739,3.7791,16.6623,4.6687,23.7687,1.2964,10.3568,2.358,22.8811,2.7733,33.2935.4544,11.3912,1.5691,38.9974-2.8543,48.4573-3.7232,7.9626-17.7905,12.0802-25.572,14.996,1.9487-10.9675-2.8443-22.9357-6.6189-33.2634-3.6751-10.0552-8.3196-21.3552-12.4767-31.2196-3.1725-7.5281-6.5372-14.9009-10.6064-21.9871,10.7922-18.3882,20.4304-37.4752,29.8136-56.6379,4.5019-9.194,2.3569-14.259,14.9928-11.0627,17.7359,4.4864,25.6023,19.4265,37.9345,30.0383,7.4251,6.3893,13.8412-4.8061,19.0808-9.3907.7989-.699,8.6655-7.0106,9.0196-6.5791Z"/>
  <path class="cls-1" d="M172.1378,23.0463c.0817,1.8653-.8179,3.4488-1.4931,5.0961-5.0428,12.3038-13.9159,28.7293-20.3443,40.6919-2.4643,4.5859-5.7683,10.7639-8.5179,15.045-.4354.6779.0721,1.2394-1.5434.8902l-36.0585-55.8377c4.9889-2.5922,10.0511-5.4745,15.2503-7.6132,10.2559-4.2188,27.4443-6.2033,38.4416-4.476,4.5638.7168,9.3812,6.3286,14.2652,6.2038Z"/>
  <path class="cls-1" d="M282.9319,56.843c-2.552,2.3982-9.6028-.6893-12.2474-2.303-4.9745-3.0354-12.4911-13.0941-10.0872-18.9871.2722-.6673,3.8407-4.9218,4.4945-5.2212,5.0578-2.3163,15.9057,8.0591,17.9279,12.5668,1.492,3.326,2.7286,11.298-.0877,13.9445Z"/>
  <path class="cls-1" d="M5.0939,141.0621c6.3255-4.1317,13.7968-.9499,19.5407,2.776,4.5331,2.9405,16.2794,14.207,4.9029,15.7787-13.7917,1.9054-24.7337-3.4777-24.4436-18.5547Z"/>
  <path class="cls-1" d="M97.2284,24.4193c-.3995-1.699,1.4549-1.8355,2.5765-2.5963,11.1515-7.5644,23.6252-14.536,37.309-15.4202,12.5961-.814,30.4351,1.5357,39.169,11.4376l-2.0979,1.4372c-6.4215-2.8397-12.5224-7.8189-19.7677-8.0358-12.7493-.3816-25.9509,1.0187-37.5497,6.1262-3.667,1.6148-13.4848,7.7437-16.5115,7.7859-1.0931.0153-2.0733-.6007-3.1277-.7347Z"/>
  <path class="cls-2" d="M133.5091,101.8882c1.8339,1.9397,3.752,1.6079,5.4503,5.3075,8.6751,18.8982-22.5487,18.9373-18.6838.2751.8979-4.3354,7.2282-9.7338,11.8985-8.0464,1.2156.4392.8505,1.9513,1.335,2.4638ZM133.7943,107.8528c-.5203-.5072-6.135-2.9491-6.7246-2.6679-6.44,3.0711-.3146,15.5124,7.3305,10.8654,1.864-1.4724.9207-6.7093-.606-8.1975Z"/>
  <path class="cls-2" d="M144.1619,134.1692c14.5383,3.6536,8.4201,23.4432-4.6314,17.5378-8.742-3.9555-2.2801-15.3696,4.6314-17.5378ZM142.7144,138.8972c-10.0783,10.2937,6.6587,12.6787,5.8536,4.5114-.2295-2.3277-3.9974-3.6014-5.8536-4.5114Z"/>
  <path class="cls-1" d="M133.7943,107.8528c1.5267,1.4882,2.47,6.725.606,8.1975-7.6452,4.6469-13.7705-7.7943-7.3305-10.8654.5896-.2812,6.2042,2.1607,6.7246,2.6679Z"/>
  <path class="cls-1" d="M142.7144,138.8972c1.8562.91,5.6241,2.1837,5.8536,4.5114.8051,8.1673-15.9319,5.7823-5.8536-4.5114Z"/>
</svg>