<?xml version="1.0" encoding="UTF-8"?>
<svg id="Layer_1" data-name="Layer 1" xmlns="http://www.w3.org/2000/svg" viewBox="0 0 215.8698 254.0971">
  <defs>
    <style>
      .cls-1 {
        fill: #fff;
      }

      .cls-2 {
        fill: #29abe2;
      }
    </style>
  </defs>
  <path class="cls-2" d="M170.1075,213.5898s-10.597,5.8803-22.5762,6.8018-76.2521,0-76.2521,0l-27.521-1.7106-.4337-7.4392c-.0943-29.758-2.0563-59.0553-.914-88.6441l-3.2256-4.1307c-.3448-2.0516,1.9906-.8777,2.2037-3.0773.5077-5.2389-2.4335-12.8417-1.2125-18.6831,6.3791-2.6791,12.0286-11.5067,14.6736-17.8162,2.3891-5.699,4.9919-15.8364,5.1868-21.9261.2344-7.3241-4.2401-24.3767,3.788-28.4912,3.3708-1.7276,10.1215-1.8278,13.661-.3934,6.0088,2.4351,14.9752,17.1612,20.7565,20.9227,10.3035,6.7038,25.3508,7.3563,34.6332-1.4924,6.5053-6.2013,2.4918-17.6717,11.7302-20.5634,10.2592-3.2112,14.4124,5.5647,14.505,14.4221.1575,15.0623-3.4433,21.2668,3.8998,36.6418,2.1409,4.4826,10.0434,13.3195,10.3709,16.7238.4298,4.4684-2.541,12.313-2.9312,17.4414-1.8972,24.9334-2.2186,65.6822-.9947,90.6769l.6523,10.737ZM151.4761,32.7632c-1.1391-1.1492-4.4698-2.0006-5.4832-.271l-8.8388,28.142,14.4267-1.1924c.7815-4.873,2.8159-23.732-.1047-26.6786ZM64.2067,35.1076v23.9651c5.5429,3.9399,13.5302.1275,19.7972.5107-5.0452-4.8965-4.2906-21.9328-7.1974-25.6147-2.0294-2.5706-11.6639-2.2088-12.5998,1.1389ZM134.0078,53.3424c-18.5174,12.1674-38.764,3.7619-49.9934-13.5457-1.4429,11.0019,14.2812,36.3324,24.9402,38.1236,8.4592,1.4216,23.2454-16.6411,25.0532-24.578ZM86.9327,63.8976l-22.7991.3189-6.0278,19.0327c-.2741,1.7612,1.1577,1.946,2.373,2.4788,11.1964,4.9089,40.4723,5.6163,53.2706,5.1742,15.8814-.5486,31.5225-4.3719,47.3594-5.2698l-8.4023-21.8002-17.6338.4643c-6.1183,6.7951-15.2675,19.6345-25.4625,19.1884-7.6462-.3346-19.3944-12.857-22.6775-19.5873ZM167.0211,99.9514c1.2635-2.727.4755-7.5429-2.1981-9.1575l-2.2135-1.0018c-35.3238,4.5165-73.0514,11.5096-107.1915-2.132-1.1483,3.5068-9.0184,9.7775-9.7548,12.2618-.8023,2.7064-.1823,16.9774,1.847,18.5676,6.4816,1.4554,13.6807,3.2188,20.3006,3.6645,21.7402,1.4635,49.0956-.7828,70.7836-3.281,8.2885-.9547,17.3534-6.4171,26.0816-7.0603,1.5539-1.0519.0789-8.5695.6246-10.8655.178-.7489,1.5941-.7233,1.7204-.9958ZM165.2768,149.2023v-32.3008c-9.3476.972-18.6445,6.2256-27.7401,7.1656-23.8775,2.4677-53.1551,5.23-76.8721,2.1072-2.2917-.3017-13.3308-3.6576-14.1707-3.0109,2.5164,4.2486.3154,8.8876.2055,13.0113-.0428,1.604.9698,3.3755.9255,5.2146-.1684,6.9969-4.8833,12.0403,5.8902,13.8157,19.3406,3.1873,42.7498-3.2255,62.2258-3.9619,16.6541-.6297,33.1798,4.0037,49.5359-2.0408ZM165.2768,154.4121c-6.9525.9446-15.4531,3.1384-22.39,3.1997-6.4659.0571-14.4712-2.1637-20.8024-2.1966-13.1343-.0683-28.4157,3.5975-41.6842,4.2498-10.3542.5091-23.0925.8598-32.8548-2.1268-1.5479,7.9482.4034,15.7396.125,23.827,1.8852,2.8923,27.8732,2.4386,32.7297,2.2648,17.0857-.6114,34.0656-.4988,51.0564-1.042,10.7846-.3448,23.028-2.9061,33.8204-4.2108v-23.9651ZM48.5773,186.7129v26.049c5.7197.1777,11.5074-.226,17.2354-.0428,26.7538.8555,55.5403,1.4083,82.2829.0538,2.5391-.1286,16.9558.5129,17.2515-1.6586l-1.118-27.5228c-21.0842,4.6267-42.6849,2.5952-64.1178,3.0784-8.3188.1875-18.7686,2.1542-27.0049,2.1694-7.9577.0147-16.5705-1.5105-24.5292-2.1264ZM130.4145,217.9294c-17.3889-.4098-34.9406.3391-52.0923.0925-9.6259-.1384-19.0848-1.4018-28.7083-1.0973M166.1343,218.6811l-1.5219-1.6768"/>
  <path class="cls-1" d="M165.2768,149.2023c-16.356,6.0445-32.8818,1.4111-49.5359,2.0408-19.4759.7364-42.8851,7.1491-62.2258,3.9619-10.7735-1.7754-6.0585-6.8188-5.8902-13.8157.0443-1.8391-.9683-3.6106-.9255-5.2146.1099-4.1236,2.3109-8.7627-.2055-13.0113.8399-.6466,11.879,2.7092,14.1707,3.0109,23.717,3.1228,52.9946.3605,76.8721-2.1072,9.0956-.94,18.3925-6.1936,27.7401-7.1656v32.3008Z"/>
  <path class="cls-1" d="M164.6124,217.0042l1.5219,1.6768"/>
  <path class="cls-1" d="M167.0211,99.9514c-.1263.2725-1.5424.2469-1.7204.9958-.5458,2.296.9293,9.8136-.6246,10.8655-8.7281.6432-17.7931,6.1056-26.0816,7.0603-21.688,2.4981-49.0434,4.7444-70.7836,3.281-6.6199-.4456-13.819-2.2091-20.3006-3.6645-2.0293-1.5902-2.6493-15.8613-1.847-18.5676.7364-2.4843,8.6065-8.755,9.7548-12.2618,34.1401,13.6417,71.8677,6.6485,107.1915,2.132l2.2135,1.0018c2.6737,1.6146,3.4617,6.4305,2.1981,9.1575Z"/>
  <path class="cls-1" d="M48.5773,186.7129c7.9587.616,16.5714,2.1412,24.5292,2.1264,8.2363-.0153,18.6861-1.9819,27.0049-2.1694,21.4329-.4832,43.0336,1.5483,64.1178-3.0784l1.118,27.5228c-.2957,2.1715-14.7125,1.53-17.2515,1.6586-26.7426,1.3544-55.5291.8017-82.2829-.0538-5.728-.1832-11.5157.2206-17.2354.0428v-26.049Z"/>
  <path class="cls-1" d="M165.2768,154.4121v23.9651c-10.7924,1.3047-23.0358,3.866-33.8204,4.2108-16.9908.5432-33.9707.4305-51.0564,1.042-4.8565.1738-30.8445.6275-32.7297-2.2648.2785-8.0874-1.6729-15.8787-.125-23.827,9.7623,2.9866,22.5006,2.6359,32.8548,2.1268,13.2685-.6524,28.55-4.3181,41.6842-4.2498,6.3312.0329,14.3365,2.2537,20.8024,2.1966,6.9369-.0613,15.4376-2.255,22.39-3.1997Z"/>
  <path class="cls-1" d="M86.9327,63.8976c3.2831,6.7303,15.0314,19.2527,22.6775,19.5873,10.195.4461,19.3442-12.3932,25.4625-19.1884l17.6338-.4643,8.4023,21.8002c-15.8369.8979-31.478,4.7212-47.3594,5.2698-12.7983.4421-42.0743-.2653-53.2706-5.1742-1.2153-.5329-2.6471-.7176-2.373-2.4788l6.0278-19.0327,22.7991-.3189Z"/>
  <path class="cls-1" d="M134.0078,53.3424c-1.8078,7.9369-16.5939,25.9995-25.0532,24.578-10.6591-1.7913-26.3831-27.1218-24.9402-38.1236,11.2294,17.3076,31.476,25.7131,49.9934,13.5457Z"/>
  <path class="cls-1" d="M64.2067,35.1076c.9359-3.3477,10.5705-3.7094,12.5998-1.1389,2.9067,3.6819,2.1522,20.7182,7.1974,25.6147-6.267-.3832-14.2543,3.4292-19.7972-.5107v-23.9651Z"/>
  <path class="cls-1" d="M151.4761,32.7632c2.9206,2.9465.8862,21.8055.1047,26.6786l-14.4267,1.1924,8.8388-28.142c1.0134-1.7295,4.3441-.8782,5.4832.271Z"/>
</svg>