<?xml version="1.0" encoding="UTF-8"?>
<svg id="Layer_1" data-name="Layer 1" xmlns="http://www.w3.org/2000/svg" viewBox="0 0 280.4609 235.3243">
  <defs>
    <style>
      .cls-1 {
        fill: #fff;
      }

      .cls-2 {
        fill: #29abe2;
      }
    </style>
  </defs>
  <path class="cls-2" d="M186.3986,14.0355c15.1105,11.2612,26.76,26.2902,40.3973,39.0264,4.5139,4.2156,8.912,8.0168,13.3015,12.2277,7.4497,7.1465,22.4355,20.126,26.1949,29.2599,7.781,18.9049-6.8241,31.155-20.0371,41.9263-10.1163,8.2469-20.6144,14.7237-32.5055,20.1916.3555,6.1663.2497,10.5341-3.9692,15.4095-4.9376,5.7059-11.8622,4.7595-18.7708,6.3342-12.3215,2.8084-24.957,5.6093-37.5942,6.9469-9.7455,1.0316-17.2655-.5582-26.5901-.7419-9.9924-.1969-41.1127,1.9944-47.4277-5.4379-3.2131-3.7816-2.0247-9.3301-3.3672-13.8152-28.7077-7.9987-57.4685-31.2122-66.3043-60.4388-5.0854-16.8212,4.3069-36.1516,17.1178-46.9476,13.41-11.3009,34.4582-26.7881,49.0784-36.7647,5.5649-3.7974,12.2528-8.7701,18.8454-9.902l11.8249,1.1458,9.233,4.4318,14.2188,3.3645,9.9202,4.3912,19.0715-7.0171,16.7473-5.1705s5.1083-.7184,10.6153,1.5797ZM183.0658,0,93.1732,67.2164c6.7426-9.6546,7.8052-22.0693,6.4915-33.6044-.5914-5.1925-4.3924-12.5842-9.1662-14.876l-19.1665,14.0687c8.3939,6.3214,12.7435,15.2841,17.9444,24.1531l3.8968,10.2586ZM101.2858,18.6369l5.6734,14.1594c3.3587,1.7196,7.4006.707,10.7339,1.4137,5.5582,1.1783,12.6649,6.8782,15.8739-.7516.2916-1.8502-12.0324-8.6703-14.2985-9.732-5.4904-2.5724-11.8963-4.766-17.9827-5.0895ZM179.0241,19.4479c-3.0662-2.5936-28.528,13.8018-33.1863,15.7865l3.6269,4.4407c4.5026-3.3043,11.98-2.8762,17.5958-4.2596,1.5117-.3724,7.9237-2.1328,8.6972-2.6405,2.3156-1.5201,2.0279-10.4497,3.2664-13.327ZM207.366,42.9124c1.1712-1.7251-9.7925-10.1472-11.3706-11.6896-3.5838-3.5025-6.2889-8.5226-11.2917-10.9707.1058,15.7289-11.4104,37.74,4.8431,48.5902,1.2334-10.6686,7.7806-21.4249,17.8193-25.93ZM138.9393,36.4644c-1.9413,3.8244-9.7556,15.2495-2.4707,16.2165,16.3997,2.1768,9.3265-9.3797,2.4707-16.2165ZM77.0004,81.8009l10.0701-8.0584c-.3396-13.1797-10.016-30.1926-21.7121-36.3631l-26.434,20.9271c16.2011-.9086,32.0018,8.3465,38.0759,23.4945ZM128.8127,42.9317c-7.4122-.399-14.1545-4.2434-21.8581-4.0545l-1.6299,16.1895c9.9046.6454,19.2415,4.8535,29.1565,4.8632l-7.1151-6.2356c-.8328-3.9853.0615-7.1502,1.4466-10.7626ZM175.7834,38.8827c-7.9847,1.7823-15.9924,4.4185-24.2884,4.0504.7485,2.9642,1.2572,6.201.7571,9.2637-.6372,3.9018-5.1745,4.7966-4.0028,9.3562l26.734-2.4254c-1.1293-7.0455-.6652-13.2925.8001-20.2448ZM225.1857,60.7342l-14.0212-13.6536c-9.7195,5.4997-16.8504,15.2326-17.158,26.6591l9.6781,6.4183c6.6662-6.9547,11.7265-16.3317,21.5011-19.4238ZM148.2528,179.7906c-.386-.9594-.7465-1.7172-.8331-2.8095-2.8653-36.1682-.9241-72.2551-3.224-108.5357-.1268-1.9995-.5809-10.6512-2.8163-10.1284-3.618,3.0228-1.3719,6.6658-1.2329,10.1296.2665,6.6424.3413,10.873-.0199,16.9749-.7803,13.183.436,27.2273.0611,40.5481-.4774,16.9626-2.0659,34.0615-3.2493,51.0117-.076,1.0882-.4593,1.8531-.8333,2.8093h12.1476ZM134.4897,77.7549l-.7624-11.7985c-10.2732.2065-19.7012-5.3055-29.8879-5.0757l-8.2107,13.2255c-.0154,1.6983,12.941,1.8112,14.9576,2.0338,8.0093.8843,15.5688,2.5162,23.9034,1.6149ZM15.4389,89.4934c-.4854,3.5974.3519,8.0317,0,11.7427,7.7662-2.2026,16.4518-7.2264,24.7079-7.3544,6.0653-.094,13.0264,2.5778,18.6382,4.6515,4.3123-4.64,11.085-6.0226,14.0251-12.1296-3.497-8.5102-11.7335-17.8685-20.7521-20.572-3.5657-1.0689-15.8658-3.1613-19.2534-2.7027-7.701,1.0425-16.4148,19.3162-17.3657,26.3644ZM177.3138,64.071c-9.3198.5908-19.0417,4.0737-28.2431,1.5324l.7977,14.5809c13.0703.8268,25.9977.3001,38.8756-2.4424-3.6053-4.8527-9.6465-7.3574-11.4302-13.671ZM248.6677,83.4041c.3544-1.3759-.5907-1.6293-1.1996-2.4243-3.8519-5.0291-10.3561-8.881-14.1346-14.2051-4.098-3.446-11.4568,1.9384-14.6426,4.8841-1.6194,1.4973-9.4072,10.618-9.6707,12.1903-.3147,1.8775.7465,6.9607,3.4667,6.7297,1.2463-.1058,6.8711-3.552,8.462-4.4754.8237-.4781.9901-1.7435,1.5591-1.8658,4.1498-.8917,3.6194,1.7427,4.4546,2.263.6736.4196,11.2078-1.8425,13.4316-2.0559,2.8264-.2713,4.9622,1.5146,8.2736-1.0407ZM134.4855,97.9967v-13.3624c-3.9482-2.4602-10.1552-.8084-14.969-1.2278-4.6307-.4035-9.867-1.7607-14.5976-2.409-4.1759-.5723-8.3064.6941-12.294-2.3074l-6.7299,5.1344v12.5525l48.5904,1.6197ZM206.5594,93.9377c-6.5054-7.8433-5.9092-11.3166-17.3971-10.5044-10.2711.7262-25.327,4.8319-35.4882,3.0341-2.7844-.4926-1.356-2.5639-3.7974-2.2338l.8014,13.768,55.8814-4.0639ZM79.4163,110.9541v-21.0559c-2.8,2.0031-5.2815,6.1094-7.9226,8.0945-1.9658,1.4775-3.8893,1.6227-5.2873,2.4256-1.0715.6154-.4899.9548-.5728,2.0339l13.7827,8.5019ZM259.5155,99.3119c-9.9734-12.1034-23.9089-9.6886-36.7533-4.1456,14.4971,1.7992,25.8519,15.0413,25.9151,29.5511,7.5485-3.0329,14.5284-13.7019,13.2376-21.7377-.4868-3.0302-1.2682-2.2951-2.3993-3.6678ZM241.1428,132.5887c2.2153-2.7434.9933-12.4645-.1869-15.9421-4.9571-14.6064-17.3513-14.7201-29.9103-18.6789-5.6339,3.1572-10.7006,7.0579-14.6969,12.1408-.6667,2.5435,12.8075,12.0777,15.0833,14.1964,5.8956,5.4885,10.2454,12.2412,12.9594,19.8538.4091.3138,7.7698-4.5917,8.8237-5.3359,1.6083-1.1357,6.9853-5.067,7.9276-6.234ZM196.843,100.4344c-6.7429-2.299-12.7213,1.0295-19.0383,1.6042-4.89.4449-10.4098-.1738-15.4132-.0257-3.8938.1152-7.5441,1.9259-11.7035.0358l.8001,17.8179c10.5727.6519,20.8897-1.5107,31.4069-2.1581l13.9482-17.2741ZM64.8329,109.3449c-3.7143-1.521-6.2124-4.0755-9.9798-5.8162-12.9815-5.9978-25.1753-3.0343-36.9121,3.7682,1.456,4.7549,14.775,29.0566,19.6885,27.8971,5.3696-8.8588,10.9745-18.2695,20.4298-23.3264l6.7736-2.5227ZM134.4855,102.8557l-48.5867-1.6208c-.5555.5529.4142,13.7384.9849,15.6142,1.7167,5.642,17.1911,2.2476,22.0532,2.1648,6.4543-.1099,13.0582-.1714,19.5078,0,1.2778.034,6.0408,1.6755,6.0408-.3663v-15.7919ZM81.5357,124.4291c.4089-.6288,1.2096-1.3357.7692-2.1609l-9.1419-7.1536c-15.3535-.8083-25.3629,12.2729-30.2572,25.2876l19.4776,12.6498c4.8445-7.9406,9.3697-16.1199,14.7386-23.7386,1.144-1.6234,3.6148-3.6561,4.4137-4.8844ZM193.5889,115.0082c-4.4722.3901-4.5043,5.2178-5.7212,7.4551-.4818.8858-1.4706.951-2.2691,2.7098-2.5873,5.6981-.8027,9.0434,1.7616,14.2956,8.2947,16.9895,15.439,16.2279,31.294,7.8642.9644-1.3494-6.5107-13.9065-8.0618-15.7095-4.8469-5.6337-13.764-9.5345-17.0034-16.6152ZM151.4921,124.7214v19.4362l29.1633-4.4631c-2.9179-5.6355-3.3373-10.536-1.634-16.5896-9.0483.8989-18.5348,3.2395-27.5293,1.6166ZM133.6757,125.5313l-38.0623.0081c3.1092,5.5235,6.5713,11.098,5.6639,17.8124,10.8846,1.7092,21.5291-.1016,32.3984-.0041v-17.8165ZM87.4961,126.3564c-1.4194-.8308-5.1186,5.23-5.9868,6.5318-4.7778,7.164-8.0542,15.5154-13.416,22.2021,11.133,8.6229,21.2498.118,25.4825-10.9447,3.2469-8.4864-1.8001-11.4027-6.0797-17.7892ZM183.7715,145.0859l-32.2833,3.1169.8193,17.8177,40.4863-8.1036c-3.486-3.9546-7.2719-7.6723-9.0223-12.8309ZM132.8622,149.0211c-11.4111-.4939-22.1962,2.1726-33.4661-.7371-2.8547,3.3915-4.6667,7.7008-7.8109,10.8768-2.7977,2.8259-5.5266,3.4433-8.1194,6.0445l47.2207-.1466c2.3437-.8755,1.268-8.913,1.3709-11.5856.058-1.5077.9491-2.9094.8048-4.452ZM153.9294,178.9805c9.0405-2.3165,18.5687-2.5214,27.7072-4.2735,2.0645-.3958,4.0246-1.5036,6.1298-1.9686,8.2509-1.8225,20.6791-.9227,19.5967-12.3836l-52.8996,9.8526c-3.0062.9884.0373,6.4117-.534,8.7732ZM131.2382,170.0729c-2.4367.8775-5.0573,1.4693-7.6563,1.6484-11.4568.7896-23.3738-1.1238-34.8166-1.6822-1.6641-.0812-6.2248-.8076-6.1341,1.2581.2003,4.5626,3.3981,5.0889,7.1191,5.853,8.6379,1.7739,23.2237,2.1211,32.1728,1.8258,2.9493-.0973,5.5239-1.5908,8.9061.0176l.409-8.9207Z"/>
  <path class="cls-1" d="M15.4389,89.4934c.951-7.0482,9.6648-25.3219,17.3657-26.3644,3.3876-.4586,15.6877,1.6338,19.2534,2.7027,9.0185,2.7036,17.2551,12.0618,20.7521,20.572-2.9401,6.107-9.7128,7.4896-14.0251,12.1296-5.6118-2.0737-12.5729-4.7455-18.6382-4.6515-8.2561.128-16.9417,5.1518-24.7079,7.3544.3519-3.7109-.4854-8.1453,0-11.7427Z"/>
  <path class="cls-1" d="M241.1428,132.5887c-.9424,1.167-6.3194,5.0984-7.9276,6.234-1.054.7442-8.4146,5.6497-8.8237,5.3359-2.714-7.6126-7.0638-14.3653-12.9594-19.8538-2.2758-2.1186-15.75-11.6529-15.0833-14.1964,3.9963-5.0829,9.063-8.9835,14.6969-12.1408,12.559,3.9588,24.9532,4.0726,29.9103,18.6789,1.1802,3.4776,2.4022,13.1987.1869,15.9421Z"/>
  <path class="cls-1" d="M77.0004,81.8009c-6.0741-15.1479-21.8748-24.403-38.0759-23.4945l26.434-20.9271c11.696,6.1705,21.3724,23.1834,21.7121,36.3631l-10.0701,8.0584Z"/>
  <path class="cls-1" d="M64.8329,109.3449l-6.7736,2.5227c-9.4553,5.0569-15.0602,14.4675-20.4298,23.3264-4.9135,1.1595-18.2325-23.1422-19.6885-27.8971,11.7368-6.8025,23.9306-9.766,36.9121-3.7682,3.7675,1.7407,6.2655,4.2952,9.9798,5.8162Z"/>
  <path class="cls-1" d="M81.5357,124.4291c-.7989,1.2283-3.2698,3.261-4.4137,4.8844-5.3688,7.6187-9.8941,15.798-14.7386,23.7386l-19.4776-12.6498c4.8943-13.0147,14.9036-26.0959,30.2572-25.2876l9.1419,7.1536c.4404.8252-.3603,1.5321-.7692,2.1609Z"/>
  <path class="cls-1" d="M134.4855,102.8557v15.7919c0,2.0418-4.763.4002-6.0408.3663-6.4495-.1714-13.0535-.1098-19.5078,0-4.8621.0828-20.3365,3.4771-22.0532-2.1648-.5708-1.8758-1.5404-15.0613-.9849-15.6142l48.5867,1.6208Z"/>
  <path class="cls-1" d="M193.5889,115.0082c3.2393,7.0807,12.1564,10.9815,17.0034,16.6152,1.5512,1.8029,9.0262,14.3601,8.0618,15.7095-15.855,8.3637-22.9993,9.1253-31.294-7.8642-2.5643-5.2522-4.3488-8.5975-1.7616-14.2956.7986-1.7587,1.7873-1.824,2.2691-2.7098,1.217-2.2373,1.2491-7.065,5.7212-7.4551Z"/>
  <path class="cls-1" d="M134.4855,97.9967l-48.5904-1.6197v-12.5525l6.7299-5.1344c3.9876,3.0015,8.118,1.7351,12.294,2.3074,4.7306.6483,9.9669,2.0056,14.5976,2.409,4.8138.4194,11.0207-1.2324,14.969,1.2278v13.3624Z"/>
  <path class="cls-1" d="M148.2528,179.7906h-12.1476c.374-.9562.7574-1.7211.8333-2.8093,1.1834-16.9502,2.7719-34.0492,3.2493-51.0117.3749-13.3208-.8414-27.3651-.0611-40.5481.3612-6.1019.2864-10.3325.0199-16.9749-.139-3.4638-2.3851-7.1068,1.2329-10.1296,2.2354-.5227,2.6895,8.1289,2.8163,10.1284,2.2999,36.2806.3587,72.3674,3.224,108.5357.0865,1.0923.447,1.8501.8331,2.8095Z"/>
  <path class="cls-1" d="M93.1732,67.2164l-3.8968-10.2586c-5.2009-8.8689-9.5505-17.8317-17.9444-24.1531l19.1665-14.0687c4.7738,2.2919,8.5748,9.6835,9.1662,14.876,1.3137,11.5351.2511,23.9498-6.4915,33.6044Z"/>
  <path class="cls-1" d="M196.843,100.4344l-13.9482,17.2741c-10.5171.6474-20.8342,2.81-31.4069,2.1581l-.8001-17.8179c4.1594,1.8901,7.8097.0793,11.7035-.0358,5.0034-.148,10.5232.4706,15.4132.0257,6.317-.5747,12.2955-3.9032,19.0383-1.6042Z"/>
  <path class="cls-1" d="M132.8622,149.0211c.1443,1.5426-.7468,2.9443-.8048,4.452-.1028,2.6727.9728,10.7101-1.3709,11.5856l-47.2207.1466c2.5928-2.6012,5.3217-3.2186,8.1194-6.0445,3.1443-3.176,4.9563-7.4853,7.8109-10.8768,11.2699,2.9096,22.055.2431,33.4661.7371Z"/>
  <path class="cls-1" d="M133.6757,125.5313v17.8165c-10.8692-.0976-21.5138,1.7133-32.3984.0041.9074-6.7144-2.5547-12.2889-5.6639-17.8124l38.0623-.0081Z"/>
  <path class="cls-1" d="M207.366,42.9124c-10.0387,4.505-16.5859,15.2614-17.8193,25.93-16.2535-10.8502-4.7373-32.8614-4.8431-48.5902,5.0029,2.448,7.708,7.4681,11.2917,10.9707,1.5782,1.5424,12.5419,9.9645,11.3706,11.6896Z"/>
  <path class="cls-1" d="M206.5594,93.9377l-55.8814,4.0639-.8014-13.768c2.4414-.3301,1.013,1.7411,3.7974,2.2338,10.1611,1.7978,25.2171-2.3079,35.4882-3.0341,11.4879-.8122,10.8917,2.6611,17.3971,10.5044Z"/>
  <path class="cls-1" d="M259.5155,99.3119c1.1311,1.3727,1.9126.6376,2.3993,3.6678,1.2908,8.0358-5.6891,18.7048-13.2376,21.7377-.0631-14.5098-11.418-27.7519-25.9151-29.5511,12.8444-5.543,26.78-7.9578,36.7533,4.1456Z"/>
  <path class="cls-1" d="M183.7715,145.0859c1.7504,5.1587,5.5364,8.8764,9.0223,12.8309l-40.4863,8.1036-.8193-17.8177,32.2833-3.1169Z"/>
  <path class="cls-1" d="M248.6677,83.4041c-3.3114,2.5553-5.4471.7694-8.2736,1.0407-2.2238.2134-12.758,2.4755-13.4316,2.0559-.8352-.5203-.3048-3.1547-4.4546-2.263-.569.1223-.7355,1.3877-1.5591,1.8658-1.591.9234-7.2158,4.3696-8.462,4.4754-2.7202.2309-3.7813-4.8523-3.4667-6.7297.2635-1.5723,8.0513-10.693,9.6707-12.1903,3.1858-2.9457,10.5446-8.3301,14.6426-4.8841,3.7786,5.3241,10.2827,9.176,14.1346,14.2051.6089.795,1.554,1.0484,1.1996,2.4243Z"/>
  <path class="cls-1" d="M225.1857,60.7342c-9.7746,3.092-14.8349,12.4691-21.5011,19.4238l-9.6781-6.4183c.3076-11.4265,7.4385-21.1594,17.158-26.6591l14.0212,13.6536Z"/>
  <path class="cls-1" d="M153.9294,178.9805c.5713-2.3615-2.4722-7.7848.534-8.7732l52.8996-9.8526c1.0824,11.4609-11.3458,10.5611-19.5967,12.3836-2.1052.465-4.0653,1.5728-6.1298,1.9686-9.1385,1.7522-18.6666,1.957-27.7072,4.2735Z"/>
  <path class="cls-1" d="M177.3138,64.071c1.7837,6.3136,7.8249,8.8182,11.4302,13.671-12.8779,2.7425-25.8053,3.2692-38.8756,2.4424l-.7977-14.5809c9.2014,2.5412,18.9233-.9416,28.2431-1.5324Z"/>
  <path class="cls-1" d="M134.4897,77.7549c-8.3346.9012-15.8941-.7307-23.9034-1.6149-2.0166-.2226-14.973-.3355-14.9576-2.0338l8.2107-13.2255c10.1867-.2297,19.6147,5.2822,29.8879,5.0757l.7624,11.7985Z"/>
  <path class="cls-1" d="M151.4921,124.7214c8.9945,1.6229,18.481-.7177,27.5293-1.6166-1.7033,6.0537-1.284,10.9541,1.634,16.5896l-29.1633,4.4631v-19.4362Z"/>
  <path class="cls-1" d="M87.4961,126.3564c4.2796,6.3865,9.3267,9.3027,6.0797,17.7892-4.2326,11.0627-14.3495,19.5676-25.4825,10.9447,5.3618-6.6866,8.6382-15.0381,13.416-22.2021.8682-1.3018,4.5674-7.3626,5.9868-6.5318Z"/>
  <path class="cls-1" d="M175.7834,38.8827c-1.4653,6.9523-1.9294,13.1994-.8001,20.2448l-26.734,2.4254c-1.1717-4.5596,3.3656-5.4544,4.0028-9.3562.5002-3.0627-.0086-6.2994-.7571-9.2637,8.2959.3681,16.3037-2.2681,24.2884-4.0504Z"/>
  <path class="cls-1" d="M128.8127,42.9317c-1.3851,3.6124-2.2793,6.7773-1.4466,10.7626l7.1151,6.2356c-9.915-.0097-19.2519-4.2178-29.1565-4.8632l1.6299-16.1895c7.7036-.189,14.4459,3.6555,21.8581,4.0545Z"/>
  <path class="cls-1" d="M131.2382,170.0729l-.409,8.9207c-3.3822-1.6085-5.9568-.1149-8.9061-.0176-8.9491.2953-23.535-.0519-32.1728-1.8258-3.7209-.7641-6.9188-1.2904-7.1191-5.853-.0907-2.0656,4.47-1.3393,6.1341-1.2581,11.4429.5584,23.3599,2.4718,34.8166,1.6822,2.599-.1791,5.2196-.7709,7.6563-1.6484Z"/>
  <path class="cls-1" d="M101.2858,18.6369c6.0864.3235,12.4923,2.517,17.9827,5.0895,2.2661,1.0617,14.5902,7.8818,14.2985,9.732-3.209,7.6298-10.3157,1.9299-15.8739.7516-3.3333-.7067-7.3752.3059-10.7339-1.4137l-5.6734-14.1594Z"/>
  <path class="cls-1" d="M179.0241,19.4479c-1.2385,2.8773-.9508,11.8069-3.2664,13.327-.7735.5078-7.1855,2.2682-8.6972,2.6405-5.6157,1.3834-13.0932.9553-17.5958,4.2596l-3.6269-4.4407c4.6583-1.9846,30.1201-18.38,33.1863-15.7865Z"/>
  <path class="cls-1" d="M138.9393,36.4644c6.8558,6.8368,13.929,18.3932-2.4707,16.2165-7.2849-.9669.5294-12.3921,2.4707-16.2165Z"/>
  <path class="cls-1" d="M79.4163,110.9541l-13.7827-8.5019c.0829-1.0791-.4987-1.4185.5728-2.0339,1.398-.8029,3.3215-.9481,5.2873-2.4256,2.6411-1.985,5.1226-6.0913,7.9226-8.0945v21.0559Z"/>
</svg>