<?xml version="1.0" encoding="UTF-8"?>
<svg id="Layer_1" data-name="Layer 1" xmlns="http://www.w3.org/2000/svg" xmlns:xlink="http://www.w3.org/1999/xlink" viewBox="0 0 173.7045 237.4209">
  <defs>
    <style>
      .cls-1 {
        fill: none;
      }

      .cls-2 {
        fill: blue;
      }

      .cls-3 {
        fill: #3fa9f5;
      }

      .cls-4 {
        fill: #fff;
      }

      .cls-5 {
        fill: url(#New_Pattern);
      }
    </style>
    <pattern id="New_Pattern" data-name="New Pattern" x="0" y="0" width="10" height="10" patternTransform="translate(-333.7945 -767.8751)" patternUnits="userSpaceOnUse" viewBox="0 0 10 10">
      <g>
        <rect class="cls-1" width="10" height="10"/>
        <rect class="cls-4" width="10" height="10"/>
        <circle class="cls-2" cx="5.0001" cy="4.9999" r="2.053"/>
      </g>
    </pattern>
  </defs>
  <path class="cls-5" d="M69.6466,6.3494c-13.167-1.7563-26.9797-3.4454-39.3966,1.2744S7.6408,25.7715,11.3117,38.5378c2.2903,7.965,9.9624,14.0692,18.2383,14.5112,4.4053.2353,9.3259-.8508,12.8692,1.7772,2.1225,1.5742,3.2181,4.1675,3.9523,6.706,4.48,15.4892-1.1152,31.907-6.6475,47.0522-7.2638,19.8856-14.5276,39.7712-21.7914,59.6567-1.9801,5.4207-3.9912,11.0593-3.4865,16.8081.1385,1.5772.4929,3.1956,1.4523,4.4552,2.5421,3.3375,7.76,2.6011,11.6124.9398s7.9901-3.9656,11.9855-2.6861c5.5232,1.7689,7.0729,9.1351,11.9517,12.2706,5.6588,3.6368,13.0716.2853,18.8063-3.2307,5.7347-3.5159,12.73-7.3185,18.7838-4.3858,6.4945,3.1462,9.1596,13.066,16.3729,13.2767,1.0973.0321,2.2013-.1955,3.1965-.6588,4.6839-2.1805,5.8607-8.719,10.3512-11.2743,5.4292-3.0894,11.9573,1.184,16.771,5.1651s11.5857,8.039,16.8102,4.6148c3.0334-1.9881,4.193-5.8141,4.9949-9.3512,7.1774-31.6597,2.9283-65.7844-11.794-94.7173-5.9103-11.6151-13.5734-22.7935-15.4146-35.6951-.6889-4.8272-.4212-10.0949,2.4063-14.0675,2.2036-3.096,5.6693-5.0128,8.4289-7.6254,7.2398-6.8542,8.7691-18.953,3.4626-27.3931s-16.8729-12.3053-26.1876-8.7512c-7.6494,2.9187-12.948,9.779-19.2313,15.0278-6.2834,5.2489-15.5534,8.9759-22.4616,4.5817-7.0142-4.4616-7.4397-10.8894-7.097-19.1953"/>
  <path class="cls-3" d="M69.6466,4.5994c-13.2241-1.7619-27.4362-3.5695-40.1999,1.4678-10.0068,3.9492-18.9087,13.0347-20.4133,23.9963-1.5321,11.1622,6.1531,21.9649,17.2046,24.2969,2.8175.5945,5.6295.4331,8.4853.4105,2.8388-.0225,5.8913.1962,7.8089,2.576,1.8112,2.2477,2.4734,5.4435,3.0048,8.2061.6541,3.4001.8166,6.8825.6601,10.3372-.6309,13.9263-6.3331,27.2261-11.0548,40.1522-5.1074,13.982-10.2147,27.9641-15.3221,41.9461-1.2989,3.556-2.6058,7.1092-3.8961,10.6684-1.1722,3.2335-2.3073,6.5105-2.8763,9.9131-.9215,5.5112-.7757,13.4587,6.0825,14.8093,2.523.4969,5.1833.0831,7.5885-.7574,3.0363-1.061,5.851-2.9107,9.0763-3.3948,5.4946-.8248,7.8521,4.5224,10.605,8.1905,1.5046,2.0048,3.2316,3.8206,5.5547,4.8644,2.8274,1.2704,5.9562,1.2801,8.9399.5956,6.3286-1.4518,11.2347-5.8043,17.1101-8.2745,2.6797-1.1266,5.7565-1.955,8.6481-1.2085,2.306.5953,4.0694,2.1283,5.6372,3.8521,2.896,3.1839,5.2391,7.3953,9.2948,9.2699,2.5187,1.1641,5.3811,1.2291,7.9058.0247,2.1828-1.0413,3.7403-2.9521,5.0742-4.9087,1.3389-1.9639,2.4761-4.2171,4.3528-5.7414,2.1202-1.722,4.7803-1.691,7.2604-.862,5.8996,1.972,9.8787,7.268,15.4518,9.8725,2.6593,1.2428,5.5349,2.0101,8.4733,1.4769,2.8094-.5098,5.1359-2.387,6.6035-4.7828,1.4466-2.3614,2.1175-5.1229,2.7059-7.7983.719-3.269,1.3167-6.5647,1.7941-9.8776.9357-6.4943,1.4469-13.0425,1.4869-19.6045.0798-13.0998-1.6388-26.2406-5.0846-38.8794-1.7057-6.2564-3.8542-12.3787-6.392-18.3453-2.5266-5.9404-5.5642-11.6073-8.6602-17.2647-3.0883-5.6434-6.1855-11.336-8.294-17.4333-1.9594-5.6662-3.5812-12.3576-1.7635-18.2679,1.8358-5.9687,8.1174-8.2808,11.791-12.8752,3.3649-4.2083,5.1689-9.5186,5.2403-14.8979.0716-5.3962-1.6661-10.6846-5.0848-14.8714-3.3156-4.0605-8.1927-6.8716-13.2873-8.0044-5.3545-1.1906-10.8583-.5662-15.7631,1.9011-5.3482,2.6903-9.5562,7.1116-13.8658,11.1598-4.2393,3.9822-8.8951,7.6286-14.717,8.8656-5.1293,1.0898-10.4307-.8104-13.2815-5.3363-2.5411-4.0342-2.3174-9.1414-2.1346-13.7168.09-2.2524-3.4102-2.2483-3.5,0-.1939,4.8545-.2419,9.9968,2.0179,14.4356,2.3609,4.6374,7.2159,7.8956,12.3695,8.3857,5.7383.5457,11.5852-2.0666,16.1213-5.3817,4.7302-3.457,8.5715-7.9501,13.0961-11.6522,4.1943-3.4319,9.0433-5.8419,14.556-5.7679,4.945.0664,9.9389,1.9265,13.6433,5.2228,7.6908,6.8434,8.3744,19.3238,2.005,27.3192-1.8365,2.3054-4.2602,3.9712-6.5221,5.8192-2.3561,1.9249-4.334,4.1226-5.5094,6.961-2.3442,5.6611-1.4583,12.2262.0879,17.9765,3.3022,12.2803,10.8164,22.8299,16.1988,34.211,10.9469,23.1471,15.1843,49.3802,12.4105,74.8126-.3459,3.1719-.8097,6.3294-1.3852,9.4677-.5375,2.9311-1.0642,5.9285-1.9981,8.7645-.7839,2.3804-2.1055,4.8391-4.5925,5.76-2.565.9499-5.4062.0325-7.7259-1.1609-5.4033-2.7797-9.3765-7.6358-15.1879-9.7378-2.6712-.9662-5.6307-1.1824-8.2894-.0712-2.3723.9915-4.0593,2.8403-5.5067,4.9088-2.4059,3.4381-5.0717,8.9598-10.2545,6.9011-1.8119-.7197-3.2166-2.2418-4.4624-3.6845-1.4677-1.6997-2.786-3.525-4.3062-5.18-1.5709-1.7103-3.3777-3.2152-5.5387-4.1087-2.8224-1.1669-5.9221-1.1264-8.8527-.3951-6.1702,1.5399-10.9854,5.8473-16.7784,8.2165-2.585,1.0572-5.5736,1.8975-8.3732,1.294-2.4341-.5247-4.2202-2.0851-5.6973-4.0147-2.8089-3.6692-5.0032-8.4372-9.8745-9.7001-6.2132-1.6108-11.1104,3.4164-16.9887,4.0846-2.2329.2538-4.7384-.1615-5.7617-2.42-1.2727-2.8091-.727-6.5875-.113-9.4884.7166-3.3861,1.9215-6.6431,3.1061-9.8868,1.2482-3.4179,2.4969-6.8357,3.7454-10.2535,2.4969-6.8357,4.9939-13.6713,7.4908-20.507s4.9939-13.6713,7.4908-20.507c2.4033-6.5794,4.9116-13.1338,7.002-19.8216,2.0227-6.4712,3.6252-13.1208,4.0992-19.9018.4418-6.32-.044-13.2493-2.6153-19.1174-1.1619-2.6517-3.0363-4.8346-5.7654-5.9277-2.6951-1.0795-5.6693-.957-8.5173-.893-2.75.0617-5.3504-.0862-7.968-1.0017-2.422-.8471-4.6782-2.245-6.5567-3.9878-3.8332-3.5563-6.0237-8.4693-5.8857-13.7157.1342-5.103,2.4101-10.038,5.618-13.9403,3.3755-4.1062,7.8081-7.4498,12.7871-9.3545,6.1881-2.3671,12.819-3.0835,19.4054-2.9984,6.5436.0845,13.0484.9235,19.526,1.7866.9449.1259,1.7411-.8946,1.75-1.75.0109-1.0486-.8169-1.6257-1.75-1.75h0Z"/>
</svg>