<?xml version="1.0" encoding="UTF-8"?>
<svg id="Layer_1" data-name="Layer 1" xmlns="http://www.w3.org/2000/svg" xmlns:xlink="http://www.w3.org/1999/xlink" viewBox="0 0 173.7045 237.4209">
  <defs>
    <style>
      .cls-1 {
        fill: none;
      }

      .cls-2 {
        fill: blue;
      }

      .cls-3 {
        fill: #3fa9f5;
      }

      .cls-4 {
        fill: #fff;
      }

      .cls-5 {
        fill: url(#New_Pattern);
      }
    </style>
    <pattern id="New_Pattern" data-name="New Pattern" x="0" y="0" width="10" height="10" patternTransform="translate(-178.5395 -767.8751)" patternUnits="userSpaceOnUse" viewBox="0 0 10 10">
      <g>
        <rect class="cls-1" width="10" height="10"/>
        <rect class="cls-4" width="10" height="10"/>
        <circle class="cls-2" cx="5.0001" cy="4.9999" r="2.053"/>
      </g>
    </pattern>
  </defs>
  <path class="cls-5" d="M45.8391,9.8814c-7.021,2.0399-9.6159,8.7551-13.8584,14.7097C12.7605,51.5678,11.4369,86.9698,11.2364,120.0926c-.0098,1.6269.0163,3.3716.9511,4.7031.9585,1.3652,2.6463,1.9763,4.2269,2.5096,5.1818,1.7486,10.3637,3.4972,15.5455,5.2458,2.1548-16.3421,4.6651-33.5572,14.8727-46.4997,5.6664,14.7118,4.3957,31.1636,1.4523,46.6517-2.9433,15.4881-7.4834,30.78-8.1336,46.5319,28.0602,8.7072,57.3465,13.4531,86.7205,14.0533,2.3214-43.1847-17.0502-87.5327-3.986-128.7593,1.3318-4.2028,3.8256-8.9658,8.219-9.334,5.8014-.4862,8.7831,6.7356,9.6247,12.4962,1.5065,10.3126,2.0322,20.7682,1.5675,31.1799,5.2099-1.0074,10.4197-2.0148,15.6296-3.0223,1.1046-.2136,2.3044-.4825,3.0082-1.3602.5615-.7002.6848-1.6443.7805-2.5367,2.4842-23.162-.623-49.0862-17.6022-65.0347-15.7057-14.7523-38.994-17.2169-60.4963-18.6127-7.3814-.4792-14.7652-.922-22.151-1.3284-6.7449-.3711-9.4382.8593-15.6267,2.9052"/>
  <path class="cls-3" d="M45.3738,8.194c-4.2001,1.281-7.2336,4.1576-9.7356,7.6638-1.2483,1.7493-2.354,3.5947-3.5186,5.3995-1.2735,1.9736-2.6723,3.8609-3.9422,5.8372-5.2919,8.2355-9.1453,17.3542-11.8541,26.7447-5.534,19.1844-6.5098,39.3906-6.7722,59.2429-.0362,2.7392-.164,5.5068-.0517,8.2444.1142,2.7836,1.1358,5.1955,3.685,6.547,2.5989,1.3779,5.6416,2.0901,8.4177,3.0269,3.2975,1.1128,6.5951,2.2255,9.8926,3.3383,1.1989.4046,2.0772-.6417,2.2152-1.6875,2.0589-15.5989,4.3686-32.4799,14.3602-45.2623l-2.9249-.7722c8.8708,23.3284.5578,48.1865-3.9909,71.4656-1.3708,7.0154-2.44,14.1047-2.7529,21.2527-.0342.7821.5707,1.4665,1.2848,1.6875,21.9664,6.7978,44.6601,11.1919,67.5755,13.0991,6.5246.543,13.0647.8779,19.6102,1.0167.9816.0208,1.7016-.8201,1.75-1.75,1.3391-25.7372-4.7481-51.0111-7.3965-76.4654-1.2923-12.4205-1.8246-25.0807.0434-37.473.4683-3.1071,1.0795-6.1934,1.8501-9.2398.6765-2.6744,1.3577-5.455,2.5442-7.9577.9411-1.985,2.2817-4.1945,4.4619-4.9726,1.9207-.6855,3.7725.0549,5.1154,1.474,3.9876,4.2139,4.1573,11.4048,4.6851,16.7958.7619,7.782.9587,15.6103.6217,23.4216-.0523,1.2131,1.155,1.8925,2.2152,1.6875,4.0702-.787,8.1404-1.5741,12.2106-2.3611,3.2062-.62,7.3496-.7844,8.2593-4.6277.7188-3.0365.702-6.4431.8488-9.5503.1445-3.0585.1793-6.1226.0883-9.1833-.3613-12.151-2.6451-24.5037-8.3677-35.3316-5.852-11.0726-15.3448-19.4476-26.8049-24.3909-11.7274-5.0586-24.5155-6.8852-37.1526-7.9553-8.3072-.7034-16.6399-1.1495-24.9624-1.6276-3.9228-.2253-7.8691-.6309-11.781-.0791-3.3534.473-6.5281,1.681-9.7268,2.7423-2.1276.7059-1.2159,4.0871.9304,3.375,2.771-.9194,5.5321-1.9752,8.4079-2.5269,3.0453-.5842,6.1426-.3514,9.2155-.179,7.3443.4122,14.6887.8424,22.0273,1.3476,12.1137.8339,24.3736,2.0581,35.9526,5.9202,11.1489,3.7186,21.2158,10.2701,27.8624,20.1119,6.4682,9.5775,9.5403,21.0652,10.5433,32.4789.58,6.5997.5151,13.2504-.0275,19.8502-.0619.753-.1302,1.5055-.2046,2.2573-.0714.7212-.0366,1.6668-.3817,2.3226-.357.6783-1.1772.7844-1.8671.9357-1.0131.2223-2.0389.3965-3.0572.5935-4.3144.8343-8.6288,1.6685-12.9432,2.5028l2.2152,1.6875c.3159-7.323.1641-14.6608-.4854-21.9623-.5258-5.9115-.8333-12.3961-3.712-17.7322-2.3503-4.3568-7.1077-7.3303-11.9563-4.8262-5.0262,2.5958-6.6799,9.178-7.9847,14.188-6.8127,26.1585-1.7059,53.3564,2.0522,79.5601,2.1449,14.9558,3.9485,30.0551,3.1611,45.1897l1.75-1.75c-22.7628-.4826-45.4382-3.4294-67.5603-8.819-6.2835-1.5309-12.5169-3.2599-18.695-5.1718l1.2848,1.6875c1.094-24.9929,11.7939-48.7555,10.5376-73.9711-.3344-6.7122-1.5259-13.3847-3.9189-19.6777-.4094-1.0767-2.0305-1.9164-2.9249-.7722-10.6545,13.6306-13.1865,31.0781-15.3853,47.7372l2.2152-1.6875c-5.2943-1.7866-10.6102-3.5199-15.8856-5.3616-.8794-.307-1.8379-.6377-2.5339-1.2832-.8625-.8-.9796-1.9832-1.0117-3.099-.0671-2.3297.0166-4.6733.0442-7.0035.1118-9.432.3897-18.87,1.2095-28.2699,1.6021-18.3699,5.3773-37.0099,14.6338-53.1659,2.4497-4.2757,5.3585-8.2644,8.0124-12.4128,2.3706-3.7055,5.0127-7.3576,9.4104-8.6989,2.1484-.6552,1.2324-4.0346-.9304-3.375h0Z"/>
</svg>