<?xml version="1.0" encoding="UTF-8"?>
<svg id="Layer_1" data-name="Layer 1" xmlns="http://www.w3.org/2000/svg" xmlns:xlink="http://www.w3.org/1999/xlink" viewBox="0 0 173.7045 237.4209">
  <defs>
    <style>
      .cls-1 {
        fill: none;
      }

      .cls-2 {
        fill: blue;
      }

      .cls-3 {
        fill: #3fa9f5;
      }

      .cls-4 {
        fill: #fff;
      }

      .cls-5 {
        fill: url(#New_Pattern);
      }
    </style>
    <pattern id="New_Pattern" data-name="New Pattern" x="0" y="0" width="10" height="10" patternTransform="translate(-229.2345 -767.8751)" patternUnits="userSpaceOnUse" viewBox="0 0 10 10">
      <g>
        <rect class="cls-1" width="10" height="10"/>
        <rect class="cls-4" width="10" height="10"/>
        <circle class="cls-2" cx="5.0001" cy="4.9999" r="2.053"/>
      </g>
    </pattern>
  </defs>
  <path class="cls-5" d="M27.7584,9.8416l14.0429-.0395c4.0185,13.7177,8.0423,27.451,13.0916,40.8236,3.5471,9.394,7.6591,18.7055,13.805,26.6464s14.5378,14.4765,24.3078,16.7952c1.4274.3388,3.0465.5546,4.263-.2654.8585-.5787,1.3384-1.5637,1.7398-2.518,5.4121-12.8679,3.2648-27.6857-1.0029-40.9771s-10.5566-25.9655-13.4409-39.624c11.6038-1.1182,23.2076-2.2365,34.8114-3.3547,1.064-.1025,2.2078-.1889,3.133.3463,1.0595.6128,1.5395,1.8646,1.9298,3.0246,19.8927,59.1266,4.8137,126.7619,29.9596,183.8527-20.917,4.306-41.834,8.6119-62.751,12.9179-14.8399,3.0549-29.7294,6.1169-44.8384,7.2443-2.7843-36.7674-5.5705-73.5872-5.2498-110.4585.0903-10.3891.4245-20.8299-.9974-31.1216-2.1222-15.3612-8.116-30.0769-9.2392-45.5433-.4138-5.6974-.186-11.5791-2.212-16.9202"/>
  <path class="cls-3" d="M27.7584,11.5916l14.0429-.0395-1.6875-1.2848c4.0175,13.7139,8.0396,27.4466,13.0916,40.8236,4.4253,11.7176,9.7715,23.4895,18.7067,32.505,4.091,4.1277,8.8897,7.6563,14.2312,9.9836,2.6384,1.1495,5.5693,2.3059,8.4671,2.5147,1.5053.1085,3.0664-.2413,4.2006-1.2901,1.1172-1.033,1.6723-2.4869,2.2169-3.8703,4.7597-12.0923,3.1505-25.7293-.3665-37.9174-4.1789-14.4821-11.242-28.0037-14.4092-42.7989l-1.6875,2.2152c8.3713-.8067,16.7426-1.6135,25.1139-2.4202,2.0721-.1997,4.1442-.3994,6.2163-.5991.9946-.0958,1.9891-.1925,2.9838-.2875.778-.0743,1.847-.3271,2.591.0005,1.2782.5628,1.6492,3.1292,2.0228,4.2949.5484,1.7114,1.0693,3.4316,1.5638,5.1593,4.0003,13.9771,6.2593,28.3856,7.7141,42.8316,1.4641,14.538,2.1562,29.1375,3.0321,43.7186.8752,14.5697,1.9399,29.1463,4.1358,43.5856,2.1647,14.2339,5.4953,28.3399,10.8529,41.7296.6701,1.6747,1.3715,3.337,2.0961,4.9888l1.0459-2.5707c-13.9447,2.8706-27.8893,5.7413-41.834,8.6119-13.8325,2.8475-27.643,5.89-41.55,8.3561-7.8646,1.3946-15.7732,2.5262-23.7402,3.1317l1.75,1.75c-2.0819-27.4925-4.1646-54.9991-4.9493-82.5657-.3898-13.6916-.1254-27.3627-.2062-41.054-.0391-6.6267-.3518-13.2493-1.3555-19.8064-.9871-6.4491-2.6111-12.7761-4.2191-19.0919-1.7555-6.895-3.5452-13.8301-4.3977-20.9071-.8436-7.0032-.1634-14.3613-2.6331-21.0836-.7703-2.0968-4.1542-1.1906-3.375.9304,2.1824,5.9403,1.7091,12.3397,2.3303,18.5384.6416,6.4027,2.0143,12.6953,3.5603,18.9325,1.532,6.1806,3.2193,12.3273,4.4656,18.5749,1.2865,6.449,1.8878,12.9593,2.0578,19.529.175,6.7606-.0151,13.5241-.0461,20.2853-.0315,6.8908.0428,13.782.2027,20.671.3161,13.6146.9666,27.2195,1.7936,40.812.9383,15.4221,2.105,30.829,3.2716,46.2352.0672.8875.7488,1.8261,1.75,1.75,14.1405-1.0747,28.0793-3.7732,41.9518-6.6177,14.0912-2.8894,28.1782-5.7998,42.2672-8.7002,7.9452-1.6356,15.8904-3.2712,23.8356-4.9068,1.2157-.2503,1.4649-1.6155,1.0459-2.5707-5.8787-13.4019-9.5773-27.662-11.9875-42.0684-2.4387-14.5764-3.5653-29.3358-4.4738-44.0747-.9167-14.8721-1.5879-29.7653-3.0281-44.5997-1.4263-14.6914-3.5912-29.3683-7.5225-43.6161-.9502-3.4438-1.8482-7.0417-3.2481-10.3339-.6521-1.5337-1.735-2.8384-3.4054-3.2831-1.8533-.4934-3.9822-.0071-5.8518.1731-8.4542.8147-16.9084,1.6294-25.3626,2.4442-2.155.2077-4.31.4153-6.465.623-1.169.1127-1.9425,1.0239-1.6875,2.2152,2.6746,12.4941,8.0991,24.1145,12.2722,36.1318,3.9656,11.4197,6.9296,23.9557,4.4708,36.0381-.2892,1.4212-.6509,2.828-1.0895,4.2105-.4455,1.4045-.876,3.0522-1.7318,4.2721-.792,1.1289-2.1517.8501-3.328.5794-1.3455-.3096-2.672-.7213-3.968-1.1956-5.1028-1.8674-9.7329-4.9768-13.6868-8.675-8.7742-8.2067-14.1548-19.2285-18.4435-30.2784-5.4411-14.019-9.6595-28.474-13.8838-42.894-.2162-.738-.9102-1.287-1.6875-1.2848l-14.0429.0395c-2.2518.0063-2.2561,3.5063,0,3.5h0Z"/>
</svg>