<?xml version="1.0" encoding="UTF-8"?>
<svg id="Layer_1" data-name="Layer 1" xmlns="http://www.w3.org/2000/svg" xmlns:xlink="http://www.w3.org/1999/xlink" viewBox="0 0 173.7045 237.4209">
  <defs>
    <style>
      .cls-1 {
        fill: none;
      }

      .cls-2 {
        fill: blue;
      }

      .cls-3 {
        fill: #3fa9f5;
      }

      .cls-4 {
        fill: #fff;
      }

      .cls-5 {
        fill: url(#New_Pattern);
      }
    </style>
    <pattern id="New_Pattern" data-name="New Pattern" x="0" y="0" width="10" height="10" patternTransform="translate(-533.6166 -767.8751)" patternUnits="userSpaceOnUse" viewBox="0 0 10 10">
      <g>
        <rect class="cls-1" width="10" height="10"/>
        <rect class="cls-4" width="10" height="10"/>
        <circle class="cls-2" cx="5.0001" cy="4.9999" r="2.053"/>
      </g>
    </pattern>
  </defs>
  <path class="cls-5" d="M65.2568,3.6548c1.2095,3.3397,2.4592,6.7512,4.7163,9.4938,3.8882,4.7245,10.7143,6.7953,16.5721,5.0273s10.3984-7.2695,11.0235-13.3563c23.5094,13.1118,46.2664,27.5726,68.1218,43.2875.8542.6142,1.7727,1.3293,1.9704,2.3628.1634.8542-.2134,1.7094-.586,2.4952-4.9674,10.4745-10.8659,20.4779-16.1832,30.7793-20.8199,40.3348-32.4862,84.7147-50.4992,126.3788-32.0006-26.8093-60.5972-57.6772-84.8873-91.6296-5.9133-8.2655-11.7218-17.0803-13.2742-27.124-2.1222-13.7307,3.9835-27.1886,7.9549-40.5026,1.9839-6.651,3.4807-13.5199,6.6629-19.6879,3.1752-6.1545,7.9026-11.3592,12.7953-16.2604,4.4391-4.4469,7.2937-3.1365,13.073-5.6021s15.24-3.7991,22.5398-5.6617"/>
  <path class="cls-3" d="M63.5693,4.12c1.2895,3.5569,2.6332,7.1236,5.0333,10.0999,2.1135,2.6209,5.0807,4.5006,8.2778,5.5094,6.3867,2.0152,13.4155.1511,17.9058-4.8307,2.5566-2.8364,4.0955-6.2946,4.5325-10.0789l-2.6333,1.5111c14.7948,8.258,29.2956,17.0395,43.4599,26.3377,7.0157,4.6055,13.9491,9.3363,20.7957,14.1895.8397.5952,1.678,1.1923,2.5151,1.7912.7279.5208,1.6648,1.005,2.2252,1.7215.5351.684.0091,1.4431-.3223,2.1413-.4766,1.004-.9658,2.0021-1.46,2.9975-1.8712,3.7688-3.843,7.4866-5.8425,11.1886-4.0025,7.4109-8.0804,14.7783-11.7831,22.3462-3.5775,7.3121-6.8843,14.7527-10.0203,22.2639-6.3444,15.1957-11.9333,30.6906-17.5169,46.1775-5.5619,15.4268-11.1224,30.8636-17.4195,46.0096-.7985,1.9205-1.6111,3.835-2.4355,5.7446l2.7485-.3542c-14.0529-11.784-27.4569-24.336-40.1251-37.5978-12.6654-13.259-24.6127-27.215-35.7223-41.8031-5.4791-7.1946-11.099-14.463-15.6564-22.2893-2.2169-3.807-4.1173-7.803-5.2939-12.0599-1.2349-4.4677-1.5153-9.0714-1.0942-13.6785.8595-9.4009,4.4285-18.3421,7.2553-27.2696,2.7787-8.7756,4.4491-18.0199,9.5406-25.8539,2.3999-3.6927,5.3201-7.0057,8.3726-10.1679,1.378-1.4276,2.7274-2.9733,4.4549-3.9876,1.2085-.7096,2.5331-1.0712,3.8878-1.3911,1.6819-.3972,3.3565-.7853,4.9765-1.3987,1.7464-.6612,3.4517-1.349,5.2505-1.8669,4.0613-1.1694,8.2244-1.9572,12.3552-2.8337,1.9705-.4181,3.9376-.8517,5.8907-1.3453,2.1824-.5515,1.2577-3.9279-.9304-3.375-4.1874,1.0581-8.4365,1.8435-12.6506,2.7837-2.0581.4592-4.1118.9494-6.1329,1.5531-1.7992.5374-3.4964,1.2907-5.2634,1.9109-3.0763,1.0797-6.4507,1.302-9.2851,3.0228-1.8071,1.0971-3.2649,2.6366-4.7262,4.1412-1.5619,1.6082-3.0886,3.2522-4.5374,4.9634-2.9988,3.5417-5.6979,7.3546-7.6517,11.5777-1.9677,4.2532-3.2924,8.7467-4.5542,13.2483-2.6073,9.3012-6.1904,18.3582-8.356,27.7767-2.1343,9.2824-2.2198,18.6702,1.3435,27.6155,3.4244,8.5967,8.9924,16.1142,14.4274,23.5252,11.1537,15.2089,23.1602,29.793,35.9592,43.6461,12.7483,13.7981,26.2783,26.8741,40.5078,39.1392,1.7505,1.5088,3.5121,3.0045,5.2829,4.4894.7606.6378,2.2633.7697,2.7485-.3542,6.6529-15.41,12.4672-31.157,18.1688-46.9382s11.3099-31.5954,17.6253-47.1408c3.1809-7.8298,6.5498-15.5847,10.1934-23.211,3.6515-7.6428,7.669-15.0883,11.712-22.5287,2.0849-3.8369,4.159-7.6803,6.141-11.5716.9721-1.9085,1.9449-3.8225,2.842-5.7677.87-1.8864,1.2809-3.7935-.0965-5.5513-1.1349-1.4484-2.9452-2.4427-4.4266-3.4981-1.741-1.2403-3.4877-2.4727-5.2399-3.6971-3.5694-2.4942-7.162-4.9552-10.777-7.3827-14.3287-9.6219-29.011-18.7173-44.0075-27.2613-1.8574-1.0582-3.7199-2.1073-5.5864-3.1492-1.2562-.7012-2.4839.2179-2.6333,1.5111-.7871,6.816-6.934,12.3165-13.7874,12.23-3.3674-.0425-6.7844-1.2959-9.3009-3.5543-3.0179-2.7083-4.4391-6.59-5.7861-10.3057-.7617-2.1012-4.1452-1.1943-3.375.9304h0Z"/>
</svg>