<?xml version="1.0" encoding="UTF-8"?>
<svg id="Layer_1" data-name="Layer 1" xmlns="http://www.w3.org/2000/svg" xmlns:xlink="http://www.w3.org/1999/xlink" viewBox="0 0 173.7045 237.4209">
  <defs>
    <style>
      .cls-1 {
        fill: none;
      }

      .cls-2 {
        fill: blue;
      }

      .cls-3 {
        fill: #3fa9f5;
      }

      .cls-4 {
        fill: #fff;
      }

      .cls-5 {
        fill: url(#New_Pattern);
      }
    </style>
    <pattern id="New_Pattern" data-name="New Pattern" x="0" y="0" width="10" height="10" patternTransform="translate(-29.3404 -767.8751)" patternUnits="userSpaceOnUse" viewBox="0 0 10 10">
      <g>
        <rect class="cls-1" width="10" height="10"/>
        <rect class="cls-4" width="10" height="10"/>
        <circle class="cls-2" cx="5.0001" cy="4.9999" r="2.053"/>
      </g>
    </pattern>
  </defs>
  <path class="cls-5" d="M3.0598,67.1791c1.4275-4.3175,4.5925-7.8025,7.6743-11.1463,11.6747-12.667,23.5125-25.4436,37.8393-35.009,14.3268-9.5654,31.5987-15.7578,48.7052-13.7277,19.258,2.2855,35.7453,14.4278,50.8511,26.5895,7.8123,6.2896,15.5277,12.6995,23.1426,19.2266-8.7649,7.4518-17.5298,14.9036-26.2947,22.3554-1.2509,1.0635-2.6087,2.1746-4.2416,2.3462-1.9257.2024-3.7054-.9457-5.3004-2.0434-7.0573-4.857-14.1147-9.7141-21.172-14.5711,3.254,24.2203,25.9533,76.8816,29.2073,101.1019.4116,3.0638.6892,6.5816-1.4184,8.8431-1.6081,1.7254-4.1307,2.1649-6.4641,2.5088-25.4301,3.7481-92.2192,28.7981-117.6494,32.5462,1.5386-22.154,26.0962-93.9741,29.8325-115.8649-5.2806-3.5677-11.4769,3.148-17.7117,4.4672-4.4106.9333-9.0309-1.0733-12.3348-4.1407-3.3039-3.0674-5.5352-7.0885-7.7107-11.0372-2.5274-4.5873-5.0548-9.1747-7.5822-13.762"/>
  <path class="cls-3" d="M4.7473,67.6443c1.0301-2.9884,2.9355-5.5476,4.9942-7.9075,2.0957-2.4024,4.2986-4.7166,6.4683-7.0519,4.5568-4.9045,9.1728-9.7589,14.0083-14.3909,9.4568-9.0589,19.8401-17.2792,31.7705-22.8353,11.6784-5.4387,24.9282-8.2567,37.7551-6.0489,12.4543,2.1436,23.6703,8.3799,33.8834,15.5841,6.0023,4.234,11.7204,8.8527,17.4141,13.4882,6.3979,5.2088,12.7284,10.5,18.9937,15.8676v-2.4749c-6.9493,5.9082-13.8986,11.8164-20.848,17.7247-1.753,1.4904-3.5045,2.9824-5.2589,4.4711-1.4482,1.2289-2.9366,2.4926-4.9257,1.7509-1.9241-.7175-3.6537-2.2299-5.3299-3.3835-1.9001-1.3077-3.8001-2.6153-5.7002-3.923-4.2751-2.9422-8.5502-5.8845-12.8254-8.8267-1.4181-.9759-2.7536.6338-2.5707,1.9763.9511,6.9826,2.8761,13.8343,4.8713,20.5784,2.5136,8.496,5.3281,16.901,8.1551,25.2967,2.9347,8.7155,5.9145,17.4171,8.7021,26.1812,2.3709,7.4543,4.6689,14.9658,6.323,22.617.7249,3.3533,1.6471,7.0563,1.3443,10.5-.2306,2.6228-1.7742,4.0277-4.248,4.6493-1.6478.4141-3.3584.5778-5.0303.8778-6.3707,1.1432-12.6489,2.8169-18.8809,4.5473-16.4836,4.577-32.7614,9.8749-49.1003,14.9345-14.3281,4.437-28.762,9.1786-43.513,12.024-1.2375.2387-2.4791.4555-3.7257.641l2.2152,1.6875c.4084-5.7216,1.8163-11.8062,3.2015-17.6907,1.964-8.3432,4.2211-16.617,6.5371-24.8683,4.9006-17.4599,10.2085-34.804,15.0316-52.2856,1.8712-6.7822,3.8064-13.6131,4.9997-20.555.1381-.8032-.0999-1.5265-.8042-1.9763-6.7028-4.28-13.0315,3.3699-19.4499,4.3656-3.7428.5806-7.555-1.2778-10.2425-3.7654-3.0629-2.8352-5.1329-6.5116-7.1306-10.1273-2.6351-4.7695-5.2592-9.5451-7.8887-14.3177-1.0872-1.9733-4.1109-.2096-3.0221,1.7665,2.3694,4.3006,4.7389,8.6012,7.1083,12.9019,2.0958,3.804,4.1796,7.6728,7.1259,10.9031,2.7039,2.9646,6.3229,5.3625,10.3382,6.0164,4.081.6646,7.6226-.7233,11.1941-2.5607,2.9612-1.5234,6.9132-4.2595,10.2008-2.1602l-.8042-1.9763c-1.0389,6.0434-2.6701,11.995-4.2748,17.907-2.2633,8.3383-4.6817,16.6342-7.0985,24.929-5.089,17.4667-10.3605,34.9106-14.6507,52.5959-1.6613,6.8483-3.3678,13.8479-3.871,20.8983-.0894,1.2528,1.1841,1.8409,2.2152,1.6875,6.1448-.9142,12.1963-2.478,18.188-4.0922,7.9351-2.1376,15.8078-4.5043,23.6642-6.9127,16.8-5.1499,33.5114-10.6046,50.4055-15.4429,6.7164-1.9235,13.4704-3.7862,20.3178-5.1891,3.3307-.6824,7.1408-.7624,10.1937-2.3071,4.9556-2.5075,4.5592-8.2862,3.864-12.9606-1.0633-7.1496-3.0781-14.1643-5.1528-21.0746-2.6321-8.7671-5.5586-17.4437-8.484-26.1161-2.9414-8.7197-5.914-17.431-8.6659-26.213-2.3054-7.357-4.5397-14.7842-6.0292-22.3565-.2929-1.4888-.5496-2.9844-.7544-4.4879l-2.5707,1.9763c4.0715,2.8021,8.1431,5.6043,12.2146,8.4064,2.0358,1.4011,4.0715,2.8021,6.1073,4.2032,1.8005,1.2391,3.5747,2.6751,5.5853,3.559,2.0206.8882,4.0758.9061,6.0604-.0943,1.9747-.9955,3.6389-2.7357,5.3087-4.1554,3.6938-3.1404,7.3876-6.2808,11.0814-9.4212,4.2572-3.6195,8.5145-7.2389,12.7717-10.8584.6826-.5804.6764-1.8954,0-2.4749-10.9639-9.3929-22.0254-18.7896-33.6337-27.3836-10.5058-7.7779-22.036-14.8132-34.9045-17.7903-13.0376-3.0162-26.573-1.267-38.9209,3.6536-12.7734,5.0902-23.9676,13.1794-34.0581,22.4194-5.7046,5.2237-11.073,10.8003-16.3453,16.4557-2.5713,2.7582-5.1934,5.4888-7.6538,8.3471-2.3673,2.7502-4.4302,5.6818-5.6212,9.1372-.7356,2.134,2.6442,3.0507,3.375.9304h0Z"/>
</svg>