<?xml version="1.0" encoding="UTF-8"?>
<svg id="Layer_1" data-name="Layer 1" xmlns="http://www.w3.org/2000/svg" xmlns:xlink="http://www.w3.org/1999/xlink" viewBox="0 0 144.4857 98.5222">
  <defs>
    <style>
      .cls-1 {
        fill: none;
      }

      .cls-2 {
        fill: url(#New_Pattern);
        stroke: #3fa9f5;
        stroke-miterlimit: 10;
        stroke-width: .7723px;
      }

      .cls-3 {
        fill: blue;
      }

      .cls-4 {
        fill: #fff;
      }
    </style>
    <pattern id="New_Pattern" data-name="New Pattern" x="0" y="0" width="10" height="10" patternTransform="translate(-589.822 -476.6865)" patternUnits="userSpaceOnUse" viewBox="0 0 10 10">
      <g>
        <rect class="cls-1" width="10" height="10"/>
        <rect class="cls-4" width="10" height="10"/>
        <circle class="cls-3" cx="5.0001" cy="4.9999" r="2.053"/>
      </g>
    </pattern>
  </defs>
  <path class="cls-2" d="M6.1902,85.0037c3.2828-13.0909,10.8475-24.6327,18.2858-35.8941,2.8603-4.3303,5.771-8.7189,9.6933-12.1172,3.1113-2.6957,6.778-4.69,10.5858-6.2547,15.1813-6.2383,32.4917-5.6834,48.3455-1.4363,15.8538,4.2472,30.5316,11.9663,44.9044,19.8916-6.1913,3.0135-12.3826,6.0272-18.5739,9.0406-1.0336.5032-2.1068,1.0165-3.2559,1.0507-1.2963.0387-2.522-.535-3.6992-1.0791-7.1207-3.2919-23.8376-14.374-31.4219-16.3786-5.5188-1.4588-2.019,5.8459-7.5987,7.0517-3.2564.7036-9.6713-5.4576-12.549-3.7792-7.8524,4.5801-11.3495,18.4665-16.6401,25.8588-.7814,1.0918-1.5508,2.2309-2.6389,3.0176-.922.6669-2.0185,1.04-3.0969,1.4037-13.6638,4.6109-18.6767,5.0134-32.3405,9.6243"/>
  <path class="cls-2" d="M7.8736,85.4677c2.6624-10.2352,7.7846-19.4554,13.4363-28.3155,5.5154-8.6468,10.7631-17.9954,20.1254-22.9486,19.0556-10.0816,42.3964-6.9791,61.8385.1766,11.7784,4.335,22.8789,10.2775,33.8499,16.3201v-3.0149c-3.6419,1.7727-7.2839,3.5453-10.9258,5.318-1.6388.7978-3.2777,1.5953-4.9167,2.3931-2.0523.9989-4.1738,2.5785-6.5365,1.8832-4.4143-1.2985-8.6927-4.5036-12.6349-6.7841-4.5163-2.6125-9.0281-5.2649-13.7188-7.5566-2.6832-1.311-7.3164-4.1324-10.3746-2.6644-3.101,1.4886-1.8093,7.678-6.1465,6.7112-3.7513-.8362-7.2954-5.1863-11.4312-3.5761-4.049,1.5762-6.9746,6.5345-8.9648,10.1187-2.5682,4.6251-4.4945,9.5879-7.1757,14.1514-.8682,1.4779-1.88,3.2493-3.1438,4.4111-1.4297,1.3142-3.4903,1.7482-5.2881,2.3356-3.32,1.0847-6.6662,2.0841-10.0326,3.0142-6.74,1.8619-13.4727,3.6576-20.1076,5.8792-2.1198.7099-1.211,4.083.9282,3.3667,5.852-1.9596,11.774-3.6229,17.7295-5.2314,2.8177-.7611,5.6286-1.5454,8.4197-2.3992,2.9472-.9015,6.2796-1.6097,8.9836-3.124,4.3494-2.4359,6.73-8.5401,8.7874-12.8161,2.3346-4.8517,4.5314-10.2034,8.3057-14.1467.675-.7053,1.9292-2.1318,2.907-2.363,1.0133-.2395,2.223.4616,3.0871.8694,2.0095.9485,3.9184,2.246,6.0675,2.8772,3.8423,1.1283,6.6703-1.3144,7.813-4.8206.6735-2.0665.7263-2.4288,3.0413-1.6533,2.2446.752,4.382,1.8255,6.4844,2.9036,4.8101,2.4664,9.4638,5.2284,14.144,7.9295,3.7672,2.1741,9.2104,6.4066,13.7504,6.318,3.2752-.0639,6.7755-2.5734,9.6001-3.9482,4.3702-2.1271,8.7407-4.2545,13.1109-6.3816,1.1831-.5759,1.0921-2.4134,0-3.0149-19.8566-10.9361-40.7446-21.6498-63.7783-23.169-10.8615-.7165-21.9358.6958-31.9738,5.0263-4.8074,2.074-9.2229,4.8801-12.7887,8.7451-3.5243,3.8198-6.2965,8.2844-9.1382,12.6138-6.8986,10.5102-13.5065,21.3611-16.7,33.6381-.5661,2.1763,2.8006,3.1045,3.3667.9282h0Z"/>
</svg>