<?xml version="1.0" encoding="UTF-8"?>
<svg id="Layer_1" data-name="Layer 1" xmlns="http://www.w3.org/2000/svg" xmlns:xlink="http://www.w3.org/1999/xlink" viewBox="0 0 144.4857 98.5222">
  <defs>
    <style>
      .cls-1 {
        fill: none;
      }

      .cls-2 {
        fill: url(#New_Pattern);
        stroke: #3fa9f5;
        stroke-miterlimit: 10;
        stroke-width: .7723px;
      }

      .cls-3 {
        fill: blue;
      }

      .cls-4 {
        fill: #fff;
      }
    </style>
    <pattern id="New_Pattern" data-name="New Pattern" x="0" y="0" width="10" height="10" patternTransform="translate(-750.9614 -476.6865)" patternUnits="userSpaceOnUse" viewBox="0 0 10 10">
      <g>
        <rect class="cls-1" width="10" height="10"/>
        <rect class="cls-4" width="10" height="10"/>
        <circle class="cls-3" cx="5.0001" cy="4.9999" r="2.053"/>
      </g>
    </pattern>
  </defs>
  <path class="cls-2" d="M39.8471,65.1325c1.427-14.9464,2.6162-31.0412-5.0117-43.9735-1.6261-2.7566-3.6118-5.281-5.5912-7.7959,17.361,9.4311,31.5315,24.6182,39.7391,42.5899.6835-14.2901,8.6355-28.0439,20.6788-35.7659-5.3378,12.6292-8.281,26.2659-8.6269,39.9725,12.2561-9.7462,24.9436-19.7189,40.0075-23.9944-10.0855,8.0026-20.1712,16.0052-30.2567,24.0081-4.4991,3.57-9.0957,7.2489-12.0626,12.1666-1.1958,1.9821-2.3451,4.3418-4.5664,4.9931-1.4473.4242-2.9909-.0125-4.4351-.4472-7.2604-2.1868-14.5205-4.3734-21.7809-6.56-3.3075-.9962-6.1867-2.3131-8.0939-5.1929"/>
  <path class="cls-2" d="M41.5929,65.1325c.8905-9.3902,1.6758-18.8947.3136-28.2802-1.3915-9.5889-5.5078-17.1927-11.428-24.7234l-2.1156,2.7419c17.1793,9.4523,30.8734,24.1754,39.1128,41.9636.7831,1.6907,3.1605.6921,3.2532-.8812.8137-13.813,8.2507-26.6627,19.8143-34.2587l-2.5646-1.9715c-5.3551,12.8531-8.2668,26.5218-8.6893,40.4366-.0504,1.6574,1.8788,2.11,2.9802,1.2344,11.9748-9.5186,24.3323-19.1755,39.2371-23.5455l-1.6985-2.9178c-6.6187,5.2517-13.2374,10.5036-19.8558,15.7552-6.0661,4.8133-12.6532,9.3555-18.09,14.8958-2.2233,2.2656-3.8408,4.7594-5.5521,7.4018-.6515,1.0057-1.3859,2.2724-2.6174,2.6658-1.1613.3711-2.9667-.2906-4.0801-.6199-1.9133-.5659-3.8213-1.151-5.7319-1.7264-4.0123-1.2085-8.0244-2.4168-12.0367-3.6253-3.8259-1.1522-7.9999-2.0038-10.4896-5.4263-1.3091-1.7993-4.3396-.059-3.0149,1.7621,4.6574,6.4024,14.0714,7.4813,21.174,9.6204,2.4838.7481,4.9676,1.4962,7.4512,2.2443,1.9466.5864,4.0172,1.4363,6.0913,1.3705,3.344-.1062,5.1474-2.6827,6.7258-5.271,4.5566-7.472,12.1167-12.4739,18.8567-17.8219,7.8793-6.252,15.7586-12.5042,23.638-18.7562,1.4081-1.1175-.124-3.3794-1.6985-2.9178-15.5091,4.5471-28.3174,14.5386-40.7778,24.4436l2.9802,1.2344c.4134-13.6171,3.3263-26.9357,8.5646-39.5084.5908-1.4182-1.3697-2.7563-2.5646-1.9715-12.6395,8.3028-20.6543,22.1784-21.5434,37.2734l3.2532-.8812c-8.4691-18.2838-22.7149-33.5047-40.3654-43.2162-1.8424-1.0135-3.2933,1.2435-2.1156,2.7419,5.8762,7.4749,9.6762,15.1908,10.7201,24.7366.9382,8.5787.1832,17.2424-.6285,25.7984-.2121,2.2358,3.2809,2.2211,3.4915,0h0l.0007-.0002Z"/>
</svg>