<?xml version="1.0" encoding="UTF-8"?>
<svg id="Layer_1" data-name="Layer 1" xmlns="http://www.w3.org/2000/svg" xmlns:xlink="http://www.w3.org/1999/xlink" viewBox="0 0 144.4857 98.5222">
  <defs>
    <style>
      .cls-1 {
        fill: none;
      }

      .cls-2 {
        fill: url(#New_Pattern);
        stroke: #3fa9f5;
        stroke-miterlimit: 10;
        stroke-width: .7723px;
      }

      .cls-3 {
        fill: blue;
      }

      .cls-4 {
        fill: #fff;
      }
    </style>
    <pattern id="New_Pattern" data-name="New Pattern" x="0" y="0" width="10" height="10" patternTransform="translate(-1080.1601 -484.8185)" patternUnits="userSpaceOnUse" viewBox="0 0 10 10">
      <g>
        <rect class="cls-1" width="10" height="10"/>
        <rect class="cls-4" width="10" height="10"/>
        <circle class="cls-3" cx="5.0001" cy="4.9999" r="2.053"/>
      </g>
    </pattern>
  </defs>
  <g>
    <path class="cls-2" d="M49.8671,61.4354c-6.1304,2.1849-11.7901,5.6798-16.4894,10.1821-.9751.9345-1.9737,2.0655-1.9466,3.4159.0369,1.8397,1.9082,3.0492,3.6158,3.7349,1.8416.7395,3.7645,1.2763,5.7231,1.597,2.2656.3711,4.5672.4531,6.8614.5343,9.5553.3383,19.1792.673,28.6276-.7929,15.57-2.4156,30.3242-9.8337,41.5494-20.8904"/>
    <path class="cls-2" d="M49.403,59.752c-4.8069,1.7744-9.2982,4.1532-13.3592,7.2915-2.7627,2.135-7.6601,5.4782-5.9978,9.6211,1.597,3.98,7.7188,5.0518,11.3953,5.5469,5.9489.8009,12.1573.7129,18.1522.7249,11.4978.023,22.8453-1.3641,33.5759-5.6663,9.6581-3.8721,18.4117-9.5698,25.8732-16.8194,1.6144-1.5686-.8557-4.0363-2.4689-2.4689-12.823,12.459-29.6057,19.9038-47.4303,21.1691-4.7707.3386-9.5575.3378-14.3366.228-5.098-.1172-10.5339.1072-15.5177-1.0891-1.379-.331-5.0156-.9957-5.7223-2.4642-1.0353-2.1511,2.8474-4.6535,4.1366-5.6803,3.7907-3.0191,8.0895-5.3512,12.628-7.0263,2.0902-.7716,1.1865-4.1474-.9282-3.3667h0l-.0002-.0003Z"/>
  </g>
  <g>
    <path class="cls-2" d="M50.5398,60.9194c-.6821-6.4616-.6972-14.1501,2.6568-19.7152,2.3165-3.8433,6.2464-6.4685,10.3741-8.2289,7.6741-3.2725,16.2027-3.9174,24.5453-3.8937,4.4326.0127,8.9242.2116,13.1606,1.5158,10.6748,3.2862,18.528,14.121,18.3291,25.2885-.0149.8367-.0893,1.7269-.5932,2.395-.4621.6126-1.2061.9323-1.9189,1.2163-9.1588,3.6471-18.958,5.6786-28.8116,5.9736-12.6948.3799-25.2822-2.0914-37.7421-4.5513"/>
    <path class="cls-2" d="M52.2856,60.9194c-.4922-4.9486-.7244-10.143.7354-14.9601,1.6134-5.3246,5.6149-8.8148,10.55-11.0858,5.2722-2.4263,11.155-3.4355,16.9055-3.8266,5.4513-.3709,11.1653-.5287,16.5711.3564,9.7087,1.5897,17.6284,8.8929,20.0883,18.4296.5267,2.0425,1.324,5.0261.2564,6.9521-1.1792,2.1274-5.9433,2.9344-8.2879,3.6207-5.6732,1.6601-11.5173,2.7316-17.4144,3.1478-13.7203.9683-27.2919-1.6748-40.6859-4.3176-2.1947-.433-3.1341,2.9315-.9282,3.3667,14.2416,2.8102,28.7326,5.6286,43.3145,4.3032,6.7643-.6148,13.4586-1.9882,19.8969-4.1574,2.1619-.7283,5.4217-1.3754,6.9597-3.2331,1.4864-1.7956,1.1865-4.5539.9548-6.7007-1.1072-10.2606-8.1531-19.5887-17.7997-23.3202-5.8412-2.2595-12.3851-2.2685-18.5578-2.1293-6.6517.15-13.4248.8567-19.7171,3.1314-5.877,2.1247-11.5609,5.633-14.307,11.4714-2.7539,5.8547-2.6524,12.6566-2.0263,18.9514.2204,2.215,3.7141,2.238,3.4915,0h0v.0002Z"/>
  </g>
  <g>
    <path class="cls-2" d="M77.3505,28.2805c.0056-1.4989,1.4624-2.5242,2.7561-3.2813,1.143-.6688,2.3564-1.358,3.6806-1.3595,1.2655-.0012,2.4709.649,3.3489,1.5603s1.4634,2.0652,1.9236,3.2442"/>
    <path class="cls-2" d="M79.0962,28.2805c.0132-.333-.0479.0873.0108-.0949.0267-.0832.1671-.3645.0198-.0979.0514-.0932.1052-.1837.1607-.2747.1571-.2576-.0484.035.079-.0954.1781-.182.3567-.3584.5522-.5221-.1798.1507.0568-.0413.1294-.0925.0947-.0665.1903-.1311.2872-.1945.492-.3222,1.0055-.6189,1.5239-.8966.5808-.3112.8672-.4435,1.5153-.5906.3041-.069.7772-.0252,1.1544.0944.2941.0932.8758.4335,1.1001.6534.7745.7591,1.3749,1.7993,1.7475,2.739.3474.8758,1.1677,1.4886,2.1474,1.2193.8335-.229,1.5689-1.266,1.2193-2.1474-.6436-1.6237-1.4395-3.2449-2.7889-4.4057-1.4984-1.289-3.3511-1.9116-5.316-1.5569-1.5429.2786-3.0802,1.1757-4.3524,2.0709-1.4556,1.0241-2.6074,2.3339-2.681,4.1921-.0372.9428.8291,1.7457,1.7457,1.7457.9766,0,1.7083-.8,1.7457-1.7457h-.0002Z"/>
  </g>
</svg>