<?xml version="1.0" encoding="UTF-8"?>
<svg id="Layer_1" data-name="Layer 1" xmlns="http://www.w3.org/2000/svg" xmlns:xlink="http://www.w3.org/1999/xlink" viewBox="0 0 173.7045 83.7217">
  <defs>
    <style>
      .cls-1 {
        fill: none;
      }

      .cls-2 {
        fill: blue;
      }

      .cls-3 {
        fill: #3fa9f5;
      }

      .cls-4 {
        fill: #fff;
      }

      .cls-5 {
        fill: url(#New_Pattern);
      }
    </style>
    <pattern id="New_Pattern" data-name="New Pattern" x="0" y="0" width="10" height="10" patternTransform="translate(-700.0021 -1406.999)" patternUnits="userSpaceOnUse" viewBox="0 0 10 10">
      <g>
        <rect class="cls-1" width="10" height="10"/>
        <rect class="cls-4" width="10" height="10"/>
        <circle class="cls-2" cx="5.0001" cy="4.9999" r="2.053"/>
      </g>
    </pattern>
  </defs>
  <g>
    <path class="cls-5" d="M57.2465,23.2056c-16.5149-.7906-32.8503,10.648-37.7554,26.4375-1.344,4.3263-1.5907,9.7581,1.893,12.654,1.5541,1.2919,3.6139,1.8309,5.6307,1.959,6.3713.4048,12.4325-2.9345,17.2537-7.1193,4.8212-4.1848,8.7945-9.2738,13.6215-13.452.6003,6.6936,1.7184,13.3407,3.3412,19.8623.1704.6849.3903,1.4319.9822,1.8162.497.3227,1.1344.3056,1.725.2582,2.8187-.2265,5.6017-.8911,8.2186-1.9627.6695-.2742,1.3635-.6038,1.7634-1.2067.4875-.7349.4237-1.6912.3416-2.5692-.9828-10.5066-1.9713-21.0128-2.9656-31.5183-.0758-.8009-.1802-1.6669-.7362-2.2482-.5111-.5344-1.2858-.702-2.0116-.8437-2.8766-.5619-5.7532-1.1238-8.6298-1.6856"/>
    <path class="cls-3" d="M57.2465,21.4351c-14.0141-.5958-27.7441,7.0311-35.2732,18.7556-3.4397,5.3564-6.8756,13.2237-4.413,19.6031,3.1858,8.2526,13.878,6.9393,20.312,3.7987,8.6644-4.2293,14.1735-12.4577,21.2696-18.6558l-3.0224-1.2519c.5614,6.1334,1.5123,12.2311,2.9004,18.2325.6188,2.6754,1.2216,5.5287,4.5599,5.4971,2.7434-.026,5.6602-.773,8.216-1.7235,1.1148-.4146,2.3018-.839,3.1534-1.7072.976-.9949,1.1937-2.3853,1.1157-3.7206-.1803-3.0835-.5745-6.1698-.8631-9.2451-.5931-6.3202-1.1884-12.6403-1.7857-18.9601-.2584-2.7344.1124-6.7172-2.8877-8.0395-1.4937-.6583-3.2714-.7973-4.8653-1.1086-1.7579-.3434-3.5159-.6867-5.2738-1.0301-2.2261-.4348-3.1792,2.9774-.9413,3.4145,2.557.4995,5.114.9989,7.671,1.4984.7073.1382,1.9519.1208,2.2784.8379.4523.9936.3061,2.6118.4079,3.6888.4888,5.1708.9763,10.3416,1.4623,15.5127.2469,2.6266.4934,5.2531.7396,7.8798.1154,1.2312.2307,2.4625.3459,3.6937.0664.7094.5372,2.425.0922,3.0745-.4782.698-2.0963.9905-2.8573,1.2326-1.1341.3607-2.2935.6475-3.4649.8572-.5774.1034-1.1562.186-1.7402.242-.2555.0245-.9835.2074-1.1843.0794-.2045-.1304-.2687-.8515-.3179-1.0476-.1752-.6983-.3396-1.3996-.5005-2.1013-1.289-5.6198-2.1943-11.316-2.7198-17.0573-.1421-1.5527-1.8192-2.3029-3.0224-1.2519-5.7314,5.0061-10.2795,11.3989-16.5737,15.7548-2.9339,2.0304-6.2532,3.6946-9.8232,4.1906-3.0002.4168-6.9518.1844-8.77-2.6181-1.589-2.4494-1.2809-5.7602-.6057-8.4572.7431-2.9685,2.0252-5.7988,3.5993-8.415,3.1731-5.2736,7.7201-9.6708,13.0062-12.8055,5.974-3.5427,12.8224-5.402,19.7754-5.1063,2.2785.0969,2.2739-3.4443,0-3.541h0Z"/>
  </g>
  <g>
    <path class="cls-5" d="M116.9114,25.801c9.0277-1.626,18.7076.7993,25.9022,6.4897,7.1946,5.6904,11.7843,14.5514,12.2815,23.7109.1297,2.3895-.0383,4.9052-1.2739,6.9546-1.9938,3.307-6.4046,4.5526-10.1866,3.7728-3.782-.7797-7.017-3.1992-9.817-5.8583-6.2622-5.947-11.0365-13.449-13.7721-21.6404-.4324,6.6792-1.4632,13.3195-3.0759,19.8155-.121.4873-.2691,1.0113-.6677,1.3166-.3866.2961-.9119.3117-1.3988.3149-3.7696.0247-7.5392.0493-11.3088.074-.447.0029-.92-.001-1.3023-.2324-.9392-.5685-.707-1.9709-.368-3.015,2.3116-7.1188,4.016-14.4346,5.0887-21.842.3764-2.5991.7195-5.3277,2.2342-7.473,1.5147-2.1453,4.6415-3.4135,6.8434-1.9824"/>
    <path class="cls-3" d="M117.3821,27.5083c6.708-1.1628,13.8033.0168,19.8056,3.2186,5.9642,3.1815,10.6248,8.2944,13.4395,14.4244,1.3345,2.9064,2.237,6.1013,2.5725,9.2836.3278,3.1092.4753,6.9623-2.2247,9.1181-5.5678,4.4456-12.6251-.6774-16.6553-4.6614-5.6887-5.6235-10.0034-12.5573-12.5668-20.1319-.6476-1.9136-3.3432-1.5411-3.4777.4707-.3247,4.8549-.9525,9.6767-1.9127,14.4474-.2358,1.1717-.4901,2.3397-.7633,3.5033-.1113.4741-.1396,1.1563-.3863,1.5784-.2603.4453.3355-.0341-.1249.1431-.3058.1177-.826.0087-1.1682.0109-2.4584.0161-4.9169.0322-7.3753.0482-.6556.0043-1.3112.0086-1.9667.0129-.3634.0024-1.0424.1659-1.3569.0098.3984.1977.0187.1582.1785-.0996.2242-.3618.3253-1.1972.4512-1.5923.7496-2.3518,1.4332-4.7246,2.0496-7.1147,1.1933-4.627,2.1293-9.317,2.8198-14.045.3359-2.2996.5554-4.925,1.9409-6.8783.9734-1.3723,2.933-2.4597,4.5359-1.5189,1.9695,1.1559,3.7535-1.9035,1.7872-3.0575-2.1125-1.2398-4.6568-1.0108-6.7214.2288-2.1979,1.3196-3.4788,3.5621-4.1589,5.9779-.7806,2.7727-.9789,5.72-1.4837,8.5513-.5311,2.9787-1.1646,5.9392-1.899,8.8744-.7357,2.9403-1.6351,5.8215-2.5041,8.723-.6522,2.1776-.3881,4.8211,2.2315,5.397,1.3668.3005,2.955.0797,4.342.0707,1.639-.0107,3.2779-.0214,4.9169-.0322,2.7654-.0181,5.9543.5016,6.9201-2.7681,1.9366-6.5561,2.7341-13.6719,3.1888-20.4703l-3.4777.4707c2.6037,7.6937,6.832,14.7777,12.4516,20.6522,5.1115,5.3433,12.4739,10.6842,20.1362,7.3081,7.7747-3.4256,6.5114-13.5705,4.3639-20.2157-2.3502-7.2724-7.0499-13.6929-13.3761-17.9993-7.4068-5.042-16.6826-6.8762-25.4732-5.3524-2.241.3885-1.291,3.8014.9413,3.4145h0Z"/>
  </g>
</svg>