<?xml version="1.0" encoding="UTF-8"?>
<svg id="Layer_1" data-name="Layer 1" xmlns="http://www.w3.org/2000/svg" viewBox="0 0 332.826 143.9118">
  <defs>
    <style>
      .cls-1 {
        fill: #fff;
      }

      .cls-2 {
        fill: #29abe2;
      }
    </style>
  </defs>
  <g>
    <path class="cls-1" d="M38.3867,75.7768c15.5795,12.5135,48.2591,23.2479,68.0126,14.284,15.5346-9.8639,41.2614-31.4794,29.0509-51.7041,36.5469,36.4918-25.3192,61.9299-51.0971,79.1343-12.335,7.3053-20.7838,14.774-36.2261,15.1699C-.2517,136.7323,5.5388,95.4985,38.3867,75.7768Z"/>
    <path class="cls-1" d="M130.5475,33.7018c12.0406,18.9975-1.723,35.7595-17.5152,47.7127-21.7036,17.1457-51.5345,7.0649-72.1101-7.5508-.2371-2.4913,1.6584-4.882,4.1637-3.7132-1.1889,4.6456,2.6068,1.7235,2.9983,1.7782,2.5205.3518,7.0577,4.3999,10.1687,4.7417,21.2285,8.6946,49.6474,6.9549,64.1035-12.5769,2.0941-.0937,4.1808-.158,2.0163-2.8828,2.542-8.0912,7.9014-18.3158,1.3444-26.115,1.1791-1.1488,3.3489-4.1763,4.8303-1.3939Z"/>
    <path class="cls-1" d="M65.0984,75.5959c11.3659-18.349,32.585-30.0365,30.1133,1.8421-8.7474,3.4051-21.2545.8723-30.1133-1.8421Z"/>
    <path class="cls-1" d="M98.1344,76.3902c1.2679-13.6791-6.5518-30.3102-14.962-40.0722,9.9395-12.6468,24.1024,27.7589,23.7313,36.0781-1.0098.5011-7.2203,4.9114-8.7693,3.9941Z"/>
    <path class="cls-1" d="M123.4615,53.9973c-8.8121-7.04-20.6907-.259-24.1289-12.9616,11.8608-3.2412,33.8967-7.6597,24.1289,12.9616Z"/>
    <path class="cls-1" d="M76.913,57.6603l-15.2344,16.8324-11.8041-5.1584c6.9455-9.3772,15.1145-14.3661,27.0385-11.674Z"/>
    <path class="cls-1" d="M106.2907,21.3619c-3.5276,4.4521-27.9363,7.6744-26.5425,15.2595-2.2506,4.0671-14.7985,7.7221-14.4523,13.5208-4.9736,6.0561-13.7334,10.5035-18.1085,17.4792-3.6582-7.138,46.7108-53.4954,59.1034-46.2595Z"/>
    <path class="cls-1" d="M136.8223,35.0178c-4.2881-4.1188-12.3235-8.3362-13.7826.4467-32.9901-16.756,4.5969-22.1062,13.7826-.4467Z"/>
    <path class="cls-1" d="M111.6749,32.1262c-.0018,2.5563,3.3712,2.2921,3.7469,3.544-10.7263-1.1688-16.9211,6.9948-24.5026-3.9556,8.0954-4.2994,15.9031-10.6219,20.7557.4116Z"/>
    <path class="cls-1" d="M89.3544,51.3016c.2244.3445,1.4884,4.0882,1.2411,4.1904l-25.6763-1.0967c4.9543-8.5487,17.5187-5.3562,24.4352-3.0936Z"/>
    <path class="cls-1" d="M105.0522,51.439c4.5712.4899,22.1937,2.0452,15.3101,8.8187-5.8696-1.8933-16.2097-.1516-15.3101-8.8187Z"/>
    <path class="cls-1" d="M119.2664,62.8385c.5307,1.3905-7.5281,7.1248-9.0927,7.9253l-2.1516-10.3202,11.2444,2.3949Z"/>
    <path class="cls-1" d="M87.4204,46.9751c-3.6828.7158-9.8621-1.5783-14.591-1.0054,8.4017-7.1324,7.4594-9.5607,14.591,1.0054Z"/>
    <path class="cls-2" d="M149.405,59.7742c-.582-8.3029-3.5158-17.1231-8.2608-24.8358-4.891-7.9505-11.2054-13.8177-17.7803-16.5205-4.768-1.9601-9.5299-2.2473-14.1568-.8554-25.2712-1.7057-43.9421,20.208-60.4175,39.5467-3.68,4.3194-7.1562,8.3998-10.5933,12.0886-16.1492,12.1628-32.6274,32.0949-30.696,47.1738.9374,7.3177,5.9864,12.9085,15.0078,16.6171,2.5167,1.0346,5.3829,1.934,8.5183,2.6733l.0367.0089.037.005c33.278,4.7641,60.5132-15.6676,86.8513-35.4264,6.8369-5.129,13.2955-9.9741,19.8566-14.388,8.3154-4.8847,12.4337-14.1481,11.5969-26.0873ZM88.8703,58.5926c3.98,1.6361,5.7007,7.8778,4.9855,18.0637-8.5405,3.0687-20.7727.4042-28.0147-1.7281,7.3088-11.3279,17.4979-18.6095,23.0292-16.3356ZM117.5965,63.2785c-1.1454,1.4632-5.1806,4.5634-7.3979,5.9848l-1.6493-7.9118,9.0472,1.927ZM119.5543,59.1231c-1.5045-.4216-3.2309-.6517-4.9058-.8753-2.1731-.2896-4.4203-.5888-6.1434-1.2971-2.2323-.9177-3.2499-2.4052-3.2247-4.7654,2.9655.3148,8.7379.9563,12.3607,2.4456,1.7196.7069,2.7128,1.5097,2.8727,2.3219.119.6066-.2032,1.3354-.9596,2.1703ZM122.5733,52.5221c-.9574-.6644-1.9841-1.2195-3.1145-1.6842-2.6582-1.0927-5.3642-1.4684-7.981-1.8314-2.2903-.3183-4.453-.6182-6.3084-1.3809l-.0008-.0003c-2.6538-1.0914-4.3266-3.0154-5.347-6.1858,10.0948-2.6873,17.2032-3.2297,21.1373-1.6125,1.5835.651,2.6079,1.6257,3.1317,2.9794.8621,2.229.3514,5.4943-1.5174,9.7156ZM100.1249,52.3195c3.3837,8.2724,5.3371,16.1452,5.3893,19.415-.1768.1099-.3894.2442-.6346.3996-3.8139,2.4154-5.5984,3.2076-6.404,3.3578.9353-13.881-6.8417-29.8976-14.761-39.3593,1.4103-1.5382,2.9147-1.9522,4.5828-1.2664,3.5819,1.4725,7.8929,7.8339,11.8275,17.4534ZM89.055,54.4277c-3.9763-.17-18.4387-.7876-23.1556-.9894,3.6883-4.6577,11.1739-5.2087,22.2887-1.6334.2261.5672.6339,1.7877.8669,2.6228ZM50.6285,68.8097c7.0463-9.129,14.5652-12.5041,24.1145-10.8011l-13.8393,15.2911-10.2752-4.4899ZM74.5999,44.866c.6021-.5415,1.1478-1.0464,1.6576-1.5177,2.4465-2.2625,3.4776-3.165,4.4472-2.7664,1.1008.4525,2.5933,2.4593,4.6701,5.5108-1.5089.0216-3.3398-.2692-5.251-.5726-1.8391-.2924-3.7208-.5911-5.5238-.6541ZM47.3295,72.736c.0799-.0403.1778-.0896.2545-.1263.2264.0488.4906.1352.7882.2575.9256.3805,2.0345,1.0451,3.209,1.7487,1.3163.7889,2.677,1.6045,3.973,2.1373.7174.2949,1.3497.4768,1.928.5537,11.1464,4.5391,23.5475,6.0691,34.9329,4.3074,12.6431-1.9562,22.9431-7.7897,29.8144-16.878,1.3692-.0569,2.7005-.1931,3.1757-1.2048.4077-.8688-.0802-1.8407-.6596-2.6569.3626-1.1205.7718-2.2754,1.2025-3.4903,2.5933-7.3167,5.5232-15.5824.3261-22.4198.0206-.0221.0414-.0446.0624-.0666.6893-.7397,1.7313-1.8575,2.3035-1.6223.1945.08.4175.3193.641.6944,9.533,15.0101,3.7089,30.6864-17.325,46.6043-7.07,5.5828-15.4462,8.543-24.8957,8.7991-8.2849.2246-17.2111-1.6043-26.5302-5.4353-6.5271-2.6832-13.208-6.3809-19.3458-10.7055.0077-.9796.4134-1.9103,1.065-2.3934.387-.2868.8207-.3909,1.2945-.3119-.1672.9566-.203,2.3204.9376,2.7893.934.3839,2.0858-.1967,2.8478-.5807ZM133.575,31.6159c-.9771-.6424-1.9642-1.1763-2.9035-1.5624-2.3537-.9676-4.4228-1.0194-5.9847-.1499-1.3439.7481-2.2829,2.1352-2.7999,4.1302-9.9231-5.191-12.5484-9.0757-11.7317-10.8575,1.1597-2.5309,7.8477-2.1145,12.8269-.0676,2.7423,1.1273,7.323,3.6154,10.5928,8.5071ZM111.7342,34.5504c-2.5274.1064-4.79.621-6.8565,1.0911-3.1592.7182-5.8874,1.3388-8.5038.2632l-.0011-.0005c-1.6512-.6792-3.2187-2.0195-4.7727-4.0857.7095-.3888,1.4153-.787,2.1045-1.1761,4.5472-2.5666,8.8422-4.9908,12.2011-3.61,1.7234.7085,3.1557,2.3766,4.3756,5.0981.0549,1.211.7059,1.9352,1.4529,2.42ZM104.1776,21.4437c-1.8934,1.2869-5.7607,2.6081-9.5216,3.8928-3.864,1.3199-7.9732,2.7238-11.1077,4.4128,8.5096-5.7712,16.3249-9.4438,20.6293-8.3055ZM78.316,36.2608c-.9234,1.3718-3.3687,2.8679-5.7377,4.3175-4.0593,2.4839-8.644,5.2895-8.6872,9.0866-2.0815,2.468-4.7884,4.6585-7.6486,6.9731-2.8869,2.3364-5.8474,4.7321-8.2192,7.5072,1.2451-2.5339,4.098-6.4654,8.9513-11.6376,6.3384-6.7555,14.8073-14.2748,23.0049-20.2469-1.1842,1.1857-1.8251,2.5052-1.6635,4.0002ZM56.4081,87.1156c18.8964,7.768,37.5055,9.088,49.7799,3.5302l.0539-.0244.0497-.0314c6.1009-3.8747,17.4816-11.9081,25.1533-22.1754,6.8574-9.1783,9.0189-17.7953,6.4622-25.6931,5.6635,6.8802,8.0985,13.7497,7.2438,20.4721-2.3044,18.1268-27.308,32.817-47.3989,44.6201-5.3056,3.1174-10.3181,6.0623-14.4042,8.7848-2.2924,1.3582-4.4505,2.7216-6.5376,4.0396-9.0775,5.7336-16.9169,10.6854-29.2588,11.0029l-.0491.0029c-9.1127.7673-16.6547-.0444-22.4165-2.413-7.2836-2.9942-11.4206-8.3687-11.9632-15.5423-.9386-12.4097,9.1724-27.5866,24.6427-37.0724,4.9729,3.9007,11.404,7.5237,18.6428,10.4994Z"/>
  </g>
  <g>
    <path class="cls-1" d="M289.1481,73.8985c-15.9054,12.0965-48.8579,21.9617-68.3671,12.4777-15.2679-10.2718-40.4133-32.5611-27.6714-52.4553-37.5005,35.5111,23.6701,62.5787,48.9834,80.4598,12.1372,7.6295,20.3852,15.3192,35.8117,16.124,48.2539,5.3511,43.5574-36.0216,11.2434-56.6062Z"/>
    <path class="cls-1" d="M198.1339,29.3975c-12.5395,18.672.7754,35.7926,16.2454,48.1598,21.2419,17.7144,51.3293,8.4273,72.2848-5.6384.303-2.4842-1.5285-4.9242-4.0639-3.8221,1.0654,4.6755-2.6515,1.6539-3.0444,1.6982-2.529.285-7.1717,4.2114-10.2907,4.4707-21.4513,8.1293-49.8141,5.6376-63.7479-14.2702-2.0909-.1491-4.1751-.2687-1.9393-2.9351-2.3269-8.1557-7.4135-18.5186-.6523-26.1415-1.1483-1.1796-3.2371-4.2635-4.7917-1.5214Z"/>
    <path class="cls-1" d="M262.4505,73.0102c-10.8759-18.6436-31.778-30.889-30.1516,1.0439,8.6541,3.6356,21.2239,1.4349,30.1516-1.0439Z"/>
    <path class="cls-1" d="M229.4051,72.9293c-.9052-13.7078,7.3522-30.126,16.018-39.6618-9.6011-12.9056-24.8291,27.1108-24.6785,35.437.9962.5277,7.0877,5.1009,8.6604,4.2249Z"/>
    <path class="cls-1" d="M204.6799,49.8735c8.9954-6.8042,20.6903.2891,24.4637-12.3181-11.7708-3.5542-33.682-8.5548-24.4637,12.3181Z"/>
    <path class="cls-1" d="M251.1151,54.7679l14.7833,17.2299,11.9366-4.8439c-6.6947-9.5579-14.7288-14.7614-26.7198-12.386Z"/>
    <path class="cls-1" d="M222.709,17.7042c3.4085,4.5439,27.7233,8.4115,26.1291,15.9571,2.1421,4.1253,14.5888,8.1113,14.0892,13.8988,4.8115,6.1857,13.4504,10.8635,17.6393,17.9527,3.846-7.0387-45.2776-54.7137-57.8575-47.8085Z"/>
    <path class="cls-1" d="M191.8264,30.5467c4.3956-4.0038,12.54-8.0069,13.7659.8116,33.4223-15.8764-4.0098-22.2202-13.7659-.8116Z"/>
    <path class="cls-1" d="M217.0416,28.3222c-.0659,2.5555-3.4307,2.202-3.8395,3.4435,10.7535-.8843,16.7299,7.4405,24.5988-3.3053-7.9787-4.5123-15.6163-11.0393-20.7593-.1382Z"/>
    <path class="cls-1" d="M238.8464,48.082c-.2334.3384-1.5962,4.0474-1.3516,4.156l25.6963-.4164c-4.7262-8.6769-17.3707-5.8182-24.3447-3.7397Z"/>
    <path class="cls-1" d="M223.1505,47.8037c-4.5826.3687-22.2401,1.4567-15.5383,8.4101,5.9176-1.7372,16.208.2778,15.5383-8.4101Z"/>
    <path class="cls-1" d="M208.6394,58.8227c-.5673,1.3759,7.3368,7.3217,8.8796,8.1633l2.4242-10.2596-11.3038,2.0963Z"/>
    <path class="cls-1" d="M240.8943,43.8083c3.6625.8131,9.9004-1.3166,14.6125-.6186-8.2098-7.3524-7.2035-9.7549-14.6125.6186Z"/>
    <path class="cls-2" d="M189.4945,81.3466c6.4419,4.5861,12.7699,9.6006,19.4686,14.9088,25.8055,20.4494,52.4902,41.5952,85.8826,37.7141l.0371-.004.0369-.0079c3.1539-.656,6.0429-1.4792,8.5862-2.4468,9.1165-3.4684,14.3118-8.9234,15.4426-16.2138,2.33-15.0225-13.6145-35.384-29.4359-47.9702-3.3382-3.7784-6.7051-7.9495-10.2694-12.3649-15.9575-19.7683-34.0415-42.1688-59.349-41.133-4.5884-1.514-9.3562-1.3529-14.1744.4802-6.6441,2.5278-13.1117,8.2256-18.2116,16.0438-4.9476,7.5844-8.1139,16.3237-8.9156,24.6083-1.1527,11.9128,2.7189,21.2821,10.902,26.3853ZM261.7257,72.323c-7.296,1.9397-19.5944,4.2793-28.0507.9855-.4451-10.2013,1.4402-16.3952,5.4622-17.9253,5.5896-2.1266,15.5822,5.4223,22.5885,16.9398ZM219.3921,57.62l-1.8583,7.8654c-2.1789-1.4797-6.1306-4.6856-7.2368-6.1786l9.0951-1.6867ZM207.5482,52.906c.1814-.8077,1.1954-1.5839,2.9332-2.245,3.661-1.3928,9.4483-1.8812,12.4212-2.1174-.0373,2.3601-1.0939,3.8201-3.3497,4.6784-1.7412.6624-3.9955.902-6.1756,1.134-1.6803.1791-3.4122.3634-4.9273.7451-.734-.8547-1.0368-1.5918-.9018-2.195ZM204.3473,38.67c.5595-1.3393,1.6093-2.2866,3.2095-2.8954,3.9756-1.5125,11.0671-.782,21.0872,2.1717-1.1039,3.1423-2.8271,5.0213-5.5089,6.042l-.0008.0003c-1.8749.7133-4.0448.9559-6.3428,1.2134-2.6255.2935-5.3405.5974-8.0267,1.6194-1.1423.4346-2.1834.9623-3.158,1.6011-1.7563-4.2693-2.1804-7.547-1.2595-9.7524ZM240.3383,31.6803c1.6857-.6413,3.1786-.1877,4.5476,1.3874-8.1671,9.2487-16.3656,25.0537-15.7982,38.9546-.8013-.1715-2.5642-1.0107-6.3128-3.5263-.241-.1619-.4499-.3017-.6238-.4163.1387-3.2672,2.3-11.0856,5.9016-19.2654,4.1879-9.5119,8.666-15.7569,12.2856-17.134ZM239.999,48.6159c11.2056-3.2797,18.674-2.5307,22.2376,2.2231-4.7205.0768-19.1942.3112-23.1736.3758.255-.8287.695-2.0379.936-2.599ZM266.7046,70.8258l-13.4295-15.6522c9.5911-1.4495,17.0179,2.1236,23.82,11.436l-10.3905,4.2162ZM248.227,42.5471c-1.9186.2527-3.7565.4948-5.2644.4333,2.1569-2.9954,3.702-4.962,4.8144-5.3852.9798-.3728,1.9866.5567,4.3723,2.8832.4971.4846,1.0293,1.0037,1.6168,1.561-1.8041.0152-3.693.2641-5.5392.5076ZM283.1203,71.2778c1.1526-.4385,1.1529-1.8028,1.0112-2.7635.4757-.0665.9065.049,1.2857.346.6386.5001,1.0195,1.4413,1.0012,2.4208-6.2502,4.1606-13.0267,7.68-19.6225,10.1894-9.4173,3.5828-18.3888,5.1747-26.6649,4.7308-9.4394-.5062-17.7343-3.6872-24.654-9.4553-20.6049-16.4693-26.0118-32.2944-16.0846-47.0467.2333-.3691.4626-.6024.6592-.6771.5782-.22,1.5902.925,2.2597,1.6827.0204.0225.0406.0455.0606.0682-5.3763,6.6973-2.6664,15.0377-.2677,22.4206.3984,1.2258.7768,2.3912,1.1097,3.5209-.6008.8006-1.1143,1.7592-.7298,2.6385.4483,1.0239,1.7756,1.1953,3.1427,1.2884,6.6283,9.2671,16.7701,15.3714,29.357,17.6617,11.3348,2.0626,23.7721.8616,35.0348-3.3807.5802-.0615,1.217-.2266,1.942-.5024,1.3097-.4983,2.6916-1.2775,4.0283-2.0313,1.1927-.6722,2.3188-1.3072,3.2542-1.6631.3008-.1144.5671-.1938.7948-.2366.0757.0387.1722.0906.2511.133.7516.4041,1.8877,1.015,2.8315.6559ZM205.977,19.0084c5.0317-1.9143,11.7284-2.1534,12.8206.4073.7692,1.8028-1.958,5.6166-12.0151,10.543-.4639-2.008-1.3659-3.4195-2.6895-4.2029-1.5383-.9106-3.6081-.9136-5.9865-.0087-.9492.3611-1.9501.8687-2.9438,1.4849,3.3982-4.8034,8.0431-7.1693,10.8144-8.2236ZM218.4346,28.3633c1.2916-2.6882,2.7675-4.3178,4.5091-4.9804,3.3943-1.2914,7.6236,1.2458,12.1012,3.9319.6787.4072,1.3737.824,2.0727,1.2315-1.6082,2.0243-3.2106,3.3226-4.8793,3.9579l-.0011.0004c-2.644,1.0059-5.3548.3133-8.4939-.4883-2.0534-.5247-4.3015-1.0989-6.8252-1.2723.7597-.4649,1.4295-1.1716,1.5165-2.3807ZM245.2213,26.691c-3.0887-1.7713-7.1592-3.2836-10.987-4.7054-3.7256-1.3838-7.5565-2.807-9.4152-4.1436,4.333-1.0239,12.0484,2.8545,20.4021,8.849ZM248.7223,29.296c8.0366,6.1871,16.3034,13.9281,22.4606,20.849,4.7146,5.2989,7.4624,9.3046,8.6399,11.8706-2.2975-2.8369-5.1935-5.3102-8.0175-7.7222-2.7979-2.3895-5.4458-4.651-7.4612-7.1732.0574-3.7969-4.4514-6.7229-8.4435-9.3134-2.3298-1.5118-4.7346-3.0722-5.6214-4.4679.2011-1.4903-.4046-2.8263-1.557-4.0429ZM289.747,74.754c15.2136,9.8921,24.9192,25.3315,23.6522,37.712-.7325,7.1568-5.0104,12.4198-12.3707,15.2201-5.8226,2.2152-13.3834,2.8269-22.4726,1.8185l-.049-.0042c-12.3291-.6443-20.0347-5.8019-28.9571-11.774-2.0515-1.3729-4.1726-2.7929-6.4283-4.2114-4.0125-2.8297-8.9453-5.9063-14.1665-9.1632-19.7714-12.331-44.3771-27.6783-46.2006-45.8598-.6764-6.7427,1.9397-13.5453,7.7834-20.2731-2.7649,7.8274-.8324,16.4986,5.7795,25.8553,7.397,10.4669,18.561,18.7989,24.5572,22.8338l.0489.0327.0532.0258c12.1229,5.8809,30.7604,5.0542,49.8559-2.2106,7.3151-2.783,13.8399-6.2344,18.9144-10.002Z"/>
  </g>
</svg>