<?xml version="1.0" encoding="UTF-8"?>
<svg id="Layer_1" data-name="Layer 1" xmlns="http://www.w3.org/2000/svg" viewBox="0 0 332.826 143.9118">
  <defs>
    <style>
      .cls-1 {
        fill: #fff;
        stroke: #3fa9f5;
        stroke-miterlimit: 10;
        stroke-width: .2066px;
      }

      .cls-2 {
        fill: #3fa9f5;
      }
    </style>
  </defs>
  <path class="cls-2" d="M233.9984,31.7583c31.6967,33.8328,23.6552,5.7524,50.9373,31.1817,10.6692,15.5677,35.2203,25.414,35.7716,45.6261,9.273,30.4239-38.1651,35.9331-54.0817,22.2868-19.96-.835-33.2027-16.5387-46.3314-29.4606-15.4043-11.2827-59.3377-11.6589-45.0512-39.1373,13.8184-17.8706,35.0808-58.379,58.7555-30.4966ZM214.0827,39.4696c6.6307.7206,14.012,4.4085,19.5942,8.5823,4.5527,3.4055,10.9858,9.8216,15.9507,4.0754-4.6695-12.2752-55.7071-44.82-35.5449-12.6577ZM204.7076,31.8169c-9.7277,5.2689,3.3843,12.8829,6.733,17.2366,5.6352,1.6644,15.0655,15.2522,19.2093,9.6218-9.4055-7.9479-21.444-14.8514-25.9423-26.8584ZM227.497,71.3494c9.7509-7.7237,27.2512-8.2449,39.3218-10.5198.7431-.1183,7.5904-1.3798,7.48-1.7524-12.8374-15.4658-39.0758,3.8547-54.2328,8.371,0,0,7.4311,3.9016,7.431,3.9012ZM278.4084,61.8541c-15.9974,3.9511-33.2511,4.4331-48.511,11.5341,21.2932,17.1749,64.0824,61.6556,87.5661,32.7349-6.5666-18.2988-27.1031-29.4032-39.0551-44.2689ZM232.1357,56.4201c14.9396,2.8657-9.2166-11.6106-13.7226-12.4601,0,0,13.7228,12.4578,13.7226,12.4601ZM191.2139,46.3961c.0459.2621,2.5238,1.9148,1.3349,2.7444,6.4686,3.7028,18.3828,10.3861,24.6811,15.6699,17.2559-3.6936-12.2534-11.5492-20.1882-25.8972,0,0-5.8277,7.4829-5.8279,7.4829ZM182.5574,57.0925c9.75,9.4532,20.8025,19.628,33.1197,25.2965,16.8801,14.1201,35.7196,45.5441,62.1231,32.6275-31.8798-19.0899-56.235-48.4567-89.9807-64.7139-.118.377-5.9417,6.2925-5.2622,6.7899ZM179.5154,60.6594c-5.0688,8.6991,16.709,16.5647,22.9687,19.8544-5.8742-6.2581-17.0081-13.456-22.9687-19.8544ZM176.7067,68.8751c-1.483,7.1859,9.679,8.9946,14.3955,10.6328-5.0789-2.8032-10.4871-5.8047-14.3955-10.6328ZM183.7003,82.3569c3.7262,2.6791,6.0397,5.3564,10.7344,6.4393,31.2525.931,42.3345,35.8217,72.2977,38.5143,16.2858,5.3968,50.3397,14.5663,50.0056-12.7329-8.3273,4.3271-19.2614,3.2441-28.4863,2.8143-57.4944,16.5439-41.7527-23.1552-86.7046-33.5979-4.3376,1.108-12.5099-1.872-17.8468-1.437Z"/>
  <path class="cls-2" d="M156.7152,74.8795c2.8805-.8579,1.8368,1.8064.9856,3.0858-.3732,3.0992.9367,6.6056-.4266,10.121-10.4325,18.0586-34.538,9.5394-49.9627,18.4482-20.0688,24.228-114.3959,47.3553-101.2855-6.1481,4.6371-21.7415,35.0375-32.117,51.2403-46.301,15.7035-9.8826,21.5417,5.5108,35.9015-12.358,39.3675-30.6642,45.6179,1.81,63.5475,33.1521ZM84.6046,54.1089c3.6901,4.8453,9.1901,3.1694,13.6515-.4585,6.8382-3.5153,15.7867-7.6513,23.3404-6.959,24.9335-29.2967-30.9429-3.8657-36.9919,7.4175ZM132.5827,40.3474c-5.9885,10.269-21.1895,16.5717-30.0363,23.5679,7.2476,3.7826,24.8442-11.8529,31.96-16.2529,2.1064-1.3531-1.4444-5.8968-1.9237-7.315ZM99.705,66.1265c-10.8187-5.1685-30.0091-20.9224-40.5132-8.6781,11.186,4.6697,36.2401,9.6632,44.536,18.85,14.3003-3.8206,2.0979-4.936-4.0228-10.1718ZM9.7202,97.8133c2.5607-.0469.388,2.2954.6836,3.8836.9224,4.9565,15.7119,7.6212,19.9745,7.6792,27.4236.8106,48.2275-18.9289,70.7035-31.3962-13.9302-9.4873-31.0555-12.2343-46.3815-18.5262-14.2887,13.2661-35.127,20.9532-44.9801,38.3596ZM116.2607,50.5737c-4.6498.19-29.8455,11.0194-15.0375,10.2392.0003-.002,15.0375-10.2392,15.0375-10.2392ZM138.541,48.5804c-8.0041,8.2113-19.8085,12.9717-29.5481,18.8836,9.852,8.1064,21.2283-7.055,32.5892-8.0794-1.2517-1.2617,1.7076-2.2052,1.6799-2.6076l-4.7209-8.1967ZM113.5054,89.2509c9.3099-3.4703,30.9991-13.543,36.9362-21.4024-3.6448-19.9623-72.9386,30.5495-85.2284,36.527-7.9682,5.6048-26.4532,6.4057-7.9806,12.1764,22.3058,5.3063,39.4336-17.9266,56.2729-27.3011ZM127.1861,88.9682c5.814-1.166,33.2242-9.7765,24.7012-16.6182-7.2941,7.0177-17.3092,10.3884-24.7012,16.6182ZM139.8177,89.4051c4.5118-.834,15.406-1.2715,14.3453-8.2259-4.0651,4.0645-9.8833,5.9356-14.3453,8.2259ZM128.1053,92.226c-32.3308-.7363-52.2262,47.9778-85.1059,21.1055-10.8171-1.074-24.2825-.3136-33.3627-7.1115-5.5377,27.4969,32.5595,22.7409,49.1131,19.2386,26.0414,2.7482,40.1544-26.2894,66.0513-26.8997,7.2137-.8474,15.6213.6409,20.1709-5.8116-4.9853.5281-14.0612,1.137-16.8666-.5212Z"/>
  <g>
    <path class="cls-1" d="M317.4634,106.1231c-6.5718-18.3058-27.0989-29.3949-39.0528-44.2689-16.0018,3.9515-33.242,4.4308-48.5163,11.531,21.2199,17.1535,64.1484,61.6803,87.5691,32.7379Z"/>
    <path class="cls-1" d="M187.8196,50.3026c-.039.4706-5.9713,6.2432-5.2615,6.7895,9.7462,9.4514,20.8041,19.63,33.1204,25.2958,16.8794,14.1221,35.7173,45.5442,62.1221,32.6276-31.8782-19.0876-56.237-48.4572-89.9809-64.7129Z"/>
    <path class="cls-1" d="M201.547,83.794c-4.3396,1.1071-12.5077-1.871-17.8467-1.4373,3.7261,2.6794,6.0396,5.3567,10.7354,6.4367,31.2448.9309,42.339,35.8275,72.2962,38.5202,16.2748,5.394,50.3577,14.5643,50.0053-12.7369-8.3266,4.328-19.2607,3.2451-28.4854,2.8206-57.5589,16.527-41.7206-23.1592-86.7048-33.6032Z"/>
    <path class="cls-1" d="M249.6276,52.1273c-4.6629-12.2683-55.7093-44.824-35.5485-12.6567,6.6276.7159,14.0222,4.4124,19.597,8.5833,4.529,3.3933,11.0222,9.8358,15.9514,4.0734Z"/>
    <path class="cls-1" d="M220.066,67.4482l7.4311,3.9016c9.7367-7.7196,27.2655-8.2489,39.3216-10.5206.7432-.1178,7.5905-1.3794,7.4799-1.7492-12.8493-15.4658-39.056,3.8478-54.2326,8.3682Z"/>
    <path class="cls-1" d="M197.0418,38.9131l-5.8277,7.4829c.0854.2759,2.4847,1.9025,1.335,2.7437,6.507,3.7233,18.3461,10.3636,24.6793,15.6731,17.2654-3.6901-12.2223-11.5272-20.1866-25.8997Z"/>
    <path class="cls-1" d="M230.6499,58.6752c-9.4052-7.9482-21.4438-14.8505-25.944-26.8584-9.713,5.289,3.3655,12.8639,6.7366,17.2347,5.6689,1.6824,15.0145,15.2315,19.2075,9.6237Z"/>
    <path class="cls-1" d="M202.4841,80.5138c-5.8744-6.2581-17.0084-13.4564-22.9644-19.858-5.0607,8.7098,16.6816,16.5522,22.9644,19.858Z"/>
    <path class="cls-1" d="M218.4131,43.96l13.7228,12.4578c14.918,2.8595-9.1835-11.5927-13.7228-12.4578Z"/>
    <path class="cls-1" d="M191.1022,79.5079c-5.0789-2.8025-10.4881-5.8061-14.3948-10.6341-1.4885,7.1863,9.6877,8.9996,14.3948,10.6341Z"/>
  </g>
  <g>
    <path class="cls-1" d="M9.7202,97.8133c9.8573-17.4104,30.688-25.0887,44.9784-38.3598,15.3289,6.2914,32.4516,9.0398,46.3838,18.526-22.4691,12.4644-43.2872,32.2114-70.7043,31.3959-4.2624-.0573-19.0519-2.722-19.9743-7.6785-.2956-1.5882,1.8771-3.9305-.6836-3.8836Z"/>
    <path class="cls-1" d="M113.5054,89.2509c-16.8445,9.3776-33.9597,32.603-56.2722,27.3037-18.3977-5.777-.0717-6.5546,7.9809-12.1778,12.3102-5.9609,81.4243-56.4543,85.2258-36.5314-5.9464,7.8703-27.6202,17.9292-36.9344,21.4055Z"/>
    <path class="cls-1" d="M128.1053,92.226c2.8161,1.659,11.8438,1.0566,16.8655.5216-4.5802,6.4608-12.9584,4.9637-20.17,5.8101-25.8879.6083-40.0169,29.6519-66.0504,26.9025-16.5454,3.5069-54.6688,8.2516-49.1137-19.2412,9.0845,6.7996,22.5452,6.0376,33.3621,7.1173,32.9227,26.8585,52.7335-21.8361,85.1064-21.1104Z"/>
    <path class="cls-1" d="M84.6046,54.1089c6.0453-11.2804,61.9265-36.7159,36.9953-7.4156-7.5486-.6968-16.5135,3.4452-23.3434,6.9589-4.4359,3.615-9.9945,5.3144-13.6519.4567Z"/>
    <path class="cls-1" d="M99.705,66.1265c6.0799,5.2301,18.3663,6.3452,4.0225,10.1718-8.1904-9.141-33.4704-14.2249-44.5362-18.8499,10.4898-12.2478,29.7072,3.5122,40.5137,8.6781Z"/>
    <path class="cls-1" d="M138.541,48.5804l4.7209,8.1967c-6.5583,6.2918-19.5327,8.2709-28.0787,14.4089-16.447-5.3738,16.4795-12.1173,23.3578-22.6056Z"/>
    <path class="cls-1" d="M132.5827,40.3474c.4205,1.4837,4.0723,5.9149,1.9232,7.3128-7.115,4.399-24.6853,20.027-31.9577,16.2591,8.8478-7.0011,24.0446-13.3029,30.0345-23.5718Z"/>
    <path class="cls-1" d="M127.1861,88.9682c7.3939-6.2309,17.4053-9.5993,24.698-16.6194,8.5158,6.8454-18.854,15.4418-24.698,16.6194Z"/>
    <path class="cls-1" d="M116.2607,50.5737l-15.0372,10.2372c-14.7835.7757,10.3494-10.0352,15.0372-10.2372Z"/>
    <path class="cls-1" d="M139.8177,89.4051c4.461-2.2892,10.2821-4.1632,14.3441-8.2278,1.0647,6.9563-9.8382,7.3952-14.3441,8.2278Z"/>
  </g>
</svg>