<?xml version="1.0" encoding="UTF-8"?>
<svg id="Layer_1" data-name="Layer 1" xmlns="http://www.w3.org/2000/svg" viewBox="0 0 332.826 143.9118">
  <defs>
    <style>
      .cls-1 {
        fill: #fff;
      }

      .cls-2 {
        fill: #29abe2;
      }
    </style>
  </defs>
  <g>
    <path class="cls-1" d="M102.9367,88.3742c.1728.1932.7725.1323,1.0921.132.5256.6955-4.9918,4.1946-5.7469,4.6857-15.5745,10.1287-52.3658,26.079-70.3797,20.4578-10.8568-3.3878-9.9708-21.2512-8.6597-30.4705,4.3351-30.483,16.7318-48.1059,49.6358-45.3356,14.2192,1.1971,42.117,18.3262,43.9517,33.3072.993,8.1078-.4395,5.7534-4.9405,9.4843-1.3674,1.1334-6.6686,5.8201-4.9529,7.7391Z"/>
    <path class="cls-1" d="M117.97,73.2941c.1903-9.7062-7.4112-18.01-14.235-24.0782-7.1218-6.3332-15.8172-11.9753-25.0297-14.556,3.7023-3.9147,7.3552-8.1362,11.3884-11.7169,9.0248-8.0122,12.3106-10.0985,25.0153-9.1654,5.3453.3926,26.7733,5.7144,30.6797,8.5831,8.5558,6.2829,1.0524,21.7327-3.6133,28.5996-3.7824,5.5668-15.809,17.0243-21.3694,21.0597-.8513.6178-1.672,1.4223-2.836,1.274Z"/>
    <path class="cls-1" d="M106.3462,103.4728c-22.6505,20.2529-43.8177,32.8342-75.4826,23.0474-6.7936-2.0997-8.7015-5.6781-11.6833-11.7477,1.8848-.179,3.5696,1.8671,5.5204,2.7121,18.3986,7.9693,52.4571-6.9228,69.211-15.9974,9.5584-5.1772,14.6288-8.5883,21.4212-17.2084,5.7549-7.3034,14.0983-12.836,21.0076-19.5219,4.0068-3.8773,7.8862-7.7634,11.0766-12.3545.7927.56-.0407,2.138-.2974,2.8692-5.8474,16.6536-27.6698,36.4846-40.7734,48.2011Z"/>
    <path class="cls-1" d="M234.5468,89.6713c1.3178-3.4408.108-5.1114-2.2769-7.5041-4.5356-4.5503-8.4487-2.525-6.9953-10.8061,1.6554-9.4313,13.6028-19.7977,21.2917-24.9345,15.7318-10.51,43.2743-13.6893,57.6143.5597,11.3974,11.325,20.5894,47.3079,12.7647,61.5868-4.9524,9.0373-21.7887,6.3517-30.0274,4.4379-18.574-4.3147-36.3915-13.1968-52.3712-23.3397Z"/>
    <path class="cls-1" d="M250.5599,25.558c1.2996,1.2012,8.92,7.5186,8.6273,8.783-16.802,7.2413-36.9245,19.765-39.2687,39.5888-11.7498-10.8765-28.0413-21.9943-30.9462-39.0235-1.9004-11.1404,3.4757-13.5027,12.7017-16.2736,9.2756-2.7857,26.9437-7.087,36.0106-3.941,2.6102.9057,10.3968,8.5756,12.8751,10.8662Z"/>
    <path class="cls-1" d="M318.7096,114.4601c-1.6901,6.7327-5.8298,10.7142-12.53,12.4778-29.7741,7.8371-49.8598-1.7396-71.6979-21.0183-13.9469-12.3123-31.4724-28.191-40.3956-44.4629-1.6442-2.9983-3.0696-6.3728-3.9183-9.6906,5.3299,6.2732,10.9805,12.4922,17.0833,18.0568,3.7416,3.4116,10.7304,7.8823,13.6551,11.0425,1.3459,1.4542,2.0608,3.7704,3.4675,5.3983,12.5363,14.5064,41.0026,26.5302,59.5035,31.0545,11.3864,2.7844,24.8375,4.5792,34.8324-2.8581Z"/>
  </g>
  <g>
    <path class="cls-2" d="M106.7135,8.8845c9.3238-1.0089,25.0429,3.0417,34.2049,5.951,8.3387,2.6478,13.9686,6.6349,14.1001,16.3361.0732,5.3948-.5798,14.7083-1.5971,19.9879-3.2654,16.9458-20.7194,34.6402-32.946,46.213-26.5731,25.1524-49.3009,44.3598-88.4895,33.9946-8.484-2.244-14.9781-8.4607-16.1989-17.3951-.3161-2.3137.56-3.5854.5229-5.505-.1005-5.2074-2.858-10.6754-2.581-17.1559.807-18.8791,9.0698-40.7677,23.5159-53.1049,9.3039-7.9457,26.0263-5.0395,37.2989-5.0977,8.6057-9.0689,19.0026-22.7993,32.1697-24.2241ZM118.2456,73.2884c1.164.1483,1.9847-.6562,2.836-1.274,5.5604-4.0354,17.587-15.4929,21.3694-21.0597,4.6657-6.8669,12.1692-22.3167,3.6133-28.5996-3.9065-2.8687-25.3344-8.1905-30.6797-8.5831-12.7047-.9331-15.9904,1.1532-25.0153,9.1654-4.0332,3.5807-7.6861,7.8022-11.3884,11.7169,9.2125,2.5807,17.9079,8.2228,25.0297,14.556,6.8238,6.0682,14.4253,14.372,14.235,24.0782ZM103.2123,88.3685c-1.7157-1.919,3.5855-6.6057,4.9529-7.7391,4.501-3.7308,5.9334-1.3764,4.9405-9.4843-1.8347-14.981-29.7326-32.1101-43.9517-33.3072-32.904-2.7703-45.3007,14.8526-49.6358,45.3356-1.3111,9.2193-2.1971,27.0827,8.6597,30.4705,18.0139,5.6212,54.8052-10.3292,70.3797-20.4578.7551-.4911,6.2725-3.9902,5.7469-4.6857-.3196.0002-.9193.0612-1.0921-.132ZM106.6218,103.4671c13.1036-11.7166,34.9259-31.5475,40.7734-48.2011.2567-.7312,1.09-2.3092.2974-2.8692-3.1903,4.5911-7.0698,8.4772-11.0766,12.3545-6.9092,6.6858-15.2527,12.2185-21.0076,19.5219-6.7925,8.6201-11.8629,12.0312-21.4212,17.2084-16.7538,9.0746-50.8123,23.9667-69.211,15.9974-1.9508-.845-3.6356-2.8911-5.5204-2.7121,2.9818,6.0697,4.8897,9.648,11.6833,11.7477,31.665,9.7868,52.8322-2.7945,75.4826-23.0474Z"/>
    <path class="cls-2" d="M225.5319,103.4237c-17.684-15.9747-39.481-34.6463-41.4195-60.2207-.6581-8.6829-1.4298-21.526,7.5605-25.9868,7.8061-3.8733,31.0942-9.181,39.6003-8.509,14.2985,1.1296,23.7118,15.7894,33.7158,24.5987,10.4659-.4484,24.7644-2.4909,34.0726,3.2375,2.2536,1.3869,8.8724,7.936,10.7552,10.1428,9.9761,11.6928,16.1703,37.1893,14.8969,52.2756-.2423,2.871-1.5639,5.1896-1.8703,7.6288-.4657,3.7079.4319,6.8834-.653,10.7459-3.8822,13.8214-19.1758,15.4794-31.3894,16.7392-27.4425,2.8307-46.4716-13.6715-65.2691-30.652ZM250.8355,25.5523c-2.4784-2.2907-10.2649-9.9605-12.8751-10.8662-9.0669-3.1461-26.735,1.1553-36.0106,3.941-9.226,2.7708-14.6021,5.1332-12.7017,16.2736,2.9049,17.0292,19.1964,28.147,30.9462,39.0235,2.3442-19.8238,22.4667-32.3476,39.2687-39.5888.2927-1.2644-7.3277-7.5818-8.6273-8.783ZM234.8223,89.6656c15.9797,10.1429,33.7972,19.025,52.3712,23.3397,8.2387,1.9138,25.075,4.5994,30.0274-4.4379,7.8248-14.2788-1.3673-50.2617-12.7647-61.5868-14.34-14.249-41.8825-11.0697-57.6143-.5597-7.6889,5.1368-19.6364,15.5032-21.2917,24.9345-1.4535,8.2811,2.4597,6.2558,6.9953,10.8061,2.3849,2.3926,3.5947,4.0633,2.2769,7.5041ZM318.9852,114.4544c-9.995,7.4374-23.446,5.6426-34.8324,2.8581-18.5009-4.5242-46.9671-16.548-59.5035-31.0545-1.4068-1.6278-2.1217-3.9441-3.4675-5.3983-2.9247-3.1602-9.9135-7.6309-13.6551-11.0425-6.1028-5.5646-11.7535-11.7836-17.0833-18.0568.8487,3.3178,2.2741,6.6923,3.9183,9.6906,8.9232,16.2719,26.4488,32.1506,40.3956,44.4629,21.8381,19.2787,41.9239,28.8554,71.6979,21.0183,6.7002-1.7636,10.8399-5.7451,12.53-12.4778Z"/>
  </g>
</svg>