<?xml version="1.0" encoding="UTF-8"?>
<svg id="Layer_1" data-name="Layer 1" xmlns="http://www.w3.org/2000/svg" xmlns:xlink="http://www.w3.org/1999/xlink" viewBox="0 0 173.7045 83.7217">
  <defs>
    <style>
      .cls-1 {
        fill: none;
      }

      .cls-2 {
        fill: blue;
      }

      .cls-3 {
        fill: #3fa9f5;
      }

      .cls-4 {
        fill: #fff;
      }

      .cls-5 {
        fill: url(#New_Pattern);
      }
    </style>
    <pattern id="New_Pattern" data-name="New Pattern" x="0" y="0" width="10" height="10" patternTransform="translate(-860.659 -1406.999)" patternUnits="userSpaceOnUse" viewBox="0 0 10 10">
      <g>
        <rect class="cls-1" width="10" height="10"/>
        <rect class="cls-4" width="10" height="10"/>
        <circle class="cls-2" cx="5.0001" cy="4.9999" r="2.053"/>
      </g>
    </pattern>
  </defs>
  <g>
    <path class="cls-5" d="M60.046,18.9987l14.0946-.0015c3.5301,15.8279,7.4284,31.5736,11.6907,47.2202-9.8068-.4133-19.4665,2.0939-29.0541,4.1966-12.4549,2.7315-25.0535,4.8073-37.7263,6.2159-1.3274-6.9559.403-14.1386,2.8347-20.7894,3.1938-8.7353,8.1985-17.5876,16.6595-21.45,5.5706-2.543,11.9141-2.5826,18.0377-2.5769,1.8299.0017,3.8081.0514,5.257,1.1692-1.253-4.2014-2.0758-8.5309-2.4515-12.899"/>
    <path class="cls-3" d="M60.046,20.7692c4.6982-.0005,9.3964-.001,14.0946-.0015l-1.7072-1.2998c3.5339,15.8276,7.432,31.5721,11.6907,47.2202l1.7072-2.2411c-8.7167-.3251-17.2929,1.5265-25.7487,3.4191-8.6,1.9249-17.2373,3.6359-25.9474,4.9868-5.0134.7775-10.0426,1.4427-15.0844,2.0066l1.7072,1.2998c-.8956-4.9424-.1681-9.9823,1.1797-14.772,1.1956-4.2489,2.7823-8.4362,4.8485-12.341,1.898-3.5869,4.2318-6.9518,7.2877-9.6508,3.2886-2.9044,7.2869-4.5412,11.5897-5.2501,2.5866-.4261,5.2265-.5156,7.8435-.5491,2.3489-.0301,5.4073-.5115,7.4389.9151,1.2872.9039,3.0155-.5903,2.6008-1.9994-1.1952-4.0617-2.0099-8.2105-2.3883-12.4283-.2019-2.2515-3.7448-2.2728-3.541,0,.4065,4.5325,1.2299,9.0033,2.5147,13.3697l2.6008-1.9994c-2.0573-1.4447-4.6159-1.4135-7.0268-1.4111-2.6398.0026-5.2848.0314-7.9142.2884-4.9932.488-9.8808,1.8056-13.9914,4.7814-7.632,5.5251-11.8928,14.5752-14.6757,23.3278-1.9205,6.0401-2.922,12.3668-1.7816,18.6602.1248.6886.9937,1.3796,1.7072,1.2998,8.7678-.9806,17.5023-2.2573,26.1791-3.8552,8.6232-1.588,17.1213-3.7925,25.7489-5.3399,4.9062-.8799,9.8633-1.4035,14.8524-1.2174,1.1597.0433,2-1.1654,1.7072-2.2411-4.2588-15.6481-8.1568-31.3927-11.6907-47.2202-.1682-.7531-.958-1.2999-1.7072-1.2998-4.6982.0005-9.3964.001-14.0946.0015-2.2784.0002-2.2822,3.5412,0,3.541h0Z"/>
  </g>
  <g>
    <path class="cls-5" d="M147.919,33.092c-7.3673-1.8021-14.6865-1.8748-22.1828-1.074-2.9653.3167-4.3505.0149-4.8075-3.1795-.4413-3.0843.2204-6.5153,1.3959-9.3666.9189-2.2289,2.2629-4.3461,2.5272-6.7425.0426-.3862.0432-.8164-.2074-1.1133-.2806-.3324-.7678-.3769-1.2024-.3966-5.2502-.239-10.5004-.4779-15.7506-.7169-.109,7.5973-.1599,15.1954-.1527,22.7935.003,3.1176-.7514,7.3357.0194,10.3461.681,2.6599,3.5485,2.8985,5.9249,3.5951,13.8412,4.0573,28.1603,6.9218,42.6342,6.9026,1.1542-4.9861.7671-10.3179-1.0952-15.085-.5811-1.4875-1.3341-2.9626-2.5527-3.9947-1.2728-1.078-2.9299-1.5717-4.5501-1.9681Z"/>
    <path class="cls-3" d="M148.3897,31.3848c-4.6171-1.1065-9.3596-1.6286-14.106-1.6249-2.3751.0019-4.7493.1283-7.1141.3452-1.0143.093-3.1019.5715-3.8828.1093-.7444-.4406-.7418-2.7498-.7194-3.7398.0488-2.1619.5662-4.3211,1.3799-6.3206,1.0455-2.5693,5.3444-9.6319.2972-10.6182-1.2883-.2518-2.6937-.1729-4.0018-.2324l-4.1838-.1904c-2.7892-.127-5.5784-.2539-8.3675-.3809-.9661-.044-1.7574.847-1.7705,1.7705-.089,6.2761-.1404,12.5526-.1512,18.8293-.0047,2.7215-.0428,5.4122-.2179,8.1279-.1515,2.3481-.3711,5.0319.5133,7.2693.8243,2.0855,2.7574,3.0758,4.809,3.6514,2.5414.713,5.0869,1.4246,7.6381,2.1031,5.7546,1.5305,11.5769,2.8193,17.4594,3.7509,6.6658,1.0556,13.3943,1.6702,20.1456,1.676.7443.0006,1.5402-.5471,1.7072-1.2998,1.0494-4.728.9383-9.6828-.4993-14.3219-.6538-2.1098-1.5134-4.2838-3.0321-5.9295-1.5501-1.6797-3.7449-2.4348-5.9032-2.9744-2.2111-.5527-3.1543,2.8612-.9413,3.4145,1.7084.4271,3.4648.9157,4.6001,2.3632,1.0909,1.3909,1.6598,3.2551,2.1139,4.9346,1.0226,3.7822,1.0958,7.7501.2474,11.5722l1.7072-1.2998c-11.2196-.0097-22.3286-1.7242-33.2029-4.4122-2.6966-.6666-5.3787-1.3906-8.0473-2.1614-1.0136-.2928-2.0362-.545-3.0515-.8298-.7249-.2034-1.5923-.4179-2.1265-.9898-.5234-.5603-.5881-1.4565-.652-2.1883-.1133-1.2971-.0482-2.6117.0296-3.9087.1514-2.5272.2402-5.0234.2429-7.5562.007-6.607.0589-13.214.1525-19.8203l-1.7705,1.7705c4.84.2203,9.6801.4406,14.5201.6609.0461.0021,1.4153.0913,1.4188.0738l-.5432-.3289-.0781.4148c-.102.1525-.1676.6715-.2106.8155-.3027,1.013-.7623,1.9617-1.2112,2.9155-.8959,1.9035-1.6864,3.836-2.1141,5.9037-.625,3.0217-1.2584,8.3396,1.7787,10.3838,1.0858.7308,2.431.828,3.7025.7459,2.2467-.145,4.4767-.4229,6.7297-.5065,5.3088-.197,10.5925.2083,15.7644,1.4478,2.2148.5308,3.1599-2.8828.9413-3.4145Z"/>
  </g>
</svg>