<?xml version="1.0" encoding="UTF-8"?>
<svg id="Layer_1" data-name="Layer 1" xmlns="http://www.w3.org/2000/svg" viewBox="0 0 332.826 143.9118">
  <defs>
    <style>
      .cls-1 {
        fill: #fff;
      }

      .cls-2 {
        fill: #29abe2;
      }
    </style>
  </defs>
  <g>
    <path class="cls-1" d="M123.7352,114.0182c-20.9776,13.3737,22.7343,22.7591,17.1365,1.3738-8.229-5.9186-3.6432-20.9787-3.1836-30.3352-3.6353-26.8861,17.7389-29.1184,24.4863-49.5878-.6595-9.3022-18.921-36.7388-31.1564-31.7795-25.3899,13.6326-41.7494,45.2485-65.9882,61.069C45.4196,82.0531-.8366,83.7428,3.2614,118.9697c5.3958,18.2754,24.8677,20.3391,41.2642,18.132,25.1503-1.8582,54.9195-3.3163,66.7973-28.841,13.8249-38.5612,10.211-22.9663,12.4124,5.7575ZM179.6947,31.4784"/>
    <path class="cls-1" d="M126.5177,11.9958c-2.2572,35.0034-19.987,32.3133-41.896,54.7892-15.2609,14.226-12.0665,16.6917-32.0986,12.9142,15.8443-12.8141,34.8475-22.861,47.8253-39.0773,8.4606-9.1846,14.7145-22.8461,26.1693-28.6262Z"/>
    <path class="cls-1" d="M74.1619,85.2872c11.7275-14.2241,29.427-28.1866,44.6703-39.0898-6.1919,20.2076-18.7549,47.9956-44.6703,39.0898Z"/>
    <path class="cls-1" d="M99.2934,117.4153c-22.7486,15.1219-59.2731,19.103-84.4692,10.8179,28.0755-1.4094,57.9334-.3996,84.4692-10.8179Z"/>
    <path class="cls-1" d="M134.0899,117.5137c3.5128,4.4182-6.2678,7.4621-7.9177,4.0868-2.4743-5.0618,4.4229-4.2552,7.9177-4.0868Z"/>
    <path class="cls-1" d="M292.7088,83.3036c13.0693-.5744,45.7162,27.2023,28.1216,38.23-30.3782.6747-74.9109,2.0055-95.5988-22.2564-3.0136-3.8243-15.1973-43.7725-18.8699-32.8718-4.7142,11.1869,3.6469,36.6623-1.3567,46.8009-4.3253-18.5774.5995-43.1463-9.8382-61.36-23.8903-10.598,6.0094-54.5573,6.1259-35.5087,9.0051,23.5373,10.0674,59.036,34.3983,73.1755,16.1461,5.091,45.7954,5.687,57.0179-6.2095Z"/>
    <path class="cls-1" d="M281.4473,80.4008c-17.6769,2.6172-16.1927,3.4575-29.3108-10.8271-11.346-9.6268-24.8516-23.853-38.3844-29.331-1.5878-1.3173-4.5441-23.6789-5.604-27.5497,10.6318,5.7902,16.3933,17.9486,24.452,26.8529,12.9352,17.4261,32.9904,26.9208,48.8471,40.8549Z"/>
    <path class="cls-1" d="M259.8033,85.9882c-30.068,16.3706-60.4728-61.8119-27.2361-25.4699,8.7908,7.9903,21.531,14.968,27.2361,25.4699Z"/>
    <path class="cls-1" d="M319.1394,127.8807c-8.5093,11.2478-73.2563,2.2818-83.7666-9.765,26.334,9.3827,56.1578,10.1768,83.7666,9.765Z"/>
    <path class="cls-1" d="M200.4721,117.4029l7.0148,1.0088c3.5489,8.1064-10.7365,6.3037-7.0148-1.0088Z"/>
  </g>
  <path class="cls-2" d="M123.7306,113.8985c-2.1609-28.9352,1.2944-44.0217-12.4166-5.757-11.8855,25.5331-41.6269,26.9684-66.7944,28.8439-16.2999,2.1507-35.9816.1957-41.261-18.1398-4.073-35.2515,42.1504-36.8841,61.7687-54.2023,24.2361-15.8261,40.5966-47.4397,65.9822-61.0751,12.2849-5.0278,30.4519,22.5428,31.1566,31.7779-6.7664,20.4982-28.0988,22.6845-24.4777,49.5935-.5018,9.3666-5.0375,24.3943,3.1807,30.3338,5.5371,21.3353-38.0659,12.0432-17.1385-1.375ZM41.3405,82.4937c-19.4524.0988-53.2608,43.4174-15.669,39.0767,32.7523-.6435,83.1503-.4299,90.2502-40.2404,4.6421-4.07,8.3088-26.3683,13.0432-13.1458,2.475,13.5971-4.4138,31.0982-.0035,44.3234,4.6637-18.7333.5754-40.6234,8.8548-59.5502,27.0505-17.4983-7.3347-54.2034-4.458-37.9861-10.7801,24.7222-9.4849,56.8956-33.8709,73.6581-16.3773,5.2229-47.0312,6.4817-58.1468-6.1358ZM126.5177,11.9958c-11.4629,5.7891-17.704,19.4365-26.1689,28.6267-12.9732,16.212-31.9882,26.2676-47.8267,39.0792,20.1105,3.7516,16.7382,1.3785,32.101-12.9197,21.9023-22.4567,39.6518-19.8173,41.8947-54.7862ZM74.1619,85.2872c25.9251,8.8994,38.4723-18.8784,44.6705-39.0887-15.2234,10.884-32.9632,24.8816-44.6705,39.0887ZM99.2934,117.4153c-26.5364,10.4183-56.393,9.4084-84.4693,10.8108,25.2016,8.29,61.7072,4.3147,84.4693-10.8108ZM134.0899,117.5137c-3.4948-.1684-10.3919-.975-7.9177,4.0868,1.6498,3.3753,11.4305.3314,7.9177-4.0868Z"/>
  <path class="cls-2" d="M324.2498,128.7889c-15.4994,20.2769-74.4625,5.9217-93.0492-6.8544-8.8744-12.1517-12.408-27.6305-19.9162-40.835-.9769,11.1664,2.9902,22.5434-1.053,33.5069,5.8304.8651,7.6187,7.9093,3.155,11.8837-9.5786,8.0694-29.5813-5.6483-16.073-15.3763,5.1652-58.3091-11.5596-46.1087-17.6331-79.7542,17.0304-61.0727,49.9377-1.4239,73.4763,20.4442,17.0612,25.5206,103.6363,37.4258,71.0932,76.985ZM292.7088,83.3036c-11.2026,11.8944-40.8859,11.3048-57.0167,6.2098-24.343-14.1646-25.3792-49.6076-34.4022-73.1731-.1275-19.0951-30.0013,24.9421-6.1199,35.5035,10.4317,18.2065,5.5088,42.7955,9.831,61.362,5.0292-10.1845-3.3602-35.5769,1.3616-46.7987,3.603-10.9578,15.8829,29.0331,18.8724,32.8632,20.7336,24.2927,65.1462,22.9154,95.5907,22.268,17.6811-11.0093-15.1367-38.8291-28.1168-38.2348ZM281.4473,80.4008c-15.8498-13.9282-35.9179-23.4346-48.8461-40.856-8.0585-8.9022-13.8241-21.0647-24.4524-26.8526,1.0593,3.8717,4.0156,26.2332,5.6032,27.5508,13.5272,5.4738,27.0436,19.708,38.3844,29.3334,12.9956,14.2013,11.744,13.4702,29.311,10.8244ZM259.8033,85.9882c-5.7117-10.5078-18.4397-17.4742-27.2339-25.4675-33.2403-36.3461-2.8328,41.8396,27.2339,25.4675ZM200.4721,117.4029c-3.7217,7.3125,10.5636,9.1152,7.0148,1.0088l-7.0148-1.0088ZM319.1394,127.8807c-27.6105.4112-57.4291-.3815-83.7681-9.7645,10.2969,11.9664,75.2828,21.0512,83.7681,9.7645Z"/>
</svg>