<?xml version="1.0" encoding="UTF-8"?>
<svg id="Layer_1" data-name="Layer 1" xmlns="http://www.w3.org/2000/svg" viewBox="0 0 332.826 143.9118">
  <defs>
    <style>
      .cls-1 {
        fill: #fff;
      }

      .cls-2 {
        fill: #29abe2;
      }
    </style>
  </defs>
  <g>
    <path class="cls-2" d="M113.0641,10.4052c13.2515,2.1437,22.5185,4.3539,20.5105,19.7504,3.8699-3.6533,16.9873-2.3964,17.9358,3.3038,2.2929,20.9855,4.2183,49.1607-6.5215,67.5644.8382,4.4296.6313,12.0665-4.9262,14.8919,8.7754-.3636,14.0282,6.2754,5.2317,11.7252-4.6866,2.3317-15.5442,1.5153-21.3015,2.0968-31.4194,4.3709-62.238,11.0665-94.2152,8.8534-19.4812,5.6524-29.3474-7.8457-19.0606-24.5692-11.4281-19.1762,12.2358-44.5546,28.8076-53.4392,1.5737-3.6621,3.2797-3.7908,6.6937-2.8713,3.7397-.2626,12.8617-3.75,15.6486-5.6997,29.1006-18.7722,3.7959-48.0335,51.1971-41.6065ZM126.1127,18.0807c-12.2718-3.4286-27.2611-5.4213-39.2498-1.1679,6.7496,4.5373,30.5908,4.2103,39.2498,1.1679ZM88.1843,54.3821c36.0087,23.8636-28.3672,39.1632-46.0989,44.414-10.5153,5.0036-16.518-5.7593-25.6913-8.089-13.3514,25.2368,25.2961,26.33,40.4611,20.2294,19.6093,3.6801,37.3919-7.4218,50.2873-21.1813,38.278-14.8947,18.3708-.608,21.5747-42.6722.5713-43.5187,5.9131-12.2461-41.9758-24.3934.1934,19.4059-20.7327,26.6141,1.4429,31.6926ZM146.9969,34.3191c-4.1225-1.445-7.1269-.4553-10.9632,1.0493,2.1589.1478,11.127,1.9426,10.9632-1.0493ZM137.9014,81.1581c17.6949-1.6578,9.6593-28.7724,10.2485-41.0263-1.2211,1.7873-12.8152,1.0262-14.8213.9634,1.7883,12.8143-2.3569,28.9769,4.5728,40.0629ZM90.457,74.2792c13.5189-8.1594-13.4093-23.66-21.1376-20.4118,8.1139,5.3381,15.6535,12.3853,21.1376,20.4118ZM81.6604,78.3114c12.4837-.7291-7.537-14.4053-11.2495-18.2569-3.6383-1.465-5.6834-6.1406-8.9148-1.8687,7.4751,3.9188,15.7075,14.0715,20.1643,20.1256ZM50.4769,62.138c6.6727,4.9837,12.4698,9.8847,17.9894,16.1575,3.1208,5.3943,4.1181,5.9554,9.265,2.7774-4.1913-6.5258-18.5985-25.7893-27.2545-18.9349ZM63.4461,87.2086s3.8871-2.1693,3.888-2.1695c-4.0127-2.1162-23.4041-29.4612-27.9245-17.6826,7.8346,5.9113,20.0148,10.5477,24.0365,19.8521ZM44.9493,76.2381c-4.3621-2.5108-11.0206-9.0613-14.0473-2.2942,10.1952,4.1308,17.1329,18.8172,28.6422,14.4587-1.9503-4.8145-10.4737-8.7379-14.5949-12.1645ZM47.2348,91.9934c-2.8729-2.6221-20.2818-19.1285-22.2515-12.7176,8.4859,2.0462,13.5891,13.7055,22.2515,12.7176ZM145.9126,83.8665l-7.1207,1.775c4.0957,12.945,4.6128,7.0526,7.1207-1.775ZM30.7694,88.5497c-2.528-1.5647-11.2592-7.5637-11.7322-2.3223,6.8163,4.2133,27.6084,13.8374,11.7322,2.3223ZM109.1708,104.5141c6.9626-.3118,10.3889,9.8301,17.6624,9.7801,21.1692,1.4198,16.1531-27.244-.5751-26.3205-1.4054.1116-13.5482,4.4216-14.6269,5.1578-17.426,27.08-61.9934,30.2623-90.6831,23.411,24.312,15.3426,65.2853-.2837,88.2228-12.0284ZM102.4653,120.412c6.491.5948,17.8947-2.1263,10.028-9.9528-16.3909,6.5935-34.9017,13.01-53.1148,15.2946,13.3923,3.158,29.0637-3.8689,43.0869-5.3418ZM115.5309,126.1666c19.179-3.065,33.7797-5.5295,4.9636-8.675-8.5063,12.1871-25.2129,7.0961-38.0149,11.3384,7.4743,3.8526,23.36-2.5427,33.0512-2.6633ZM50.9752,126.8557c1.4159,2.7586.4303,4.7982-2.5072,5.5966-5.8543-1.6582-35.0179,5.438-32.2177-7.9589.237-2.3939,2.6507-4.5547-.8207-5.5066-18.5059,26.776,41.1665,12.3957,54.2272,13.2222,11.107-1.5586-12.0841-1.165-12.0042-1.3509-2.6398-2.199-1.9449-5.423-6.6774-4.0024ZM47.7451,127.751c-.34-1.2877-23.0333-.4368-25.9768-4.744-1.4862,1.0328-.9775,2.93-1.0621,4.4705,8.5488-2.2605,20.1261,2.8696,27.0389.2735Z"/>
    <path class="cls-1" d="M86.7414,22.6895c.2423,19.2747-20.736,26.6356,1.4405,31.6923,35.9828,23.8796-28.3254,39.1414-46.0952,44.4159-10.4888,4.9859-16.5387-5.7495-25.6933-8.0924-13.3293,25.2338,25.2816,26.3351,40.4628,20.2322,19.6067,3.675,37.3943-7.4186,50.2861-21.1811,38.2561-14.8603,18.3811-.7015,21.5759-42.675.5803-43.5155,5.8884-12.2456-41.9767-24.392Z"/>
    <path class="cls-1" d="M20.9481,116.5425c24.3086,15.343,65.2865-.2838,88.222-12.027,6.9634-.3132,10.3897,9.8287,17.6638,9.7808,21.1277,1.4237,16.1881-27.245-.576-26.3242-1.4052.1134-13.548,4.4234-14.6255,5.16-17.4134,27.0753-62.0113,30.2657-90.6843,23.4105Z"/>
    <path class="cls-1" d="M133.3285,41.0952c1.7861,12.8034-2.3558,28.9873,4.5691,40.0618,17.7038-1.6681,9.6554-28.7526,10.255-41.0236-1.1788,1.8153-12.8698.9535-14.8242.9619Z"/>
    <path class="cls-1" d="M57.6525,130.8581c-2.6722-2.2075-1.8994-5.4199-6.6779-4.0013,1.4164,2.7574.4308,4.7971-2.5077,5.5939-5.8833-1.6679-34.9922,5.4483-32.2155-7.9559.2359-2.3953,2.6496-4.5561-.8225-5.5112-18.515,26.767,41.1372,12.4077,54.228,13.2287,10.999-1.5699-11.9415-1.158-12.0044-1.3543Z"/>
    <path class="cls-1" d="M77.7314,81.073c-4.1875-6.5232-18.5962-25.7877-27.2533-18.9367,6.6715,4.9854,12.4687,9.8865,17.9879,16.1605,3.0929,5.3689,4.1497,5.9634,9.2654,2.7763Z"/>
    <path class="cls-1" d="M59.5442,88.4027c-1.9423-4.8093-10.4796-8.7421-14.595-12.1658-4.3503-2.4985-11.0349-9.0704-14.045-2.2938,10.1906,4.1308,17.132,18.8186,28.64,14.4596Z"/>
    <path class="cls-1" d="M82.4797,128.8299c7.484,3.8521,23.3505-2.5426,33.0522-2.661,19.1253-3.0652,33.8433-5.5256,4.9598-8.6795-8.4932,12.1843-25.2189,7.102-38.012,11.3405Z"/>
    <path class="cls-1" d="M69.3194,53.8674c8.12,5.3432,15.6476,12.3796,21.1363,20.4117,13.5193-8.1543-13.402-23.6606-21.1363-20.4117Z"/>
    <path class="cls-1" d="M86.8629,16.9128c6.7568,4.5356,30.5549,4.2126,39.2493,1.1733-12.2613-3.4337-27.2684-5.4269-39.2493-1.1733Z"/>
    <path class="cls-1" d="M39.4096,67.3564c7.8344,5.9118,20.0143,10.5465,24.0376,19.8512-.0011.0009,3.886-2.1683,3.886-2.1683-4.0676-2.1594-23.3645-29.4405-27.9236-17.6828Z"/>
    <path class="cls-1" d="M61.4961,58.1858c7.455,3.8974,15.7292,14.0972,20.1618,20.1262,12.4924-.7243-7.5369-14.4042-11.2451-18.2574-3.6242-1.4622-5.706-6.139-8.9167-1.8687Z"/>
    <path class="cls-1" d="M24.9833,79.2758c8.4892,2.0482,13.5853,13.7032,22.2503,12.7214.2384-.306-3.8727-3.7927-4.4557-4.2319-3.676-1.521-15.84-14.7461-17.7946-8.4895Z"/>
    <path class="cls-1" d="M19.0372,86.2274c6.8243,4.2164,27.6032,13.835,11.7347,2.3202-2.5305-1.5626-11.2617-7.5617-11.7347-2.3202Z"/>
    <path class="cls-1" d="M138.7919,85.6415c4.1086,12.9885,4.6175,7.002,7.1203-1.7755.0004.0005-7.1203,1.7755-7.1203,1.7755Z"/>
    <path class="cls-1" d="M136.0337,35.3684c2.1551.148,11.1303,1.9423,10.9639-1.0489-4.1232-1.4455-7.1276-.4558-10.9639,1.0489Z"/>
  </g>
  <g>
    <path class="cls-2" d="M190.8335,27.4546c4.7851-14.0783,27.4537-13.714,39.9568-14.8578,18.23.5128,13.3678,32.5867,36.9942,39.8675,1.356.4459,13.0405,3.075,13.7801,3.04,1.9189-.0908,2.4883-3.1518,5.399-.1854,16.2474,9.5858,38.796,24.1628,36.8585,45.4352,2.7096,2.4898-.6567,4.9853-1.2832,7.2676,8.6822,11.7304,7.5757,26.6395-10.1374,26.2401-34.4803,3.1184-68.4128,2.2481-103.0476.1964-6.1386.036-20.493,3.7008-23.7976-3.556-4.0447-8.2103,5.8894-5.5797,7.677-9.0669-8.2683-3.6317-2.9066-11.8882-7.8999-15.7408-8.8726-18.8662-11.8244-43.0334-11.0882-63.8813,4.146-15.1068,21.7039,2.5419,16.5882-14.7587ZM198.8672,24.2009c12.4114.695,26.9048-1.0582,38.2843-4.9736-10.1176-4.9048-29.3368-.7986-38.2843,4.9736ZM237.7967,24.6748c-68.1062,14.1138-31.6864-10.995-38.8199,64.3582,25.2498-7.3566,44.6642,29.6887,69.6563,20.7357,17.3246.5974,62.0102,4.6729,45.8647-25.0662-5.9896,1.6125-10.3129,9.7794-15.8347,11.0059-19.0542-.4156-51.7056-7.4873-67.1328-19.0926-8.1415-12.4707,10.9549-22.225,19.0916-26.6514-6.2457-7.3114-10.6729-15.8992-12.8252-25.2897ZM190.1034,42.7738c-2.4842-2.7305-8.332-2.5761-11.0514-.2668,3.5554,1.4173,7.3789.8214,11.0514.2668ZM193.2041,46.9417c-.9021.1261-14.708,2.0021-14.7702,1.1466-.4639,12.1631,1.4942,24.1685,4.3743,35.9496,20.0848,13.9532,9.8544-26.5527,10.3959-37.0962ZM258.3212,54.574c-7.0643-5.7009-34.6572,18.0557-18.8807,20.8006,5.493-7.2573,10.431-16.7927,18.8807-20.8006ZM266.3001,56.2117c-8.8041-1.2432-17.7991,14.3863-22.7909,20.5845-2.7139,2.3757,4.0702,2.1978,4.8775,2.7027,3.9646-9.3048,11.4287-15.858,17.9134-23.2871ZM278.3455,59.2841c-7.5593-5.7434-36.2007,25.7646-19.8355,23.5189,3.9337-7.1515,13.1908-17.5533,19.8355-23.5189ZM289.1114,62.5138c-7.252-3.6034-10.9124,3.9098-15.0686,9.2924-1.1568,1.3243-11.8661,12.1141-10.7137,13.2764,4.7733,1.9811,5.2212-2.7687,8.1051-5.4948,4.9921-6.299,15.0963-10.3401,17.6772-17.074ZM293.4364,67.2782c-2.8004.6955-22.3127,17.6573-22.1532,19.1173,4.5304,2.5817,9.2328,1.9165,11.6342-3.0175,2.6153-4.5001,22.3865-14.8763,10.519-16.0998ZM289.757,87.2895c2.5507-4.9407,16.5329-10.9344,13.1344-14.6839-2.6006,1.8296-17.7859,12.5932-18.26,17.0234,4.5128.9485,3.3585-.4761,5.1256-2.3395ZM192.1783,91.8081l-7.2557-1.0654,3.8022,9.9089c2.1862.355,3.2209-8.0002,3.4535-8.8435ZM293.2517,91.1759c5.581-.2105,14.928-7.0995,18.0304-11.5651-2.7418-3.964-17.1819,8.7312-18.0304,11.5651ZM313.1428,110.8106c-28.764,11.5094-72.5631,9.8762-93.8389-14.153-1.2732-.5318-11.8151-3.2481-13.0351-3.2855-1.8239-.0558-9.3249.7905-10.2641,2.0078-7.649,15.3252-4.6415,28.2734,15.0519,22.4771,5.2535-2.7596,5.5886-9.3164,12.5912-9.8224,22.6599,9.4905,68.7124,20.5684,89.4949,2.776ZM274.5405,123.9356c-17.3622-.9325-36.5925-2.4819-52.2848-10.4195-12.0145,10.7778,8.3774,10.457,16.0568,9.7998,11.1171.4427,26.6839,6.4079,36.228.6197ZM254.4799,129.6189c-13.3192-3.1185-31.6417,4.3101-40.5816-8.0006-6.5519,2.9112-13.9759,2.9344-20.635,5.7221,19.096,1.2853,43.0948,6.8389,61.2166,2.2784ZM261.825,131.3043c19.2004-.1248,43.1949,1.1546,60.6446-4.8214,1.3448-1.8716-2.6402-17.3495-6.0906-11.8948,9.5395,17.3646-22.7291,13.9201-31.9808,14.4741-2.6246-2.7324,1.2233-5.8676-4.3679-4.9696-.9394,8.9877-13.5393,4.2073-18.2054,7.2116ZM292.7404,124.3087c1.4632-1.0199,28.1126-.6638,19.6456-6.3027-4.608,2.5373-14.2476,5.2055-19.6456,6.3027Z"/>
    <path class="cls-1" d="M237.7967,24.6748c2.1523,9.3905,6.5795,17.9782,12.8244,25.288-8.1308,4.4292-27.2395,14.1813-19.0897,26.6523,15.4373,11.6086,48.0649,18.6744,67.131,19.0955,5.5224-1.2287,9.8457-9.3956,15.8351-11.0058,16.125,29.7477-28.532,25.6441-45.8644,25.0609-24.9936,8.9515-44.4069-28.0856-69.6561-20.7355,7.1479-75.3516-29.3068-50.2353,38.8196-64.3553Z"/>
    <path class="cls-1" d="M313.1428,110.8106c-20.8059,17.7916-66.8138,6.7152-89.4938-2.7754-7.0037.5054-7.3388,7.0622-12.5948,9.822-19.5801,5.7966-22.7704-7.1366-15.0466-22.4774.9363-1.2172,8.4374-2.0636,10.2613-2.0077,1.22.0373,11.7618,2.7536,13.0337,3.2869,21.2775,24.0289,65.0771,25.6602,93.8403,14.1516Z"/>
    <path class="cls-1" d="M193.2041,46.9417c-.532,10.5209,9.6831,51.0608-10.3955,37.0984-2.8805-11.7833-4.8387-23.7887-4.3741-35.9514.6268-.3238,1.433.4754,1.6718.4464l13.0979-1.5934Z"/>
    <path class="cls-1" d="M261.825,131.3043c4.6601-2.999,17.2602,1.771,18.2044-7.2141,5.6325-.8909,1.7178,2.2366,4.3681,4.9705,9.2503-.5545,41.5159,2.8964,31.9806-14.4704,3.5284-5.4671,7.3438,10.0275,6.0917,11.8867-17.4678,5.9836-41.4244,4.7001-60.6448,4.8273Z"/>
    <path class="cls-1" d="M278.3455,59.2841c-6.6194,5.935-15.9264,16.4006-19.8328,23.5199-16.3623,2.2496,12.2572-29.2576,19.8328-23.5199Z"/>
    <path class="cls-1" d="M254.4799,129.6189c-18.1253,4.5602-42.1154-.9927-61.2166-2.2784,6.659-2.7877,14.0831-2.811,20.6361-5.7265,8.9302,12.3111,27.2682,4.8893,40.5805,8.0049Z"/>
    <path class="cls-1" d="M293.4364,67.2782c11.8719,1.2205-7.9048,11.5972-10.5165,16.1005-2.3912,4.9246-7.1233,5.6093-11.6373,3.016-.1589-1.4592,19.3534-18.421,22.1538-19.1165Z"/>
    <path class="cls-1" d="M258.3212,54.574c-8.4497,4.0078-13.3877,13.5432-18.8797,20.7997-15.7745-2.7385,11.8067-26.5002,18.8797-20.7997Z"/>
    <path class="cls-1" d="M198.8672,24.2009c8.9496-5.7721,28.1594-9.8778,38.2835-4.9779-11.3777,3.9197-25.8726,5.6729-38.2835,4.9779Z"/>
    <path class="cls-1" d="M289.1114,62.5138c-2.5778,6.7313-12.6874,10.777-17.6764,17.0753-2.8731,2.714-3.3489,7.4894-8.1058,5.4926-1.1524-1.1614,9.5569-11.9512,10.7138-13.2772,4.1563-5.3755,7.8189-12.9003,15.0684-9.2907Z"/>
    <path class="cls-1" d="M266.3001,56.2117c-6.4848,7.4291-13.9489,13.9823-17.9137,23.2867-.7796-.5622-7.6145-.2818-4.8758-2.7005,5.0075-6.2154,13.9668-21.8128,22.7895-20.5863Z"/>
    <path class="cls-1" d="M289.757,87.2895c-1.7671,1.8634-.6128,3.288-5.1244,2.3403.4274-4.3887,15.7057-15.2402,18.255-17.0259,3.413,3.7414-10.5852,9.749-13.1305,14.6856Z"/>
    <path class="cls-1" d="M293.2517,91.1759c.8362-2.8164,15.264-15.5224,18.0283-11.5682-3.1153,4.4785-12.4302,11.3463-18.0283,11.5682Z"/>
    <path class="cls-1" d="M192.1783,91.8081c-.2492.8727-1.255,9.1712-3.4527,8.8439-.0008-.0004-3.803-9.9093-3.803-9.9093l7.2557,1.0654Z"/>
    <path class="cls-1" d="M190.1034,42.7738c-3.6725.5546-7.496,1.1505-11.0514-.2668,2.7194-2.3094,8.5673-2.4637,11.0514.2668Z"/>
  </g>
</svg>