<?xml version="1.0" encoding="UTF-8"?>
<svg id="Layer_1" data-name="Layer 1" xmlns="http://www.w3.org/2000/svg" xmlns:xlink="http://www.w3.org/1999/xlink" viewBox="0 0 173.7045 237.4209">
  <defs>
    <style>
      .cls-1 {
        fill: none;
      }

      .cls-2 {
        fill: blue;
      }

      .cls-3 {
        fill: #3fa9f5;
      }

      .cls-4 {
        fill: #fff;
      }

      .cls-5 {
        fill: url(#New_Pattern);
      }
    </style>
    <pattern id="New_Pattern" data-name="New Pattern" x="0" y="0" width="10" height="10" patternTransform="translate(-1056.6663 -842.2743)" patternUnits="userSpaceOnUse" viewBox="0 0 10 10">
      <g>
        <rect class="cls-1" width="10" height="10"/>
        <rect class="cls-4" width="10" height="10"/>
        <circle class="cls-2" cx="5.0001" cy="4.9999" r="2.053"/>
      </g>
    </pattern>
  </defs>
  <path class="cls-5" d="M44.4377,13.5616c-9.859,33.8616-19.7181,67.7231-29.5771,101.5847-5.233,17.9732-10.4577,37.3509-4.4938,55.0889.8834,2.6276,2.0795,5.2764,4.2127,7.0184,6.3124,5.1546,15.5084-.496,21.1123-6.4319s12.8604-13.0193,20.5234-10.337c6.3607,2.2265,10.101,10.717,16.8269,10.4905,4.9311-.1661,8.1999-4.9985,11.1714-8.9889s7.9546-7.9406,12.3733-5.7168c4.0943,2.0605,4.8105,8.2363,8.9111,10.2838,6.2935,3.1424,11.7255-5.7892,18.2953-8.2846,6.647-2.5247,13.6551,1.9428,19.8027,5.5388,6.1477,3.596,14.7623,6.1609,19.6727.9671,4.4285-4.6842,2.6037-12.302.4986-18.4277-15.7995-45.9753-31.5989-91.9506-47.3984-137.9259-25.0278,2.2272-50.0557,4.4544-75.0835,6.6816"/>
  <path class="cls-3" d="M42.2956,12.9711c-5.5108,18.9273-11.0217,37.8547-16.5325,56.782-2.7438,9.4237-5.4876,18.8475-8.2314,28.2712-2.6648,9.1524-5.4798,18.277-7.8743,27.5049-2.3095,8.9005-4.1437,18.062-4.1667,27.2918-.0112,4.4911.4329,9.0095,1.4361,13.3904.9208,4.0211,2.1852,8.3645,4.9605,11.5254,5.582,6.3573,14.4963,3.4413,20.309-.88,3.2417-2.41,5.8274-5.417,8.7355-8.1895,2.6491-2.5256,5.6734-5.1183,9.26-6.1522,6.8864-1.9851,10.9831,4.7706,15.8321,8.2835,2.6953,1.9527,6.011,2.9347,9.3014,2.0704,3.5498-.9325,6.2011-3.7436,8.3809-6.5387,2.2721-2.9135,4.3243-6.2228,7.7762-7.8791,1.36-.6526,2.888-.862,4.2512-.12,1.1902.6478,1.9688,1.8576,2.6595,2.98,1.656,2.6913,3.1355,5.7762,6.1242,7.2267,3.0678,1.4888,6.2953.876,9.1562-.781,2.8463-1.6486,5.2177-3.99,7.9485-5.8092,1.3583-.9049,2.7576-1.6621,4.3633-2.0125,1.8895-.4123,3.8599-.1202,5.6931.4122,4.0606,1.1794,7.6089,3.5809,11.2547,5.6414,3.1441,1.777,6.6076,3.2036,10.1986,3.718,3.5552.5093,7.2962.1235,10.2461-2.0905,3.1041-2.3297,4.6075-5.8846,4.8122-9.6954.2018-3.7572-.7682-7.5679-1.9271-11.1108-1.4863-4.544-3.1015-9.0496-4.6553-13.571-6.4118-18.6578-12.8235-37.3156-19.2353-55.9733-6.3847-18.5791-12.7694-37.1581-19.1541-55.7372-1.5691-4.566-3.1382-9.1321-4.7074-13.6981-.296-.8612-1.1422-1.7199-2.1421-1.6309-19.4753,1.7331-38.9506,3.4662-58.4259,5.1992-5.5525.4941-11.1051.9882-16.6576,1.4823-1.195.1063-2.2214.9449-2.2214,2.2214,0,1.1192,1.0195,2.3284,2.2214,2.2214,19.4753-1.7331,38.9506-3.4662,58.4259-5.1992,5.5525-.4941,11.1051-.9882,16.6576-1.4823l-2.1421-1.6309c6.2494,18.1854,12.4989,36.3709,18.7483,54.5563s12.4989,36.3709,18.7483,54.5563c3.1382,9.1321,6.2765,18.2642,9.4147,27.3962,1.8315,5.3296,5.4755,14.9464-.8182,18.8277-2.5862,1.5949-5.8228,1.2939-8.6335.5373-3.5626-.959-6.6229-2.82-9.79-4.6465-3.6498-2.1049-7.5351-4.167-11.7613-4.7487-3.8966-.5363-7.5066.4565-10.7556,2.621-2.6467,1.7632-4.9565,4.0067-7.6832,5.6519-2.1203,1.2793-4.3684,1.8931-6.3211-.0048-2.1522-2.0918-3.1056-5.1549-5.1124-7.3954-2.4969-2.7877-6.3406-3.6496-9.8121-2.2786-3.7659,1.4873-6.4433,4.4688-8.7972,7.6467-1.8104,2.4442-3.8683,5.4982-6.8235,6.6431-2.5964,1.0059-5.069-.1762-7.0929-1.8239-2.4853-2.0234-4.6121-4.4392-7.24-6.296-2.9835-2.1081-6.4764-2.9434-10.0837-2.3434-3.7165.6181-7.0112,2.8279-9.8702,5.1664-5.6886,4.653-10.0148,11.4828-17.4579,13.5637-3.091.8642-6.2663.307-8.3079-2.3441-2.376-3.0854-3.2831-7.5256-3.9818-11.2636-1.5936-8.5259-.8479-17.3798.7585-25.8441,1.7028-8.9722,4.3635-17.7259,6.9134-26.4837,2.674-9.1842,5.3481-18.3683,8.0221-27.5525,5.3946-18.528,10.7891-37.0561,16.1837-55.5841l3.9064-13.4169c.8009-2.7506-3.4852-3.9252-4.2842-1.1811h0Z"/>
</svg>