<?xml version="1.0" encoding="UTF-8"?>
<svg id="Layer_1" data-name="Layer 1" xmlns="http://www.w3.org/2000/svg" xmlns:xlink="http://www.w3.org/1999/xlink" viewBox="0 0 173.7045 237.4209">
  <defs>
    <style>
      .cls-1 {
        fill: none;
      }

      .cls-2 {
        fill: blue;
      }

      .cls-3 {
        fill: #3fa9f5;
      }

      .cls-4 {
        fill: #fff;
      }

      .cls-5 {
        fill: url(#New_Pattern);
      }
    </style>
    <pattern id="New_Pattern" data-name="New Pattern" x="0" y="0" width="10" height="10" patternTransform="translate(-682.036 -842.2743)" patternUnits="userSpaceOnUse" viewBox="0 0 10 10">
      <g>
        <rect class="cls-1" width="10" height="10"/>
        <rect class="cls-4" width="10" height="10"/>
        <circle class="cls-2" cx="5.0001" cy="4.9999" r="2.053"/>
      </g>
    </pattern>
  </defs>
  <path class="cls-5" d="M20.5564,12.4867c-.2289,45.8782-.4577,91.7604.2625,137.6334.1998,12.7231.5049,25.6521,4.3079,37.7794,3.2893,10.489,9.1863,20.1272,16.9954,27.7776,3.812,3.7345,9.7496,7.1001,14.0739,3.9908,1.8779-1.3502,2.8687-3.6051,3.7743-5.7501,9.1078-21.5715,18.2157-43.143,27.3235-64.7144,2.0002-4.7374,5.2534-10.3029,10.3267-9.9418,3.9813.2834,6.6138,4.1786,8.6319,7.6672,10.9785,18.9779,21.9569,37.9557,32.9354,56.9336,3.2661,5.6459,7.8983,12.0633,14.3382,11.5574,7.6685-.6024,10.7862-10.1861,11.6867-17.9251,6.1634-52.9713-3.7937-106.5454-17.6494-158.0031-2.9355-10.9021-6.5947-22.5737-15.6284-29.202-7.4344-5.4548-17.1009-6.4069-26.2618-6.9945-21.0758-1.3518-42.2111-1.7511-63.3221-1.1965-9.5186.2501-22.1228,3.8161-21.8111,13.4579"/>
  <path class="cls-3" d="M18.335,12.4867c-.1393,27.9261-.2788,55.8526-.2039,83.7791.0374,13.9628.1282,27.9255.2994,41.8873.1626,13.2616-.1118,26.7122,2.083,39.8355,2.0257,12.1119,6.8521,23.4436,14.4859,33.0852,3.4885,4.4061,7.537,8.9458,12.8546,11.1026,2.4211.982,5.2094,1.3184,7.687.3382,2.757-1.0907,4.5164-3.4174,5.7224-6.0404,2.8502-6.1985,5.3352-12.5906,7.989-18.8759,2.6807-6.3491,5.3614-12.6981,8.042-19.0472,2.713-6.4255,5.4259-12.8511,8.1389-19.2766,1.3031-3.0864,2.5807-6.1852,3.911-9.2599.9245-2.1367,1.984-4.3596,3.5313-6.1232,1.2318-1.4039,2.8581-2.6704,4.8431-2.4009,2.239.304,3.8899,2.3352,5.0794,4.0819,1.7579,2.5813,3.2172,5.3836,4.7798,8.0848,1.7466,3.0192,3.4931,6.0384,5.2397,9.0576,6.9863,12.0768,13.9726,24.1537,20.9589,36.2305,2.8695,4.9604,5.5117,10.4223,9.6905,14.4503,3.5623,3.4337,8.5501,5.4261,13.3823,3.5121,4.4386-1.758,7.0121-5.9933,8.5775-10.296,1.8352-5.0446,2.2171-10.4985,2.7002-15.801,2.4413-26.7989.8542-53.799-3.0472-80.3807-1.9474-13.2684-4.4849-26.4457-7.4251-39.5284-2.8259-12.574-5.7988-25.2063-9.5174-37.5505-3.1-10.2905-7.7742-20.9223-17.4812-26.5466-5.1093-2.9604-10.9155-4.2609-16.7167-4.9971-6.3369-.8041-12.7626-1.0369-19.1382-1.3463-13.7602-.6677-27.5398-.931-41.3155-.7879-9.6733.1005-21.3076-.7035-29.5875,5.3665-3.4493,2.5286-5.6605,6.1547-5.5795,10.5169.053,2.8555,4.4961,2.8648,4.4429,0-.0674-3.6316,2.1365-6.1646,5.3272-7.9198,3.5733-1.9657,7.7938-2.8492,11.8277-3.1834,6.1285-.5077,12.3728-.3507,18.5186-.3712,6.6819-.0222,13.364.0512,20.0438.2196,6.7623.1705,13.5223.439,20.2768.8055,5.8866.3194,11.8547.5126,17.6733,1.5242,5.2752.9172,10.5698,2.5551,14.8306,5.9162,3.9912,3.1485,6.8084,7.4726,8.9392,12.0339,2.2024,4.7146,3.662,9.7552,5.0234,14.7645,1.6643,6.1239,3.2518,12.2696,4.772,18.4309,3.1558,12.7905,5.9849,25.6649,8.3155,38.6324,4.5873,25.5245,7.2038,51.479,6.4016,77.432-.1998,6.4641-.6117,12.9219-1.2553,19.3571-.4717,4.7161-.9515,9.6267-3.0331,13.9605-1.6297,3.3929-4.4621,6.6345-8.6086,6.0115-4.3695-.6565-7.4369-5.1139-9.5899-8.5639-3.4568-5.5392-6.5817-11.3096-9.8511-16.9613-3.41-5.8946-6.8199-11.7893-10.2299-17.6839-3.3684-5.8228-6.7368-11.6455-10.1052-17.4683-1.5892-2.7472-3.1072-5.553-4.7999-8.2381-1.3525-2.1453-2.9236-4.1867-5.0308-5.6383-4.4359-3.056-9.7478-1.2725-12.9075,2.6527-3.556,4.4175-5.3309,10.1448-7.5091,15.3038-5.2645,12.4686-10.5289,24.9372-15.7934,37.4059-2.6484,6.2725-5.2837,12.5507-7.9451,18.8177-.8587,2.0219-1.8073,4.6574-4.0148,5.5608-2.0417.8355-4.39-.0702-6.1875-1.0841-2.3919-1.3492-4.3262-3.2537-6.1873-5.2467-1.8574-1.989-3.592-4.0893-5.1741-6.3038-3.2741-4.5827-6.0094-9.5902-7.995-14.8638-4.4455-11.8067-5.1382-24.4763-5.3877-36.9641-.2708-13.5557-.3759-27.1165-.4585-40.6744-.1646-27.0117-.0884-54.0242.0349-81.0359.03-6.566.0627-13.1319.0955-19.6979.0143-2.8593-4.4286-2.8628-4.4429,0h0Z"/>
</svg>