<?xml version="1.0" encoding="UTF-8"?>
<svg id="Layer_1" data-name="Layer 1" xmlns="http://www.w3.org/2000/svg" viewBox="0 0 212.0882 279.3922">
  <defs>
    <style>
      .cls-1 {
        fill: #fff;
      }

      .cls-2 {
        fill: #29abe2;
      }
    </style>
  </defs>
  <path class="cls-2" d="M106.4455,74.3375c-1.0299-.2424-.9428.3948-1.144,1.1812-2.2221,8.6847-2.9571,18.1638-5.5603,26.5099-2.7926,8.9536-8.8254,6.1894-16.5986,6.4795-13.954.5209-28.3473.968-41.6401-4.0534-3.9078-1.4762-10.8944-4.368-11.5104-9.0024-.9465-7.1207,4.7203-19.8455,6.5905-27.0937,4.3565-16.8841,4.6432-36.562,10.0229-53.2281.305-.9449,2.6553-6.9111,2.978-7.2789.489-.5574.8384-.5435,1.504-.6329,3.7824-.5082,9.2327.1528,13.286.0375,6.6836-.1901,13.4195-.3611,20.0511-.4276,17.9791-.1802,35.904-2.2577,53.849-3.4541,2.1116-.1408,4.3044.1638,6.4227.0122,4.9223-.3523,16.0186-4.083,18.4666,2.0582,2.5428,6.3788,2.8197,19.0305,4.0277,26.3157,1.7042,10.2777,4.0886,20.4007,6.1606,30.5934,2.0368,10.0197,4.4981,20.093,5.3202,30.1519.4947,6.0531-.2593,8.5714-6.1705,10.4839-7.1223,2.3044-17.1575,2.3469-24.753,3.4536-6.7213.9793-18.2995,4.417-24.4086,3.786-6.5478-.6764-6.509-6.4684-8.4553-11.2042-.4971-1.2095-1.7676-2.4089-2.354-4.0565-1.947-5.4701-2.9716-12.1667-4.9109-17.7388-.345-.9911-1.0169-1.8333-1.1737-2.8924ZM159.3321,6.0707c-1.8437-1.4854-14.4705.9283-17.6261,1.1636-6.63.4944-13.4922.0242-20.1001.4138-2.2704.1339-4.7222.848-7.0299.8767-.2817,9.3383.1366,18.6211.4279,27.9845.0255.8205.4291,1.643.4406,2.5509.1015,8.0326.7264,16.8648-10.0135,15.5694-8.3606-1.0084-6.2012-8.2193-6.6758-14.2653-.3279-4.1773-1.1149-8.6327-1.2955-12.8078-.2486-5.7499.2226-11.5725.0153-17.3243l-46.1768.6287c-1.512.8839-3.478,12.3759-3.7746,14.7022,1.1237.2492,2.0427,1.1227,3.1816,1.3085,3.0541.4983,10.3856-2.4188,9.9329,2.6798-2.8238,8.8117-4.2244,18.4936-6.9706,27.2581-.6246,1.9934-.7554,4.0387-3.4396,2.5947l-.0769-2.6937,7.1533-27.2442c-3.517.3687-6.7164.8475-10.0325-.86l-.4419.4244c-.8491,5.5341-2.2615,10.9871-3.1498,16.5094-1.1583,7.2012-1.4935,14.4848-3.1684,21.6192-1.613,6.8708-4.5669,13.4864-5.8429,20.4087,3.3623.7617,6.4129,2.3597,9.7225,3.314,10.1222,2.9187,17.4166,2.7685,27.6505,3.5477,8.2221.626,14.6921,2.0111,23.32.6569.6254-.0982,2.2657-.442,2.5499-.9749l4.1771-20.9336c2.3497-3.539,5.918-3.5349,8.0189.2806l5.8283,20.0247c2.6891.4081.5953,2.2081,3.313,2.887,3.8478.9613,8.088-.6199,11.8285-1.0416,9.1153-1.0275,18.153-2.3206,27.1754-4.0227,2.7257-.5142,12.1914-2.0639,13.9839-3.1109,2.5716-1.5021,1.7303-5.5216,1.2612-8.0379-2.3067-12.3726-5.4029-24.7602-7.6931-37.181-.9401-5.0984-2.3439-10.1839-2.5751-15.3739l-.6113-.6523c-1.9156.8503-10.2478,1.378-10.823,3.2276.729,4.7677,1.3054,9.6007,2.2122,14.3388.259,1.3534,2.6166,7.5148.9365,8.0192-1.9219.5769-2.8168-4.4388-3.1595-5.7962-1.3803-5.4681-1.6949-11.2034-2.9899-16.695-.0124-4.9636,10.1977-5.3035,13.6351-6.1471-.4592-2.6358-1.7426-16.7347-3.0978-17.8264ZM111.1512,8.9474l-4.2697.4322c.1708.7304,1.2547.6735,1.9306,1.2688,4.7197,4.1564-1.7638,10.9931-6.8561,6.8563-.738-.5995-.7689-1.499-1.4828-1.7165.0688,2.7654-.1125,5.5596,0,8.3273.2889,7.1056.7231,16.5317,1.7525,23.4624.7044,4.7422,4.2949,3.9569,8.2137,3.2853,1.4561-2.0354,1.7705-4.4139,1.5642-6.8704-1.1179.5339-1.7365,1.9881-2.9627,2.3718-8.1099,2.5381-8.3655-11.1954-.3372-9.5406,1.2741.2626,2.0563,1.4767,3.302,1.6107l-.4295-10.68c-.7365.0376-.4645,1.2077-.9031,1.8681-3.8826,5.8459-13.9381-.3551-7.2123-6.785,2.3353-2.2326,6.2422.1494,7.3703,2.4591.3548.7264-.0026,1.9851.745,2.0262-.8809-6.1428-.3758-12.206-.4249-18.3756ZM104.1691,11.9852c-3.0988.8731.597,6.6021,3.1697,3.1863,1.2894-1.7119-1.8963-3.5452-3.1697-3.1863ZM105.4708,25.2446c-1.7259.4248-1.7067,3.7535.7679,3.7527,3.3733-.001,1.68-4.3552-.7679-3.7527ZM106.0782,39.7731c-.7498,1.7781-1.0409,3.8934,1.3814,4.1485,3.1465-1.9698,2.4574-4.5676-1.3814-4.1485ZM96.6195,97.8429c-4.7368.418-10.0363,1.4876-14.7601,1.2978-3.7357-.1501-7.8325-1.394-11.5273-1.7197-3.9106-.3447-7.9863.0245-11.9563-.4375-8.0037-.9315-16.6003-3.5993-23.927-6.8362-4.132,6.6123,4.9519,9.7553,9.9384,11.4226,13.3093,4.4502,26.3638,3.9581,40.0593,3.1138,6.6674-.411,12.1148,2.5488,12.1728-6.8408ZM175.259,91.4308c-9.1772,2.3481-18.5289,3.7066-27.8665,5.2548-7.5136,1.2458-16.9502,3.5285-24.5026,3.7279-1.6074.0424-3.0141-.6712-4.4776-.2155,1.519,4.3286,2.1843,7.3219,7.4963,7.0653,10.5894-2.4832,21.3862-3.9828,32.0996-5.5178,5.6766-.8134,12.6639-.3199,17.2508-4.1178v-6.1969Z"/>
  <path class="cls-1" d="M159.3321,6.0707c1.3551,1.0917,2.6385,15.1906,3.0978,17.8264-3.4374.8437-13.6475,1.1835-13.6351,6.1471,1.295,5.4916,1.6096,11.2269,2.9899,16.695.3426,1.3574,1.2376,6.3731,3.1595,5.7962,1.6801-.5043-.6775-6.6657-.9365-8.0192-.9069-4.7381-1.4832-9.5712-2.2122-14.3388.5752-1.8497,8.9074-2.3774,10.823-3.2276l.6113.6523c.2312,5.19,1.6351,10.2756,2.5751,15.3739,2.2902,12.4207,5.3863,24.8083,7.6931,37.181.4691,2.5163,1.3104,6.5359-1.2612,8.0379-1.7926,1.047-11.2582,2.5967-13.9839,3.1109-9.0224,1.7021-18.0602,2.9952-27.1754,4.0227-3.7405.4217-7.9808,2.0029-11.8285,1.0416-2.7177-.679-.6239-2.4789-3.313-2.887l-5.8283-20.0247c-2.1009-3.8156-5.6691-3.8196-8.0189-.2806l-4.1771,20.9336c-.2842.5329-1.9245.8768-2.5499.9749-8.6279,1.3542-15.0979-.0308-23.32-.6569-10.2339-.7792-17.5283-.629-27.6505-3.5477-3.3096-.9543-6.3602-2.5522-9.7225-3.314,1.276-6.9224,4.2299-13.5379,5.8429-20.4087,1.6748-7.1344,2.0101-14.4179,3.1684-21.6192.8883-5.5222,2.3007-10.9753,3.1498-16.5094l.4419-.4244c3.3162,1.7075,6.5155,1.2287,10.0325.86l-7.1533,27.2442.0769,2.6937c2.6842,1.444,2.815-.6013,3.4396-2.5947,2.7462-8.7645,4.1468-18.4464,6.9706-27.2581.4527-5.0986-6.8788-2.1815-9.9329-2.6798-1.1388-.1858-2.0578-1.0593-3.1816-1.3085.2966-2.3263,2.2626-13.8183,3.7746-14.7022l46.1768-.6287c.2073,5.7518-.2639,11.5744-.0153,17.3243.1805,4.1752.9675,8.6305,1.2955,12.8078.4747,6.0461-1.6847,13.2569,6.6758,14.2653,10.74,1.2954,10.115-7.5367,10.0135-15.5694-.0115-.908-.4151-1.7305-.4406-2.5509-.2913-9.3634-.7097-18.6462-.4279-27.9845,2.3077-.0287,4.7595-.7428,7.0299-.8767,6.6079-.3896,13.4701.0806,20.1001-.4138,3.1557-.2353,15.7824-2.649,17.6261-1.1636Z"/>
  <path class="cls-1" d="M96.6195,97.8429c-.058,9.3896-5.5054,6.4298-12.1728,6.8408-13.6955.8443-26.75,1.3364-40.0593-3.1138-4.9865-1.6673-14.0703-4.8103-9.9384-11.4226,7.3266,3.2369,15.9233,5.9047,23.927,6.8362,3.97.462,8.0456.0928,11.9563.4375,3.6948.3257,7.7915,1.5695,11.5273,1.7197,4.7238.1898,10.0233-.8797,14.7601-1.2978Z"/>
  <path class="cls-1" d="M175.259,91.4308v6.1969c-4.587,3.7978-11.5743,3.3044-17.2508,4.1178-10.7134,1.5351-21.5103,3.0347-32.0996,5.5178-5.312.2566-5.9773-2.7367-7.4963-7.0653,1.4636-.4557,2.8703.2579,4.4776.2155,7.5524-.1994,16.9891-2.4821,24.5026-3.7279,9.3377-1.5482,18.6893-2.9067,27.8665-5.2548Z"/>
  <path class="cls-1" d="M111.1512,8.9474c.0491,6.1695-.456,12.2328.4249,18.3756-.7476-.0411-.3903-1.2998-.745-2.0262-1.1281-2.3098-5.035-4.6917-7.3703-2.4591-6.7258,6.4299,3.3297,12.6309,7.2123,6.785.4386-.6604.1666-1.8305.9031-1.8681l.4295,10.68c-1.2457-.134-2.0278-1.3481-3.302-1.6107-8.0283-1.6548-7.7726,12.0787.3372,9.5406,1.2262-.3838,1.8448-1.8379,2.9627-2.3718.2063,2.4565-.1081,4.835-1.5642,6.8704-3.9188.6716-7.5093,1.4569-8.2137-3.2853-1.0295-6.9307-1.4637-16.3568-1.7525-23.4624-.1125-2.7676.0688-5.5619,0-8.3273.7139.2176.7448,1.117,1.4828,1.7165,5.0923,4.1369,11.5758-2.6999,6.8561-6.8563-.676-.5953-1.7598-.5383-1.9306-1.2688l4.2697-.4322Z"/>
  <path class="cls-1" d="M104.1691,11.9852c1.2735-.3588,4.4592,1.4744,3.1697,3.1863-2.5728,3.4157-6.2686-2.3132-3.1697-3.1863Z"/>
  <path class="cls-1" d="M106.0782,39.7731c3.8388-.4191,4.5279,2.1787,1.3814,4.1485-2.4223-.2551-2.1312-2.3704-1.3814-4.1485Z"/>
  <path class="cls-1" d="M105.4708,25.2446c2.4479-.6025,4.1412,3.7517.7679,3.7527-2.4746.0008-2.4938-3.3279-.7679-3.7527Z"/>
</svg>