<?xml version="1.0" encoding="UTF-8"?>
<svg id="Layer_1" data-name="Layer 1" xmlns="http://www.w3.org/2000/svg" viewBox="0 0 287.6414 300.3711">
  <defs>
    <style>
      .cls-1 {
        fill: #fff;
      }

      .cls-2 {
        fill: #29abe2;
      }
    </style>
  </defs>
  <g id="gmybNI">
    <g>
      <path class="cls-1" d="M94.0289,25.1517s-34.3613,76.0084-35.0978,90.223-25.6807,66.163-25.6807,66.163l-9.7438,20.9353,2.7673,8.9643s27.9766,10.964,39.894,10.4873,44.3327,2.4297,54.82-2.122,25.0265-8.3653,30.2702-8.1269,18.5911,2.8602,20.4979,2.8602,37.659-1.6684,40.9958-2.3835,16.2077-3.3369,19.3062-5.482,8.8189-5.2058,7.3888-18.3528-9.5339-34.0837-9.5339-34.0837l-8.76-46.8502-6.7326-34.3532-16.446-36.7788-9.5055-13.8492s-15.0443,1.4551-32.682,3.1235-61.7577-.3744-61.7577-.3744Z"/>
      <path class="cls-2" d="M216.533,213.4853c-7.7079.5543-15.3304,2.5719-23.005,3.2335-4.5036.3882-11.4186.7901-15.8651.8327-9.433.0904-19.2882-3.7124-27.9069-3.2395-7.2773.3993-17.4254,5.115-25.0003,6.819-23.2638,5.2333-64.8515,5.2272-87.5396-2.4077-8.1033-2.7269-16.8522-7.109-16.1837-16.9439,6.9681-17.7377,15.0423-35.2413,21.7739-53.0521,6.56-17.3568,11.2297-35.7002,17.9047-52.8933,14.7878-38.0894,19.6989-43.1642,31.714-82.6097.6697-2.1987,2.7476-5.4375,3.0614-7.3415l12.6496,1.9137s14.2698,2.6344,21.1851,1.427c6.9153-1.2074,47.2335-3.787,47.2335-3.787l10.7572-2.36.3643,1.5077c2.7881,8.4206,14.1461,34.6365,17.5076,42.874,7.7385,18.9633,2.2937,8.3254,9.9175,27.2728,8.7387,21.7182,9.5468,53.2204,15.9938,76.5951,3.1203,11.3134,9.269,29.5436,10.4843,40.4272.62,5.552.6482,9.0884-3.4618,13.0755-4.2049,4.0791-11.4031,6.3841-17.1412,7.1268M186.0878,6.495c-18.0187,8.083-69.1772,9.3847-88.0472,3.189l-2.9459,9.9524c.2504,2.3452,6.8403,3.4137,8.8648,3.5882,9.755.8409,65.8206.0934,74.9837-2.0069,3.2598-.7472,5.9468-3.0542,8.7329-2l-1.5883-12.7226ZM68.6564,161.0541c-5.9319,18.3268-10.8219,37.36-15.5769,56.0035.1015.7247,8.5693,1.9921,9.9668,2.0865,8.874.5995,28.2989,1.1147,36.6633.0097,4.307-.569,5.728-6.0116,7.0864-9.6188,5.5143-14.6433,11.2247-43.5815,12.3524-59.2411,1.0584-14.6973-.5992-31.5261.8171-46.1198.1829-1.8848.4849-5.0768,2.9085-5.0206,4.1568.0965,1.8533,5.137,1.8154,7.3672-.2775,16.3089.0987,33.9468-1.6663,50.0343-2.2256,20.2858-7.6203,43.1889-15.7965,61.7549,19.6706.4237,37.5458-14.1492,57.2736-7.1586-.9899-3.4901-2.2302-7.439-2.9464-10.9664-5.5163-27.1711-6.3993-54.9226-7.3612-82.5284-.2418-6.9385-1.6961-15.3843-1.6801-22.2231.0038-1.6119-.3187-3.2601,1.2495-4.3767,1.9792.0454,4.1662,13.876,4.3624,16.3041,2.1316,26.3792,1.6283,52.0345,5.677,78.6442,1.3196,8.673,4.2749,17.2087,4.6729,25.9539,15.5188.5633,30.8625-1.648,46.1437-3.1903.9378-.9152-6.1681-22.0108-6.9431-25.2719-2.7708-11.6594-3.6652-23.6754-6.0185-35.3466-3.5061-17.3885-11.1234-40.3132-11.7252-57.5522-.1141-3.2686,1.6897-5.0678,4.0371-2.3743,2.4095,2.7648,3.2616,19.0186,4.1451,23.6953,3.8999,20.6435,7.9439,41.3888,11.9465,62.0335,2.1823,11.2557,6.1079,22.0522,8.5406,33.2295,4.8241-.632,17.0468-4.1619,18.1392-9.3343,1.2829-6.074-5.6116-24.328-7.4191-31.2236-6.8919-26.2928-4.3294-53.2179-12.7876-78.7774-4.2593-12.8711-2.7811-7.1994-7.9085-19.7539-3.3559-8.217-3.6639-8.0462-7.0346-16.245-4.0771-9.9173-9.6502-19.2504-13.1212-29.445-3.4205,2.4629-7.6773,4.0438-11.9163,3.9821-1.4032,1.3534.9666,16.5712,1.4096,21.1506,1.7051,17.6267-4.5088,45.4789.1567,76.4234.6144,4.075,3.9568,9.6636,1.0868,13.2157-3.0818.615-5.4711-12.9157-5.8717-15.5902-1.5465-10.3252,1.4612-35.2952,1.3782-45.8518-.2159-27.4536,2.2568-12.2474-1.2513-40.3028-.3411-2.7276.0269-5.5262-.0965-8.2559h-47.5006c-.368,1.4581-.7141,2.8058-.8347,4.3373-3.2148,40.8503,16.2832,55.5394,18.7815,96.5277.428,7.0219-.5594,14.1075.7991,21.0685-2.4062.2344-3.0601-2.7305-3.0923-4.4566-.4389-23.5479-3.3813-39.9547-9.9314-56.9552-5.5331-14.3609-9.6584-27.8185-10.4871-43.1984-.8225-15.2644.5951-1.1985-.008-16.5278h-14.7164c-1.3531,1.8771-1.798,6.5189-1.9811,9.1557-2.9722,42.8019-2.6704,50.82-8.0841,92.7186-.2953,2.2854,1.7346,7.9148-2.9962,4.9262-1.2856-1.516-.5137-6.2033-.2917-8.2234,3.6262-33.0002,3.3636-56.7501,6.5813-89.5522.93-9.4804-.3175.0579,2.3982-9.3561l-7.9718-2.4862c-2.7553,7.3167-13.6456,30.9851-16.2331,38.3608-15.5937,44.4489-16.2331,41.1897-29.8537,86.3733l-21.6472,53.0373c-.6518,7.0782,13.9917,12.1006,19.4865,12.8605,1.1223.1552,2.1711.5028,2.9848-.6403,4.8992-17.3773,9.0344-35.1345,14.4793-52.3406,4.8075-15.192,11.2094-29.9388,16.1683-45.0839,1.2339-3.7684,3.314-15.2476,4.8226-17.4506.7627-1.1138,1.274-1.51,2.6957-1.2679"/>
      <path class="cls-1" d="M186.0878,6.495l1.5883,12.7226c-2.7861-1.0541-5.4731,1.2529-8.7329,2-9.1631,2.1002-65.2286,2.8477-74.9837,2.0069-2.0245-.1745-8.6144-1.243-8.8648-3.5882l2.9459-9.9524c18.87,6.1958,70.0285,4.894,88.0472-3.189Z"/>
    </g>
  </g>
</svg>