<?xml version="1.0" encoding="UTF-8"?>
<svg id="Layer_1" data-name="Layer 1" xmlns="http://www.w3.org/2000/svg" viewBox="0 0 225.4665 350.0525">
  <defs>
    <style>
      .cls-1 {
        fill: #fff;
      }

      .cls-2 {
        fill: #29abe2;
      }
    </style>
  </defs>
  <path class="cls-2" d="M75.8187,6.6559c10.1151-5.2613,17.1421-4.2776,27.5734-6.1516,2.0164-.3623,12.8489-2.4473,13.9567-2.8724,1.9986-.7669,1.9045-3.308,4.1912-3.0942,2.0948.1959,2.4292,3.1085,4.582,3.6514,2.2693.5723,10.1381-.7644,13.557-.603,13.4783.6365,34.6689,3.3652,43.7342,14.2981,6.8351,8.2433,8.6752,25.4726,9.847,36.3585,2.9051,26.9884,1.3458,55.6788,4.3547,82.2497,4.1849,36.9572,17.6594,75.9222,19.1902,113.1475.2325,5.6537-1.881,10.6483-1.9664,14.3165-.051,2.1932,1.481,4.0142,1.3292,7.2007-.9032,18.9621-36.4235,27.6553-51.4849,26.4942-19.9096-1.5348-15.9527-17.7991-20.354-32.4098-3.1476-37.4199-11.2839-73.9219-18.9273-110.6196-2.5533-12.2589-4.0347-27.8294-7.5148-39.3831-1.07-3.5524-2.6167-9.5099-6.9204-5.8827-1.4975,1.2621-8.2672,33.4328-9.0855,38.024-5.9024,33.1184-11.6231,69.733-15.5846,103.0978-1.8153,15.289-2.8711,34.8641-1.0152,49.7955,1.1185,8.9987-7.1563,11.5513-14.0161,14.1942-22.0025,8.477-40.5084,5.2561-54.7211-14.0611-1.0353-1.4071-3.1528-2.6018-3.7491-3.9449-.6826-1.5376-.6206-12.1339-.6406-14.7322-.272-35.3239,3.5221-77.5461,8.7852-112.5454,2.4591-16.3527,7.5362-31.3041,10.5434-47.0915,5.2191-27.3991,7.0735-56.5541,13.4718-84.0017.5987-2.5684-1.4465-3.5391,1.9165-7.0774,2.7457-2.8888,5.5115-3.1614,8.4309-5.0064,6.5854-4.1617,13.8226-9.8695,20.5164-13.3513ZM93.5331,7.5841c-13.6513.6438-22.8187,10.1748-33.9024,16.621-3.456,2.01-7.6762,2.7655-10.8938,5.5171,3.3039,3.0165.4581,3.5338-.1394,5.8497-.2831,1.0973-1.2861,9.2-1.1108,9.6593,15.0591.2407,9.6271,12.9963,9.1003,22.4914-.2024,3.6473.043,18.1668-1.0838,20.1231-.5837,1.0133-1.1765,1.4907-2.3186,1.7604-2.6264-.5636-2.4396-14.7597-2.3635-17.5973.1758-6.5626,2.3566-13.1616.4337-19.6261l-4.2473-.1298c-.4277,7.6983-3.0536,15.0782-4.3705,22.4439-2.2451,12.5575-2.6305,25.1126-4.5603,37.4498-3.6134,23.101-10.2651,44.245-13.0953,68.4271-3.5993,30.754-7.2959,67.0322-6.3262,97.8263.0452,1.4351.5151,10.1862,1.0896,10.4233,7.9549-4.7271,18.1887-8.2091,27.4666-8.6922,10.2517-.5338,22.0823,1.9537,31.2081,6.4719,1.3087-12.0908.2568-24.1962,1.4097-36.3118,3.2905-34.577,10.2652-75.5824,16.4568-109.9991,2.3145-12.8652,5.8513-25.4832,8.3664-38.3064,10.0373-12.2938,16.1687-3.6467,19.5664,8.0376,5.6062,34.6863,15.0067,68.7449,20.5716,103.4304,1.1217,6.9918,5.9084,55.2014,8.5619,56.4456,2.98-2.4552,5.552-5.3948,8.7897-7.5752,8.1357-5.479,27.7971-13.388,37.5041-13.0787,4.5442.1448,6.5436,2.3204,10.2519,4.216,2.583,1.3204,2.0618-6.7988,2.0143-8.2012-1.2499-36.9172-15.8588-77.1542-20.0189-114.0929-1.654-14.6862-.9907-30.6893-1.897-45.547-.7346-12.0432-2.2333-24.0759-2.8792-36.1284l-10.667-1.5976c-1.4986.1812-2.107,7.7571-2.2508,9.4582-.4002,4.7365-.8075,12.7207-.5003,17.3386.1069,1.6075,3.698,15.0945-.703,12.4028-4.9946-3.0548-4.6943-23.7032-4.3402-29.5987.8946-14.8978,1.1367-17.4538,17.5464-14.8662-1.6472-11.1071-1.2504-22.4961-10.9562-30.0082-8.4909-6.5717-26.8448-8.4978-37.5243-8.7971-5.0469-.1415-10.0943.9164-15.1443.432-.754.3826-2.8648,8.5688-3.0893,10.054-1.3411,8.8729-1.9796,21.1847-2.6168,30.3835-.3161,4.5633,1.5453,14.5772-2.8248,17.6156-3.9737,2.7628-16.187,2.9329-19.8258-1.23-2.6321-3.0113-2.1354-13.1403-2.0919-17.4746.0427-4.2572,3.0358-35.2462,1.4043-36.02ZM115.0755,3.731l-15.3966,3.9493c.5345,12.6761-1.8119,25.7448-1.6582,38.344.1391,11.4029-.2719,14.1265,12.6596,10.9738-.039-5.7316-.286-11.4773.1438-17.2089.6331-8.4427,1.4179-19.1217,2.5924-27.3687.1958-1.3747,2.2952-8.3961,1.6589-8.6895ZM22.6076,293.6353c7.6926,10.6627,24.236,16.1907,36.8396,12.6732,3.6158-1.0091,13.2308-4.075,16.295-5.6545.9939-.5123,2.2728-.692,2.5912-1.9735-.3349-3.2807-.2078-5.2662-3.0945-7.2631-6.3528-4.3948-30.6362-6.9687-37.6611-4.0347l-14.9702,6.2525ZM154.6951,278.9322c-.2011,1.4617,2.3111,3.9603,3.5634,4.7942,8.0922,5.3888,38.2606-2.8871,45.5594-8.518,2.6168-2.0188,6.9291-8.0229,6.1086-11.4098-2.2405-9.2478-11.392-9.1102-18.7885-7.095-9.0564,2.4674-22.5115,7.7103-29.5427,13.8653-.8802.7705-6.8262,7.8262-6.9001,8.3633Z"/>
  <path class="cls-1" d="M93.5331,7.5841c1.6315.7738-1.3616,31.7627-1.4043,36.02-.0435,4.3343-.5402,14.4633,2.0919,17.4746,3.6388,4.163,15.8521,3.9929,19.8258,1.23,4.3701-3.0384,2.5087-13.0523,2.8248-17.6156.6372-9.1988,1.2757-21.5106,2.6168-30.3835.2245-1.4852,2.3353-9.6714,3.0893-10.054,5.05.4844,10.0973-.5735,15.1443-.432,10.6795.2993,29.0334,2.2254,37.5243,8.7971,9.7058,7.512,9.309,18.9011,10.9562,30.0082-16.4097-2.5875-16.6518-.0316-17.5464,14.8662-.354,5.8955-.6543,26.5439,4.3402,29.5987,4.401,2.6917.81-10.7953.703-12.4028-.3072-4.6179.1-12.6022.5003-17.3386.1437-1.701.7522-9.277,2.2508-9.4582l10.667,1.5976c.646,12.0525,2.1447,24.0852,2.8792,36.1284.9062,14.8577.243,30.8608,1.897,45.547,4.1601,36.9387,18.769,77.1757,20.0189,114.0929.0475,1.4024.5687,9.5216-2.0143,8.2012-3.7084-1.8956-5.7077-4.0712-10.2519-4.216-9.707-.3094-29.3684,7.5997-37.5041,13.0787-3.2377,2.1804-5.8096,5.12-8.7897,7.5752-2.6535-1.2442-7.4402-49.4539-8.5619-56.4456-5.5649-34.6855-14.9653-68.7441-20.5716-103.4304-3.3977-11.6843-9.5291-20.3313-19.5664-8.0376-2.5151,12.8232-6.0519,25.4412-8.3664,38.3064-6.1916,34.4167-13.1663,75.4221-16.4568,109.9991-1.153,12.1156-.101,24.221-1.4097,36.3118-9.1258-4.5182-20.9564-7.0057-31.2081-6.4719-9.2779.4831-19.5117,3.9651-27.4666,8.6922-.5745-.2371-1.0444-8.9882-1.0896-10.4233-.9697-30.7941,2.7269-67.0724,6.3262-97.8263,2.8302-24.1821,9.4819-45.3261,13.0953-68.4271,1.9298-12.3372,2.3152-24.8923,4.5603-37.4498,1.3169-7.3657,3.9427-14.7456,4.3705-22.4439l4.2473.1298c1.9228,6.4645-.2579,13.0635-.4337,19.6261-.076,2.8376-.2629,17.0337,2.3635,17.5973,1.1421-.2697,1.735-.747,2.3186-1.7604,1.1268-1.9563.8814-16.4758,1.0838-20.1231.5268-9.4951,5.9588-22.2507-9.1003-22.4914-.1753-.4593.8277-8.562,1.1108-9.6593.5976-2.3159,3.4433-2.8332.1394-5.8497,3.2177-2.7516,7.4379-3.5071,10.8938-5.5171,11.0836-6.4462,20.251-15.9772,33.9024-16.621Z"/>
  <path class="cls-1" d="M154.6951,278.9322c.0739-.5371,6.0199-7.5928,6.9001-8.3633,7.0312-6.1551,20.4863-11.3979,29.5427-13.8653,7.3966-2.0152,16.5481-2.1528,18.7885,7.095.8206,3.3869-3.4918,9.391-6.1086,11.4098-7.2988,5.6309-37.4672,13.9068-45.5594,8.518-1.2523-.8339-3.7646-3.3325-3.5634-4.7942Z"/>
  <path class="cls-1" d="M22.6076,293.6353l14.9702-6.2525c7.0249-2.934,31.3082-.3601,37.6611,4.0347,2.8867,1.9969,2.7595,3.9825,3.0945,7.2631-.3184,1.2815-1.5973,1.4612-2.5912,1.9735-3.0642,1.5795-12.6792,4.6454-16.295,5.6545-12.6036,3.5175-29.147-2.0105-36.8396-12.6732Z"/>
  <path class="cls-1" d="M115.0755,3.731c.6363.2934-1.4631,7.3147-1.6589,8.6895-1.1745,8.247-1.9593,18.926-2.5924,27.3687-.4298,5.7316-.1828,11.4773-.1438,17.2089-12.9315,3.1528-12.5204.4291-12.6596-10.9738-.1537-12.5992,2.1927-25.6679,1.6582-38.344l15.3966-3.9493Z"/>
</svg>