<?xml version="1.0" encoding="UTF-8"?>
<svg id="Layer_1" data-name="Layer 1" xmlns="http://www.w3.org/2000/svg" viewBox="0 0 247.7047 288.1529">
  <defs>
    <style>
      .cls-1 {
        fill: #fff;
      }

      .cls-2 {
        fill: #29abe2;
      }
    </style>
  </defs>
  <path class="cls-2" d="M98.013.7381c19.1329-2.9868,56.8312-.5145,74.2481,8.1839,2.7199,1.3584,5.2848,3.1649,7.8522,4.7883.4219,1.2261.9171,2.4908,1.1771,3.7628,3.1533,15.4277,7.1335,30.6343,10.0671,46.1117,2.3127,12.2018,5.2318,24.4296,7.4754,36.5612.7686,4.156-.0171,7.0836.1284,10.8748.2703,7.0449,4.5783,17.9948,5.8232,25.8293,1.6985,10.6887,1.286,12.6892-8.371,17.6088-21.0892,10.7437-60.9091,15.3223-84.366,13.5314-19.527-1.4909-42.2935-5.4032-60.9754-11.0164-6.2569-1.88-20.1333-8.3667-21.006-15.6782-.3694-3.0945,4.8385-14.5943,6.2049-18.3694,13.4683-37.2098,27.2512-74.3415,37.5376-112.6899.4526-.9307.8088-1.7329,1.5346-2.5109,3.4851-3.736,17.4297-6.1695,22.6698-6.9875ZM177.3732,20.6234c.2091-.4678-.0952-3.1101-.2638-3.7863-.5033-2.0185-2.8972-3.1069-4.6537-4.0974C152.8356,1.6765,101.8907-.0123,81.2959,8.3203c-2.2138.8957-4.1191,1.6049-4.666,4.2321-.196,3.882,10.7669,8.1757,14.0134,9.1281,4.4827,1.315,9.0435,1.4027,13.5579,2.3741,20.1492,4.3355,32.8048,7.6609,54.0831,3.87,2.8963-.516,18.1529-5.2071,19.0888-7.3012ZM105.5886,27.2752c-8.7028-.9827-17.0583-2.4769-24.8346-6.7054-1.9206-1.0444-5.222-4.8278-6.4452-2.4212-3.7704,14.7375-7.1476,29.7479-12.1236,44.1292-7.9466,22.9667-16.3427,45.8796-24.6172,68.7336-.9559,2.6403-3.8864,7.2894-3.5167,9.8416.7504,5.1802,13.9523,11.069,18.6183,12.4073,42.0313,12.0552,87.3471,15.7593,129.7678,2.5556,4.6734-1.4546,14.9564-5.2971,18.2388-8.6963,1.4935-1.5466,1.231-3.8857.9841-5.8153-1.3445-10.5064-6.0021-21.6406-6.5062-31.9549-.0952-1.9483.6018-4.323.3864-6.2473-.7012-6.264-3.6515-14.7081-4.8527-21.2967-2.4189-13.2681-4.1311-26.4967-7.362-39.5995-1.5203-6.1656-3.4738-12.2983-5-18.4649-17.0801,9.3616-37.7996,10.2386-56.7567,7.5425l-2.1284,30.4121c-1.0935,6.7057-1.002,14.1253-2.1711,20.7578-.2957,1.6772-1.0889,4.9588-2.6615,5.821-3.2158,1.7631-15.2684-.1875-18.6958-1.7967-5.1845-2.434-3.7624-6.0424-3.0916-10.6714,2.3864-16.4691,8.5145-32.5181,12.7681-48.531ZM117.7792,30.1693l-8.7016-1.6792-2.4029,9.0356c7.7097-8.2299,13.6156,6.9076,4.1614,7.3588-3.4067.1626-3.8063-1.5141-5.8333-3.5516-3.2354,13.3894-7.5371,26.6877-8.641,40.4882,1.037,2.3773,13.5902,3.2104,16.3368,3.2781l5.0806-54.9298ZM112.2085,41.54c.9511-2.3077.0545-3.2879-2.3525-3.061l-1.2147,2.9813,3.5672.0798Z"/>
  <path class="cls-1" d="M105.5886,27.2752c-4.2536,16.0129-10.3817,32.0619-12.7681,48.531-.6707,4.629-2.0929,8.2374,3.0916,10.6714,3.4275,1.6091,15.48,3.5598,18.6958,1.7967,1.5725-.8622,2.3658-4.1437,2.6615-5.821,1.1691-6.6325,1.0776-14.0521,2.1711-20.7578l2.1284-30.4121c18.9571,2.6961,39.6767,1.8191,56.7567-7.5425,1.5262,6.1666,3.4797,12.2993,5,18.4649,3.2309,13.1028,4.9431,26.3313,7.362,39.5995,1.2011,6.5885,4.1515,15.0327,4.8527,21.2967.2154,1.9244-.4816,4.299-.3864,6.2473.5041,10.3143,5.1617,21.4485,6.5062,31.9549.2469,1.9295.5094,4.2687-.9841,5.8153-3.2824,3.3992-13.5654,7.2417-18.2388,8.6963-42.4207,13.2037-87.7365,9.4996-129.7678-2.5556-4.666-1.3383-17.8679-7.2271-18.6183-12.4073-.3697-2.5521,2.5608-7.2013,3.5167-9.8416,8.2745-22.854,16.6706-45.7669,24.6172-68.7336,4.976-14.3814,8.3532-29.3917,12.1236-44.1292,1.2233-2.4066,4.5246,1.3768,6.4452,2.4212,7.7763,4.2286,16.1318,5.7227,24.8346,6.7054Z"/>
  <path class="cls-1" d="M177.3732,20.6234c-.9359,2.094-16.1925,6.7852-19.0888,7.3012-21.2783,3.7909-33.934.4654-54.0831-3.87-4.5144-.9714-9.0752-1.0591-13.5579-2.3741-3.2465-.9524-14.2094-5.2461-14.0134-9.1281.5469-2.6272,2.4521-3.3364,4.666-4.2321C101.8907-.0123,152.8356,1.6765,172.4557,12.7398c1.7565.9905,4.1504,2.0789,4.6537,4.0974.1686.6761.4729,3.3185.2638,3.7863Z"/>
  <path class="cls-1" d="M117.7792,30.1693l-5.0806,54.9298c-2.7466-.0677-15.2998-.9008-16.3368-3.2781,1.104-13.8005,5.4057-27.0988,8.641-40.4882,2.027,2.0375,2.4266,3.7142,5.8333,3.5516,9.4543-.4512,3.5483-15.5887-4.1614-7.3588l2.4029-9.0356,8.7016,1.6792ZM108.8002,49.3153c-2.8088.7814-5.8194,4.6066-5.6633,7.6472.3916,7.6294,12.053,5.3829,11.9457-2.5836-.0411-3.0531-3.4156-5.8611-6.2824-5.0636ZM103.8419,65.9321c-.3379.1222-2.3643,1.6747-2.7379,2.0353-6.692,6.4574,1.2853,15.7005,8.0169,10.7071,6.7336-4.9948.929-14.9873-5.279-12.7424Z"/>
  <path class="cls-1" d="M112.2085,41.54l-3.5672-.0798,1.2147-2.9813c2.407-.2269,3.3036.7533,2.3525,3.061Z"/>
  <path class="cls-2" d="M103.8419,65.9321c6.208-2.2449,12.0126,7.7476,5.279,12.7424-6.7316,4.9933-14.7089-4.2498-8.0169-10.7071.3736-.3605,2.4-1.9131,2.7379-2.0353ZM107.9169,70.1906c-2.229-2.0951-7.1157.0793-6.1244,3.7811,1.6427,6.1339,10.1813.032,6.1244-3.7811Z"/>
  <path class="cls-2" d="M108.8002,49.3153c2.8668-.7975,6.2413,2.0104,6.2824,5.0636.1073,7.9666-11.5541,10.213-11.9457,2.5836-.1561-3.0406,2.8545-6.8658,5.6633-7.6472ZM111.3667,53.1718c-3.9065-1.3844-5.6641,1.3941-4.5374,5.0285,2.9643.6946,5.634-1.9303,4.5374-5.0285Z"/>
  <path class="cls-1" d="M107.9169,70.1906c4.0569,3.8131-4.4817,9.915-6.1244,3.7811-.9914-3.7019,3.8953-5.8762,6.1244-3.7811Z"/>
  <path class="cls-1" d="M111.3667,53.1718c1.0966,3.0982-1.5731,5.7231-4.5374,5.0285-1.1267-3.6344.6309-6.4128,4.5374-5.0285Z"/>
</svg>