<?xml version="1.0" encoding="UTF-8"?>
<svg id="Layer_1" data-name="Layer 1" xmlns="http://www.w3.org/2000/svg" viewBox="0 0 192.3849 263.3414">
  <defs>
    <style>
      .cls-1 {
        fill: #fff;
      }

      .cls-2 {
        fill: #29abe2;
      }
    </style>
  </defs>
  <path class="cls-2" d="M145.501,13.6317l2.0161,6.8407c3.1141,26.111.4715,53.1016,1.2897,79.5098.6756,21.8034,2.555,45.4913,4.0392,67.487.7521,11.1464,7.2596,43.4856,1.4022,51.4226-2.6112,3.5383-10.0226,1.6359-13.8628,2.3661-9.8777,1.8783-25.9626,10.4517-32.2705-1.1103-8.2922-15.1991-6.2199-41.9724-8.4159-59.1366-1.3835-10.8136-5.5816-22.3907-6.4479-33.2889-1.2947-16.2872.6923-33.3551-2.0081-49.6631-1.624,11.1903-3.2925,22.5446-4.6279,33.7977-3.0387,25.607-7.8842,51.1768-10.591,76.8299-1.251,11.8565,1.1117,27.7131-4.5489,37.8277-4.797,3.4208-15.315-1.8656-21.457-2.577-6.9808-.8085-21.2134,2.0502-24.9322-5.526-3.9573-8.0621,1.2154-28.0808,1.9033-37.6983,3.0883-43.1761,4.1285-86.5476,6.69-129.7397.5967-10.0616-2.4954-22.6224,2.5917-31.1654l3.5986-6.1763h16.2323s11.1446,0,17.686-1.9382c6.5414-1.9382,28.1038-1.2114,28.1038-1.2114l30.5265,2.1805s3.6341,1.6959,13.0828.9691ZM29.0655,0,142.2447,19.785c-12.9743.0467-24.666-2.6959-37.8195-2.7052-11.8238-.0083-23.946,2.245-35.6453,2.7662-8.9844.4003-18.0947-.5407-27.0676.0906l-10.5025,196.9912c12.5377,2.6315,24.9762-.1575,36.8385,5.5255l21.8902-188.0845c2.3528-.4084,4.1842,2.8064,4.5675,4.6774,4.5096,22.0139,2.465,52.6618,3.9677,75.5059,1.6316,24.804,6.5039,53.8097,9.4877,79.2578.4542,3.8742,3.9792,21.0614,5.388,23.753.5341,1.0204.5803,1.6059,1.9032,2.0617,6.8488,2.36,26.0723-5.9937,34.3619-6.3567,2.7027-3.7565-4.1727-56.4436-4.7132-65.6699-2.2283-38.0363-1.1769-76.104-1.2885-113.8368-.0119-4.0295-2.596-9.2711-1.3681-13.9763Z"/>
  <path class="cls-1" d="M142.2447,19.785c-1.2279,4.7052,1.3562,9.9468,1.3681,13.9763.1116,37.7328-.9398,75.8005,1.2885,113.8368.5405,9.2263,7.4159,61.9134,4.7132,65.6699-8.2896.363-27.5131,8.7168-34.3619,6.3567-1.3228-.4558-1.3691-1.0413-1.9032-2.0617-1.4088-2.6916-4.9338-19.8789-5.388-23.753-2.9838-25.448-7.8561-54.4537-9.4877-79.2578-1.5027-22.8441.5419-53.492-3.9677-75.5059-.3833-1.8711-2.2147-5.0858-4.5675-4.6774l-21.8902,188.0845c-11.8622-5.683-24.3007-2.894-36.8385-5.5255L41.7122,19.9366c8.973-.6313,18.0833.3097,27.0676-.0906,11.6993-.5212,23.8216-2.7746,35.6453-2.7662,13.1536.0093,24.8452,2.7519,37.8195,2.7052Z"/>
</svg>