<?xml version="1.0" encoding="UTF-8"?>
<svg id="Layer_1" data-name="Layer 1" xmlns="http://www.w3.org/2000/svg" xmlns:xlink="http://www.w3.org/1999/xlink" viewBox="0 0 144.4857 98.5222">
  <defs>
    <style>
      .cls-1 {
        fill: none;
      }

      .cls-2 {
        fill: url(#New_Pattern);
        stroke: #3fa9f5;
        stroke-miterlimit: 10;
        stroke-width: .7723px;
      }

      .cls-3 {
        fill: blue;
      }

      .cls-4 {
        fill: #fff;
      }
    </style>
    <pattern id="New_Pattern" data-name="New Pattern" x="0" y="0" width="10" height="10" patternTransform="translate(-1240.1901 -484.8185)" patternUnits="userSpaceOnUse" viewBox="0 0 10 10">
      <g>
        <rect class="cls-1" width="10" height="10"/>
        <rect class="cls-4" width="10" height="10"/>
        <circle class="cls-3" cx="5.0001" cy="4.9999" r="2.053"/>
      </g>
    </pattern>
  </defs>
  <g>
    <path class="cls-2" d="M77.3444,32.1006c-.4991-5.1636-.7868-11.0068,2.7084-14.8403.8844-.9697,2.1054-1.7871,3.4117-1.6626,2.0469.195,3.1698,2.4775,3.583,4.4918.6816,3.3224.5057,6.8171-.5062,10.0542,2.3852-1.0395,4.8761-1.8363,7.4216-2.3742,2.0963-.4428,4.7673-.4658,5.8244,1.3979.9886,1.7426-.2351,4.004-1.9055,5.11s-3.7102,1.5035-5.4782,2.4457c5.6149.297,11.0107,3.4095,14.0785,8.1218.718,1.1031,1.2917,2.6279.4682,3.6547-.4846.6045-1.3051.8124-2.0726.9181-3.9707.5477-8.1582-.7601-11.1115-3.4702,3.4646,4.9143,7.0605,10.1995,7.2973,16.2076.0176.4492-.0054.9534-.3298,1.2645-.3396.3259-.8734.3114-1.3392.2459-4.4867-.6314-8.0689-3.9262-11.3383-7.0632-.3185,5.349-.7011,10.9202-3.3873,15.5568-.557.9614-1.3511,1.9566-2.4581,2.0506-1.3176.1118-2.3456-1.0877-3.0391-2.2135-1.8108-2.9403-3.0418-6.2361-3.6023-9.6434-2.4146,3.7532-5.5988,7.0089-9.2972,9.5062-1.9121,1.291-4.1178,2.4161-6.4147,2.1998-2.2969-.2163-4.5327-2.2847-4.1476-4.5593.2542-1.5006,1.4925-2.6132,2.6761-3.5703,2.2923-1.8534,4.6665-3.605,7.1138-5.2482-4.1297-.4807-8.1254-2.0706-11.4564-4.5586-1.7029-1.2719-3.3765-3.2216-2.8476-5.2805.5267-2.0493,2.9017-2.9496,4.9791-3.3508,3.2596-.6297,6.6052-.8129,9.9142-.5431-3.7513-3.1678-7.6694-6.5744-9.2285-11.2304-.2182-.6512-.3807-1.3893-.0758-2.0048.354-.7151,1.2048-1.0123,1.9823-1.1916,3.2669-.7535,6.7371-.605,9.9274.4249-2.1377-1.8715-4.2709-4.8509-2.8305-7.3,1.3462-2.2888,4.9654-2.04,6.9673-.2953,2.0019,1.7448,2.8999,4.3915,4.051,6.7846"/>
    <path class="cls-2" d="M79.0901,32.1006c-.3799-4.0855-.9233-8.9819,1.4402-12.6106.7036-1.0801,2.1389-2.5785,3.6241-1.6821,1.0713.6468,1.3387,3.2454,1.4536,4.2922.2826,2.5746-.0443,5.0992-.7501,7.5794-.3293,1.1571.8792,2.6812,2.1474,2.1474,2.6237-1.1041,6.2478-2.8207,9.1644-2.5604.698.0624,2.0748.4061,2.226,1.2785.1747,1.0064-1.0292,1.907-1.7022,2.3781-1.4879,1.0412-3.5221,1.5048-5.1712,2.2923-1.6985.811-.6818,3.1292.8812,3.2532,4.5297.3591,8.762,2.475,11.6463,6.0147.5345.6561,2.1631,2.2541,1.1346,3.1001-.5495.4518-2.4527.2268-3.0724.1766-2.658-.215-5.0951-1.3247-7.1114-3.0472-1.401-1.1968-3.9595.3829-2.7419,2.1156,2.897,4.1224,6.0409,8.5009,6.8641,13.5885.2432,1.5026.5818,1.8889-1.0121,1.1772-1.0965-.4898-2.1768-.8866-3.2043-1.5324-2.0748-1.3044-3.8511-3.0083-5.6159-4.6939-1.1351-1.0842-2.8892-.264-2.9802,1.2344-.2684,4.4192-.5218,8.9968-2.3571,13.0948-.5678,1.2682-1.4277,2.9738-2.9161,1.8903-.7444-.5419-1.2107-1.9353-1.6019-2.7424-1.0764-2.2216-1.736-4.5368-2.1829-6.9561-.2926-1.5835-2.43-1.5623-3.1908-.4171-2.6815,4.0368-6.5272,8.2979-11.0794,10.2269-3.477,1.4735-7.5921-.8812-3.7166-4.2376,2.2257-1.9278,4.6819-3.6194,7.1146-5.2725,1.083-.7361,1.207-2.9677-.4171-3.1908-3.7723-.5181-10.8213-2.213-12.5686-6.1238-2.2059-4.9375,10.0681-4.3541,12.6938-4.1799,1.4585.0966,2.3742-2.0146,1.2344-2.9802-2.7945-2.3674-5.7263-4.8025-7.6149-7.9933-.3134-.5294-1.2401-1.815-1.1647-2.4667.1659-1.4321,2.2517-1.357,3.205-1.4218,2.2208-.1512,4.3553.1754,6.4815.7978,1.6467.4819,2.9821-1.724,1.6985-2.9178-.9803-.9118-2.2937-2.0899-2.623-3.4411-.5959-2.4444,1.8637-2.9574,3.6013-2.0797,2.4072,1.2159,3.3973,4.5332,4.4676,6.8254.9499,2.0342,3.9607.2632,3.0149-1.7621-2.0579-4.4064-5.0929-10.5951-11.1333-8.7255-6.1138,1.8923-2.9883,8.6827.2038,11.6519l1.6985-2.9178c-3.4445-1.0084-13.9762-2.6947-14.284,3.0988-.2919,5.4941,6.3097,10.7117,9.9798,13.8211l1.2344-2.9802c-4.6711-.3095-16.1398-.8107-16.6883,6.0766-.547,6.8699,10.4845,10.3781,15.6346,11.0856l-.4171-3.1908c-3.1857,2.1648-8.4055,4.9767-10.154,8.589-1.4512,2.9983.3523,6.2275,3.226,7.4911,7.4148,3.2605,15.8729-6.7303,19.3861-12.0196l-3.1908-.4171c.6909,3.74,3.8831,15.8467,9.9788,12.6755,2.4826-1.2917,3.6879-4.9784,4.3993-7.4544,1.0647-3.7043,1.3056-7.6085,1.538-11.4356l-2.9802,1.2344c2.5036,2.3913,5.1144,4.8333,8.284,6.3163,1.9542.9145,5.4929,2.3231,7.1354.1475,1.7291-2.2901-.1612-7.0517-1.0894-9.3119-1.4698-3.5793-3.6644-6.7721-5.8782-9.9225l-2.7419,2.1156c2.9653,2.533,6.558,4.0953,10.5033,4.1041,2.8349.0064,6.3215-.9022,6.0274-4.4311-.2696-3.2366-3.4912-6.218-5.9327-8.0139-3.1661-2.329-6.8293-3.5553-10.7264-3.8641l.8812,3.2532c2.6414-1.2614,5.7106-1.8492,7.4742-4.4037,1.2636-1.8304,1.5843-4.2697.1267-6.0939-3.3555-4.1995-10.9718-.8871-14.8085.7273l2.1474,2.1474c1.2337-4.3348,2.2477-18.3662-5.9959-16.6614-7.4835,1.5478-7.1503,12.5632-6.6302,18.1541.2065,2.2184,3.6999,2.2399,3.4915,0h0l.0012.0002Z"/>
  </g>
  <path class="cls-2" d="M80.8158,38.6652c-5.9391-1.4495-11.4877,7.2381-6.8479,11.6781,1.0559,1.0104,2.4466,1.6449,3.8756,1.9074,1.3942.2559,2.9347.3638,4.3005-.0993,2.9396-.9971,4.0123-4.1099,4.0989-6.9727.0516-1.7083-.4276-3.4012-1.5442-4.7115-.9994-1.1728-2.5841-1.9603-4.1434-1.8235-.9074.0795-1.7905.7459-1.7457,1.7457.0394.8775.7716,1.8311,1.7457,1.7457.2001-.0176.3993-.0252.5999-.0032-.3782-.0416-.0511.0103.0462.0384.0494.0142.3447.1206.1426.0387-.2026-.0822.0849.0487.1304.0739.0878.0487.1695.1135.2586.1578.2226.1108-.1676-.1717.0113.0037.0913.0895.1908.1703.2799.2625-.0081-.0086.3122.3706.1629.1744-.126-.1654.0597.0969.0851.1372.0546.0866.1054.1747.1531.2652.0171.0325.1431.3193.08.1593-.0675-.1712.0511.1681.0619.2033.0345.1116.0648.2238.0915.3374.0335.1416.0646.2848.0842.4291-.034-.2512-.0054.044.0005.1475.0132.2358.0137.4714.0042.7075-.0049.1184-.0122.2366-.022.3547-.0034.0401-.0423.4051-.0179.2101.0298-.2373-.0582.3356-.0509.295-.0213.116-.0448.2319-.0697.3471-.0504.2327-.1084.4636-.1764.6918-.0303.1018-.0626.2031-.0974.3036-.0152.0438-.1333.355-.0546.1622.0935-.2285-.1182.2349-.1108.2209-.0487.0922-.1003.1832-.1551.2718-.0541.0876-.1116.1761-.1734.2581.0536-.0712.1977-.2053-.0247.0037-.0761.0714-.1468.1453-.2253.2148.2214-.1957-.1108.0514-.1769.0974-.0426.0296-.3029.1514-.0242.0306-.0979.0423-.2077.0749-.3087.1052-.1064.0318-.6615.1497-.3437.1001-.4898.0768-1.0077.0509-1.4994.0086-.1213-.0105-.2441-.0215-.3648-.0382.0839.0117.2686.0497-.0805-.0201-.24-.0479-.479-.0974-.7151-.1629-.2331-.0648-.4702-.1363-.6931-.2317.218.0935-.0575-.0347-.082-.0484-.1531-.0849-.3063-.1642-.4543-.2581-.0886-.0563-.1757-.1157-.2601-.1774.0636.0465.2214.1991-.0147-.024-.1534-.1451-.2943-.297-.4401-.4494.196.2048.0296.0448-.0117-.0203-.0558-.0881-.1135-.1744-.1649-.2652-.0509-.0898-.1001-.1827-.1429-.2769.1487.3273-.0161-.091-.0369-.1695-.0281-.1067-.0582-.2248-.0717-.3359.0369.3031.0125.0073.0144-.0443.0024-.0705.0526-.7099,0-.3863.0416-.2561.1074-.5086.1862-.7554.0355-.1108.0744-.2204.1157-.3293.0607-.1605-.067.1142.0668-.1451.1323-.2564.2652-.5101.4166-.7559.0585-.0949.1189-.1891.1808-.2818.0056-.0086.3141-.4401.1211-.1886.1522-.1984.3219-.3856.4971-.5639.0778-.0793.1575-.1566.2395-.2317.0741-.068.2848-.249.0942-.0993.2194-.1725.4624-.3092.7053-.444.2877-.16.1204-.0621.0416-.0308.1549-.0619.3171-.1128.478-.1556.3797-.101.6806-.1091,1.0458-.0198.8856.216,1.9339-.2816,2.1474-1.2193.205-.9-.2703-1.9158-1.2193-2.1474h0l.0007-.0017Z"/>
</svg>