<?xml version="1.0" encoding="UTF-8"?>
<svg id="Layer_1" data-name="Layer 1" xmlns="http://www.w3.org/2000/svg" xmlns:xlink="http://www.w3.org/1999/xlink" viewBox="0 0 104.7956 100.8082">
  <defs>
    <style>
      .cls-1 {
        fill: none;
      }

      .cls-2 {
        fill: blue;
      }

      .cls-3 {
        fill: #3fa9f5;
      }

      .cls-4 {
        fill: #fff;
      }

      .cls-5 {
        fill: url(#New_Pattern);
      }

      .cls-6 {
        fill: #fbb03b;
      }
    </style>
    <pattern id="New_Pattern" data-name="New Pattern" x="0" y="0" width="10" height="10" patternTransform="translate(-576.5664 -355.4334)" patternUnits="userSpaceOnUse" viewBox="0 0 10 10">
      <g>
        <rect class="cls-1" width="10" height="10"/>
        <rect class="cls-4" width="10" height="10"/>
        <circle class="cls-2" cx="5.0001" cy="4.9999" r="2.053"/>
      </g>
    </pattern>
  </defs>
  <path class="cls-6" d="M28.4987,45.5416c-4.1703,8.3468-4.0107,17.9838,1.4497,25.765,6.1407,8.7506,15.4713,10.5448,25.6401,10.3247,5.1878-.1123,10.3502.0041,14.869-2.9458,4.1084-2.6819,6.2553-6.9227,7.6758-11.5007,2.9315-9.4477,3.7765-19.9388,3.3972-29.7804l-23.1612,3.1346c1.6679,8.441,2.1259,17.5651-.0963,25.9412-.8363,3.1521-2.295,5.946-4.6973,7.8964.984-.7989-3.1775,2.3538-2.1156,1.274-1.5014.3924-1.8423.4886-1.0228.2886.8814.0427,1.6581.3093,2.3301.8-.7486.6529-3.0866-7.3494-3.1598-7.949-.2819-2.3088-.0571-6.7574.2862-8.9076.2107-1.3195.7008-3.3458.996-4.2584,1.155-3.571.7772.1851-.2866-.3246-.5624.2662-1.1497.3411-1.7619.2246-3.2009-1.1155-4.5542-3.6335-4.0598-7.5542.0541-.2389.1145-.4761.1813-.7117-1.0572,1.0501-1.3609,1.3121-.9112.786-5.2047,3.6546-7.6349,10.3115-4.2301,16.1326,3.0119,5.1494,10.8947,7.908,16.1326,4.2301,8.6256-6.0566,15.9181-16.1267,10.1522-26.8847-4.3329-8.0843-14.3553-11.1498-22.8777-8.6643-17.7208,5.1681-20.1359,31.7773-15.3152,46.5786,2.7808,8.538,8.6953,17.4413,18.004,19.5583,9.1713,2.0857,19.0189-2.4332,25.368-8.9435,14.0577-14.4146,13.4507-37.4263,9.8239-55.7815-2.5778-13.046-23.6706-10.0826-23.1612,3.1346.1863,4.8354.1597,9.7499-.5686,14.5431-.3245,2.1355-.7981,4.2644-1.3102,6.3619-.2028.8305-.9735,2.3918-.8634,3.218-.6195,1.6121.1928,1.1163,2.4367-1.4875,3.2752-1.7502,3.6301-2.4379,1.0647-2.0632-3.2747-.4632-7.1328.8893-9.9441-.3214.4281.1844.5562.4034.8298.7508-1.5474-1.9643-.2277.1191-.5366-1.1281-.4532-1.8298-.0389,1.3517-.009-.5184.0223-1.3945.0027.3066-.186.6844,2.845-5.6941,1.5172-12.771-4.2301-16.1326-5.2255-3.0564-13.2752-1.4889-16.1326,4.2301h0Z"/>
  <g>
    <path class="cls-5" d="M21.0357,60.4616c1.7972-13.144-3.4461-27.6034,3.775-39.1167,3.0198-4.8148,7.9315-8.4505,13.2167-11.2283,5.9633-3.1341,13.008-5.3462,19.7127-3.896,7.1688,1.5506,12.505,6.9293,16.7236,12.4085,6.6454,8.6314,11.8478,18.5866,12.1689,29.1088-20.9123,7.4538-42.6359,15.0341-65.0729,13.9262"/>
    <path class="cls-3" d="M22.4154,60.4616c1.0775-8.2169-.4513-16.4531-.1379-24.6888.1505-3.9538.7815-7.9726,2.523-11.5622,1.7971-3.7041,4.6324-6.7502,7.9238-9.1859,6.5796-4.869,15.633-9.1191,24.0061-7.6001,7.9173,1.4362,13.6098,7.7758,18.1075,13.9975,5.5794,7.718,10.0598,16.6356,10.4151,26.3159l1.0129-1.3304c-16.2288,5.7835-32.7429,11.6519-49.9838,13.4383-4.8911.5068-9.8098.668-14.7223.4386-1.7752-.0829-1.771,2.6767,0,2.7593,17.5476.8193,34.7571-3.5613,51.2799-9.0512,4.7425-1.5758,9.4526-3.2467,14.1598-4.9242.5597-.1994,1.0362-.6964,1.0129-1.3304-.3349-9.1258-4.043-17.687-9.0496-25.2015-4.5961-6.8984-10.3219-14.0675-18.3901-16.9413-8.7725-3.1247-18.3707.2749-25.9645,4.8641-3.6868,2.2281-7.1164,4.9586-9.7394,8.3995-2.6102,3.4241-4.1833,7.4957-4.8528,11.733-1.5667,9.9156.9429,19.9362-.3597,29.8699-.2302,1.7554,2.5314,1.7385,2.7593,0h0Z"/>
  </g>
</svg>