<?xml version="1.0" encoding="UTF-8"?>
<svg id="Layer_1" data-name="Layer 1" xmlns="http://www.w3.org/2000/svg" xmlns:xlink="http://www.w3.org/1999/xlink" viewBox="0 0 104.7956 100.8082">
  <defs>
    <style>
      .cls-1 {
        fill: none;
      }

      .cls-2 {
        fill: blue;
      }

      .cls-3 {
        fill: #3fa9f5;
      }

      .cls-4 {
        fill: #fff;
      }

      .cls-5 {
        fill: url(#New_Pattern);
      }

      .cls-6 {
        fill: #fbb03b;
      }
    </style>
    <pattern id="New_Pattern" data-name="New Pattern" x="0" y="0" width="10" height="10" patternTransform="translate(-838.7019 -363.5655)" patternUnits="userSpaceOnUse" viewBox="0 0 10 10">
      <g>
        <rect class="cls-1" width="10" height="10"/>
        <rect class="cls-4" width="10" height="10"/>
        <circle class="cls-2" cx="5.0001" cy="4.9999" r="2.053"/>
      </g>
    </pattern>
  </defs>
  <path class="cls-6" d="M35.0542,80.979c.7899,6.3882,4.8891,10.7539,11.6181,10.8099,5.1541.0429,11.9036-1.193,16.755-2.9309,13.2267-4.7383,13.6844-18.8016,11.7387-30.5793-.905-5.478-2.2914-11.0709-7.3445-14.2072-5.2788-3.2764-13.514-3.0462-19.5354-2.3831-12.125,1.3353-21.4232,8.6007-23.2541,21-1.816,12.2989,2.4259,24.7035,12.6823,32.0829,9.196,6.6164,22.052,6.975,31.327.3061,18.461-13.274,11.1281-49.6244-13.8964-48.5367-13.0355.5666-23.1798,15.2129-17.2257,27.4605,2.7676,5.693,8.8302,9.0458,15.1581,7.5834,6.2608-1.4469,11.5383-7.6901,10.8055-14.2715-.5376-4.8285-3.7501-8.9966-8.9966-8.9966-4.4464,0-9.5378,4.1364-8.9966,8.9966l1.3851-2.3431,6.6187.9645c.3088,1.4712.4376,1.6953.3867.6723-.1242-.5633-.1108-.7463.0401-.549.2646-.2011.2613-1.0585.6989-1.3548,1.7814-1.2062,4.1381.8567,5.0145,2.2684,3.1784,5.1198,1.8006,13.8921-4.9262,14.9895-7.7259,1.2604-12.5034-6.891-12.5835-13.5218-.0392-3.247.2353-6.5382,3.4942-7.9806,3.1237-1.3826,11.2071-1.9893,13.2654-.4417l-3.2276-3.2276c1.9881,2.7008,3.3787,11.1878,1.9241,14.4153-.5305,1.177-2.2516,1.1506-4.2824,1.5004-1.6744.2884-3.3558.56-5.0362.8089-.8086.1198-2.2469-.1205-1.5385.1429l3.9699,2.3137-.5818-.5568,2.6351,6.3616-.0985-.7963c-.5961-4.8213-3.7082-8.9966-8.9966-8.9966-4.399,0-9.597,4.1414-8.9966,8.9966h0Z"/>
  <g>
    <path class="cls-5" d="M20.4303,73.424c-4.107.9334-7.2072-3.7094-8.3947-7.7503-4.2695-14.5291-.013-32.3358,12.9166-40.2194,4.8609-2.9638,10.5239-4.3539,16.1655-5.1183,9.0266-1.223,18.3924-.9146,26.9955,2.0791,8.6031,2.9937,16.394,8.8493,20.6692,16.8928,4.0228,7.5688,4.7178,16.4356,4.7589,25.0069.0194,4.0573-.5138,8.8636-4.061,10.8332-3.718,2.0645-8.4766-.4805-10.9722-3.924s-3.6777-7.6986-6.1616-11.1505c-4.3867-6.0963-12.1927-8.7936-19.6696-9.5037-6.2334-.5919-13.0503.1469-17.7414,4.2942-6.2906,5.5613-8.2441,16.5794-16.4835,18.1958"/>
    <path class="cls-3" d="M20.0545,72.0609c-3.7151.7176-5.9452-4.2718-6.7507-7.0913-1.0086-3.5303-1.4787-7.1912-1.455-10.8606.0478-7.3793,2.1307-14.8957,6.5951-20.845,5.3024-7.0661,13.4758-10.132,21.9646-11.4096,9.806-1.4758,20.2375-1.0869,29.491,2.7437,7.7575,3.2113,14.5866,8.9503,18.2506,16.5877,2.0506,4.2744,3.0645,9.0243,3.5425,13.7182.2446,2.4012.3605,4.8137.409,7.2263.0399,1.986.1048,4.0101-.1793,5.9829-.2521,1.7505-.7523,3.6432-2.0195,4.9454-1.3329,1.3697-3.1995,1.6771-4.9972,1.1747-4.3077-1.204-6.3935-5.383-8.1703-9.1023-1.8991-3.9752-3.9856-7.5318-7.5479-10.2351-3.2395-2.4583-7.134-4.0018-11.0806-4.8915-7.9483-1.7919-17.7155-1.8295-24.1708,3.86-2.5183,2.2196-4.2988,5.1769-6.008,8.0269-1.6777,2.7976-3.3221,5.849-5.8935,7.9423-1.1661.9493-2.4923,1.5527-3.9583,1.8631-1.7789.3767-1.0261,3.1026.7516,2.7261,7.4113-1.5695,10.2003-9.6025,14.0977-15.1274,2.4637-3.4925,5.7335-5.8168,9.9148-6.823,4.4027-1.0595,9.1692-.8166,13.5831.0599,4.2651.8469,8.5663,2.4222,11.9111,5.2793,3.7761,3.2255,5.2357,7.7717,7.5922,11.9751,2.087,3.7227,5.4871,7.0834,9.9481,7.4819,4.2162.3766,7.3075-2.7029,8.3822-6.5428,1.2082-4.3167.7668-9.2267.451-13.6368-.3602-5.0307-1.1653-10.098-3.0239-14.8095-3.357-8.5101-10.0629-15.161-18.2303-19.157-9.4108-4.6043-20.1878-5.578-30.4961-4.4275-9.3195,1.0401-18.7268,3.6808-25.1584,10.9191-5.3137,5.9802-8.0795,13.8226-8.667,21.73-.2991,4.0259.0036,8.1065.8621,12.0505.8319,3.8216,2.3024,7.9703,5.6381,10.3195,1.5484,1.0905,3.3262,1.4293,5.1733,1.0725,1.7845-.3447,1.029-3.07-.7516-2.7261h0Z"/>
  </g>
</svg>