<?xml version="1.0" encoding="UTF-8"?>
<svg id="Layer_1" data-name="Layer 1" xmlns="http://www.w3.org/2000/svg" xmlns:xlink="http://www.w3.org/1999/xlink" viewBox="0 0 104.7956 100.8082">
  <defs>
    <style>
      .cls-1 {
        fill: none;
      }

      .cls-2 {
        fill: blue;
      }

      .cls-3 {
        fill: #3fa9f5;
      }

      .cls-4 {
        fill: #fff;
      }

      .cls-5 {
        fill: url(#New_Pattern);
      }

      .cls-6 {
        fill: #fbb03b;
      }
    </style>
    <pattern id="New_Pattern" data-name="New Pattern" x="0" y="0" width="10" height="10" patternTransform="translate(-968.6225 -363.5655)" patternUnits="userSpaceOnUse" viewBox="0 0 10 10">
      <g>
        <rect class="cls-1" width="10" height="10"/>
        <rect class="cls-4" width="10" height="10"/>
        <circle class="cls-2" cx="5.0001" cy="4.9999" r="2.053"/>
      </g>
    </pattern>
  </defs>
  <path class="cls-6" d="M33.8694,47.2454c-6.0438,15.4153-12.6844,36.8562,5.9333,46.474,7.5649,3.908,18.8932,4.9866,27.1165,2.4537,9.4601-2.9139,12.3714-12.5399,13.8089-21.3598,1.4523-8.9106,1.174-18.2048-3.8357-26.0639-4.7154-7.3973-12.4672-12.3576-21.1564-13.454-17.7455-2.2391-34.541,14.88-29.3626,32.776,2.6479,9.1508,10.2962,16.9233,19.8831,18.3611,6.3635.9544,12.2913-2.0242,14.9428-8.007,1.9213-4.335,2.5827-9.4762,3.6781-14.073,3.5158-14.7535-19.2178-21.0494-22.74-6.2691-.5316,2.2306-1.0631,4.4612-1.5947,6.6918-.2658,1.1153-.5316,2.2306-.7973,3.3459-.514,2.0365-.5406,2.2282-.0799.5753l7.0468-5.4188c.7143-.2286,2.7646.289,3.3262-.0759.2684-.1744-.3589.1356-.7108-.718.4695,1.1389-.5678-1.6423-.3231-.8251.108.3607-.0059,1.2578.0439-.0574.008-.2121.5415-1.6374.139-1.028.4344-.6578,1.1786-1.5368,2.8291-2.1545-1.5986.5984.9075.1217.4442.0545,1.336.1938,2.1532.5232,3.0791,1.2572,2.359,1.8702,2.65,4.7289,2.4694,7.8515-.0999,1.7271-.4381,3.3604-.8449,5.0448-.2509,1.0388-.7441,2.1545-.865,3.2112l-.4764,1.5758,4.235-3.7847.5911-.138c-.8865.0494-1.7735.0866-2.661.1115-1.1785.0334-2.3725.091-3.5502.0092-1.4348-.0997-2.6318-.3772-3.3436-.5886-.6702-.1991-.6671-.2661-.366.6443-.4234-1.28.5591-3.5337.8736-4.7762,1.3251-5.2361,3.037-10.3505,5.0076-15.3766,2.3252-5.9305-2.5535-12.9434-8.2354-14.5046-6.6851-1.8369-12.1709,2.2832-14.5046,8.2354h0Z"/>
  <g>
    <path class="cls-5" d="M24.356,47.002c-1.8646-6.006-1.1652-12.7626,1.8901-18.2593s8.4243-9.6578,14.5094-11.2451c3.0423-.7936,6.2192-.9647,9.3603-.8288,7.3551.3181,15.2031,2.7085,19.4469,8.7242,2.1647,3.0685,3.1866,6.7958,3.8245,10.4964.5285,3.0659.7924,6.3531-.5312,9.1687-2.2526,4.7915-8.1278,6.5003-13.3597,7.3126-5.3867.8363-10.8338,1.2839-16.2847,1.3382-7.175.0714-14.3265-1.1416-18.8556-6.7069"/>
    <path class="cls-3" d="M25.6864,46.6352c-2.6147-8.7113.3003-18.2978,7.516-23.8954,7.0459-5.4659,17.0671-5.8673,25.3473-3.2649,3.8065,1.1964,7.4739,3.3107,9.8219,6.6144,2.6577,3.7396,3.8726,8.8773,4.0527,13.4128.0885,2.2289-.2561,4.4847-1.6169,6.3156-1.1025,1.4833-2.7059,2.5149-4.368,3.2697-3.9042,1.7731-8.4543,2.2083-12.6665,2.6436-5.3783.5559-10.9866.9902-16.3736.3077-4.6535-.5896-9.0113-2.3484-12.0676-6.0124-1.1387-1.3651-3.0816.596-1.9511,1.9511,6.644,7.965,18.1366,7.5045,27.5182,6.7736,8.1652-.6362,21.9212-1.3394,24.0015-11.516.5232-2.5594.2551-5.1622-.1826-7.7125-.4495-2.6192-1.109-5.1913-2.1814-7.6287-1.9101-4.3415-5.3873-7.6668-9.6567-9.6747-4.2037-1.977-8.8481-2.8262-13.471-2.9548-5.2578-.1462-10.4902.7498-15.0819,3.4102-9.9043,5.7385-14.5891,17.7395-11.301,28.6941.5092,1.6965,3.1732.9738,2.6608-.7335h0Z"/>
  </g>
  <g>
    <path class="cls-5" d="M24.356,47.002c-5.3066,1.7482-11.1002,4.8275-14.648,9.1436-1.2735,1.5493-2.4452,3.4764-2.0445,5.4416.4906,2.4062,3.0588,3.7251,5.3923,4.4904,10.1994,3.3452,21.366,2.6383,31.7718.0046,5.7184-1.4473,11.3502-3.4901,16.2668-6.7492s9.1001-7.8136,11.2239-13.3167"/>
    <path class="cls-3" d="M23.9892,45.6716c-6.0552,2.0253-12.2901,5.282-16.0928,10.5833-1.8222,2.5403-2.4246,5.8029-.1836,8.2916,2.0885,2.3195,5.5976,3.1692,8.5085,3.8528,7.2819,1.71,14.8428,1.6003,22.1958.4201,7.1403-1.1461,14.3774-3.1713,20.7301-6.6924,6.4014-3.5481,11.7825-8.873,14.5015-15.7438.6535-1.6515-2.0139-2.3681-2.6608-.7335-4.6366,11.7164-17.3092,17.0762-28.768,19.6364-6.4687,1.4452-13.1605,2.077-19.7702,1.386-3.1636-.3307-6.3398-.9847-9.3466-2.0326-2.2998-.8015-4.9519-2.3841-3.8501-5.2098,1.1273-2.8912,4.1057-5.222,6.6147-6.8734,2.7457-1.8073,5.7422-3.1827,8.855-4.2238,1.6756-.5604.9572-3.2263-.7335-2.6608h0Z"/>
  </g>
  <path class="cls-3" d="M23.8835,47.8553c7.9723,4.6337,16.9261,8.7311,26.3831,7.3142,8.4011-1.2587,14.5993-7.929,22.8484-9.5375,1.7412-.3395,1.0041-2.9996-.7335-2.6608-7.8191,1.5247-13.7274,7.6649-21.4873,9.2963-9.0782,1.9086-17.9791-2.3548-25.618-6.7948-1.5383-.8941-2.929,1.4897-1.3927,2.3826h0Z"/>
</svg>