<?xml version="1.0" encoding="UTF-8"?>
<svg id="Layer_1" data-name="Layer 1" xmlns="http://www.w3.org/2000/svg" xmlns:xlink="http://www.w3.org/1999/xlink" viewBox="0 0 104.7956 100.8082">
  <defs>
    <style>
      .cls-1 {
        fill: none;
      }

      .cls-2 {
        fill: blue;
      }

      .cls-3 {
        fill: #3fa9f5;
      }

      .cls-4 {
        fill: #fff;
      }

      .cls-5 {
        fill: url(#New_Pattern);
      }

      .cls-6 {
        fill: #fbb03b;
      }
    </style>
    <pattern id="New_Pattern" data-name="New Pattern" x="0" y="0" width="10" height="10" patternTransform="translate(-1074.4686 -363.5655)" patternUnits="userSpaceOnUse" viewBox="0 0 10 10">
      <g>
        <rect class="cls-1" width="10" height="10"/>
        <rect class="cls-4" width="10" height="10"/>
        <circle class="cls-2" cx="5.0001" cy="4.9999" r="2.053"/>
      </g>
    </pattern>
  </defs>
  <path class="cls-6" d="M51.2886,27.568c-11.7753-4.2777-25.5839,1.4506-31.1432,12.5855-2.8099,5.6281-3.6811,11.8485-4.2947,18.038-.5886,5.9373-1.1079,12.6668.3495,18.5119,6.1934,24.8397,42.7966,26.4547,59.751,12.8792,8.289-6.6371,12.845-17.1917,11.9106-27.7985-1.1017-12.5053-9.2735-21.447-20.9161-25.455-4.5323-1.5602-10.1364-2.768-14.9187-2.7221-7.6495.0734-13.8669,4.9031-18.3922,10.648-7.5093,9.5331-11.5825,24.5761-2.5672,34.6004,8.3109,9.2411,23.8864,10.3627,33.8513,3.2266,5.6535-4.0486,9.3443-10.3312,9.2687-17.3977-.0971-9.0787-7.7039-16.6576-16.8466-16.2506-6.3636.2833-11.7912,5.2166-11.7912,11.7912,0,6.1672,5.3987,12.0757,11.7912,11.7912l-.4516-.0243-5.2031-3.0324c-6.5329-5.0717-.624-4.3351.0942-6.3649.6344-.3649.3913-.2148-.7292.4503.9816-.3688.7863-.3368-.586.0961,1.8254-.3836-1.4334-.0038-1.8042-.0315,1.4467.1078-.3797-.5491-.2022-.1729,1.7326,3.6706.7205,1.6781,1.3505-.2001.0172-.0512,3.8441-7.1606,4.6923-6.3838,5.257,4.8142-8.0826-1.5944-1.0563.9567,1.3566.4926,2.9683.5476,4.3839.9143,2.5368.657,4.3551,1.2568,6.0837,3.1226-.9321-1.0061.4908,1.9437.0967.401.8527,3.3378.2627-1.4928.4367,1.997.0041.0814-.4287,3.7591-.0982,2.1377-.3148,1.5443-.6633,2.2202-.9534,2.7767-1.5753,3.0224-5.8154,5.2038-9.2503,5.7605-4.4245.7171-12.2957.1434-14.8973-3.0683.218.2691.1142,2.8069-.307-.9166.0326.2878.0309-2.2942.033-2.8309.0152-3.9362.1174-7.9897.8163-11.8719.1979-1.0992,1.2545-5.2645,1.1782-5.1634,1.2747-1.6878,2.7415-.736,4.0517-.26,5.986,2.1746,12.9133-2.4442,14.5046-8.2354,1.8025-6.56-2.2278-12.3221-8.2354-14.5046h0Z"/>
  <g>
    <path class="cls-5" d="M46.3301,26.3485c-1.1118-3.1304,1.2528-7.0034,3.1507-9.7298s5.8005-4.0963,8.7574-2.5823,3.9585,6.1081,1.5187,8.3626c2.9743-.6544,6.1006-1.3055,9.0237-.4509s5.4857,3.7687,4.831,6.743c-.4812,2.1863-2.544,3.7433-4.7135,4.2956s-4.4527.29-6.6755.0243c1.753,3.8812,2.8719,8.0478,3.2991,12.285.2014,1.9979.1734,4.2351-1.1747,5.7233-1.6501,1.8216-4.7311,1.679-6.7344.255s-3.1221-3.78-3.8871-6.1158c-.6354-1.9401-1.0865-3.9405-1.3451-5.9656-3.5445,4.8995-10.2547,7.2575-16.0849,5.6525-1.2158-.3347-2.4556-.8758-3.1731-1.913-.5056-.731-.6979-1.6387-.7294-2.5269-.1336-3.7622,2.7745-7.401,6.4736-8.1-4.1245.4609-8.3361-2.6488-9.1094-6.7264-.299-1.5767-.0233-3.4332,1.2749-4.3767.7909-.5748,1.811-.7063,2.7846-.7972,2.5449-.2374,5.1793-.3099,7.5837.5569s4.5492,2.8587,4.9298,5.3861"/>
    <path class="cls-3" d="M47.6605,25.9817c-.7219-2.303.4966-4.6653,1.6642-6.6055,1.1561-1.9211,2.4044-3.708,4.6686-4.3576,1.8355-.5266,3.9076-.1405,5.0064,1.5303.9742,1.4813,1.0936,3.5695-.2184,4.8746-1.0136,1.0084.0327,2.5928,1.3423,2.306,2.471-.5412,5.1028-1.155,7.6288-.6158,1.9291.4118,3.9322,1.747,4.4583,3.7567.5247,2.0046-.9159,3.6703-2.6668,4.4462-2.2662,1.0041-4.9454.5969-7.3214.3149-1.1562-.1372-1.5608,1.2451-1.1913,2.076,1.3108,2.9478,2.246,6.0636,2.7906,9.2434.3812,2.2256,1.3098,6.5012-1.3292,7.7423-2.4472,1.1509-4.9132-.8351-6.0955-2.8319-1.5911-2.6872-2.2731-5.9761-2.6865-9.0349-.1788-1.3234-1.9149-1.1451-2.5217-.3296-3.015,4.0524-8.4997,6.2041-13.4688,5.2648-1.1326-.2141-2.6477-.532-3.392-1.508-.7741-1.0151-.6511-2.5778-.3269-3.7343.6954-2.4803,2.7332-4.3459,5.2319-4.8832,1.4982-.3222,1.1954-2.8473-.3668-2.7101-2.3295.2046-4.5351-.6796-6.117-2.4061-1.2367-1.3498-2.6781-4.3891-1.1145-6.0132.8096-.8409,2.4659-.7648,3.5354-.8276,1.5223-.0895,3.0756-.099,4.5704.2383,2.5026.5647,4.7697,2.1577,5.2589,4.7979.3231,1.7437,2.9829,1.0051,2.6608-.7335-.6551-3.5357-3.8193-5.9591-7.1861-6.7252-2.0352-.4631-4.1399-.4446-6.2079-.2708-1.7758.1492-3.6018.3787-4.813,1.8377-2.1627,2.605-1.0994,6.5618.7915,8.9842,2.029,2.5993,5.311,4.1684,8.6215,3.8777l-.3668-2.7101c-3.3649.7236-6.1135,3.3612-7.1118,6.6419-.4847,1.5928-.5559,3.4451.0438,5.017.6486,1.6999,2.1071,2.7203,3.7689,3.3139,6.6156,2.3633,14.2939-.5786,18.371-6.0586l-2.5217-.3296c.5127,3.7937,1.4835,8.0419,3.9371,11.0923,2.016,2.5064,5.4781,3.9256,8.5742,2.5738,3.4962-1.5264,3.6395-5.5679,3.2381-8.8367-.5152-4.1952-1.6694-8.2155-3.3853-12.0746l-1.1913,2.076c3.1383.3725,6.5081.6489,9.3488-1.0247,2.4337-1.4338,3.9596-4.0551,3.3783-6.9017-.5448-2.6675-2.8304-4.755-5.3011-5.6764-3.2857-1.2253-6.9559-.4427-10.2584.2806l1.3423,2.306c2.0543-2.0436,2.2211-5.1812.9471-7.6946-1.3288-2.6215-4.1848-3.93-7.0533-3.5847-3.2504.3913-5.4572,2.4162-7.1672,5.0602-1.7877,2.764-3.5094,6.2099-2.4593,9.5598.5294,1.6887,3.1941.9677,2.6608-.7335h0Z"/>
  </g>
  <path class="cls-3" d="M51.3263,23.4343c-.5036-.2178-.8696-.3735-1.4325-.3735-.5299,0-.9713.1391-1.441.3631-.666.3176-1.2159.9005-1.5346,1.5624-.5052,1.0491-.7173,2.359-.7491,3.5126-.0359,1.3029.3892,2.6783,1.3771,3.5722.4417.3997.9341.7249,1.4693.9811.6323.3026,1.2951.5968,1.9878.729,1.3105.2503,2.6368.0854,3.7937-.6115,1.0975-.6611,1.8991-1.6664,2.3318-2.8652.9095-2.5201-.4999-5.2543-2.6128-6.6465-1.1223-.7395-2.4746-1.076-3.8008-1.1687-1.5197-.1063-2.9766.3339-4.1298,1.3306-.835.7217-.7952,2.2434,0,2.9734.8895.8166,2.0827.7698,2.9734,0,.1654-.1408.1113-.1001-.1623.122.0612-.0415.1241-.0802.1887-.1161.1832-.1023.4318-.0858-.0986.0281.2576-.0553.5011-.1447.7654-.1832l-.5589.0751c.497-.0589.9903-.0418,1.4856.0247l-.5589-.0751c.4203.0642.9815.1295,1.3513.3543l-.2881-.1219c.0706.0315.1405.0646.2097.0992.0863.0432.1712.0891.2548.1373.1003.0577.1983.1188.2942.1837.3806.2575-.2099-.1916-.0561-.0506.1555.1426.3018.2884.4505.4379.2858.2874-.2711-.4089-.0498-.0688.0621.0954.1251.1884.182.2871.0133.0231.1701.2777.1569.3012.0289-.0511-.1944-.534-.0449-.083.0709.214.1187.4322.1523.6549l-.0751-.5589c.0354.2993.0361.592-.0013.8912l.0751-.5589c-.0258.1587-.0583.315-.1071.4684-.0248.078-.1237.3187.0166-.0121.1479-.3488.0179-.053-.0249.0254-.0522.0956-.3504.5164-.1167.2129.2353-.3056-.1038.096-.1788.1666-.0208.0196-.1533.1123-.1535.136.0003-.0318.4268-.3011.1804-.1428-.1299.0835-.2585.165-.3967.2344-.3493.1752.1263-.0917.1743-.069-.0246-.0116-.1635.0556-.1937.0646-.1637.0489-.33.0806-.4989.1038l.5589-.0751c-.2701.0275-.5301.0195-.7996-.0142l.5589.0751c-.3726-.0604-.718-.1725-1.0717-.2996-.2461-.0884.421.1949.0784.0295-.0732-.0353-.1471-.0689-.22-.1049-.1517-.0749-.3014-.1539-.4461-.2416-.0637-.0386-.1244-.085-.189-.1216-.2057-.1167.3232.2942.16.125-.0634-.0657-.1351-.1282-.2002-.1924-.2259-.2225.1407.1556.1231.1637-.0078.0036-.1015-.1717-.1106-.1869-.1595-.2661.1113.1894.0836.2073-.0043.0028-.1197-.4858-.1256-.523l.0751.5589c-.056-.449-.0315-.8939.0259-1.3414l-.0751.5589c.0685-.4843.1442-.9833.287-1.452.0159-.0548.0339-.109.0539-.1624.0561-.1532.0222-.0727-.1016.2415.0337-.0675.0714-.1326.113-.1955l-.1992.2567c.2318-.2845-.415.2494-.1151.0752.1912-.1001.1147-.0696-.2295.0917.0623-.0188.1259-.0316.1906-.0386l-.5589.0751c.0637-.0068.1275-.0069.1912-.0001l-.5589-.0751c.2075.043.1321-.0005-.2262-.1305.5394.2333,1.0284.3749,1.6201.2119.4877-.1343,1.0162-.5114,1.2565-.9662.2578-.4879.387-1.0791.2119-1.6201-.1568-.4844-.4769-1.0449-.9662-1.2565h0Z"/>
</svg>