<?xml version="1.0" encoding="UTF-8"?>
<svg id="Layer_1" data-name="Layer 1" xmlns="http://www.w3.org/2000/svg" xmlns:xlink="http://www.w3.org/1999/xlink" viewBox="0 0 104.7956 100.8082">
  <defs>
    <style>
      .cls-1 {
        fill: none;
      }

      .cls-2 {
        fill: blue;
      }

      .cls-3 {
        fill: #3fa9f5;
      }

      .cls-4 {
        fill: #fff;
      }

      .cls-5 {
        fill: url(#New_Pattern);
      }

      .cls-6 {
        fill: #fbb03b;
      }
    </style>
    <pattern id="New_Pattern" data-name="New Pattern" x="0" y="0" width="10" height="10" patternTransform="translate(-698.4072 -355.4334)" patternUnits="userSpaceOnUse" viewBox="0 0 10 10">
      <g>
        <rect class="cls-1" width="10" height="10"/>
        <rect class="cls-4" width="10" height="10"/>
        <circle class="cls-2" cx="5.0001" cy="4.9999" r="2.053"/>
      </g>
    </pattern>
  </defs>
  <path class="cls-6" d="M25.2848,29.7053c-4.7895,4.4838-5.8094,10.4301-6.6641,16.5949-1.0411,7.5093-1.5896,14.7225-.3405,22.2511,2.3453,14.1357,12.5189,23.7747,25.3585,28.9924,13.0025,5.2839,28.983,4.0263,37.0506-8.8249,6.5354-10.4104,6.5952-26.6456,3.2681-38.1579-1.8033-6.2397-5.1817-11.9946-10.2424-16.1141-6.0144-4.8959-13.169-6.2835-20.7706-6.3776-13.8481-.1714-27.7275,4.0084-33.8463,17.5408-5.4282,12.0052-7.2078,30.2517,4.8893,38.7827,5.4999,3.8785,12.8172,5.7988,19.2517,7.5206,8.2418,2.2055,17.1828,2.6809,22.4063-5.4686,8.373-13.0632,8.2301-34.7515-6.3528-43.4064-8.8369-5.2447-19.9523-2.8971-24.7722,6.3795-4.1472,7.9818-2.8565,17.5606,1.2157,25.2464,7.108,13.4156,27.4709,1.5134,20.3627-11.9025-.1832-.3458-.3989-2.825-.5091-2.9908,1.9588,2.948-8.4112,4.5651-8.3942,3.5637.0039-.2306.2375-.9709.1588.3703-.0522.8901.4366,2.5911.1167,4.395-.208,1.1727-.6011,2.3491-.9594,3.4828-.2753.8617-.5732,1.7153-.8938,2.561-.5758,1.5125-.3953,1.1373.5415-1.1258l5.2031-3.0324c2.4683.2706,2.4664.1603-.0059-.3309-1.2347-.3117-2.4644-.6417-3.6892-.9901-1.837-.5226-3.6625-1.0864-5.4742-1.6907-1.2058-.4022-2.4841-.8988-3.6942-1.2763-3.7086-1.1571.1533-.4737.0848.2851.385-4.2659.0942-10.6048,3.7966-13.0067,2.8909-1.8755,10.4895-1.9012,14.1699-1.2083,4.726.8897,5.3904,6.6493,5.5983,11.7114.0966,2.3523.1275,6.7184-.0342,7.9445-.3603,2.7303-.7391,4.7776-2.0602,5.5317-2.3394,1.3353-8.5063-1.3112-11.6186-3.1179-4.6915-2.7234-6.8231-6.3316-7.3172-11.5435-.3497-3.6887.005-7.5884.4619-11.2513.1341-1.0754.2949-2.1628.48-3.23.1227-.8361.2849-1.6645.4866-2.4852-.23.3319-.4255.683-.5867,1.0534,11.1028-10.3942-5.5989-27.0448-16.6753-16.6753h0Z"/>
  <g>
    <path class="cls-5" d="M31.4944,45.149c2.7939-12.9573-1.2359-27.1896-10.4081-36.7587,2.407-1.1464,5.2596-.2477,7.6979.8305,10.545,4.6627,19.6061,12.6177,25.5946,22.4704.9265-9.9383,1.2918-19.9288,1.0934-29.9082,9.0971,5.9247,14.9863,16.4941,15.2377,27.3475,4.7245-4.8087,9.4491-9.6174,14.1736-14.426,4.5202,14.9717-.0037,32.3016-11.265,43.1536-.5168.498-1.0686.9966-1.7504,1.221-.8685.2858-1.8136.0865-2.7039-.1216-12.9843-3.0349-25.6232-7.5454-37.5952-13.4168"/>
    <path class="cls-3" d="M32.8248,45.5158c2.8468-13.5393-1.2353-28.0586-10.7629-38.1011l-.2792,2.1669c3.1326-1.3415,7.1764,1.1338,9.8802,2.5667,2.9362,1.556,5.7522,3.3693,8.3613,5.4286,5.2237,4.1228,9.6871,9.1375,13.1633,14.8106.7553,1.2327,2.449.6255,2.571-.6963.9176-9.9421,1.2826-19.9256,1.0934-29.9082l-2.076,1.1913c8.7066,5.7464,14.2493,15.7343,14.5544,26.1562.0343,1.1723,1.4969,1.8492,2.3552.9756,4.7245-4.8087,9.4491-9.6174,14.1736-14.426l-2.306-.6088c2.9972,10.1013,1.8988,21.2243-2.7883,30.6457-1.1391,2.2898-2.4789,4.4816-4.0107,6.53-.714.9548-1.4812,1.8709-2.2831,2.753-.7909.87-1.8349,2.3302-2.9697,2.7487-1.293.4768-3.4064-.4588-4.6828-.7784-1.6545-.4142-3.3028-.8529-4.9445-1.3151-3.1341-.8824-6.2441-1.8511-9.3247-2.9055-6.932-2.3727-13.7017-5.183-20.2839-8.4003-1.5893-.7768-2.9896,1.6021-1.3927,2.3826,6.3058,3.0822,12.7851,5.8111,19.4052,8.1443,3.2903,1.1596,6.6147,2.2222,9.9677,3.1853,1.6393.4709,3.2853.918,4.9375,1.3412,1.7225.4412,3.5605,1.0762,5.3412,1.1805,2.9037.1701,4.9264-2.4778,6.6419-4.4738,1.8649-2.1698,3.5239-4.5222,4.9289-7.0146,2.7567-4.8902,4.6027-10.3066,5.4042-15.8619.9116-6.3189.5334-12.7653-1.2855-18.8951-.2917-.9829-1.5654-1.3625-2.306-.6088-4.7245,4.8087-9.4491,9.6174-14.1736,14.426l2.3552.9756c-.3346-11.4287-6.3831-22.2438-15.921-28.5388-.8759-.5781-2.0951.1824-2.076,1.1913.1892,9.9826-.1758,19.9661-1.0934,29.9082l2.571-.6963c-3.8749-6.3238-8.9067-11.8395-14.8173-16.3146-2.9573-2.2391-6.1317-4.1949-9.4692-5.8145-3.4282-1.6636-7.1492-3.2703-10.8937-1.6667-.8514.3646-.8248,1.5918-.2792,2.1669,8.8231,9.3,12.6926,22.8638,10.0533,35.4164-.3643,1.7324,2.295,2.4731,2.6608.7335h0Z"/>
  </g>
</svg>