<?xml version="1.0" encoding="UTF-8"?>
<svg id="Layer_1" data-name="Layer 1" xmlns="http://www.w3.org/2000/svg" xmlns:xlink="http://www.w3.org/1999/xlink" viewBox="0 0 173.7045 83.7217">
  <defs>
    <style>
      .cls-1 {
        fill: none;
      }

      .cls-2 {
        fill: blue;
      }

      .cls-3 {
        fill: #3fa9f5;
      }

      .cls-4 {
        fill: #fff;
      }

      .cls-5 {
        fill: url(#New_Pattern);
      }
    </style>
    <pattern id="New_Pattern" data-name="New Pattern" x="0" y="0" width="10" height="10" patternTransform="translate(-468.3315 -1406.999)" patternUnits="userSpaceOnUse" viewBox="0 0 10 10">
      <g>
        <rect class="cls-1" width="10" height="10"/>
        <rect class="cls-4" width="10" height="10"/>
        <circle class="cls-2" cx="5.0001" cy="4.9999" r="2.053"/>
      </g>
    </pattern>
  </defs>
  <g>
    <path class="cls-5" d="M57.3819,23.3989c-9.5785-2.8753-20.4058-1.2552-28.7232,4.298-8.3173,5.5532-13.9643,14.9323-14.9804,24.8813-.4658,4.5604.3054,9.7852,3.9921,12.5095,1.9553,1.4449,4.4342,1.9521,6.8397,2.305,11.7194,1.7196,24.1493.5425,34.5277-5.1664,10.3784-5.7089,18.3579-16.379,19.0791-28.2019.1705-2.7955-.154-5.8568-2.0719-7.8977-1.7989-1.9143-4.5721-2.4918-7.1695-2.8849-3.5521-.5376-7.1286-.9143-10.7148-1.1285"/>
    <path class="cls-3" d="M57.8525,21.6916c-12.1349-3.5596-25.7709-.4063-34.934,8.3584-4.3854,4.1947-7.6774,9.526-9.5283,15.3008-1.7009,5.3068-2.5329,11.6402-.1695,16.8764,2.8283,6.2661,9.9026,6.9904,15.9798,7.4633,6.5574.5103,13.2422.0685,19.6233-1.568,11.7946-3.0247,22.487-10.6471,27.808-21.7951,1.3974-2.9278,2.4264-6.028,2.9165-9.2392.5035-3.2991.7169-6.8812-.7388-9.9837-1.5298-3.2604-4.7873-4.7246-8.1555-5.3521-4.1098-.7656-8.3247-1.152-12.4934-1.4097-2.2758-.1407-2.2675,3.4008,0,3.541,3.427.2118,6.8494.5454,10.2441,1.0653,2.3991.3674,5.325.8017,6.8099,2.9599,1.4747,2.1434,1.2871,5.1457,1.0024,7.6025-.2869,2.4755-.9585,4.9218-1.8636,7.2399-3.8995,9.9875-12.8061,17.4362-22.7999,20.8593-5.6028,1.9191-11.4991,2.7529-17.4111,2.7386-2.9196-.0071-5.8453-.2045-8.7379-.6028-2.6447-.3642-5.5832-.8213-7.5265-2.8243-3.4402-3.546-2.8203-9.6592-1.7919-14.0393,1.1883-5.0608,3.5837-9.8591,6.9624-13.8162,8.2492-9.6613,21.6936-13.5301,33.8625-9.9605,2.191.6427,3.1268-2.7734.9413-3.4145h0Z"/>
  </g>
  <g>
    <path class="cls-5" d="M109.6774,24.9968c-2.7368,12.7793.8035,26.7508,9.2958,36.6847,8.4923,9.9339,21.7432,15.604,34.7927,14.8879,1.6163-.0887,3.27-.2816,4.7103-1.0206,2.7267-1.399,4.1941-4.5654,4.3427-7.6264s-.8096-6.0604-1.8661-8.9371c-3.428-9.3339-8.0223-18.2388-13.6422-26.4418-3.0597-4.466-6.4987-8.7972-10.981-11.8329-4.0793-2.7628-8.9438-4.352-13.8674-4.5306-5.8192-.211-12.8196,2.9158-13.0461,8.7344"/>
    <path class="cls-3" d="M107.9701,24.5261c-2.5285,12.0975.0852,25.1576,7.282,35.2436,7.0573,9.8905,18.2092,16.5141,30.2289,18.1872,5.6659.7887,13.4053,1.5107,17.1078-3.8066,4.0412-5.8038,1.122-13.1713-1.2265-19.0105-2.588-6.4347-5.6876-12.6549-9.3226-18.5631-3.4482-5.6046-7.2732-11.3808-12.4105-15.5878-5.464-4.4745-12.9477-7.3611-20.0838-6.4178-5.6096.7415-11.5246,4.136-11.8998,10.3432-.1376,2.2761,3.4039,2.268,3.541,0,.2626-4.3435,5.2735-6.4628,9.0127-6.8836,5.5601-.6257,11.4792,1.4591,15.9358,4.6985,4.757,3.4577,8.2439,8.4623,11.4001,13.3412,3.4369,5.3129,6.4524,10.8983,9.0102,16.6859,1.22,2.7604,2.3603,5.5755,3.3142,8.4398.9261,2.7808,1.6779,5.8156.8463,8.7143-.7429,2.5893-2.5317,4.2827-5.2071,4.7247-2.5926.4284-5.3884.281-7.9919.0258-10.7174-1.0505-20.9632-6.5183-27.7905-14.8382-7.7268-9.4161-10.8178-22.4612-8.3319-34.3552.4647-2.2235-2.9478-3.1741-3.4145-.9413h0Z"/>
  </g>
</svg>